<?xml version="1.0" standalone="no"?>
<!DOCTYPE svg PUBLIC "-//W3C//DTD SVG 1.1//EN" "http://www.w3.org/Graphics/SVG/1.1/DTD/svg11.dtd" >
<svg>
<metadata>
Created by FontForge 20090914 at Fri Jul 16 10:55:49 2021
 By www-data
Copyright 2011 Schwartzco Inc dba Commercial Type.
</metadata>
<defs>
<font id="NeueHaasDisplay-Roman" horiz-adv-x="500" >
  <font-face 
    font-family="Neue Haas Grotesk Display Pro"
    font-weight="500"
    font-stretch="normal"
    units-per-em="1000"
    panose-1="2 13 5 4 3 5 2 5 2 3"
    ascent="818"
    descent="-182"
    x-height="517"
    cap-height="715"
    bbox="-178 -228.002 1129 916"
    underline-thickness="50"
    underline-position="-250"
    unicode-range="U+0020-U+FB04"
  />
<missing-glyph 
 />
    <glyph glyph-name="f_f" unicode="ff" horiz-adv-x="540" 
d="M22 451l-0.000976562 66h71v77c0 42.667 11.667 73.5 35 92.5s57.333 28.5 102 28.5c11.333 0 24.333 -0.666992 39 -2v-69c-8 0.666992 -16.333 1 -25 1c-26 0 -44.167 -4 -54.5 -12s-15.5 -22.333 -15.5 -43v-73h165v83c0 42.667 11.667 73.5 35 92.5
s57.333 28.5 102 28.5c12.667 0 26.334 -0.666992 41.001 -2v-69c-9.33301 0.666992 -18 1 -26 1c-26 0 -44.333 -4 -55 -12s-16 -22.333 -16 -43v-79h96v-66h-96v-451h-81v451h-165v-451h-81v451h-71z" />
    <glyph glyph-name="fi" unicode="fi" horiz-adv-x="475" 
d="M22 451l-0.000976562 66h71v83c0 42.667 11.667 73.5 35 92.5s57.333 28.5 102 28.5c12.667 0 26.334 -0.666992 41.001 -2v-69c-9.33301 0.666992 -18 1 -26 1c-26 0 -44.333 -4 -55 -12s-16 -22.333 -16 -43v-79h96v-66h-96v-451h-81v451h-71zM338.999 0v517h81v-517
h-81zM338.999 615v100h81v-100h-81z" />
    <glyph glyph-name="fl" unicode="fl" horiz-adv-x="481" 
d="M342 0v715h81v-715h-81zM22 451l-0.000976562 66h71v83c0 42.667 11.667 73.5 35 92.5s57.333 28.5 102 28.5c12.667 0 26.334 -0.666992 41.001 -2v-69c-9.33301 0.666992 -18 1 -26 1c-26 0 -44.333 -4 -55 -12s-16 -22.333 -16 -43v-79h96v-66h-96v-451h-81v451h-71z
" />
    <glyph glyph-name="f_f_i" unicode="ffi" horiz-adv-x="721" 
d="M585 0v517h81v-517h-81zM585 615v100h81v-100h-81zM22 451l-0.000976562 66h71v77c0 42.667 11.667 73.5 35 92.5s57.333 28.5 102 28.5c11.333 0 24.333 -0.666992 39 -2v-69c-8 0.666992 -16.333 1 -25 1c-26 0 -44.167 -4 -54.5 -12s-15.5 -22.333 -15.5 -43v-73h165
v83c0 42.667 11.667 73.5 35 92.5s57.333 28.5 102 28.5c12.667 0 26.334 -0.666992 41.001 -2v-69c-9.33301 0.666992 -18 1 -26 1c-26 0 -44.333 -4 -55 -12s-16 -22.333 -16 -43v-79h96v-66h-96v-451h-81v451h-165v-451h-81v451h-71z" />
    <glyph glyph-name="f_f_l" unicode="ffl" horiz-adv-x="727" 
d="M588 0v715h81v-715h-81zM22 451l-0.000976562 66h71v77c0 42.667 11.667 73.5 35 92.5s57.333 28.5 102 28.5c11.333 0 24.333 -0.666992 39 -2v-69c-8 0.666992 -16.333 1 -25 1c-26 0 -44.167 -4 -54.5 -12s-15.5 -22.333 -15.5 -43v-73h165v83
c0 42.667 11.667 73.5 35 92.5s57.333 28.5 102 28.5c12.667 0 26.334 -0.666992 41.001 -2v-69c-9.33301 0.666992 -18 1 -26 1c-26 0 -44.333 -4 -55 -12s-16 -22.333 -16 -43v-79h96v-66h-96v-451h-81v451h-165v-451h-81v451h-71z" />
    <glyph glyph-name=".notdef" 
 />
    <glyph glyph-name="space" unicode=" " horiz-adv-x="159" 
 />
    <glyph glyph-name="exclam" unicode="!" horiz-adv-x="235" 
d="M95 173l-22 313v229h89v-229l-22 -313h-45zM69 0v99h97v-99h-97z" />
    <glyph glyph-name="quotedbl" unicode="&#x22;" horiz-adv-x="297" 
d="M181 501v214h74v-214h-74zM42 501v214h74v-214h-74z" />
    <glyph glyph-name="numbersign" unicode="#" horiz-adv-x="579" 
d="M63 424l11 72h101l26 190h68l-26 -190h136l26 190h68l-26 -190h101l-11 -72h-100l-22 -154h100l-11 -72h-99l-27 -198h-68l27 198h-136l-27 -198h-68l27 198h-102l11 72h101l22 154h-102zM233 424l-22 -154h136l22 154h-136z" />
    <glyph glyph-name="dollar" unicode="$" horiz-adv-x="579" 
d="M263 -85l-0.00488281 84.999c-80.667 5.33301 -141.167 29.5 -181.5 72.5s-62.166 95.833 -65.499 158.5h84c4.66699 -49.333 19.834 -87.666 45.501 -114.999s64.834 -43.333 117.501 -48v259c-35.333 8 -64.166 15.833 -86.499 23.5s-44.333 18.5 -66 32.5
s-37.5 31.833 -47.5 53.5s-15 47.834 -15 78.501c0 55.333 19.667 99.5 59 132.5s91.333 51.167 156 54.5v55h56v-55c126.667 -9.33301 198 -70.333 214 -183h-81c-9.33301 68 -53.666 106.667 -132.999 116v-241c37.333 -7.33301 68 -15 92 -23s47.5 -19 70.5 -33
s40 -32.5 51 -55.5s16.5 -50.833 16.5 -83.5c0 -58.667 -21.5 -105.834 -64.5 -141.501s-98.167 -55.167 -165.5 -58.5v-84h-56zM466.995 195.999c0 34.667 -11.333 60 -34 76s-60.667 30 -114 42v-247c42 3.33301 77.167 16.5 105.5 39.5s42.5 52.833 42.5 89.5z
M126.995 518.999c0 -31.333 10.667 -55.501 32 -72.501s56 -30.833 104 -41.5v231c-41.333 -3.33301 -74.333 -15.166 -99 -35.499s-37 -47.5 -37 -81.5z" />
    <glyph glyph-name="percent" unicode="%" horiz-adv-x="813" 
d="M186 305c-48 0 -87.001 18.001 -117.001 54.001s-45 84 -45 144s15.333 108 46 144s69.334 54 116.001 54s85 -17.833 115 -53.5s45 -83.834 45 -144.501c0 -60 -14.667 -108 -44 -144s-68 -54 -116 -54zM628.999 -14.999c-48 0 -87.001 18.001 -117.001 54.001
s-45 84 -45 144s15.333 108 46 144s69.334 54 116.001 54s85 -17.833 115 -53.5s45 -83.834 45 -144.501c0 -60 -14.667 -108 -44 -144s-68 -54 -116 -54zM175.998 0.00195312l393 685h68l-393 -685h-68zM185.998 365.002c27.333 0 48.5 12.668 63.5 38.001
s22.5 58.666 22.5 99.999c0 40 -7.66699 73 -23 99s-36.333 39 -63 39c-27.333 0 -48.5 -12.667 -63.5 -38s-22.5 -58.666 -22.5 -99.999c0 -40.667 7.5 -73.834 22.5 -99.501s36.167 -38.5 63.5 -38.5zM628.998 45.0029c27.333 0 48.5 12.668 63.5 38.001
s22.5 58.666 22.5 99.999c0 40 -7.66699 73 -23 99s-36.333 39 -63 39c-27.333 0 -48.5 -12.667 -63.5 -38s-22.5 -58.666 -22.5 -99.999c0 -40.667 7.5 -73.834 22.5 -99.501s36.167 -38.5 63.5 -38.5z" />
    <glyph glyph-name="ampersand" unicode="&#x26;" horiz-adv-x="587" 
d="M244 -14c-54.667 0 -102.5 17.8311 -143.5 53.498s-61.5 81.5 -61.5 137.5c0 48.667 12.833 88.667 38.5 120s64.5 63 116.5 95l-20 26c-36.667 47.333 -55 96.333 -55 147c0 40.667 14.833 74.667 44.5 102s66.167 41 109.5 41c42.667 0 79.167 -13 109.5 -39
s45.5 -62.667 45.5 -110c0 -39.333 -11.333 -72.166 -34 -98.499s-55 -53.166 -97 -80.499l142 -181c16 41.333 24 85.333 24 132h70c0 -70.667 -15.333 -135 -46 -193l108 -138h-97l-56 72c-52.667 -57.333 -118.667 -86 -198 -86zM249 56.998
c58.667 0 108.333 24.001 149 72.001l-164 211c-38 -25.333 -66.5 -49.833 -85.5 -73.5s-28.5 -53.5 -28.5 -89.5c0 -34.667 12.5 -63.334 37.5 -86.001s55.5 -34 91.5 -34zM194.999 563.999c0 -34.667 14.666 -71 43.999 -109l19 -25c32 20.667 55.333 41 70 61
s22 43.333 22 70c0 24.667 -7 44.167 -21 58.5s-32.667 21.5 -56 21.5s-42.166 -7.16699 -56.499 -21.5s-21.5 -32.833 -21.5 -55.5z" />
    <glyph glyph-name="quotesingle" unicode="'" horiz-adv-x="158" 
d="M42 501v214h74v-214h-74z" />
    <glyph glyph-name="parenleft" unicode="(" horiz-adv-x="304" 
d="M217 -118c-46 70.667 -81.833 142.001 -107.5 214.001s-38.5 151.667 -38.5 239c0 143.333 48.667 283 146 419h66c-78 -132.667 -117 -272.334 -117 -419.001c0 -158.667 39 -309.667 117 -453h-66z" />
    <glyph glyph-name="parenright" unicode=")" horiz-adv-x="304" 
d="M22 -118c78 143.333 117 294.332 117 452.999c0 146.667 -39 286.334 -117 419.001h66c97.333 -136 146 -275.667 146 -419c0 -87.333 -12.833 -167 -38.5 -239s-61.5 -143.333 -107.5 -214h-66z" />
    <glyph glyph-name="asterisk" unicode="*" horiz-adv-x="368" 
d="M122 441l-43 30l60 87l-95 33l18 46l95 -31v109h54v-109l95 31l18 -46l-95 -33l60 -87l-43 -30l-62 92z" />
    <glyph glyph-name="plus" unicode="+" horiz-adv-x="560" 
d="M53 294v64h194v200h66v-200h194v-64h-194v-200h-66v200h-194z" />
    <glyph glyph-name="comma" unicode="," horiz-adv-x="185" 
d="M45 -128l-0.000976562 44.999c30 10.667 45 38.334 45 83.001h-46v99h97v-102c0 -35.333 -8.66699 -63.5 -26 -84.5s-40.666 -34.5 -69.999 -40.5z" />
    <glyph glyph-name="hyphen" unicode="-" horiz-adv-x="344" 
d="M38 239v74h268v-74h-268z" />
    <glyph glyph-name="period" unicode="." horiz-adv-x="185" 
d="M44 0v99h97v-99h-97z" />
    <glyph glyph-name="slash" unicode="/" horiz-adv-x="400" 
d="M16 0l284 715h84l-284 -715h-84z" />
    <glyph glyph-name="zero" unicode="0" horiz-adv-x="620" 
d="M310 -15c-83.333 0 -148.499 32.167 -195.499 96.5s-70.5 151.5 -70.5 261.5c0 110.667 24.167 198 72.5 262s113.166 96 194.499 96s145.833 -31.833 193.5 -95.5s71.5 -151.167 71.5 -262.5c0 -110.667 -23.167 -198 -69.5 -262s-111.833 -96 -196.5 -96zM311.001 58
c59.333 0 103.833 24.8311 133.5 74.498s44.5 119.834 44.5 210.501c0 89.333 -15.167 159.333 -45.5 210s-74.5 76 -132.5 76c-59.333 0 -104.166 -25 -134.499 -75s-45.5 -120.333 -45.5 -211c0 -89.333 15.167 -159.166 45.5 -209.499s75.166 -75.5 134.499 -75.5z" />
    <glyph glyph-name="one" unicode="1" horiz-adv-x="346" 
d="M184 0l0.000976562 498.999h-150v56c101.333 2.66699 157.666 47.334 168.999 134.001h65v-689h-84z" />
    <glyph glyph-name="two" unicode="2" horiz-adv-x="556" 
d="M31 0c2 42 9.16699 78.998 21.5 110.998s33.333 61.333 63 88s53 45.834 70 57.501s46.833 29.834 89.5 54.501c1.33301 1.33301 2.33301 2.16602 3 2.49902l3 1.5c1.33301 0.666992 2.5 1.33398 3.5 2.00098s2.16699 1.33398 3.5 2.00098
c52.667 30.667 90 57.167 112 79.5s33 52.5 33 90.5c0 42 -13.5 76 -40.5 102s-63.167 39 -108.5 39c-46 0 -82.333 -14.333 -109 -43c-26 -28 -39 -73.667 -39 -137h-88c0 80.667 21.667 142.667 65 186c43.333 42.667 102.666 64 177.999 64c68.667 0 124 -19.667 166 -59
s63 -89.666 63 -150.999c0 -24.667 -3.66699 -47.334 -11 -68.001s-15 -37.334 -23 -50.001s-22.667 -27.167 -44 -43.5s-37.166 -27.5 -47.499 -33.5l-60.5 -34l-14 -8c-32 -18 -58.5 -33.667 -79.5 -47s-42.833 -31.833 -65.5 -55.5s-37 -47.167 -43 -70.5h374v-80h-475z
" />
    <glyph glyph-name="three" unicode="3" horiz-adv-x="569" 
d="M291 -15c-78 0 -142.667 21.334 -194 64.001s-77.666 101.667 -78.999 177h83c1.33301 -54.667 18.5 -96.834 51.5 -126.501s78.167 -44.5 135.5 -44.5c49.333 0 88.666 12.167 117.999 36.5s44 60.166 44 107.499c0 43.333 -15.5 76.333 -46.5 99s-75.5 34 -133.5 34
h-43v65h42c52.667 0 92.667 10.333 120 31s41 49.667 41 87c0 36.667 -14.167 65.834 -42.5 87.501s-63.833 32.5 -106.5 32.5c-48.667 0 -87.167 -14.5 -115.5 -43.5s-42.5 -67.5 -42.5 -115.5h-82c0.666992 68 22.667 122.5 66 163.5s102.333 61.5 177 61.5
c65.333 0 119.666 -16.833 162.999 -50.5s65 -79.5 65 -137.5c0 -70.667 -37.667 -118.667 -113 -144v-3c92 -24 138 -82.333 138 -175c0 -64 -23.167 -114.333 -69.5 -151s-105.166 -55 -176.499 -55z" />
    <glyph glyph-name="four" unicode="4" horiz-adv-x="566" 
d="M349 0v168h-323v75l339 449h66v-457h113v-67h-113v-168h-82zM107 238v-3h242v321h-2z" />
    <glyph glyph-name="five" unicode="5" horiz-adv-x="553" 
d="M275 -15c-71.333 0 -130.5 19.668 -177.5 59.001s-71.833 90.666 -74.5 153.999h83c5.33301 -43.333 22.666 -77.333 51.999 -102s68 -37 116 -37c48.667 0 87.667 15.167 117 45.5s44 70.5 44 120.5s-15.167 89.667 -45.5 119s-68.833 44 -115.5 44
c-69.333 0 -120.666 -23.667 -153.999 -71h-81l76 368h365v-75h-306l-45 -206h2c40.667 38.667 93 58 157 58s118.833 -21.667 164.5 -65s68.5 -101.333 68.5 -174c0 -72 -23 -129.667 -69 -173s-105 -65 -177 -65z" />
    <glyph glyph-name="six" unicode="6" horiz-adv-x="581" 
d="M312 -15c-70 0 -127.003 20.333 -171.003 61c-35.333 32 -60.333 71.833 -75 119.5s-22 108.167 -22 181.5c0 108.667 22.833 194.834 68.5 258.501s111.167 95.5 196.5 95.5c64.667 0 115.334 -18.167 152.001 -54.5s58 -81.5 64 -135.5h-83
c-3.33301 34 -16.5 62.333 -39.5 85s-53.5 34 -91.5 34c-64 0 -110.5 -23.833 -139.5 -71.5s-44.167 -115.834 -45.5 -204.501h2c46 63.333 108.667 95 188 95c62.667 0 115.834 -22.5 159.501 -67.5s65.834 -99.167 66.501 -162.5c0.666992 -64 -21.5 -119 -66.5 -165
s-99.5 -69 -163.5 -69zM309.997 53c44.667 0 81.5 15.167 110.5 45.5s43.5 69.5 43.5 117.5s-15 87.333 -45 118s-67.333 46 -112 46c-49.333 0 -89.333 -15 -120 -45s-46 -69.333 -46 -118c0 -48 16 -87.333 48 -118s72.333 -46 121 -46z" />
    <glyph glyph-name="seven" unicode="7" horiz-adv-x="513" 
d="M120 0c7.33301 118 38.666 233 93.999 345s122 199.667 200 263v2h-391v75h479v-69c-77.333 -68 -143.666 -155.833 -198.999 -263.5s-86.333 -225.167 -93 -352.5h-90z" />
    <glyph glyph-name="eight" unicode="8" horiz-adv-x="584" 
d="M295 -15c-33.333 0 -64.833 3.83301 -94.5 11.5s-57.334 19.5 -83.001 35.5s-46.167 38 -61.5 66s-23 60.667 -23 98c0 88 47 147.333 141 178v3c-32.667 12.667 -58.667 31.5 -78 56.5s-29 54.833 -29 89.5c0 53.333 21.5 96.5 64.5 129.5s96.5 49.5 160.5 49.5
c64.667 0 118.334 -16.333 161.001 -49s64 -76 64 -130c0 -70 -35 -118.667 -105 -146v-3c40.667 -12 74 -33.5 100 -64.5s39 -68.833 39 -113.5c0 -72 -24.833 -125.167 -74.5 -159.5s-110.167 -51.5 -181.5 -51.5zM295 55c53.333 0 95.333 12.501 126 37.501
s46 59.5 46 103.5c0 45.333 -15.5 81 -46.5 107s-73.833 39 -128.5 39c-54 0 -96.333 -13 -127 -39s-46 -61.667 -46 -107c0 -44.667 15.5 -79.334 46.5 -104.001s74.167 -37 129.5 -37zM292 408.001c44 0 78.833 10 104.5 30s38.5 47.333 38.5 82s-12.833 62 -38.5 82
s-60.5 30 -104.5 30s-78.833 -10 -104.5 -30s-38.5 -47.333 -38.5 -82s12.833 -62 38.5 -82s60.5 -30 104.5 -30z" />
    <glyph glyph-name="nine" unicode="9" horiz-adv-x="581" 
d="M284 -15c-68 0 -123.833 18.499 -167.5 55.499s-66.834 85.5 -69.501 145.5h85c3.33301 -38.667 18 -70 44 -94s61.333 -36 106 -36c50.667 0 89.334 15 116.001 45c36.667 39.333 57 113.666 61 222.999h-2c-46.667 -58 -109.667 -87 -189 -87
c-62.667 0 -116.167 22.5 -160.5 67.5s-66.833 99.167 -67.5 162.5c-0.666992 64.667 22 119.834 68 165.501s103.333 68.5 172 68.5c61.333 0 114 -17 158 -51c38 -29.333 64.667 -68.666 80 -117.999s23 -113.666 23 -192.999c0 -142.667 -32 -242.334 -96 -299.001
c-42 -36.667 -95.667 -55 -161 -55zM279 305.999c51.333 0 92.167 15.167 122.5 45.5s45.5 69.833 45.5 118.5c0 48 -16.167 87.167 -48.5 117.5s-71.833 45.5 -118.5 45.5c-48 0 -87 -15.167 -117 -45.5s-45 -69.5 -45 -117.5s15.5 -87.333 46.5 -118s69.167 -46 114.5 -46
z" />
    <glyph glyph-name="colon" unicode=":" horiz-adv-x="191" 
d="M47 303v99h97v-99h-97zM47 0v99h97v-99h-97z" />
    <glyph glyph-name="semicolon" unicode=";" horiz-adv-x="191" 
d="M48 -128l-0.000976562 44.999c30 10.667 45 38.334 45 83.001h-46v99h97v-102c0 -35.333 -8.66699 -63.5 -26 -84.5s-40.666 -34.5 -69.999 -40.5zM46.999 302.999v99h97v-99h-97z" />
    <glyph glyph-name="less" unicode="&#x3c;" horiz-adv-x="511" 
d="M457 97l-407 173v83l407 173v-73l-343 -139v-2l343 -141v-74z" />
    <glyph glyph-name="equal" unicode="=" horiz-adv-x="560" 
d="M53 369v64h454v-64h-454zM53 194v64h454v-64h-454z" />
    <glyph glyph-name="greater" unicode="&#x3e;" horiz-adv-x="511" 
d="M54 97v73l343 139v2l-343 141v74l407 -173v-83z" />
    <glyph glyph-name="question" unicode="?" horiz-adv-x="504" 
d="M200 173c0.666992 54 8.50195 96.8311 23.502 128.498s42.167 64.834 81.5 99.501l43 39.5c8 7.66699 16.667 20.5 26 38.5s14 37 14 57c0 34 -12 62.5 -36 85.5s-57 34.5 -99 34.5c-50 0 -87.833 -15.167 -113.5 -45.5s-39.167 -72.166 -40.5 -125.499h-82
c1.33301 72.667 21.666 131.334 60.999 176.001s98.666 67 177.999 67c68 0 121.333 -18.167 160 -54.5s58 -81.833 58 -136.5c0 -37.333 -8.16699 -68.666 -24.5 -93.999s-38.833 -50 -67.5 -74c-44 -36.667 -72.5 -66.334 -85.5 -89.001s-19.833 -58.334 -20.5 -107.001
h-76zM189.002 -0.00195312v99h97v-99h-97z" />
    <glyph glyph-name="at" unicode="@" horiz-adv-x="880" 
d="M404 79c-52.667 0 -94.335 17.499 -125.002 52.499s-46 80.833 -46 137.5c0 76 19.333 137 58 183s87.667 69 147 69c57.333 0 98.333 -23.667 123 -71h2l8 61h78l-34 -278c-7.33301 -55.333 11 -83 55 -83c29.333 0 54.666 16.667 75.999 50s32 82.333 32 147
c0 98.667 -30 173.834 -90 225.501s-137.333 77.5 -232 77.5c-97.333 0 -180.333 -33.333 -249 -100s-103 -155.334 -103 -266.001c0 -97.333 29.5 -176.333 88.5 -237s140.833 -91 245.5 -91c63.333 0 125.333 11.667 186 35l23 -55c-62 -27.333 -130 -41 -204 -41
c-121.333 0 -220 35.833 -296 107.5s-114 165.834 -114 282.501c0 66 12.167 126.667 36.5 182s56.5 100.5 96.5 135.5s85.333 62.167 136 81.5s103 29 157 29c50 0 97.833 -7.83301 143.5 -23.5s86.834 -38.167 123.501 -67.5s66 -67.5 88 -114.5s33 -99.167 33 -156.5
c0 -79.333 -15.5 -143.333 -46.5 -192s-76.167 -73 -135.5 -73s-97.666 24 -114.999 72h-2c-16 -24 -36.667 -43.167 -62 -57.5s-52.666 -21.5 -81.999 -21.5zM411.999 140.999c44.667 0 78.5 17.6689 101.5 53.002s34.5 81.333 34.5 138c0 39.333 -9 70.166 -27 92.499
s-45 33.5 -81 33.5c-42 0 -73.5 -17.5 -94.5 -52.5s-31.5 -80.167 -31.5 -135.5c0 -38.667 8.16699 -69.834 24.5 -93.501s40.833 -35.5 73.5 -35.5z" />
    <glyph glyph-name="A" unicode="A" horiz-adv-x="648" 
d="M10 0l263 715h101l264 -715h-98l-76 218h-285l-77 -218h-92zM290 531l-85 -240h234l-82 240l-32 101h-2z" />
    <glyph glyph-name="B" unicode="B" horiz-adv-x="644" 
d="M67 0v715.001h303c75.333 0 132.666 -20.667 171.999 -62c30.667 -32 46 -72.667 46 -122c0 -76 -38.333 -126 -115 -150v-3c42.667 -10 77.334 -29.833 104.001 -59.5s40 -67.5 40 -113.5c0 -54.667 -17.333 -100.334 -52 -137.001c-42 -45.333 -101.667 -68 -179 -68
h-319zM157 81.001l225 -0.000976562c49.333 0 86.666 12 111.999 36c21.333 22.667 32 50.334 32 83.001c0 43.333 -13.667 76.333 -41 99s-63.666 34 -108.999 34h-219v-252zM157 409l202 -0.00195312c43.333 0 77.333 10.333 102 31s37 49.334 37 86.001
c0 34.667 -11.167 61.834 -33.5 81.501s-53.5 29.5 -93.5 29.5h-214v-228z" />
    <glyph glyph-name="C" unicode="C" horiz-adv-x="709" 
d="M375 -14c-100.667 0 -181.667 34.6689 -243 104.002s-92 158.666 -92 267.999c0 108 30.5 197.167 91.5 267.5s143.5 105.5 247.5 105.5c81.333 0 147 -21 197 -63s80 -97 90 -165h-88c-8.66699 45.333 -30.5 81.666 -65.5 108.999s-80.167 41 -135.5 41
c-76.667 0 -136.667 -27.5 -180 -82.5s-65 -125.833 -65 -212.5c0 -88 22.5 -158.833 67.5 -212.5s104.5 -80.5 178.5 -80.5c64 0 113.5 18.667 148.5 56s54.833 84.333 59.5 141h89c-0.666992 -35.333 -8.83398 -71.5 -24.501 -108.5s-36.167 -67.833 -61.5 -92.5
c-51.333 -50 -122.666 -75 -213.999 -75z" />
    <glyph glyph-name="D" unicode="D" horiz-adv-x="684" 
d="M67 0l-0.000976562 715.001h260c104.667 0 183.667 -32.333 237 -97s80 -152.334 80 -263.001c0 -110 -27.667 -196.667 -83 -260s-135.666 -95 -240.999 -95h-253zM156.999 79.001h160c156.667 0 235 92 235 276c0 188 -76 282 -228 282h-167v-558z" />
    <glyph glyph-name="E" unicode="E" horiz-adv-x="622" 
d="M67 0v715h505v-79h-415v-226h377v-76h-377v-251h427v-83h-517z" />
    <glyph glyph-name="F" unicode="F" horiz-adv-x="578" 
d="M67 0v715h485v-79h-395v-223h329v-76h-329v-337h-90z" />
    <glyph glyph-name="G" unicode="G" horiz-adv-x="742" 
d="M627 0l-25.999 94.002h-2c-52 -72.667 -126.333 -109 -223 -109c-100 0 -181 34.333 -243 103s-93 157.667 -93 267s30.167 199.166 90.5 269.499s144.833 105.5 253.5 105.5c81.333 0 147.166 -20.5 197.499 -61.5s81.5 -97.167 93.5 -168.5h-93
c-10 48.667 -32 86.167 -66 112.5s-78.667 39.5 -134 39.5c-82.667 0 -145 -27.333 -187 -82s-63 -126.334 -63 -215.001c0 -87.333 23 -157.833 69 -211.5s105.333 -80.5 178 -80.5c70 0 123.5 20.667 160.5 62s55.5 94 55.5 158v17h-215v78h305v-378h-58z" />
    <glyph glyph-name="H" unicode="H" horiz-adv-x="696" 
d="M67 0v715h90v-304h382v304h90v-715h-90v338h-382v-338h-90z" />
    <glyph glyph-name="I" unicode="I" horiz-adv-x="228" 
d="M69 0v715h90v-715h-90z" />
    <glyph glyph-name="J" unicode="J" horiz-adv-x="497" 
d="M232 -14c-140 0 -209.999 78.665 -209.999 235.998v10h89v-7c0 -61.333 9.83301 -104.166 29.5 -128.499s51.167 -36.5 94.5 -36.5c76 0 114 42.333 114 127v528h90v-534c0 -59.333 -17.833 -106.666 -53.5 -141.999s-86.834 -53 -153.501 -53z" />
    <glyph glyph-name="K" unicode="K" horiz-adv-x="644" 
d="M67 0v715h90v-355l352 355h113l-289 -286l313 -429h-105l-269 368l-115 -115v-253h-90z" />
    <glyph glyph-name="L" unicode="L" horiz-adv-x="554" 
d="M67 0v715h90v-632h375v-83h-465z" />
    <glyph glyph-name="M" unicode="M" horiz-adv-x="830" 
d="M67 0l0.000976562 715h115l232 -594h2l230 594h117v-715h-86v588h-2c-12.667 -37.333 -23.334 -67.333 -32.001 -90l-196 -498h-69l-196 498l-32 90h-2v-588h-81z" />
    <glyph glyph-name="N" unicode="N" horiz-adv-x="693" 
d="M67 0v715h95l326 -497l52 -92h2v589h84v-715h-92l-328 498l-53 89h-2v-587h-84z" />
    <glyph glyph-name="O" unicode="O" horiz-adv-x="780" 
d="M390 -15c-106 0 -190.833 35 -254.5 105s-95.5 159.333 -95.5 268s31.833 198 95.5 268s148.5 105 254.5 105s190.833 -35 254.5 -105s95.5 -159.333 95.5 -268s-31.833 -198 -95.5 -268s-148.5 -105 -254.5 -105zM390 64c81.333 0 144.666 27.333 189.999 82
s68 125.334 68 212.001s-22.667 157.5 -68 212.5s-108.666 82.5 -189.999 82.5s-144.666 -27.5 -189.999 -82.5s-68 -125.833 -68 -212.5s22.667 -157.334 68 -212.001s108.666 -82 189.999 -82z" />
    <glyph glyph-name="P" unicode="P" horiz-adv-x="603" 
d="M67 0v715h298c74.667 0 131.334 -23 170.001 -69c32 -37.333 48 -82.666 48 -135.999c0 -66.667 -19.333 -118.334 -58 -155.001s-96.334 -55 -173.001 -55h-195v-300h-90zM157 637v-264h188c49.333 0 86.5 11.667 111.5 35s37.5 56 37.5 98
c0 42.667 -12.5 75.167 -37.5 97.5s-60.5 33.5 -106.5 33.5h-193z" />
    <glyph glyph-name="Q" unicode="Q" horiz-adv-x="780" 
d="M678 -60l-111 88c-51.333 -28.667 -110.333 -43 -177 -43c-106 0 -190.833 35 -254.5 105s-95.5 159.333 -95.5 268s31.833 198 95.5 268s148.5 105 254.5 105s190.833 -35 254.5 -105s95.5 -159.333 95.5 -268c0 -119.333 -37 -214 -111 -284l95 -76zM390 64
c39.333 0 74.999 6.66797 106.999 20.001l-72 58l46 58l91 -73c57.333 54 86 131 86 231c0 86.667 -22.667 157.5 -68 212.5s-108.666 82.5 -189.999 82.5s-144.666 -27.5 -189.999 -82.5s-68 -125.833 -68 -212.5s22.667 -157.334 68 -212.001s108.666 -82 189.999 -82z
" />
    <glyph glyph-name="R" unicode="R" horiz-adv-x="654" 
d="M67 0l-0.000976562 715h334c62.667 0 113.5 -18 152.5 -54s58.5 -83.333 58.5 -142c0 -91.333 -41.333 -150.333 -124 -177v-3c35.333 -12.667 60.5 -32.5 75.5 -59.5s24.167 -67.833 27.5 -122.5c6.66699 -91.333 17.667 -142.333 33 -153v-4h-97
c-7.33301 6 -12.5 18.667 -15.5 38s-6.5 60 -10.5 122c-3.33301 52 -16.166 88.667 -38.499 110s-57.833 32 -106.5 32h-199v-302h-90zM156.999 637l0.000976562 -262h212c49.333 0 86.666 11.5 111.999 34.5s38 55.167 38 96.5c0 44.667 -11.333 77.667 -34 99
s-59.667 32 -111 32h-217z" />
    <glyph glyph-name="S" unicode="S" horiz-adv-x="626" 
d="M327 -14c-96 0 -169.829 23.665 -221.496 70.998s-79.5 109 -83.5 185h88c12 -122.667 85.667 -184 221 -184c51.333 0 92.5 11.5 123.5 34.5s46.5 56.167 46.5 99.5c0 19.333 -3.66699 36.333 -11 51s-16.166 26.667 -26.499 36s-25.833 18 -46.5 26
s-39.834 14.333 -57.501 19s-41.834 10.334 -72.501 17.001c-36.667 8 -67 16.167 -91 24.5s-48 19.833 -72 34.5s-41.833 33.5 -53.5 56.5s-17.5 50.833 -17.5 83.5c0 58.667 22.167 104.834 66.5 138.501s103.166 50.5 176.499 50.5c160.667 0 251 -74.333 271 -223h-85
c-6.66699 50.667 -25.667 88.834 -57 114.501s-73.666 38.5 -126.999 38.5c-49.333 0 -88.5 -10 -117.5 -30s-43.5 -48.333 -43.5 -85c0 -16 3.16699 -30.167 9.5 -42.5s14.666 -22.666 24.999 -30.999s24 -15.833 41 -22.5s33.833 -12.167 50.5 -16.5s37 -8.83301 61 -13.5
c33.333 -6.66699 60.666 -12.834 81.999 -18.501s45 -14.167 71 -25.5s46.167 -24.333 60.5 -39s26.666 -33.834 36.999 -57.501s15.5 -51.167 15.5 -82.5c0 -65.333 -24.167 -116.5 -72.5 -153.5s-111.833 -55.5 -190.5 -55.5z" />
    <glyph glyph-name="T" unicode="T" horiz-adv-x="610" 
d="M22 636v79h566v-79h-238v-636h-90v636h-238z" />
    <glyph glyph-name="U" unicode="U" horiz-adv-x="658" 
d="M329 -11c-83.333 0 -149.833 19.667 -199.5 59s-74.5 100.333 -74.5 183v484h90v-475c0 -116 62.333 -174 187 -174c120.667 0 181 58 181 174v475h90v-484c0 -82 -25.167 -142.833 -75.5 -182.5s-116.5 -59.5 -198.5 -59.5z" />
    <glyph glyph-name="V" unicode="V" horiz-adv-x="619" 
d="M259 0l-248.999 715h97l176 -532l28 -96h2c11.333 42.667 20.666 74.667 27.999 96l174 532h94l-251 -715h-99z" />
    <glyph glyph-name="W" unicode="W" horiz-adv-x="914" 
d="M199 0l-184.999 715.001h94l113 -465l27 -121h2c11.333 50.667 21.333 91.667 30 123l129 463h97l125 -463l29 -123h2c11.333 51.333 20.666 91.666 27.999 120.999l119 465h91l-199 -715h-86l-131 504l-26 109h-2c-10 -44.667 -19 -81 -27 -109l-140 -504h-90z" />
    <glyph glyph-name="X" unicode="X" horiz-adv-x="616" 
d="M14 0l248 366l-230 349h104l177 -286h2l181 286h99l-234 -350l241 -365h-108l-184 301h-2l-192 -301h-102z" />
    <glyph glyph-name="Y" unicode="Y" horiz-adv-x="631" 
d="M269 0v303l-259 412h100l205 -340h2l208 340h96l-262 -414v-301h-90z" />
    <glyph glyph-name="Z" unicode="Z" horiz-adv-x="622" 
d="M30 0v86l428 550v3h-403v76h514v-70l-434 -561v-3h451v-81h-556z" />
    <glyph glyph-name="bracketleft" unicode="[" horiz-adv-x="296" 
d="M77 -118v872h189v-66h-105v-737h105v-69h-189z" />
    <glyph glyph-name="backslash" unicode="\" horiz-adv-x="400" 
d="M300 0l-284 715h84l284 -715h-84z" />
    <glyph glyph-name="bracketright" unicode="]" horiz-adv-x="296" 
d="M30 -118v69h105v737h-105v66h189v-872h-189z" />
    <glyph glyph-name="asciicircum" unicode="^" horiz-adv-x="453" 
d="M11 428l168 287h95l168 -287h-85l-129 224h-2l-130 -224h-85z" />
    <glyph glyph-name="underscore" unicode="_" horiz-adv-x="408" 
d="M-2 -166v61h412v-61h-412z" />
    <glyph glyph-name="grave" unicode="`" 
d="M221 598l-82 127h100l51 -127h-69z" />
    <glyph glyph-name="a" unicode="a" horiz-adv-x="510" 
d="M461 -5c-51.333 0 -80.9971 25.6631 -88.9971 76.9961h-1c-42.667 -54.667 -100 -82 -172 -82c-51.333 0 -93.333 12.333 -126 37s-49 60.334 -49 107.001c0 24 3.83301 44.833 11.5 62.5s17.5 32 29.5 43s28.5 20.667 49.5 29s41.167 14.666 60.5 18.999
s44 8.83301 74 13.5c19.333 2.66699 33.166 4.83398 41.499 6.50098s19.166 4.33398 32.499 8.00098s22.666 7.83398 27.999 12.501s10.333 11 15 19s7 17.333 7 28c0 29.333 -10.167 51.833 -30.5 67.5s-48.833 23.5 -85.5 23.5c-83.333 0 -126.333 -38 -129 -114h-78
c1.33301 52.667 19.5 95 54.5 127s85.5 48 151.5 48c127.333 0 191 -54.667 191 -164v-246c0 -22.667 3.83301 -38.667 11.5 -48s22.167 -11.666 43.5 -6.99902h3v-59c-13.333 -5.33301 -28 -8 -44 -8zM217.003 51.9961c50 0 88.666 14.501 115.999 43.501
s41 60.833 41 95.5v88c-24.667 -15.333 -64 -28 -118 -38l-47 -9.5c-11.333 -2.33301 -24.333 -6.33301 -39 -12s-25.667 -11.834 -33 -18.501s-13.666 -15.5 -18.999 -26.5s-8 -23.833 -8 -38.5c0 -56 35.667 -84 107 -84z" />
    <glyph glyph-name="b" unicode="b" horiz-adv-x="550" 
d="M301 -15c-68.667 0 -123 27.667 -163 83h-2v-68h-81v715h81v-272h2c42 57.333 97.333 86 166 86c66.667 0 120 -24.167 160 -72.5s60 -114.833 60 -199.5c0 -83.333 -19.833 -149.5 -59.5 -198.5s-94.167 -73.5 -163.5 -73.5zM295 53c48 0 84.333 18.498 109 55.498
s37 86.167 37 147.5c0 60.667 -12.333 109.834 -37 147.501s-60.667 56.5 -108 56.5c-54 0 -95 -19.167 -123 -57.5s-42 -87.166 -42 -146.499c0 -60.667 14 -109.667 42 -147s68.667 -56 122 -56z" />
    <glyph glyph-name="c" unicode="c" horiz-adv-x="519" 
d="M276 -14c-75.333 0 -135.833 25.998 -181.5 77.998s-68.5 116.667 -68.5 194s22.833 142 68.5 194s106.167 78 181.5 78c60.667 0 110.334 -16.167 149.001 -48.5s62.667 -76.166 72 -131.499h-82c-6 35.333 -21 63 -45 83s-55.333 30 -94 30
c-53.333 0 -94.5 -19.333 -123.5 -58s-43.5 -87.667 -43.5 -147s14.5 -108.166 43.5 -146.499s70.167 -57.5 123.5 -57.5c41.333 0 74.333 11.167 99 33.5s38.667 53.833 42 94.5h80c-5.33301 -62 -27.333 -110.167 -66 -144.5s-90.334 -51.5 -155.001 -51.5z" />
    <glyph glyph-name="d" unicode="d" horiz-adv-x="553" 
d="M255 -15c-70.667 0 -126.5 24.5 -167.5 73.5s-61.5 115.167 -61.5 198.5c0 84 21.333 150.333 64 199s97 73 163 73c70 0 124 -28.333 162 -85h2v271h81v-715h-81v63h-2c-40.667 -52 -94 -78 -160 -78zM258 53c55.333 0 96.5 18.335 123.5 55.002s40.5 86 40.5 148
c0 61.333 -14.5 110.666 -43.5 147.999s-69.5 56 -121.5 56c-47.333 0 -83.833 -18.833 -109.5 -56.5s-38.5 -86.834 -38.5 -147.501s12.833 -109.667 38.5 -147s62.5 -56 110.5 -56z" />
    <glyph glyph-name="e" unicode="e" horiz-adv-x="533" 
d="M276 -14c-76.667 0 -137.499 25.832 -182.499 77.499s-67.5 116.5 -67.5 194.5c0 76.667 22.833 141.167 68.5 193.5s104.5 78.5 176.5 78.5c76 0 134.667 -26.5 176 -79.5s62 -123.5 62 -211.5h-400c3.33301 -54.667 19.5 -99.167 48.5 -133.5s68.5 -51.5 118.5 -51.5
c77.333 0 125 35.333 143 106h79c-12 -55.333 -37.333 -98.166 -76 -128.499s-87.334 -45.5 -146.001 -45.5zM271.001 465.999c-46 0 -82.5 -15.333 -109.5 -46s-43.833 -70.667 -50.5 -120h311c-2.66699 52 -17 92.667 -43 122s-62 44 -108 44z" />
    <glyph glyph-name="f" unicode="f" horiz-adv-x="294" 
d="M22 451l-0.000976562 66h71v83c0 42.667 11.667 73.5 35 92.5s57.333 28.5 102 28.5c12.667 0 26.334 -0.666992 41.001 -2v-69c-9.33301 0.666992 -18 1 -26 1c-26 0 -44.333 -4 -55 -12s-16 -22.333 -16 -43v-79h96v-66h-96v-451h-81v451h-71z" />
    <glyph glyph-name="g" unicode="g" horiz-adv-x="543" 
d="M261 -172c-66 0 -117.831 12.5 -155.498 37.5s-58.834 60.167 -63.501 105.5h75c7.33301 -52.667 54.666 -79 141.999 -79c98.667 0 148 44.333 148 133v73h-2c-20.667 -26.667 -42.667 -46.667 -66 -60s-52.333 -20 -87 -20c-66.667 0 -121 24 -163 72
s-63 109.333 -63 184c0 78 21.167 140 63.5 186s94.833 69 157.5 69c68 0 120.667 -26 158 -78h2v66h81v-489c0 -66 -20.167 -115.833 -60.5 -149.5s-95.833 -50.5 -166.5 -50.5zM256.002 86c104.667 0 157.001 64 157.001 192c0 122 -52.667 183 -158 183
c-47.333 0 -83.5 -17 -108.5 -51s-37.5 -79.667 -37.5 -137s12.667 -102.833 38 -136.5s61.666 -50.5 108.999 -50.5z" />
    <glyph glyph-name="h" unicode="h" horiz-adv-x="528" 
d="M136 715v-265.999h2c40 53.333 94.667 80 164 80c54.667 0 97.334 -14.333 128.001 -43s46 -69.667 46 -123v-363h-81v356c0 33.333 -10.333 59.166 -31 77.499s-49.334 27.5 -86.001 27.5c-41.333 0 -75.333 -13.333 -102 -40s-40 -61 -40 -103v-318h-81v715h81z" />
    <glyph glyph-name="i" unicode="i" horiz-adv-x="191" 
d="M55 0v517h81v-517h-81zM55 615v100h81v-100h-81z" />
    <glyph glyph-name="j" unicode="j" horiz-adv-x="191" 
d="M17 -147c-12.667 0 -27.667 1.33301 -45 4v66h2c10 -2 19.333 -3 28 -3c35.333 0 53 16.667 53 50v547h81v-551c0 -44 -10.333 -73.833 -31 -89.5s-50 -23.5 -88 -23.5zM55 615v100h81v-100h-81z" />
    <glyph glyph-name="k" unicode="k" horiz-adv-x="489" 
d="M395 0l-183 279l-76 -72v-207h-81v715h81v-419l227 221h103l-198 -186l222 -331h-95z" />
    <glyph glyph-name="l" unicode="l" horiz-adv-x="197" 
d="M58 0v715h81v-715h-81z" />
    <glyph glyph-name="m" unicode="m" horiz-adv-x="794" 
d="M55 0l-0.000976562 517.002h81v-74h2c16.667 26 38.334 46.833 65.001 62.5s55.667 23.5 87 23.5c67.333 0 112.333 -30.667 135 -92h2c16 28.667 38.333 51.167 67 67.5s59 24.5 91 24.5c47.333 0 85.333 -14.5 114 -43.5s43 -69.833 43 -122.5v-363h-81v359
c0 31.333 -9.16699 56.166 -27.5 74.499s-40.833 27.5 -67.5 27.5c-34 0 -63.667 -13.333 -89 -40s-38 -59.667 -38 -99v-322h-81v359c0 31.333 -8.16699 56.166 -24.5 74.499s-37.833 27.5 -64.5 27.5c-33.333 0 -63.833 -13.5 -91.5 -40.5s-41.5 -59.833 -41.5 -98.5v-322
h-81z" />
    <glyph glyph-name="n" unicode="n" horiz-adv-x="528" 
d="M136 517v-67.999h2c40 53.333 94.667 80 164 80c54.667 0 97.334 -14.333 128.001 -43s46 -69.667 46 -123v-363h-81v356c0 33.333 -10.333 59.166 -31 77.499s-49.334 27.5 -86.001 27.5c-41.333 0 -75.333 -13.333 -102 -40s-40 -61 -40 -103v-318h-81v517h81z" />
    <glyph glyph-name="o" unicode="o" horiz-adv-x="551" 
d="M276 -14c-75.333 0 -135.833 26 -181.5 78s-68.5 116.667 -68.5 194s22.833 142 68.5 194s106.167 78 181.5 78s135.666 -26 180.999 -78s68 -116.667 68 -194s-22.667 -142 -68 -194s-105.666 -78 -180.999 -78zM276 54c53.333 0 94.333 19.167 123 57.5
s43 87.166 43 146.499c0 60 -14.5 109.167 -43.5 147.5s-69.833 57.5 -122.5 57.5c-53.333 0 -94.5 -19.333 -123.5 -58s-43.5 -87.667 -43.5 -147s14.5 -108.166 43.5 -146.499s70.167 -57.5 123.5 -57.5z" />
    <glyph glyph-name="p" unicode="p" horiz-adv-x="552" 
d="M55 -166l-0.00195312 683h81v-73h2c42 56.667 97.333 85 166 85c66.667 0 120.334 -24.167 161.001 -72.5s61 -114.833 61 -199.5c0 -83.333 -20 -149.5 -60 -198.5s-95 -73.5 -165 -73.5c-69.333 0 -123.666 25.333 -162.999 76h-2v-227h-81zM294.998 53
c48 0 84.666 18.665 109.999 55.998s38 86.333 38 147s-12.667 109.834 -38 147.501s-61.666 56.5 -108.999 56.5c-54 0 -95 -19.167 -123 -57.5s-42 -87.166 -42 -146.499c0 -60.667 13.333 -109.667 40 -147s68 -56 124 -56z" />
    <glyph glyph-name="q" unicode="q" horiz-adv-x="552" 
d="M416 -166l-0.000976562 229h-2c-40.667 -52 -94 -78 -160 -78c-70 0 -125 24.5 -165 73.5s-60 115.167 -60 198.5c0 84 20.833 150.333 62.5 199s94.834 73 159.501 73c70.667 0 125 -27 163 -81h2v69h81v-683h-81zM257.999 53c56.667 0 98 18.167 124 54.5
s39 85.833 39 148.5s-13.667 112.334 -41 149.001s-68.333 55 -123 55c-47.333 0 -83.333 -18.833 -108 -56.5s-37 -86.834 -37 -147.501c0 -61.333 12.333 -110.5 37 -147.5s61 -55.5 109 -55.5z" />
    <glyph glyph-name="r" unicode="r" horiz-adv-x="343" 
d="M136 517l-0.00292969 -86h2c16.667 27.333 38.334 49.5 65.001 66.5s56.334 25.5 89.001 25.5c12 0 23 -2 33 -6v-78h-3c-10 3.33301 -22 5 -36 5c-41.333 0 -76.666 -14.5 -105.999 -43.5s-44 -66.833 -44 -113.5v-287h-81v517h81z" />
    <glyph glyph-name="s" unicode="s" horiz-adv-x="478" 
d="M251 -15c-70.667 0 -125.504 15.833 -164.504 47.5s-60.5 76.834 -64.5 135.501h83c9.33301 -76.667 58.666 -115 147.999 -115c40.667 0 70.834 7.83301 90.501 23.5s29.5 36.167 29.5 61.5c0 27.333 -9.66699 47 -29 59s-54.666 23.333 -105.999 34
c-21.333 4.66699 -38.166 8.5 -50.499 11.5s-27.166 7.33301 -44.499 13s-30.833 12 -40.5 19s-19.5 15.5 -29.5 25.5s-17.167 22.333 -21.5 37s-6.5 31 -6.5 49c0 44 16.167 78.667 48.5 104s78.166 38 137.499 38c122.667 0 190.334 -54 203.001 -162h-83
c-4 34 -15.667 58.833 -35 74.5s-48.333 23.5 -87 23.5c-35.333 0 -61.5 -6.83301 -78.5 -20.5s-25.5 -31.5 -25.5 -53.5c0 -25.333 10 -43.166 30 -53.499s56.333 -20.833 109 -31.5c32 -6.66699 57.167 -12.834 75.5 -18.501s37.5 -14.334 57.5 -26.001
s34.667 -27.167 44 -46.5s14 -43.333 14 -72c0 -50.667 -18.667 -89.5 -56 -116.5s-86.666 -40.5 -147.999 -40.5z" />
    <glyph glyph-name="t" unicode="t" horiz-adv-x="307" 
d="M22 451v66h75v163h81v-163h100v-66h-100v-336c0 -32 17.333 -48 52 -48c14.667 0 29 2.33301 43 7h3v-70c-22 -4.66699 -43.667 -7 -65 -7c-76 0 -114 33.333 -114 100v354h-75z" />
    <glyph glyph-name="u" unicode="u" horiz-adv-x="520" 
d="M465 0l-81.002 0.00195312v71h-2c-40.667 -55.333 -92.667 -83 -156 -83c-53.333 0 -95.666 15.167 -126.999 45.5s-47 72.166 -47 125.499v358h81v-356c0 -33.333 10.167 -59.333 30.5 -78s48.833 -28 85.5 -28c40.667 0 73.334 13.667 98.001 41s37 61.666 37 102.999
v318h81v-517z" />
    <glyph glyph-name="v" unicode="v" horiz-adv-x="461" 
d="M183 0l-181 517h87l107 -328l34 -109h2c12.667 42.667 24 79 34 109l109 328h84l-186 -517h-90z" />
    <glyph glyph-name="w" unicode="w" horiz-adv-x="734" 
d="M168 0l-164.001 517.001h87l91 -319l28 -111h2c10 45.333 18.667 81.666 26 108.999l87 321h85l84 -321l25 -109h2c10.667 45.333 20.334 82.333 29.001 111l96 319h84l-169 -517h-83l-86 313l-25 108h-2c-9.33301 -43.333 -18 -79.333 -26 -108l-87 -313h-84z" />
    <glyph glyph-name="x" unicode="x" horiz-adv-x="503" 
d="M6 0l195 271l-172 246h94l123 -188h2l128 188h89l-170 -237l202 -280h-95l-153 222h-2l-150 -222h-91z" />
    <glyph glyph-name="y" unicode="y" horiz-adv-x="489" 
d="M121 -171c-30.667 0 -54.999 3.66699 -72.999 11v72h4c13.333 -7.33301 31.666 -11 54.999 -11c18 0 33 4.5 45 13.5s22.667 25.5 32 49.5l20 51l-202 502h88l122 -322l35 -101h2c12 38.667 23.333 72.334 34 101.001l118 322h86l-221 -559
c-20 -50.667 -40.667 -84.834 -62 -102.501s-49 -26.5 -83 -26.5z" />
    <glyph glyph-name="z" unicode="z" horiz-adv-x="471" 
d="M34 0v64l288 379v3h-271v71h384v-48l-297 -392v-3h308v-74h-412z" />
    <glyph glyph-name="braceleft" unicode="{" horiz-adv-x="296" 
d="M248 -118c-52 0 -90.832 12.4941 -116.499 37.4941s-38.5 66.167 -38.5 123.5v178c0 22.667 -5 39.334 -15 50.001s-28 16.334 -54 17.001v67c25.333 0.666992 43.166 6.33398 53.499 17.001s15.5 27.334 15.5 50.001v174c0 57.333 12.833 98 38.5 122s64.5 36 116.5 36
h18v-66h-16c-26.667 0 -45.5 -6.66699 -56.5 -20s-16.5 -37.666 -16.5 -72.999v-179c0 -50.667 -18.667 -81.667 -56 -93v-3c37.333 -11.333 56 -42.333 56 -93v-183c0 -35.333 5.5 -59.666 16.5 -72.999s29.833 -20 56.5 -20h16v-69h-18z" />
    <glyph glyph-name="bar" unicode="|" horiz-adv-x="224" 
d="M77 -118v872h70v-872h-70z" />
    <glyph glyph-name="braceright" unicode="}" horiz-adv-x="296" 
d="M30 -118l-0.000976562 69.0049h16c27.333 0 46.333 6.16699 57 18.5s16 36.166 16 71.499v183c0 50.667 18.667 81.667 56 93v3c-37.333 11.333 -56 42.333 -56 93v179c0 36 -5.5 61 -16.5 75s-29.833 21 -56.5 21h-16v66h18c52 0 90.833 -12.5 116.5 -37.5
s38.5 -66.167 38.5 -123.5v-174c0 -22.667 5 -39.334 15 -50.001s28 -16.334 54 -17.001v-67c-25.333 -0.666992 -43.166 -6.33398 -53.499 -17.001s-15.5 -27.334 -15.5 -50.001v-178c0 -57.333 -12.833 -98 -38.5 -122s-64.5 -36 -116.5 -36h-18z" />
    <glyph glyph-name="asciitilde" unicode="~" horiz-adv-x="393" 
d="M267 272c-16.667 0 -40.3311 6.66699 -70.998 20c-34.667 15.333 -56.334 23 -65.001 23c-18.667 0 -28.667 -13.667 -30 -41h-65c1.33301 35.333 10 63.5 26 84.5s37.333 31.5 64 31.5c22 0 47.667 -7.66699 77 -23c26.667 -13.333 45 -20 55 -20
c21.333 0 32.666 13.667 33.999 41h65c-2.66699 -77.333 -32.667 -116 -90 -116z" />
    <glyph glyph-name="uni00A0" unicode="&#xa0;" horiz-adv-x="159" 
 />
    <glyph glyph-name="exclamdown" unicode="&#xa1;" horiz-adv-x="235" 
d="M73 -127v229l22 313h45l22 -313v-229h-89zM69 489v99h97v-99h-97z" />
    <glyph glyph-name="cent" unicode="&#xa2;" horiz-adv-x="519" 
d="M245 -85l0.000976562 73.0049c-66.667 7.33301 -119.834 36.333 -159.501 87s-59.5 111.667 -59.5 183s19.833 132.166 59.5 182.499s92.834 79.5 159.501 87.5v63h56v-62c53.333 -4.66699 97.166 -22.834 131.499 -54.501s55.833 -73.167 64.5 -124.5h-82
c-5.33301 31.333 -17.833 56.666 -37.5 75.999s-45.167 31 -76.5 35v-406c70 9.33301 108.667 51.666 116 126.999h80c-5.33301 -58 -25 -103.833 -59 -137.5s-79.667 -52.834 -137 -57.501v-72h-56zM109.001 258.005c0 -53.333 11.667 -98.333 35 -135s57 -59 101 -67v404
c-43.333 -7.33301 -76.833 -29.5 -100.5 -66.5s-35.5 -82.167 -35.5 -135.5z" />
    <glyph glyph-name="sterling" unicode="&#xa3;" horiz-adv-x="551" 
d="M39 301l-0.00292969 63.9961h61c-21.333 55.333 -32 102.333 -32 141c0 56.667 20.833 103.167 62.5 139.5s96.834 54.5 165.501 54.5c63.333 0 116.166 -19 158.499 -57s63.833 -95.333 64.5 -172h-82c-0.666992 54.667 -14 94.834 -40 120.501s-60.667 38.5 -104 38.5
s-77.166 -11.167 -101.499 -33.5s-36.5 -52.833 -36.5 -91.5c0 -7.33301 0.5 -15.166 1.5 -23.499s2.16699 -15.666 3.5 -21.999s3.33301 -14.5 6 -24.5s4.83398 -17.5 6.50098 -22.5l8.5 -24.5l8 -23h143v-64h-125c4.66699 -22 7 -41.667 7 -59
c0 -58.667 -26.667 -109.667 -80 -153l2 -2c30.667 10.667 57 16 79 16c25.333 0 55.5 -6.83301 90.5 -20.5s61.833 -20.5 80.5 -20.5c33.333 0 68 16 104 48l48 -59c-48 -42 -99.667 -63 -155 -63c-31.333 0 -67.166 8.83301 -107.499 26.5s-72.833 26.5 -97.5 26.5
c-4.66699 0 -9.5 -0.5 -14.5 -1.5s-9.5 -1.83301 -13.5 -2.5s-8.66699 -2.16699 -14 -4.5s-9.33301 -4.16602 -12 -5.49902s-6.83398 -3.83301 -12.501 -7.5s-9.16699 -6 -10.5 -7s-5.16602 -3.5 -11.499 -7.5s-9.83301 -6.33301 -10.5 -7l-48 66
c22.667 16.667 40.5 31.167 53.5 43.5s24.667 29 35 50s15.5 44.167 15.5 69.5c0 19.333 -4.33301 44 -13 74h-83z" />
    <glyph glyph-name="currency" unicode="&#xa4;" horiz-adv-x="484" 
d="M242 212c35.333 0 63.166 12.833 83.499 38.5s30.5 58.5 30.5 98.5s-10.167 73 -30.5 99s-48.166 39 -83.499 39s-63.333 -13 -84 -39s-31 -59 -31 -99s10.333 -72.833 31 -98.5s48.667 -38.5 84 -38.5zM61 120l-42.998 41.002l66 68c-24 34 -36 74 -36 120
c0 45.333 12 85 36 119l-66 68l43 41l64 -66c34 25.333 73 38 117 38s83 -12.667 117 -38l64 66l43 -41l-66 -68c23.333 -34.667 35 -74.334 35 -119.001s-12 -84.334 -36 -119.001l67 -69l-43 -41l-65 66c-32.667 -24 -71.334 -36 -116.001 -36s-83.334 12 -116.001 36z
" />
    <glyph glyph-name="yen" unicode="&#xa5;" horiz-adv-x="562" 
d="M61 272v54h166l-217 359h94l178 -317h2l178 317h90l-215 -359h168v-54h-180v-69h180v-54h-180v-149h-84v149h-180v54h180v69h-180z" />
    <glyph glyph-name="brokenbar" unicode="&#xa6;" horiz-adv-x="224" 
d="M77 -118v412h70v-412h-70zM77 358v396h70v-396h-70z" />
    <glyph glyph-name="section" unicode="&#xa7;" horiz-adv-x="582" 
d="M301 -186c-68 0 -121.668 17.9971 -161.001 53.9971s-59.666 83.667 -60.999 143h83c5.33301 -83.333 52.333 -125 141 -125c31.333 0 55.333 6.83301 72 20.5s25 31.5 25 53.5c0 22.667 -11.167 43 -33.5 61s-63.166 44 -122.499 78l-25 14
c-69.333 39.333 -118.5 73.166 -147.5 101.499s-43.5 63.833 -43.5 106.5c0 66 37.667 111.333 113 136c-26.667 30 -40 61.667 -40 95c0 44.667 17.333 80.667 52 108s80.334 41 137.001 41c61.333 0 109.166 -16.333 143.499 -49s53.166 -77.667 56.499 -135h-83
c-5.33301 74.667 -45 112 -119 112c-33.333 0 -58.833 -6.83301 -76.5 -20.5s-26.5 -31.5 -26.5 -53.5c0 -12.667 2.83301 -24.167 8.5 -34.5s17 -21.666 34 -33.999s32 -22.166 45 -29.499l67.5 -37l68 -37.5c14.667 -8.33301 33.334 -20.166 56.001 -35.499
s39.167 -29.333 49.5 -42s19.666 -28.167 27.999 -46.5s12.5 -37.5 12.5 -57.5c0 -72 -38 -119.667 -114 -143c29.333 -31.333 44 -63.666 44 -96.999c0 -44 -16.5 -79.5 -49.5 -106.5s-77.5 -40.5 -133.5 -40.5zM302.999 347.997c-52.667 28.667 -90.999 52 -114.999 70
c-25.333 -6.66699 -44.833 -18.167 -58.5 -34.5s-20.5 -34.5 -20.5 -54.5c0 -26 9.5 -47.833 28.5 -65.5s57.833 -43.5 116.5 -77.5c67.333 -38.667 113.666 -67.667 138.999 -87c53.333 15.333 80 48 80 98c0 26 -9.66699 47.333 -29 64s-58 41 -116 73z" />
    <glyph glyph-name="dieresis" unicode="&#xa8;" 
d="M293 615v95h78v-95h-78zM129 615v95h78v-95h-78z" />
    <glyph glyph-name="copyright" unicode="&#xa9;" horiz-adv-x="812" 
d="M406 -17c-103.333 0 -190.166 35.333 -260.499 106s-105.5 159.334 -105.5 266.001s35.167 195.5 105.5 266.5s157.166 106.5 260.499 106.5s190.166 -35.5 260.499 -106.5s105.5 -159.833 105.5 -266.5s-35.167 -195.334 -105.5 -266.001s-157.166 -106 -260.499 -106z
M406 22c92 0 168.333 31.5 229 94.5s91 142.5 91 238.5s-30.5 175.667 -91.5 239s-137.167 95 -228.5 95s-167.5 -31.667 -228.5 -95s-91.5 -143 -91.5 -239s30.333 -175.5 91 -238.5s137 -94.5 229 -94.5zM409 127c-62 0 -112.668 21.5 -152.001 64.5s-59 97.833 -59 164.5
c0 67.333 19.167 122.833 57.5 166.5s89.833 65.5 154.5 65.5c51.333 0 92.833 -13.667 124.5 -41s50.5 -62.333 56.5 -105h-76c-4.66699 25.333 -16.167 45.333 -34.5 60s-42.166 22 -71.499 22c-42.667 0 -75.5 -15.667 -98.5 -47s-34.5 -71.666 -34.5 -120.999
c0 -48.667 12.167 -88.334 36.5 -119.001s56.5 -46 96.5 -46c32 0 57.5 9 76.5 27s30.167 41 33.5 69h74c-1.33301 -45.333 -18 -83 -50 -113c-33.333 -31.333 -78 -47 -134 -47z" />
    <glyph glyph-name="ordfeminine" unicode="&#xaa;" horiz-adv-x="480" 
d="M213 287c43.333 0 76.498 12.168 99.498 36.501s34.5 51.5 34.5 81.5v69c-23.333 -12.667 -57.666 -22 -102.999 -28c-43.333 -5.33301 -74.666 -13.833 -93.999 -25.5s-29 -31.834 -29 -60.501c0 -48.667 30.667 -73 92 -73zM346.998 301.001l-2.00098 -0.000976562
c-34.667 -48.667 -83.334 -73 -146.001 -73c-46 0 -84 11.333 -114 34s-45 54.667 -45 96c0 48.667 17.167 83.167 51.5 103.5s84.5 33.5 150.5 39.5c37.333 4 64 10.333 80 19s24 24.334 24 47.001c0 50.667 -32 76 -96 76c-70.667 0 -108.667 -32 -114 -96h-74
c2.66699 44.667 20 81.5 52 110.5s77 43.5 135 43.5c112 0 168 -48 168 -144v-213c0 -34 11 -51 33 -51c4.66699 0 10.334 0.666992 17.001 2h3v-56c-14 -4.66699 -27.667 -7 -41 -7c-47.333 0 -74.666 23 -81.999 69z" />
    <glyph glyph-name="guillemotleft" unicode="&#xab;" horiz-adv-x="424" 
d="M374 113l-137 115v87l137 115v-79l-93 -78v-2l93 -79v-79zM187 113l-137 115v87l137 115v-79l-93 -78v-2l93 -79v-79z" />
    <glyph glyph-name="logicalnot" unicode="&#xac;" horiz-adv-x="560" 
d="M63 334v64h414v-254h-66v190h-348z" />
    <glyph glyph-name="uni00AD" unicode="&#xad;" horiz-adv-x="344" 
d="M38 239v74h268v-74h-268z" />
    <glyph glyph-name="registered" unicode="&#xae;" horiz-adv-x="528" 
d="M264 244c-66 0 -122.167 23 -168.5 69s-69.5 103.667 -69.5 173c0 68.667 23.167 126.167 69.5 172.5s102.5 69.5 168.5 69.5s122.167 -23.167 168.5 -69.5s69.5 -103.833 69.5 -172.5c0 -69.333 -23.167 -127 -69.5 -173s-102.5 -69 -168.5 -69zM264 279
c57.333 0 104.5 19.5 141.5 58.5s55.5 88.5 55.5 148.5c0 59.333 -18.667 108.666 -56 147.999s-84.333 59 -141 59s-103.667 -19.667 -141 -59s-56 -88.666 -56 -147.999c0 -60 18.5 -109.5 55.5 -148.5s84.167 -58.5 141.5 -58.5zM171 361l-0.000976562 256h118
c23.333 0 42.666 -6.83301 57.999 -20.5s23 -30.834 23 -51.501c0 -32.667 -16 -53 -48 -61v-1c24 -6.66699 37.333 -24 40 -52c0.666992 -6 1.33398 -12.667 2.00098 -20s1.16699 -13.333 1.5 -18l1 -14c0.333008 -4.66699 1 -8.16699 2 -10.5s2.5 -3.83301 4.5 -4.5v-3
h-49c-6 2.66699 -9.66699 22.334 -11 59.001c-1.33301 29.333 -17.666 44 -48.999 44h-42v-103h-51zM221.999 575v-72h56c28 0 42 12 42 36s-14 36 -42 36h-56z" />
    <glyph glyph-name="macron" unicode="&#xaf;" 
d="M121 622v67h258v-67h-258z" />
    <glyph glyph-name="degree" unicode="&#xb0;" horiz-adv-x="318" 
d="M159 455c-34.667 0 -64.167 12 -88.5 36s-36.5 53 -36.5 87s12.167 63 36.5 87s53.833 36 88.5 36s64.167 -12 88.5 -36s36.5 -53 36.5 -87s-12.167 -63 -36.5 -87s-53.833 -36 -88.5 -36zM159 502c21.333 0 38.333 7.16699 51 21.5s19 32.5 19 54.5
s-6.33301 40.167 -19 54.5s-29.667 21.5 -51 21.5c-20.667 0 -37.5 -7.16699 -50.5 -21.5s-19.5 -32.5 -19.5 -54.5s6.5 -40.167 19.5 -54.5s29.833 -21.5 50.5 -21.5z" />
    <glyph glyph-name="plusminus" unicode="&#xb1;" horiz-adv-x="560" 
d="M53 314v64h194v180h66v-180h194v-64h-194v-180h-66v180h-194zM53 0v64h454v-64h-454z" />
    <glyph glyph-name="twosuperior" unicode="&#xb2;" horiz-adv-x="349" 
d="M23 274c0.666992 22 4.66895 42.168 12.002 60.501s17.666 34.833 30.999 49.5s25.666 26.667 36.999 36s26 20 44 32c4.66699 3.33301 14.5 9.83301 29.5 19.5s25 16.5 30 20.5s11.833 10.333 20.5 19s14.5 17 17.5 25s4.5 17 4.5 27c0 22 -6.5 39.333 -19.5 52
s-30.167 19 -51.5 19c-24 0 -42.833 -7.83301 -56.5 -23.5s-20.5 -38.5 -20.5 -68.5h-68c0 48.667 13.167 86 39.5 112s62.833 39 109.5 39c42 0 76 -12.333 102 -37s39 -55.334 39 -92.001c0 -18.667 -2.83301 -35.334 -8.5 -50.001s-15 -28.167 -28 -40.5
s-24.167 -21.666 -33.5 -27.999s-23.666 -15.5 -42.999 -27.5c-1.33301 -0.666992 -6 -3.5 -14 -8.5s-13.167 -8.16699 -15.5 -9.5s-7 -4.33301 -14 -9s-12 -8.33398 -15 -11.001s-7.33301 -6.16699 -13 -10.5s-9.83398 -8.16602 -12.501 -11.499s-5.5 -7.33301 -8.5 -12
s-5.16699 -9 -6.5 -13h211v-59h-299z" />
    <glyph glyph-name="threesuperior" unicode="&#xb3;" horiz-adv-x="367" 
d="M187 265c-50 0 -89.832 13.167 -119.499 39.5s-44.834 62.166 -45.501 107.499h68c3.33301 -60 34.666 -90 93.999 -90c26 0 46.5 6.33301 61.5 19s22.5 31 22.5 55c0 45.333 -29.667 68 -89 68h-26v55h25c24.667 0 43.834 5.33301 57.501 16s20.5 25.334 20.5 44.001
s-6.66699 33.5 -20 44.5s-30.333 16.5 -51 16.5c-25.333 0 -45 -7.33301 -59 -22s-21.667 -34.667 -23 -60h-68c1.33301 41.333 15.333 74.333 42 99s63 37 109 37c41.333 0 74.833 -10.167 100.5 -30.5s38.5 -47.833 38.5 -82.5c0 -42 -22.333 -70.333 -67 -85v-2
c55.333 -13.333 83 -48 83 -104c0 -39.333 -14.667 -70 -44 -92s-66 -33 -110 -33z" />
    <glyph glyph-name="acute" unicode="&#xb4;" 
d="M210 598l51 127h100l-82 -127h-69z" />
    <glyph glyph-name="mu" unicode="&#xb5;" horiz-adv-x="523" 
d="M55 -166l-0.000976562 683.001h81v-356c0 -33.333 10.167 -59.333 30.5 -78s48.833 -28 85.5 -28c40.667 0 73.334 13.667 98.001 41s37 61.666 37 102.999v318h81v-517h-81v71h-2c-40.667 -55.333 -91 -83 -151 -83c-43.333 0 -75.333 11.667 -96 35h-2v-189h-81z" />
    <glyph glyph-name="paragraph" unicode="&#xb6;" horiz-adv-x="549" 
d="M265 353h-34c-66 0 -116.167 16.167 -150.5 48.5s-51.5 77.5 -51.5 135.5c0 50.667 17 93.667 51 129c32 32.667 80 49 144 49h258v-715h-74v637h-69v-637h-74v353z" />
    <glyph glyph-name="periodcentered" unicode="&#xb7;" horiz-adv-x="185" 
d="M47 263v99h97v-99h-97z" />
    <glyph glyph-name="cedilla" unicode="&#xb8;" 
d="M228 -191c-42.667 0 -78.333 9.66602 -107 28.999l16 29c23.333 -10 47.333 -15 72 -15c38.667 0 58 10.667 58 32c0 18.667 -12.667 28 -38 28c-13.333 0 -27 -2.33301 -41 -7l-16 24l71 71h56l-59 -49v-2c22 2.66699 42.833 -1.16602 62.5 -11.499
s29.5 -27.833 29.5 -52.5c0 -23.333 -9.5 -41.833 -28.5 -55.5s-44.167 -20.5 -75.5 -20.5z" />
    <glyph glyph-name="onesuperior" unicode="&#xb9;" horiz-adv-x="254" 
d="M122 274v289.001h-99v49c66 1.33301 102.667 26.666 110 75.999h61v-414h-72z" />
    <glyph glyph-name="ordmasculine" unicode="&#xba;" horiz-adv-x="509" 
d="M255 223c-66 0 -119 22.833 -159 68.5s-60 102.5 -60 170.5s20 124.833 60 170.5s93 68.5 159 68.5s118.833 -22.833 158.5 -68.5s59.5 -102.5 59.5 -170.5s-19.833 -124.833 -59.5 -170.5s-92.5 -68.5 -158.5 -68.5zM255 286c44.667 0 78.834 16.166 102.501 48.499
s35.5 74.833 35.5 127.5s-11.833 95.334 -35.5 128.001s-57.834 49 -102.501 49s-79 -16.5 -103 -49.5s-36 -75.5 -36 -127.5s12 -94.333 36 -127s58.333 -49 103 -49z" />
    <glyph glyph-name="guillemotright" unicode="&#xbb;" horiz-adv-x="424" 
d="M237 113v79l93 78v2l-93 79v79l137 -115v-87zM50 113v79l93 78v2l-93 79v79l137 -115v-87z" />
    <glyph glyph-name="onequarter" unicode="&#xbc;" horiz-adv-x="779" 
d="M125 304v289.001h-99v49c66 1.33301 102.667 26.666 110 75.999h61v-414h-72zM105 0.000976562l453 715h72l-453 -715h-72zM620 0.000976562v94h-203v71l204 251h68v-267h65v-55h-65v-94h-69zM475 151.001v-2h145v175h-2z" />
    <glyph glyph-name="onehalf" unicode="&#xbd;" horiz-adv-x="804" 
d="M125 304v289.001h-99v49c66 1.33301 102.667 26.666 110 75.999h61v-414h-72zM93 0.000976562l453 715h72l-453 -715h-72zM475 0.000976562c2 41.333 13.834 75.168 35.501 101.501s51.167 51.833 88.5 76.5l22.5 14.5c11 7 18.333 11.833 22 14.5l18 13
c8.33301 6 14 11 17 15l11 15c4.33301 6 7.33301 12.167 9 18.5s2.5 13.166 2.5 20.499c0 22 -6.5 39.333 -19.5 52s-30.167 19 -51.5 19c-24 0 -42.833 -7.83301 -56.5 -23.5s-20.5 -38.5 -20.5 -68.5h-68c0 48.667 13.167 86 39.5 112s62.833 39 109.5 39
c42 0 76 -12.333 102 -37s39 -55.334 39 -92.001c0 -17.333 -2.5 -32.833 -7.5 -46.5s-14 -26.5 -27 -38.5s-23.167 -20.667 -30.5 -26s-21 -14 -41 -26c-4.66699 -3.33301 -8.33398 -5.66602 -11.001 -6.99902c-58.667 -35.333 -91.667 -64.333 -99 -87h215v-59h-299z" />
    <glyph glyph-name="threequarters" unicode="&#xbe;" horiz-adv-x="845" 
d="M190 295c-50 0 -89.832 13.167 -119.499 39.5s-44.834 62.166 -45.501 107.499h68c3.33301 -60 34.666 -90 93.999 -90c26 0 46.5 6.33301 61.5 19s22.5 31 22.5 55c0 45.333 -29.667 68 -89 68h-26v55h25c24.667 0 43.834 5.33301 57.501 16s20.5 25.334 20.5 44.001
s-6.66699 33.5 -20 44.5s-30.333 16.5 -51 16.5c-25.333 0 -45 -7.33301 -59 -22s-21.667 -34.667 -23 -60h-68c1.33301 41.333 15.333 74.333 42 99s63 37 109 37c41.333 0 74.833 -10.167 100.5 -30.5s38.5 -47.833 38.5 -82.5c0 -42 -22.333 -70.333 -67 -85v-2
c55.333 -13.333 83 -48 83 -104c0 -39.333 -14.667 -70 -44 -92s-66 -33 -110 -33zM182.001 0l453 715h72l-453 -715h-72zM686.001 0v94h-203v71l204 251h68v-267h65v-55h-65v-94h-69zM541.001 151v-2h145v175h-2z" />
    <glyph glyph-name="questiondown" unicode="&#xbf;" horiz-adv-x="504" 
d="M248 -140c-68 0 -121.335 18.1689 -160.002 54.502s-58 81.833 -58 136.5c0 37.333 8.16699 68.666 24.5 93.999s38.833 50 67.5 74c44 36.667 72.5 66.334 85.5 89.001s19.833 58.334 20.5 107.001h76c-0.666992 -54 -8.5 -96.833 -23.5 -128.5
s-42.167 -64.834 -81.5 -99.501l-43 -39.5c-8 -7.66699 -16.667 -20.5 -26 -38.5s-14 -37 -14 -57c0 -34 12 -62.5 36 -85.5s57 -34.5 99 -34.5c50 0 87.833 15.167 113.5 45.5s39.167 72.166 40.5 125.499h82c-1.33301 -72.667 -21.666 -131.334 -60.999 -176.001
s-98.666 -67 -177.999 -67zM217.998 489.002v99h97v-99h-97z" />
    <glyph glyph-name="Agrave" unicode="&#xc0;" horiz-adv-x="648" 
d="M10 0l263 715h101l264 -715h-98l-76 218h-285l-77 -218h-92zM290 531l-85 -240h234l-82 240l-32 101h-2zM300 753l-82 121h100l51 -121h-69z" />
    <glyph glyph-name="Aacute" unicode="&#xc1;" horiz-adv-x="648" 
d="M10 0l263 715h101l264 -715h-98l-76 218h-285l-77 -218h-92zM290 531l-85 -240h234l-82 240l-32 101h-2zM289 753l51 121h100l-82 -121h-69z" />
    <glyph glyph-name="Acircumflex" unicode="&#xc2;" horiz-adv-x="648" 
d="M10 0l263 715h101l264 -715h-98l-76 218h-285l-77 -218h-92zM290 531l-85 -240h234l-82 240l-32 101h-2zM189 757l93 106h92l89 -106h-87l-49 63h-2l-51 -63h-85z" />
    <glyph glyph-name="Atilde" unicode="&#xc3;" horiz-adv-x="648" 
d="M10 0l263 715h101l264 -715h-98l-76 218h-285l-77 -218h-92zM290 531l-85 -240h234l-82 240l-32 101h-2zM390 760c-18 0 -40.6689 5.33301 -68.002 16s-44.666 16 -51.999 16c-14 0 -21.667 -10 -23 -30h-60c5.33301 61.333 31 92 77 92c19.333 0 41 -5.33301 65 -16
s41.333 -16 52 -16c15.333 0 24.333 10 27 30h58c-3.33301 -61.333 -28.666 -92 -75.999 -92z" />
    <glyph glyph-name="Adieresis" unicode="&#xc4;" horiz-adv-x="648" 
d="M10 0l263 715h101l264 -715h-98l-76 218h-285l-77 -218h-92zM290 531l-85 -240h234l-82 240l-32 101h-2zM369 760v95h78v-95h-78zM205 760v95h78v-95h-78z" />
    <glyph glyph-name="Aring" unicode="&#xc5;" horiz-adv-x="648" 
d="M10 0l263 715h101l264 -715h-98l-76 218h-285l-77 -218h-92zM290 531l-85 -240h234l-82 240l-32 101h-2zM326 746c-24 0 -44.5 8.33301 -61.5 25s-25.5 36.667 -25.5 60s8.5 43.333 25.5 60s37.5 25 61.5 25s44.5 -8.33301 61.5 -25s25.5 -36.667 25.5 -60
s-8.5 -43.333 -25.5 -60s-37.5 -25 -61.5 -25zM326 781c14 0 25.333 4.83301 34 14.5s13 21.5 13 35.5s-4.33301 25.833 -13 35.5s-20 14.5 -34 14.5s-25.333 -4.83301 -34 -14.5s-13 -21.5 -13 -35.5s4.33301 -25.833 13 -35.5s20 -14.5 34 -14.5z" />
    <glyph glyph-name="AE" unicode="&#xc6;" horiz-adv-x="946" 
d="M896 715v-79h-371v-226h333v-76h-333v-251h383v-83h-473v218h-253l-77 -218h-91l260 715h622zM331 636l-123 -345h227v345h-104z" />
    <glyph glyph-name="Ccedilla" unicode="&#xc7;" horiz-adv-x="709" 
d="M347 -191c-42 0 -77.667 9.66699 -107 29l16 29c23.333 -10 47.333 -15 72 -15c38.667 0 58 10.667 58 32c0 18.667 -12.667 28 -38 28c-13.333 0 -27 -2.33301 -41 -7l-16 24l58 58c-93.333 6.66699 -168.166 44 -224.499 112s-84.5 154.333 -84.5 259
c0 108 30.5 197.167 91.5 267.5s143.5 105.5 247.5 105.5c81.333 0 147 -21 197 -63s80 -97 90 -165h-88c-8.66699 45.333 -30.5 81.666 -65.5 108.999s-80.167 41 -135.5 41c-76.667 0 -136.667 -27.5 -180 -82.5s-65 -125.833 -65 -212.5c0 -88 22.5 -158.833 67.5 -212.5
s104.5 -80.5 178.5 -80.5c64 0 113.5 18.667 148.5 56s54.833 84.333 59.5 141h89c-0.666992 -35.333 -8.83398 -71.5 -24.501 -108.5s-36.167 -67.833 -61.5 -92.5c-46.667 -45.333 -109 -70 -187 -74l-43 -36v-2c22 2.66699 42.833 -1.16602 62.5 -11.499
s29.5 -27.833 29.5 -52.5c0 -23.333 -9.5 -41.833 -28.5 -55.5s-44.167 -20.5 -75.5 -20.5z" />
    <glyph glyph-name="Egrave" unicode="&#xc8;" horiz-adv-x="622" 
d="M67 0v715h505v-79h-415v-226h377v-76h-377v-251h427v-83h-517zM305 753l-82 121h100l51 -121h-69z" />
    <glyph glyph-name="Eacute" unicode="&#xc9;" horiz-adv-x="622" 
d="M67 0v715h505v-79h-415v-226h377v-76h-377v-251h427v-83h-517zM294 753l51 121h100l-82 -121h-69z" />
    <glyph glyph-name="Ecircumflex" unicode="&#xca;" horiz-adv-x="622" 
d="M67 0v715h505v-79h-415v-226h377v-76h-377v-251h427v-83h-517zM194 757l93 106h92l89 -106h-87l-49 63h-2l-51 -63h-85z" />
    <glyph glyph-name="Edieresis" unicode="&#xcb;" horiz-adv-x="622" 
d="M67 0v715h505v-79h-415v-226h377v-76h-377v-251h427v-83h-517zM374 760v95h78v-95h-78zM210 760v95h78v-95h-78z" />
    <glyph glyph-name="Igrave" unicode="&#xcc;" horiz-adv-x="228" 
d="M69 0v715h90v-715h-90zM88 753l-82 121h100l51 -121h-69z" />
    <glyph glyph-name="Iacute" unicode="&#xcd;" horiz-adv-x="228" 
d="M69 0v715h90v-715h-90zM77 753l51 121h100l-82 -121h-69z" />
    <glyph glyph-name="Icircumflex" unicode="&#xce;" horiz-adv-x="228" 
d="M69 0v715h90v-715h-90zM-23 757l93 106h92l89 -106h-87l-49 63h-2l-51 -63h-85z" />
    <glyph glyph-name="Idieresis" unicode="&#xcf;" horiz-adv-x="228" 
d="M69 0v715h90v-715h-90zM157 760v95h78v-95h-78zM-7 760v95h78v-95h-78z" />
    <glyph glyph-name="Eth" unicode="&#xd0;" horiz-adv-x="695" 
d="M5 321l-0.000976562 76.001h73v318h260c104.667 0 183.667 -32.333 237 -97s80 -152.334 80 -263.001c0 -110 -27.667 -196.667 -83 -260s-135.666 -95 -240.999 -95h-253v321h-73zM167.999 79.001h160c156.667 0 235 92 235 276c0 188 -76 282 -228 282h-167v-240h207
v-76h-207v-242z" />
    <glyph glyph-name="Ntilde" unicode="&#xd1;" horiz-adv-x="693" 
d="M67 0v715h95l326 -497l52 -92h2v589h84v-715h-92l-328 498l-53 89h-2v-587h-84zM427 760c-18 0 -40.6689 5.33301 -68.002 16s-44.666 16 -51.999 16c-14 0 -21.667 -10 -23 -30h-60c5.33301 61.333 31 92 77 92c19.333 0 41 -5.33301 65 -16s41.333 -16 52 -16
c15.333 0 24.333 10 27 30h58c-3.33301 -61.333 -28.666 -92 -75.999 -92z" />
    <glyph glyph-name="Ograve" unicode="&#xd2;" horiz-adv-x="780" 
d="M390 -15c-106 0 -190.833 35 -254.5 105s-95.5 159.333 -95.5 268s31.833 198 95.5 268s148.5 105 254.5 105s190.833 -35 254.5 -105s95.5 -159.333 95.5 -268s-31.833 -198 -95.5 -268s-148.5 -105 -254.5 -105zM390 64c81.333 0 144.666 27.333 189.999 82
s68 125.334 68 212.001s-22.667 157.5 -68 212.5s-108.666 82.5 -189.999 82.5s-144.666 -27.5 -189.999 -82.5s-68 -125.833 -68 -212.5s22.667 -157.334 68 -212.001s108.666 -82 189.999 -82zM364 753l-82 121h100l51 -121h-69z" />
    <glyph glyph-name="Oacute" unicode="&#xd3;" horiz-adv-x="780" 
d="M390 -15c-106 0 -190.833 35 -254.5 105s-95.5 159.333 -95.5 268s31.833 198 95.5 268s148.5 105 254.5 105s190.833 -35 254.5 -105s95.5 -159.333 95.5 -268s-31.833 -198 -95.5 -268s-148.5 -105 -254.5 -105zM390 64c81.333 0 144.666 27.333 189.999 82
s68 125.334 68 212.001s-22.667 157.5 -68 212.5s-108.666 82.5 -189.999 82.5s-144.666 -27.5 -189.999 -82.5s-68 -125.833 -68 -212.5s22.667 -157.334 68 -212.001s108.666 -82 189.999 -82zM353 753l51 121h100l-82 -121h-69z" />
    <glyph glyph-name="Ocircumflex" unicode="&#xd4;" horiz-adv-x="780" 
d="M390 -15c-106 0 -190.833 35 -254.5 105s-95.5 159.333 -95.5 268s31.833 198 95.5 268s148.5 105 254.5 105s190.833 -35 254.5 -105s95.5 -159.333 95.5 -268s-31.833 -198 -95.5 -268s-148.5 -105 -254.5 -105zM390 64c81.333 0 144.666 27.333 189.999 82
s68 125.334 68 212.001s-22.667 157.5 -68 212.5s-108.666 82.5 -189.999 82.5s-144.666 -27.5 -189.999 -82.5s-68 -125.833 -68 -212.5s22.667 -157.334 68 -212.001s108.666 -82 189.999 -82zM253 757l93 106h92l89 -106h-87l-49 63h-2l-51 -63h-85z" />
    <glyph glyph-name="Otilde" unicode="&#xd5;" horiz-adv-x="780" 
d="M390 -15c-106 0 -190.833 35 -254.5 105s-95.5 159.333 -95.5 268s31.833 198 95.5 268s148.5 105 254.5 105s190.833 -35 254.5 -105s95.5 -159.333 95.5 -268s-31.833 -198 -95.5 -268s-148.5 -105 -254.5 -105zM390 64c81.333 0 144.666 27.333 189.999 82
s68 125.334 68 212.001s-22.667 157.5 -68 212.5s-108.666 82.5 -189.999 82.5s-144.666 -27.5 -189.999 -82.5s-68 -125.833 -68 -212.5s22.667 -157.334 68 -212.001s108.666 -82 189.999 -82zM454 760c-18 0 -40.6689 5.33301 -68.002 16s-44.666 16 -51.999 16
c-14 0 -21.667 -10 -23 -30h-60c5.33301 61.333 31 92 77 92c19.333 0 41 -5.33301 65 -16s41.333 -16 52 -16c15.333 0 24.333 10 27 30h58c-3.33301 -61.333 -28.666 -92 -75.999 -92z" />
    <glyph glyph-name="Odieresis" unicode="&#xd6;" horiz-adv-x="780" 
d="M390 -15c-106 0 -190.833 35 -254.5 105s-95.5 159.333 -95.5 268s31.833 198 95.5 268s148.5 105 254.5 105s190.833 -35 254.5 -105s95.5 -159.333 95.5 -268s-31.833 -198 -95.5 -268s-148.5 -105 -254.5 -105zM390 64c81.333 0 144.666 27.333 189.999 82
s68 125.334 68 212.001s-22.667 157.5 -68 212.5s-108.666 82.5 -189.999 82.5s-144.666 -27.5 -189.999 -82.5s-68 -125.833 -68 -212.5s22.667 -157.334 68 -212.001s108.666 -82 189.999 -82zM433 760v95h78v-95h-78zM269 760v95h78v-95h-78z" />
    <glyph glyph-name="multiply" unicode="&#xd7;" horiz-adv-x="560" 
d="M117 117l-45 43l164 166l-164 166l45 43l163 -165l163 165l45 -43l-164 -166l164 -166l-45 -43l-163 164z" />
    <glyph glyph-name="Oslash" unicode="&#xd8;" horiz-adv-x="780" 
d="M76 -16l-38 34.999l82 88c-53.333 66.667 -80 150.334 -80 251.001c0 108.667 31.833 198 95.5 268s148.5 105 254.5 105c94 0 172.333 -28.667 235 -86l79 84l38 -35l-81 -87c52.667 -67.333 79 -150.333 79 -249c0 -108.667 -31.833 -198 -95.5 -268
s-148.5 -105 -254.5 -105c-93.333 0 -171.333 28 -234 84zM132 357.999c0 -73.333 16.332 -135.667 48.999 -187l387 413c-46 46 -105.333 69 -178 69c-81.333 0 -144.666 -27.5 -189.999 -82.5s-68 -125.833 -68 -212.5zM389.999 63.998
c81.333 0 144.667 27.332 190 81.999s68 125.334 68 212.001c0 73.333 -16 135 -48 185l-387 -412c46 -44.667 105 -67 177 -67z" />
    <glyph glyph-name="Ugrave" unicode="&#xd9;" horiz-adv-x="658" 
d="M329 -11c-83.333 0 -149.833 19.667 -199.5 59s-74.5 100.333 -74.5 183v484h90v-475c0 -116 62.333 -174 187 -174c120.667 0 181 58 181 174v475h90v-484c0 -82 -25.167 -142.833 -75.5 -182.5s-116.5 -59.5 -198.5 -59.5zM303 753l-82 121h100l51 -121h-69z" />
    <glyph glyph-name="Uacute" unicode="&#xda;" horiz-adv-x="658" 
d="M329 -11c-83.333 0 -149.833 19.667 -199.5 59s-74.5 100.333 -74.5 183v484h90v-475c0 -116 62.333 -174 187 -174c120.667 0 181 58 181 174v475h90v-484c0 -82 -25.167 -142.833 -75.5 -182.5s-116.5 -59.5 -198.5 -59.5zM292 753l51 121h100l-82 -121h-69z" />
    <glyph glyph-name="Ucircumflex" unicode="&#xdb;" horiz-adv-x="658" 
d="M329 -11c-83.333 0 -149.833 19.667 -199.5 59s-74.5 100.333 -74.5 183v484h90v-475c0 -116 62.333 -174 187 -174c120.667 0 181 58 181 174v475h90v-484c0 -82 -25.167 -142.833 -75.5 -182.5s-116.5 -59.5 -198.5 -59.5zM192 757l93 106h92l89 -106h-87l-49 63h-2
l-51 -63h-85z" />
    <glyph glyph-name="Udieresis" unicode="&#xdc;" horiz-adv-x="658" 
d="M329 -11c-83.333 0 -149.833 19.667 -199.5 59s-74.5 100.333 -74.5 183v484h90v-475c0 -116 62.333 -174 187 -174c120.667 0 181 58 181 174v475h90v-484c0 -82 -25.167 -142.833 -75.5 -182.5s-116.5 -59.5 -198.5 -59.5zM372 760v95h78v-95h-78zM208 760v95h78v-95
h-78z" />
    <glyph glyph-name="Yacute" unicode="&#xdd;" horiz-adv-x="631" 
d="M269 0v303l-259 412h100l205 -340h2l208 340h96l-262 -414v-301h-90zM278 753l51 121h100l-82 -121h-69z" />
    <glyph glyph-name="Thorn" unicode="&#xde;" horiz-adv-x="600" 
d="M67 0v715h90v-127h208c74.667 0 131.334 -23 170.001 -69c32 -37.333 48 -82.666 48 -135.999c0 -66.667 -19.333 -118.334 -58 -155.001s-96.334 -55 -173.001 -55h-195v-173h-90zM350 510h-193v-264h188c49.333 0 86.5 11.667 111.5 35s37.5 56 37.5 98
c0 42.667 -12.5 75.167 -37.5 97.5s-60.5 33.5 -106.5 33.5z" />
    <glyph glyph-name="germandbls" unicode="&#xdf;" horiz-adv-x="503" 
d="M255 -11c-16 0 -33.001 1.66699 -51.001 5v66h2c54.667 -10.667 99.667 -2.33398 135 24.999s53 69 53 125c0 48.667 -13.5 86.834 -40.5 114.501s-65.5 41.5 -115.5 41.5h-27v62h30c37.333 0 67.666 11.167 90.999 33.5s35 51.5 35 87.5c0 32.667 -10.167 59 -30.5 79
s-48.166 30 -83.499 30c-37.333 0 -66.166 -10.833 -86.499 -32.5s-30.5 -50.5 -30.5 -86.5v-539h-81v544c0 54 18 97.333 54 130s85 49 147 49c54.667 0 100.167 -15.833 136.5 -47.5s54.5 -72.834 54.5 -123.501c0 -73.333 -36 -122.666 -108 -147.999v-2
c40.667 -12 73.834 -34 99.501 -66s38.5 -73 38.5 -123c0 -68.667 -19.833 -123.167 -59.5 -163.5s-93.834 -60.5 -162.501 -60.5z" />
    <glyph glyph-name="agrave" unicode="&#xe0;" horiz-adv-x="510" 
d="M461 -5c-51.333 0 -80.9971 25.6631 -88.9971 76.9961h-1c-42.667 -54.667 -100 -82 -172 -82c-51.333 0 -93.333 12.333 -126 37s-49 60.334 -49 107.001c0 24 3.83301 44.833 11.5 62.5s17.5 32 29.5 43s28.5 20.667 49.5 29s41.167 14.666 60.5 18.999
s44 8.83301 74 13.5c19.333 2.66699 33.166 4.83398 41.499 6.50098s19.166 4.33398 32.499 8.00098s22.666 7.83398 27.999 12.501s10.333 11 15 19s7 17.333 7 28c0 29.333 -10.167 51.833 -30.5 67.5s-48.833 23.5 -85.5 23.5c-83.333 0 -126.333 -38 -129 -114h-78
c1.33301 52.667 19.5 95 54.5 127s85.5 48 151.5 48c127.333 0 191 -54.667 191 -164v-246c0 -22.667 3.83301 -38.667 11.5 -48s22.167 -11.666 43.5 -6.99902h3v-59c-13.333 -5.33301 -28 -8 -44 -8zM217.003 51.9961c50 0 88.666 14.501 115.999 43.501
s41 60.833 41 95.5v88c-24.667 -15.333 -64 -28 -118 -38l-47 -9.5c-11.333 -2.33301 -24.333 -6.33301 -39 -12s-25.667 -11.834 -33 -18.501s-13.666 -15.5 -18.999 -26.5s-8 -23.833 -8 -38.5c0 -56 35.667 -84 107 -84zM230.002 597.997l-82 127h100l51 -127h-69z" />
    <glyph glyph-name="aacute" unicode="&#xe1;" horiz-adv-x="510" 
d="M461 -5c-51.333 0 -80.9971 25.6631 -88.9971 76.9961h-1c-42.667 -54.667 -100 -82 -172 -82c-51.333 0 -93.333 12.333 -126 37s-49 60.334 -49 107.001c0 24 3.83301 44.833 11.5 62.5s17.5 32 29.5 43s28.5 20.667 49.5 29s41.167 14.666 60.5 18.999
s44 8.83301 74 13.5c19.333 2.66699 33.166 4.83398 41.499 6.50098s19.166 4.33398 32.499 8.00098s22.666 7.83398 27.999 12.501s10.333 11 15 19s7 17.333 7 28c0 29.333 -10.167 51.833 -30.5 67.5s-48.833 23.5 -85.5 23.5c-83.333 0 -126.333 -38 -129 -114h-78
c1.33301 52.667 19.5 95 54.5 127s85.5 48 151.5 48c127.333 0 191 -54.667 191 -164v-246c0 -22.667 3.83301 -38.667 11.5 -48s22.167 -11.666 43.5 -6.99902h3v-59c-13.333 -5.33301 -28 -8 -44 -8zM217.003 51.9961c50 0 88.666 14.501 115.999 43.501
s41 60.833 41 95.5v88c-24.667 -15.333 -64 -28 -118 -38l-47 -9.5c-11.333 -2.33301 -24.333 -6.33301 -39 -12s-25.667 -11.834 -33 -18.501s-13.666 -15.5 -18.999 -26.5s-8 -23.833 -8 -38.5c0 -56 35.667 -84 107 -84zM224.002 597.997l51 127h100l-82 -127h-69z" />
    <glyph glyph-name="acircumflex" unicode="&#xe2;" horiz-adv-x="510" 
d="M461 -5c-51.333 0 -80.9971 25.6631 -88.9971 76.9961h-1c-42.667 -54.667 -100 -82 -172 -82c-51.333 0 -93.333 12.333 -126 37s-49 60.334 -49 107.001c0 24 3.83301 44.833 11.5 62.5s17.5 32 29.5 43s28.5 20.667 49.5 29s41.167 14.666 60.5 18.999
s44 8.83301 74 13.5c19.333 2.66699 33.166 4.83398 41.499 6.50098s19.166 4.33398 32.499 8.00098s22.666 7.83398 27.999 12.501s10.333 11 15 19s7 17.333 7 28c0 29.333 -10.167 51.833 -30.5 67.5s-48.833 23.5 -85.5 23.5c-83.333 0 -126.333 -38 -129 -114h-78
c1.33301 52.667 19.5 95 54.5 127s85.5 48 151.5 48c127.333 0 191 -54.667 191 -164v-246c0 -22.667 3.83301 -38.667 11.5 -48s22.167 -11.666 43.5 -6.99902h3v-59c-13.333 -5.33301 -28 -8 -44 -8zM217.003 51.9961c50 0 88.666 14.501 115.999 43.501
s41 60.833 41 95.5v88c-24.667 -15.333 -64 -28 -118 -38l-47 -9.5c-11.333 -2.33301 -24.333 -6.33301 -39 -12s-25.667 -11.834 -33 -18.501s-13.666 -15.5 -18.999 -26.5s-8 -23.833 -8 -38.5c0 -56 35.667 -84 107 -84zM119.002 601.997l93 106h92l89 -106h-87l-49 63
h-2l-51 -63h-85z" />
    <glyph glyph-name="atilde" unicode="&#xe3;" horiz-adv-x="510" 
d="M461 -5c-51.333 0 -80.9971 25.6631 -88.9971 76.9961h-1c-42.667 -54.667 -100 -82 -172 -82c-51.333 0 -93.333 12.333 -126 37s-49 60.334 -49 107.001c0 24 3.83301 44.833 11.5 62.5s17.5 32 29.5 43s28.5 20.667 49.5 29s41.167 14.666 60.5 18.999
s44 8.83301 74 13.5c19.333 2.66699 33.166 4.83398 41.499 6.50098s19.166 4.33398 32.499 8.00098s22.666 7.83398 27.999 12.501s10.333 11 15 19s7 17.333 7 28c0 29.333 -10.167 51.833 -30.5 67.5s-48.833 23.5 -85.5 23.5c-83.333 0 -126.333 -38 -129 -114h-78
c1.33301 52.667 19.5 95 54.5 127s85.5 48 151.5 48c127.333 0 191 -54.667 191 -164v-246c0 -22.667 3.83301 -38.667 11.5 -48s22.167 -11.666 43.5 -6.99902h3v-59c-13.333 -5.33301 -28 -8 -44 -8zM217.003 51.9961c50 0 88.666 14.501 115.999 43.501
s41 60.833 41 95.5v88c-24.667 -15.333 -64 -28 -118 -38l-47 -9.5c-11.333 -2.33301 -24.333 -6.33301 -39 -12s-25.667 -11.834 -33 -18.501s-13.666 -15.5 -18.999 -26.5s-8 -23.833 -8 -38.5c0 -56 35.667 -84 107 -84zM320.002 600.997
c-18 0 -40.6689 5.33301 -68.002 16s-44.666 16 -51.999 16c-14 0 -21.667 -10 -23 -30h-60c5.33301 61.333 31 92 77 92c19.333 0 41 -5.33301 65 -16s41.333 -16 52 -16c15.333 0 24.333 10 27 30h58c-3.33301 -61.333 -28.666 -92 -75.999 -92z" />
    <glyph glyph-name="adieresis" unicode="&#xe4;" horiz-adv-x="510" 
d="M461 -5c-51.333 0 -80.9971 25.6631 -88.9971 76.9961h-1c-42.667 -54.667 -100 -82 -172 -82c-51.333 0 -93.333 12.333 -126 37s-49 60.334 -49 107.001c0 24 3.83301 44.833 11.5 62.5s17.5 32 29.5 43s28.5 20.667 49.5 29s41.167 14.666 60.5 18.999
s44 8.83301 74 13.5c19.333 2.66699 33.166 4.83398 41.499 6.50098s19.166 4.33398 32.499 8.00098s22.666 7.83398 27.999 12.501s10.333 11 15 19s7 17.333 7 28c0 29.333 -10.167 51.833 -30.5 67.5s-48.833 23.5 -85.5 23.5c-83.333 0 -126.333 -38 -129 -114h-78
c1.33301 52.667 19.5 95 54.5 127s85.5 48 151.5 48c127.333 0 191 -54.667 191 -164v-246c0 -22.667 3.83301 -38.667 11.5 -48s22.167 -11.666 43.5 -6.99902h3v-59c-13.333 -5.33301 -28 -8 -44 -8zM217.003 51.9961c50 0 88.666 14.501 115.999 43.501
s41 60.833 41 95.5v88c-24.667 -15.333 -64 -28 -118 -38l-47 -9.5c-11.333 -2.33301 -24.333 -6.33301 -39 -12s-25.667 -11.834 -33 -18.501s-13.666 -15.5 -18.999 -26.5s-8 -23.833 -8 -38.5c0 -56 35.667 -84 107 -84zM299.002 614.997v95h78v-95h-78zM135.002 614.997
v95h78v-95h-78z" />
    <glyph glyph-name="aring" unicode="&#xe5;" horiz-adv-x="510" 
d="M461 -5c-51.333 0 -80.9971 25.6631 -88.9971 76.9961h-1c-42.667 -54.667 -100 -82 -172 -82c-51.333 0 -93.333 12.333 -126 37s-49 60.334 -49 107.001c0 24 3.83301 44.833 11.5 62.5s17.5 32 29.5 43s28.5 20.667 49.5 29s41.167 14.666 60.5 18.999
s44 8.83301 74 13.5c19.333 2.66699 33.166 4.83398 41.499 6.50098s19.166 4.33398 32.499 8.00098s22.666 7.83398 27.999 12.501s10.333 11 15 19s7 17.333 7 28c0 29.333 -10.167 51.833 -30.5 67.5s-48.833 23.5 -85.5 23.5c-83.333 0 -126.333 -38 -129 -114h-78
c1.33301 52.667 19.5 95 54.5 127s85.5 48 151.5 48c127.333 0 191 -54.667 191 -164v-246c0 -22.667 3.83301 -38.667 11.5 -48s22.167 -11.666 43.5 -6.99902h3v-59c-13.333 -5.33301 -28 -8 -44 -8zM217.003 51.9961c50 0 88.666 14.501 115.999 43.501
s41 60.833 41 95.5v88c-24.667 -15.333 -64 -28 -118 -38l-47 -9.5c-11.333 -2.33301 -24.333 -6.33301 -39 -12s-25.667 -11.834 -33 -18.501s-13.666 -15.5 -18.999 -26.5s-8 -23.833 -8 -38.5c0 -56 35.667 -84 107 -84zM256.002 558.997c-24 0 -44.5 8.33301 -61.5 25
s-25.5 36.667 -25.5 60s8.5 43.333 25.5 60s37.5 25 61.5 25s44.5 -8.33301 61.5 -25s25.5 -36.667 25.5 -60s-8.5 -43.333 -25.5 -60s-37.5 -25 -61.5 -25zM256.002 593.997c14 0 25.333 4.83301 34 14.5s13 21.5 13 35.5s-4.33301 25.833 -13 35.5s-20 14.5 -34 14.5
s-25.333 -4.83301 -34 -14.5s-13 -21.5 -13 -35.5s4.33301 -25.833 13 -35.5s20 -14.5 34 -14.5z" />
    <glyph glyph-name="ae" unicode="&#xe6;" horiz-adv-x="841" 
d="M202 -10c-51.333 0 -93.8359 12.668 -127.503 38.001s-50.5 61.666 -50.5 108.999c0 23.333 3.83301 44 11.5 62s17.834 32.5 30.501 43.5s29.167 20.333 49.5 28s40.833 13.5 61.5 17.5s45.334 7.33301 74.001 10c43.333 4.66699 74.5 12.167 93.5 22.5
s28.5 28.5 28.5 54.5c0 29.333 -9.66699 51.833 -29 67.5s-47.333 23.5 -84 23.5c-82.667 0 -127 -38 -133 -114h-78c3.33301 51.333 22.833 93.333 58.5 126s86.167 49 151.5 49c86 0 141.667 -27 167 -81c39.333 56 95 84 167 84c72.667 0 128.167 -26.667 166.5 -80
s57.5 -123.666 57.5 -210.999h-368c2.66699 -56 16.834 -100.833 42.501 -134.5s63.167 -50.5 112.5 -50.5c32.667 0 59.5 9.33301 80.5 28s35.167 44.667 42.5 78h79c-9.33301 -54.667 -32 -97.334 -68 -128.001s-80.667 -46 -134 -46c-86 0 -149.333 35 -190 105h-2
c-28.667 -41.333 -58.667 -68.5 -90 -81.5s-71.333 -19.5 -120 -19.5zM217.997 52.001c50 0 88.501 14.5 115.501 43.5s40.5 60.833 40.5 95.5v79c-30.667 -16 -70.667 -26.667 -120 -32c-50.667 -6 -87.334 -15.5 -110.001 -28.5s-34 -36.5 -34 -70.5c0 -58 36 -87 108 -87
zM592.998 466.001c-42 0 -74.832 -15.167 -98.499 -45.5s-38.167 -70.5 -43.5 -120.5h279c-0.666992 51.333 -13.334 91.833 -38.001 121.5s-57.667 44.5 -99 44.5z" />
    <glyph glyph-name="ccedilla" unicode="&#xe7;" horiz-adv-x="519" 
d="M252 -191c-42.667 0 -78.335 9.66504 -107.002 28.998l16 29c23.333 -10 47.333 -15 72 -15c38.667 0 58 10.667 58 32c0 18.667 -12.667 28 -38 28c-13.333 0 -27 -2.33301 -41 -7l-16 24l58 58c-69.333 5.33301 -124.666 33.5 -165.999 84.5s-62 113.167 -62 186.5
c0 77.333 22.833 142 68.5 194s106.167 78 181.5 78c60.667 0 110.334 -16.167 149.001 -48.5s62.667 -76.166 72 -131.499h-82c-6 35.333 -21 63 -45 83s-55.333 30 -94 30c-53.333 0 -94.5 -19.333 -123.5 -58s-43.5 -87.667 -43.5 -147s14.5 -108.166 43.5 -146.499
s70.167 -57.5 123.5 -57.5c41.333 0 74.333 11.167 99 33.5s38.667 53.833 42 94.5h80c-4.66699 -56.667 -23.5 -101.834 -56.5 -135.501s-77.167 -53.167 -132.5 -58.5l-44 -37v-2c22 2.66699 42.833 -1.16602 62.5 -11.499s29.5 -27.833 29.5 -52.5
c0 -23.333 -9.5 -41.833 -28.5 -55.5s-44.167 -20.5 -75.5 -20.5z" />
    <glyph glyph-name="egrave" unicode="&#xe8;" horiz-adv-x="533" 
d="M276 -14c-76.667 0 -137.499 25.832 -182.499 77.499s-67.5 116.5 -67.5 194.5c0 76.667 22.833 141.167 68.5 193.5s104.5 78.5 176.5 78.5c76 0 134.667 -26.5 176 -79.5s62 -123.5 62 -211.5h-400c3.33301 -54.667 19.5 -99.167 48.5 -133.5s68.5 -51.5 118.5 -51.5
c77.333 0 125 35.333 143 106h79c-12 -55.333 -37.333 -98.166 -76 -128.499s-87.334 -45.5 -146.001 -45.5zM271.001 465.999c-46 0 -82.5 -15.333 -109.5 -46s-43.833 -70.667 -50.5 -120h311c-2.66699 52 -17 92.667 -43 122s-62 44 -108 44zM245.001 597.999l-82 127
h100l51 -127h-69z" />
    <glyph glyph-name="eacute" unicode="&#xe9;" horiz-adv-x="533" 
d="M276 -14c-76.667 0 -137.499 25.832 -182.499 77.499s-67.5 116.5 -67.5 194.5c0 76.667 22.833 141.167 68.5 193.5s104.5 78.5 176.5 78.5c76 0 134.667 -26.5 176 -79.5s62 -123.5 62 -211.5h-400c3.33301 -54.667 19.5 -99.167 48.5 -133.5s68.5 -51.5 118.5 -51.5
c77.333 0 125 35.333 143 106h79c-12 -55.333 -37.333 -98.166 -76 -128.499s-87.334 -45.5 -146.001 -45.5zM271.001 465.999c-46 0 -82.5 -15.333 -109.5 -46s-43.833 -70.667 -50.5 -120h311c-2.66699 52 -17 92.667 -43 122s-62 44 -108 44zM239.001 597.999l51 127h100
l-82 -127h-69z" />
    <glyph glyph-name="ecircumflex" unicode="&#xea;" horiz-adv-x="533" 
d="M276 -14c-76.667 0 -137.499 25.832 -182.499 77.499s-67.5 116.5 -67.5 194.5c0 76.667 22.833 141.167 68.5 193.5s104.5 78.5 176.5 78.5c76 0 134.667 -26.5 176 -79.5s62 -123.5 62 -211.5h-400c3.33301 -54.667 19.5 -99.167 48.5 -133.5s68.5 -51.5 118.5 -51.5
c77.333 0 125 35.333 143 106h79c-12 -55.333 -37.333 -98.166 -76 -128.499s-87.334 -45.5 -146.001 -45.5zM271.001 465.999c-46 0 -82.5 -15.333 -109.5 -46s-43.833 -70.667 -50.5 -120h311c-2.66699 52 -17 92.667 -43 122s-62 44 -108 44zM134.001 601.999l93 106h92
l89 -106h-87l-49 63h-2l-51 -63h-85z" />
    <glyph glyph-name="edieresis" unicode="&#xeb;" horiz-adv-x="533" 
d="M276 -14c-76.667 0 -137.499 25.832 -182.499 77.499s-67.5 116.5 -67.5 194.5c0 76.667 22.833 141.167 68.5 193.5s104.5 78.5 176.5 78.5c76 0 134.667 -26.5 176 -79.5s62 -123.5 62 -211.5h-400c3.33301 -54.667 19.5 -99.167 48.5 -133.5s68.5 -51.5 118.5 -51.5
c77.333 0 125 35.333 143 106h79c-12 -55.333 -37.333 -98.166 -76 -128.499s-87.334 -45.5 -146.001 -45.5zM271.001 465.999c-46 0 -82.5 -15.333 -109.5 -46s-43.833 -70.667 -50.5 -120h311c-2.66699 52 -17 92.667 -43 122s-62 44 -108 44zM314.001 614.999v95h78v-95
h-78zM150.001 614.999v95h78v-95h-78z" />
    <glyph glyph-name="igrave" unicode="&#xec;" horiz-adv-x="191" 
d="M55 0v517h81v-517h-81zM92 725l46 -127h-68l-77 127h99z" />
    <glyph glyph-name="iacute" unicode="&#xed;" horiz-adv-x="191" 
d="M63 598l46 127h99l-77 -127h-68zM55 0v517h81v-517h-81z" />
    <glyph glyph-name="icircumflex" unicode="&#xee;" horiz-adv-x="191" 
d="M-27 602l78 106h92l74 -106h-82l-39 61h-2l-41 -61h-80zM55 0v517h81v-517h-81z" />
    <glyph glyph-name="idieresis" unicode="&#xef;" horiz-adv-x="191" 
d="M124 615v95h78v-95h-78zM-12 615v95h78v-95h-78zM55 0v517h81v-517h-81z" />
    <glyph glyph-name="eth" unicode="&#xf0;" horiz-adv-x="551" 
d="M149 602l126.999 38.9971c-20 18.667 -50 43.334 -90 74.001h101c20.667 -14 42.334 -30.667 65.001 -50l96 30l15 -44l-73 -23c90 -98.667 135 -217.667 135 -357c0 -83.333 -22.5 -151.666 -67.5 -204.999s-105.5 -80 -181.5 -80c-75.333 0 -135.833 26 -181.5 78
s-68.5 116.667 -68.5 194s21.667 141.333 65 192s101.333 76 174 76c60 0 110.667 -24.667 152 -74c-22 52.667 -56.333 103.334 -103 152.001l-150 -46zM275.999 53.9971c52.667 0 93.5 19.4971 122.5 58.4971s43.5 88.5 43.5 148.5
c0 58.667 -14.833 106.334 -44.5 143.001s-71.5 55 -125.5 55c-52 0 -92.167 -18.667 -120.5 -56s-42.5 -85.666 -42.5 -144.999s14.5 -108.166 43.5 -146.499s70.167 -57.5 123.5 -57.5z" />
    <glyph glyph-name="ntilde" unicode="&#xf1;" horiz-adv-x="528" 
d="M136 517v-67.999h2c40 53.333 94.667 80 164 80c54.667 0 97.334 -14.333 128.001 -43s46 -69.667 46 -123v-363h-81v356c0 33.333 -10.333 59.166 -31 77.499s-49.334 27.5 -86.001 27.5c-41.333 0 -75.333 -13.333 -102 -40s-40 -61 -40 -103v-318h-81v517h81z
M329 601.001c-18 0 -40.6689 5.33301 -68.002 16s-44.666 16 -51.999 16c-14 0 -21.667 -10 -23 -30h-60c5.33301 61.333 31 92 77 92c19.333 0 41 -5.33301 65 -16s41.333 -16 52 -16c15.333 0 24.333 10 27 30h58c-3.33301 -61.333 -28.666 -92 -75.999 -92z" />
    <glyph glyph-name="ograve" unicode="&#xf2;" horiz-adv-x="551" 
d="M276 -14c-75.333 0 -135.833 26 -181.5 78s-68.5 116.667 -68.5 194s22.833 142 68.5 194s106.167 78 181.5 78s135.666 -26 180.999 -78s68 -116.667 68 -194s-22.667 -142 -68 -194s-105.666 -78 -180.999 -78zM276 54c53.333 0 94.333 19.167 123 57.5
s43 87.166 43 146.499c0 60 -14.5 109.167 -43.5 147.5s-69.833 57.5 -122.5 57.5c-53.333 0 -94.5 -19.333 -123.5 -58s-43.5 -87.667 -43.5 -147s14.5 -108.166 43.5 -146.499s70.167 -57.5 123.5 -57.5zM249 598l-82 127h100l51 -127h-69z" />
    <glyph glyph-name="oacute" unicode="&#xf3;" horiz-adv-x="551" 
d="M276 -14c-75.333 0 -135.833 26 -181.5 78s-68.5 116.667 -68.5 194s22.833 142 68.5 194s106.167 78 181.5 78s135.666 -26 180.999 -78s68 -116.667 68 -194s-22.667 -142 -68 -194s-105.666 -78 -180.999 -78zM276 54c53.333 0 94.333 19.167 123 57.5
s43 87.166 43 146.499c0 60 -14.5 109.167 -43.5 147.5s-69.833 57.5 -122.5 57.5c-53.333 0 -94.5 -19.333 -123.5 -58s-43.5 -87.667 -43.5 -147s14.5 -108.166 43.5 -146.499s70.167 -57.5 123.5 -57.5zM243 598l51 127h100l-82 -127h-69z" />
    <glyph glyph-name="ocircumflex" unicode="&#xf4;" horiz-adv-x="551" 
d="M276 -14c-75.333 0 -135.833 26 -181.5 78s-68.5 116.667 -68.5 194s22.833 142 68.5 194s106.167 78 181.5 78s135.666 -26 180.999 -78s68 -116.667 68 -194s-22.667 -142 -68 -194s-105.666 -78 -180.999 -78zM276 54c53.333 0 94.333 19.167 123 57.5
s43 87.166 43 146.499c0 60 -14.5 109.167 -43.5 147.5s-69.833 57.5 -122.5 57.5c-53.333 0 -94.5 -19.333 -123.5 -58s-43.5 -87.667 -43.5 -147s14.5 -108.166 43.5 -146.499s70.167 -57.5 123.5 -57.5zM138 602l93 106h92l89 -106h-87l-49 63h-2l-51 -63h-85z" />
    <glyph glyph-name="otilde" unicode="&#xf5;" horiz-adv-x="551" 
d="M276 -14c-75.333 0 -135.833 26 -181.5 78s-68.5 116.667 -68.5 194s22.833 142 68.5 194s106.167 78 181.5 78s135.666 -26 180.999 -78s68 -116.667 68 -194s-22.667 -142 -68 -194s-105.666 -78 -180.999 -78zM276 54c53.333 0 94.333 19.167 123 57.5
s43 87.166 43 146.499c0 60 -14.5 109.167 -43.5 147.5s-69.833 57.5 -122.5 57.5c-53.333 0 -94.5 -19.333 -123.5 -58s-43.5 -87.667 -43.5 -147s14.5 -108.166 43.5 -146.499s70.167 -57.5 123.5 -57.5zM339 601c-18 0 -40.6689 5.33301 -68.002 16
s-44.666 16 -51.999 16c-14 0 -21.667 -10 -23 -30h-60c5.33301 61.333 31 92 77 92c19.333 0 41 -5.33301 65 -16s41.333 -16 52 -16c15.333 0 24.333 10 27 30h58c-3.33301 -61.333 -28.666 -92 -75.999 -92z" />
    <glyph glyph-name="odieresis" unicode="&#xf6;" horiz-adv-x="551" 
d="M276 -14c-75.333 0 -135.833 26 -181.5 78s-68.5 116.667 -68.5 194s22.833 142 68.5 194s106.167 78 181.5 78s135.666 -26 180.999 -78s68 -116.667 68 -194s-22.667 -142 -68 -194s-105.666 -78 -180.999 -78zM276 54c53.333 0 94.333 19.167 123 57.5
s43 87.166 43 146.499c0 60 -14.5 109.167 -43.5 147.5s-69.833 57.5 -122.5 57.5c-53.333 0 -94.5 -19.333 -123.5 -58s-43.5 -87.667 -43.5 -147s14.5 -108.166 43.5 -146.499s70.167 -57.5 123.5 -57.5zM318 615v95h78v-95h-78zM154 615v95h78v-95h-78z" />
    <glyph glyph-name="divide" unicode="&#xf7;" horiz-adv-x="560" 
d="M53 294v64h454v-64h-454zM232 105v99h97v-99h-97zM232 448v99h97v-99h-97z" />
    <glyph glyph-name="oslash" unicode="&#xf8;" horiz-adv-x="551" 
d="M52 -14l-30.002 28l60 65c-37.333 50 -56 109.667 -56 179c0 77.333 22.833 142 68.5 194s106.167 78 181.5 78c64 0 119 -20.667 165 -62l57 62l30 -28l-59 -64c37.333 -50 56 -110 56 -180c0 -77.333 -22.667 -142 -68 -194s-105.666 -78 -180.999 -78
c-65.333 0 -120.666 21 -165.999 63zM275.998 54c53.333 0 94.333 19.168 123 57.501s43 87.166 43 146.499c0 46.667 -9 87 -27 121l-256 -276c29.333 -32.667 68.333 -49 117 -49zM108.998 258.001c0 -46.667 9 -87 27 -121l255 277c-28.667 32.667 -67 49 -115 49
c-53.333 0 -94.5 -19.333 -123.5 -58s-43.5 -87.667 -43.5 -147z" />
    <glyph glyph-name="ugrave" unicode="&#xf9;" horiz-adv-x="520" 
d="M465 0l-81.002 0.00195312v71h-2c-40.667 -55.333 -92.667 -83 -156 -83c-53.333 0 -95.666 15.167 -126.999 45.5s-47 72.166 -47 125.499v358h81v-356c0 -33.333 10.167 -59.333 30.5 -78s48.833 -28 85.5 -28c40.667 0 73.334 13.667 98.001 41s37 61.666 37 102.999
v318h81v-517zM235.998 598.002l-82 127h100l51 -127h-69z" />
    <glyph glyph-name="uacute" unicode="&#xfa;" horiz-adv-x="520" 
d="M465 0l-81.002 0.00195312v71h-2c-40.667 -55.333 -92.667 -83 -156 -83c-53.333 0 -95.666 15.167 -126.999 45.5s-47 72.166 -47 125.499v358h81v-356c0 -33.333 10.167 -59.333 30.5 -78s48.833 -28 85.5 -28c40.667 0 73.334 13.667 98.001 41s37 61.666 37 102.999
v318h81v-517zM229.998 598.002l51 127h100l-82 -127h-69z" />
    <glyph glyph-name="ucircumflex" unicode="&#xfb;" horiz-adv-x="520" 
d="M465 0l-81.002 0.00195312v71h-2c-40.667 -55.333 -92.667 -83 -156 -83c-53.333 0 -95.666 15.167 -126.999 45.5s-47 72.166 -47 125.499v358h81v-356c0 -33.333 10.167 -59.333 30.5 -78s48.833 -28 85.5 -28c40.667 0 73.334 13.667 98.001 41s37 61.666 37 102.999
v318h81v-517zM124.998 602.002l93 106h92l89 -106h-87l-49 63h-2l-51 -63h-85z" />
    <glyph glyph-name="udieresis" unicode="&#xfc;" horiz-adv-x="520" 
d="M465 0l-81.002 0.00195312v71h-2c-40.667 -55.333 -92.667 -83 -156 -83c-53.333 0 -95.666 15.167 -126.999 45.5s-47 72.166 -47 125.499v358h81v-356c0 -33.333 10.167 -59.333 30.5 -78s48.833 -28 85.5 -28c40.667 0 73.334 13.667 98.001 41s37 61.666 37 102.999
v318h81v-517zM304.998 615.002v95h78v-95h-78zM140.998 615.002v95h78v-95h-78z" />
    <glyph glyph-name="yacute" unicode="&#xfd;" horiz-adv-x="489" 
d="M121 -171c-30.667 0 -54.999 3.66699 -72.999 11v72h4c13.333 -7.33301 31.666 -11 54.999 -11c18 0 33 4.5 45 13.5s22.667 25.5 32 49.5l20 51l-202 502h88l122 -322l35 -101h2c12 38.667 23.333 72.334 34 101.001l118 322h86l-221 -559
c-20 -50.667 -40.667 -84.834 -62 -102.501s-49 -26.5 -83 -26.5zM217.001 598l51 127h100l-82 -127h-69z" />
    <glyph glyph-name="thorn" unicode="&#xfe;" horiz-adv-x="552" 
d="M301 -15c-69.333 0 -123.668 25.333 -163.001 76h-2v-227h-81v881h81v-271h2c42 56.667 97.333 85 166 85c66.667 0 120.334 -24.167 161.001 -72.5s61 -114.833 61 -199.5c0 -83.333 -20 -149.5 -60 -198.5s-95 -73.5 -165 -73.5zM294.998 53
c48 0 84.666 18.665 109.999 55.998s38 86.333 38 147s-12.667 109.834 -38 147.501s-61.666 56.5 -108.999 56.5c-54 0 -95 -19.167 -123 -57.5s-42 -87.166 -42 -146.499c0 -60.667 13.333 -109.667 40 -147s68 -56 124 -56z" />
    <glyph glyph-name="ydieresis" unicode="&#xff;" horiz-adv-x="489" 
d="M121 -171c-30.667 0 -54.999 3.66699 -72.999 11v72h4c13.333 -7.33301 31.666 -11 54.999 -11c18 0 33 4.5 45 13.5s22.667 25.5 32 49.5l20 51l-202 502h88l122 -322l35 -101h2c12 38.667 23.333 72.334 34 101.001l118 322h86l-221 -559
c-20 -50.667 -40.667 -84.834 -62 -102.501s-49 -26.5 -83 -26.5zM292.001 615v95h78v-95h-78zM128.001 615v95h78v-95h-78z" />
    <glyph glyph-name="Amacron" unicode="&#x100;" horiz-adv-x="648" 
d="M10 0l263 715h101l264 -715h-98l-76 218h-285l-77 -218h-92zM290 531l-85 -240h234l-82 240l-32 101h-2zM197 760v67h258v-67h-258z" />
    <glyph glyph-name="amacron" unicode="&#x101;" horiz-adv-x="510" 
d="M461 -5c-51.333 0 -80.9971 25.6631 -88.9971 76.9961h-1c-42.667 -54.667 -100 -82 -172 -82c-51.333 0 -93.333 12.333 -126 37s-49 60.334 -49 107.001c0 24 3.83301 44.833 11.5 62.5s17.5 32 29.5 43s28.5 20.667 49.5 29s41.167 14.666 60.5 18.999
s44 8.83301 74 13.5c19.333 2.66699 33.166 4.83398 41.499 6.50098s19.166 4.33398 32.499 8.00098s22.666 7.83398 27.999 12.501s10.333 11 15 19s7 17.333 7 28c0 29.333 -10.167 51.833 -30.5 67.5s-48.833 23.5 -85.5 23.5c-83.333 0 -126.333 -38 -129 -114h-78
c1.33301 52.667 19.5 95 54.5 127s85.5 48 151.5 48c127.333 0 191 -54.667 191 -164v-246c0 -22.667 3.83301 -38.667 11.5 -48s22.167 -11.666 43.5 -6.99902h3v-59c-13.333 -5.33301 -28 -8 -44 -8zM217.003 51.9961c50 0 88.666 14.501 115.999 43.501
s41 60.833 41 95.5v88c-24.667 -15.333 -64 -28 -118 -38l-47 -9.5c-11.333 -2.33301 -24.333 -6.33301 -39 -12s-25.667 -11.834 -33 -18.501s-13.666 -15.5 -18.999 -26.5s-8 -23.833 -8 -38.5c0 -56 35.667 -84 107 -84zM127.002 621.997v67h258v-67h-258z" />
    <glyph glyph-name="Abreve" unicode="&#x102;" horiz-adv-x="648" 
d="M10 0l263 715h101l264 -715h-98l-76 218h-285l-77 -218h-92zM290 531l-85 -240h234l-82 240l-32 101h-2zM326 759c-34.667 0 -64.001 10.167 -88.001 30.5s-37 47.166 -39 80.499h60c6.66699 -32.667 28.667 -49 66 -49c40 0 63.333 16.333 70 49h58
c-1.33301 -31.333 -13.666 -57.666 -36.999 -78.999s-53.333 -32 -90 -32z" />
    <glyph glyph-name="abreve" unicode="&#x103;" horiz-adv-x="510" 
d="M461 -5c-51.333 0 -80.9971 25.6631 -88.9971 76.9961h-1c-42.667 -54.667 -100 -82 -172 -82c-51.333 0 -93.333 12.333 -126 37s-49 60.334 -49 107.001c0 24 3.83301 44.833 11.5 62.5s17.5 32 29.5 43s28.5 20.667 49.5 29s41.167 14.666 60.5 18.999
s44 8.83301 74 13.5c19.333 2.66699 33.166 4.83398 41.499 6.50098s19.166 4.33398 32.499 8.00098s22.666 7.83398 27.999 12.501s10.333 11 15 19s7 17.333 7 28c0 29.333 -10.167 51.833 -30.5 67.5s-48.833 23.5 -85.5 23.5c-83.333 0 -126.333 -38 -129 -114h-78
c1.33301 52.667 19.5 95 54.5 127s85.5 48 151.5 48c127.333 0 191 -54.667 191 -164v-246c0 -22.667 3.83301 -38.667 11.5 -48s22.167 -11.666 43.5 -6.99902h3v-59c-13.333 -5.33301 -28 -8 -44 -8zM217.003 51.9961c50 0 88.666 14.501 115.999 43.501
s41 60.833 41 95.5v88c-24.667 -15.333 -64 -28 -118 -38l-47 -9.5c-11.333 -2.33301 -24.333 -6.33301 -39 -12s-25.667 -11.834 -33 -18.501s-13.666 -15.5 -18.999 -26.5s-8 -23.833 -8 -38.5c0 -56 35.667 -84 107 -84zM256.002 603.997
c-34.667 0 -64.001 10.167 -88.001 30.5s-37 47.166 -39 80.499h60c6.66699 -32.667 28.667 -49 66 -49c40 0 63.333 16.333 70 49h58c-1.33301 -31.333 -13.666 -57.666 -36.999 -78.999s-53.333 -32 -90 -32z" />
    <glyph glyph-name="Aogonek" unicode="&#x104;" horiz-adv-x="648" 
d="M592 -172c-32 0 -56.834 7.16699 -74.501 21.5s-26.5 33.5 -26.5 57.5c0 31.333 17 60.333 51 87l-78 224h-285l-77 -218h-92l263 715h101l261 -706c-45.333 -36 -68 -65.667 -68 -89c0 -22.667 13.333 -34 40 -34c14 0 26.333 2.33301 37 7h3v-56
c-19.333 -6 -37.666 -9 -54.999 -9zM289.999 531l-85 -240h234l-82 240l-32 101h-2z" />
    <glyph glyph-name="aogonek" unicode="&#x105;" horiz-adv-x="510" 
d="M452 -172c-32 0 -56.832 7.16406 -74.499 21.4971s-26.5 33.5 -26.5 57.5c0 38 23.667 69 71 93c-27.333 10 -44 34 -50 72h-1c-42.667 -54.667 -100 -82 -172 -82c-51.333 0 -93.333 12.333 -126 37s-49 60.334 -49 107.001c0 24 3.83301 44.833 11.5 62.5
s17.5 32 29.5 43s28.5 20.667 49.5 29s41.167 14.666 60.5 18.999s44 8.83301 74 13.5c19.333 2.66699 33.166 4.83398 41.499 6.50098s19.166 4.33398 32.499 8.00098s22.666 7.83398 27.999 12.501s10.333 11 15 19s7 17.333 7 28c0 29.333 -10.167 51.833 -30.5 67.5
s-48.833 23.5 -85.5 23.5c-83.333 0 -126.333 -38 -129 -114h-78c1.33301 52.667 19.5 95 54.5 127s85.5 48 151.5 48c127.333 0 191 -54.667 191 -164v-246c0 -22.667 3.83301 -38.667 11.5 -48s22.167 -11.666 43.5 -6.99902h3v-59
c-21.333 -6.66699 -39.666 -18.334 -54.999 -35.001s-23 -32.667 -23 -48c0 -22.667 13.333 -34 40 -34c14 0 26.333 2.33301 37 7h3v-56c-19.333 -6 -37.666 -9 -54.999 -9zM217.001 51.9971c50 0 88.666 14.501 115.999 43.501s41 60.833 41 95.5v88
c-24.667 -15.333 -64 -28 -118 -38l-47 -9.5c-11.333 -2.33301 -24.333 -6.33301 -39 -12s-25.667 -11.834 -33 -18.501s-13.666 -15.5 -18.999 -26.5s-8 -23.833 -8 -38.5c0 -56 35.667 -84 107 -84z" />
    <glyph glyph-name="Cacute" unicode="&#x106;" horiz-adv-x="709" 
d="M375 -14c-100.667 0 -181.667 34.6689 -243 104.002s-92 158.666 -92 267.999c0 108 30.5 197.167 91.5 267.5s143.5 105.5 247.5 105.5c81.333 0 147 -21 197 -63s80 -97 90 -165h-88c-8.66699 45.333 -30.5 81.666 -65.5 108.999s-80.167 41 -135.5 41
c-76.667 0 -136.667 -27.5 -180 -82.5s-65 -125.833 -65 -212.5c0 -88 22.5 -158.833 67.5 -212.5s104.5 -80.5 178.5 -80.5c64 0 113.5 18.667 148.5 56s54.833 84.333 59.5 141h89c-0.666992 -35.333 -8.83398 -71.5 -24.501 -108.5s-36.167 -67.833 -61.5 -92.5
c-51.333 -50 -122.666 -75 -213.999 -75zM336 753.002l51 121h100l-82 -121h-69z" />
    <glyph glyph-name="cacute" unicode="&#x107;" horiz-adv-x="519" 
d="M276 -14c-75.333 0 -135.833 25.998 -181.5 77.998s-68.5 116.667 -68.5 194s22.833 142 68.5 194s106.167 78 181.5 78c60.667 0 110.334 -16.167 149.001 -48.5s62.667 -76.166 72 -131.499h-82c-6 35.333 -21 63 -45 83s-55.333 30 -94 30
c-53.333 0 -94.5 -19.333 -123.5 -58s-43.5 -87.667 -43.5 -147s14.5 -108.166 43.5 -146.499s70.167 -57.5 123.5 -57.5c41.333 0 74.333 11.167 99 33.5s38.667 53.833 42 94.5h80c-5.33301 -62 -27.333 -110.167 -66 -144.5s-90.334 -51.5 -155.001 -51.5zM246 597.998
l51 127h100l-82 -127h-69z" />
    <glyph glyph-name="Ccircumflex" unicode="&#x108;" horiz-adv-x="709" 
d="M375 -14c-100.667 0 -181.667 34.6689 -243 104.002s-92 158.666 -92 267.999c0 108 30.5 197.167 91.5 267.5s143.5 105.5 247.5 105.5c81.333 0 147 -21 197 -63s80 -97 90 -165h-88c-8.66699 45.333 -30.5 81.666 -65.5 108.999s-80.167 41 -135.5 41
c-76.667 0 -136.667 -27.5 -180 -82.5s-65 -125.833 -65 -212.5c0 -88 22.5 -158.833 67.5 -212.5s104.5 -80.5 178.5 -80.5c64 0 113.5 18.667 148.5 56s54.833 84.333 59.5 141h89c-0.666992 -35.333 -8.83398 -71.5 -24.501 -108.5s-36.167 -67.833 -61.5 -92.5
c-51.333 -50 -122.666 -75 -213.999 -75zM236 757.002l93 106h92l89 -106h-87l-49 63h-2l-51 -63h-85z" />
    <glyph glyph-name="ccircumflex" unicode="&#x109;" horiz-adv-x="519" 
d="M276 -14c-75.333 0 -135.833 25.998 -181.5 77.998s-68.5 116.667 -68.5 194s22.833 142 68.5 194s106.167 78 181.5 78c60.667 0 110.334 -16.167 149.001 -48.5s62.667 -76.166 72 -131.499h-82c-6 35.333 -21 63 -45 83s-55.333 30 -94 30
c-53.333 0 -94.5 -19.333 -123.5 -58s-43.5 -87.667 -43.5 -147s14.5 -108.166 43.5 -146.499s70.167 -57.5 123.5 -57.5c41.333 0 74.333 11.167 99 33.5s38.667 53.833 42 94.5h80c-5.33301 -62 -27.333 -110.167 -66 -144.5s-90.334 -51.5 -155.001 -51.5zM141 601.998
l93 106h92l89 -106h-87l-49 63h-2l-51 -63h-85z" />
    <glyph glyph-name="Cdotaccent" unicode="&#x10a;" horiz-adv-x="709" 
d="M375 -14c-100.667 0 -181.667 34.6689 -243 104.002s-92 158.666 -92 267.999c0 108 30.5 197.167 91.5 267.5s143.5 105.5 247.5 105.5c81.333 0 147 -21 197 -63s80 -97 90 -165h-88c-8.66699 45.333 -30.5 81.666 -65.5 108.999s-80.167 41 -135.5 41
c-76.667 0 -136.667 -27.5 -180 -82.5s-65 -125.833 -65 -212.5c0 -88 22.5 -158.833 67.5 -212.5s104.5 -80.5 178.5 -80.5c64 0 113.5 18.667 148.5 56s54.833 84.333 59.5 141h89c-0.666992 -35.333 -8.83398 -71.5 -24.501 -108.5s-36.167 -67.833 -61.5 -92.5
c-51.333 -50 -122.666 -75 -213.999 -75zM334 760.002v95h78v-95h-78z" />
    <glyph glyph-name="cdotaccent" unicode="&#x10b;" horiz-adv-x="519" 
d="M276 -14c-75.333 0 -135.833 25.998 -181.5 77.998s-68.5 116.667 -68.5 194s22.833 142 68.5 194s106.167 78 181.5 78c60.667 0 110.334 -16.167 149.001 -48.5s62.667 -76.166 72 -131.499h-82c-6 35.333 -21 63 -45 83s-55.333 30 -94 30
c-53.333 0 -94.5 -19.333 -123.5 -58s-43.5 -87.667 -43.5 -147s14.5 -108.166 43.5 -146.499s70.167 -57.5 123.5 -57.5c41.333 0 74.333 11.167 99 33.5s38.667 53.833 42 94.5h80c-5.33301 -62 -27.333 -110.167 -66 -144.5s-90.334 -51.5 -155.001 -51.5zM238 614.998
v100h81v-100h-81z" />
    <glyph glyph-name="Ccaron" unicode="&#x10c;" horiz-adv-x="709" 
d="M375 -14c-100.667 0 -181.667 34.6689 -243 104.002s-92 158.666 -92 267.999c0 108 30.5 197.167 91.5 267.5s143.5 105.5 247.5 105.5c81.333 0 147 -21 197 -63s80 -97 90 -165h-88c-8.66699 45.333 -30.5 81.666 -65.5 108.999s-80.167 41 -135.5 41
c-76.667 0 -136.667 -27.5 -180 -82.5s-65 -125.833 -65 -212.5c0 -88 22.5 -158.833 67.5 -212.5s104.5 -80.5 178.5 -80.5c64 0 113.5 18.667 148.5 56s54.833 84.333 59.5 141h89c-0.666992 -35.333 -8.83398 -71.5 -24.501 -108.5s-36.167 -67.833 -61.5 -92.5
c-51.333 -50 -122.666 -75 -213.999 -75zM325 757.002l-89 106h87l49 -63h2l51 63h85l-93 -106h-92z" />
    <glyph glyph-name="ccaron" unicode="&#x10d;" horiz-adv-x="519" 
d="M276 -14c-75.333 0 -135.833 25.998 -181.5 77.998s-68.5 116.667 -68.5 194s22.833 142 68.5 194s106.167 78 181.5 78c60.667 0 110.334 -16.167 149.001 -48.5s62.667 -76.166 72 -131.499h-82c-6 35.333 -21 63 -45 83s-55.333 30 -94 30
c-53.333 0 -94.5 -19.333 -123.5 -58s-43.5 -87.667 -43.5 -147s14.5 -108.166 43.5 -146.499s70.167 -57.5 123.5 -57.5c41.333 0 74.333 11.167 99 33.5s38.667 53.833 42 94.5h80c-5.33301 -62 -27.333 -110.167 -66 -144.5s-90.334 -51.5 -155.001 -51.5zM230 601.998
l-89 106h87l49 -63h2l51 63h85l-93 -106h-92z" />
    <glyph glyph-name="Dcaron" unicode="&#x10e;" horiz-adv-x="684" 
d="M67 0l-0.000976562 715.001h260c104.667 0 183.667 -32.333 237 -97s80 -152.334 80 -263.001c0 -110 -27.667 -196.667 -83 -260s-135.666 -95 -240.999 -95h-253zM156.999 79.001h160c156.667 0 235 92 235 276c0 188 -76 282 -228 282h-167v-558zM265.999 757.001
l-89 106h87l49 -63h2l51 63h85l-93 -106h-92z" />
    <glyph glyph-name="dcaron" unicode="&#x10f;" horiz-adv-x="553" 
d="M255 -15c-70.667 0 -126.5 24.5 -167.5 73.5s-61.5 115.167 -61.5 198.5c0 84 21.333 150.333 64 199s97 73 163 73c70 0 124 -28.333 162 -85h2v271h81v-715h-81v63h-2c-40.667 -52 -94 -78 -160 -78zM258 53c55.333 0 96.5 18.335 123.5 55.002s40.5 86 40.5 148
c0 61.333 -14.5 110.666 -43.5 147.999s-69.5 56 -121.5 56c-47.333 0 -83.833 -18.833 -109.5 -56.5s-38.5 -86.834 -38.5 -147.501s12.833 -109.667 38.5 -147s62.5 -56 110.5 -56zM636 715.002v-80c0 -54 -28.333 -84.667 -85 -92v38c26.667 8 40 26 40 54h-40v80h85z
" />
    <glyph glyph-name="Dcroat" unicode="&#x110;" horiz-adv-x="695" 
d="M5 321l-0.000976562 76.001h73v318h260c104.667 0 183.667 -32.333 237 -97s80 -152.334 80 -263.001c0 -110 -27.667 -196.667 -83 -260s-135.666 -95 -240.999 -95h-253v321h-73zM167.999 79.001h160c156.667 0 235 92 235 276c0 188 -76 282 -228 282h-167v-240h207
v-76h-207v-242z" />
    <glyph glyph-name="dcroat" unicode="&#x111;" horiz-adv-x="553" 
d="M282 578v63h135v74h81v-74h63v-63h-63v-578h-81v63h-2c-40.667 -52 -94 -78 -160 -78c-70.667 0 -126.5 24.5 -167.5 73.5s-61.5 115.167 -61.5 198.5c0 84 21.333 150.333 64 199s97 73 163 73c70 0 124 -28.333 162 -85h2v134h-135zM258 53
c55.333 0 96.5 18.335 123.5 55.002s40.5 86 40.5 148c0 61.333 -14.5 110.666 -43.5 147.999s-69.5 56 -121.5 56c-47.333 0 -83.833 -18.833 -109.5 -56.5s-38.5 -86.834 -38.5 -147.501s12.833 -109.667 38.5 -147s62.5 -56 110.5 -56z" />
    <glyph glyph-name="Emacron" unicode="&#x112;" horiz-adv-x="622" 
d="M67 0v715h505v-79h-415v-226h377v-76h-377v-251h427v-83h-517zM202 760v67h258v-67h-258z" />
    <glyph glyph-name="emacron" unicode="&#x113;" horiz-adv-x="533" 
d="M276 -14c-76.667 0 -137.499 25.832 -182.499 77.499s-67.5 116.5 -67.5 194.5c0 76.667 22.833 141.167 68.5 193.5s104.5 78.5 176.5 78.5c76 0 134.667 -26.5 176 -79.5s62 -123.5 62 -211.5h-400c3.33301 -54.667 19.5 -99.167 48.5 -133.5s68.5 -51.5 118.5 -51.5
c77.333 0 125 35.333 143 106h79c-12 -55.333 -37.333 -98.166 -76 -128.499s-87.334 -45.5 -146.001 -45.5zM271.001 465.999c-46 0 -82.5 -15.333 -109.5 -46s-43.833 -70.667 -50.5 -120h311c-2.66699 52 -17 92.667 -43 122s-62 44 -108 44zM142.001 621.999v67h258v-67
h-258z" />
    <glyph glyph-name="Ebreve" unicode="&#x114;" horiz-adv-x="622" 
d="M67 0v715h505v-79h-415v-226h377v-76h-377v-251h427v-83h-517zM331 759c-34.667 0 -64.001 10.167 -88.001 30.5s-37 47.166 -39 80.499h60c6.66699 -32.667 28.667 -49 66 -49c40 0 63.333 16.333 70 49h58c-1.33301 -31.333 -13.666 -57.666 -36.999 -78.999
s-53.333 -32 -90 -32z" />
    <glyph glyph-name="ebreve" unicode="&#x115;" horiz-adv-x="533" 
d="M276 -14c-76.667 0 -137.499 25.832 -182.499 77.499s-67.5 116.5 -67.5 194.5c0 76.667 22.833 141.167 68.5 193.5s104.5 78.5 176.5 78.5c76 0 134.667 -26.5 176 -79.5s62 -123.5 62 -211.5h-400c3.33301 -54.667 19.5 -99.167 48.5 -133.5s68.5 -51.5 118.5 -51.5
c77.333 0 125 35.333 143 106h79c-12 -55.333 -37.333 -98.166 -76 -128.499s-87.334 -45.5 -146.001 -45.5zM271.001 465.999c-46 0 -82.5 -15.333 -109.5 -46s-43.833 -70.667 -50.5 -120h311c-2.66699 52 -17 92.667 -43 122s-62 44 -108 44zM271.001 603.999
c-34.667 0 -64.001 10.167 -88.001 30.5s-37 47.166 -39 80.499h60c6.66699 -32.667 28.667 -49 66 -49c40 0 63.333 16.333 70 49h58c-1.33301 -31.333 -13.666 -57.666 -36.999 -78.999s-53.333 -32 -90 -32z" />
    <glyph glyph-name="Edotaccent" unicode="&#x116;" horiz-adv-x="622" 
d="M67 0v715h505v-79h-415v-226h377v-76h-377v-251h427v-83h-517zM292 760v95h78v-95h-78z" />
    <glyph glyph-name="edotaccent" unicode="&#x117;" horiz-adv-x="533" 
d="M276 -14c-76.667 0 -137.499 25.832 -182.499 77.499s-67.5 116.5 -67.5 194.5c0 76.667 22.833 141.167 68.5 193.5s104.5 78.5 176.5 78.5c76 0 134.667 -26.5 176 -79.5s62 -123.5 62 -211.5h-400c3.33301 -54.667 19.5 -99.167 48.5 -133.5s68.5 -51.5 118.5 -51.5
c77.333 0 125 35.333 143 106h79c-12 -55.333 -37.333 -98.166 -76 -128.499s-87.334 -45.5 -146.001 -45.5zM271.001 465.999c-46 0 -82.5 -15.333 -109.5 -46s-43.833 -70.667 -50.5 -120h311c-2.66699 52 -17 92.667 -43 122s-62 44 -108 44zM231.001 614.999v100h81
v-100h-81z" />
    <glyph glyph-name="Eogonek" unicode="&#x118;" horiz-adv-x="622" 
d="M67 0l-0.000976562 715h505v-79h-415v-226h377v-76h-377v-251h427v-83h-61c-38.667 -32 -58 -58.667 -58 -80c0 -22.667 13.333 -34 40 -34c14 0 26.333 2.33301 37 7h3v-56c-19.333 -6 -37.666 -9 -54.999 -9c-32 0 -56.833 7.16699 -74.5 21.5s-26.5 33.5 -26.5 57.5
c0 36 20.333 67 61 93h-383z" />
    <glyph glyph-name="eogonek" unicode="&#x119;" horiz-adv-x="533" 
d="M361 -172c-32 0 -56.834 7.16699 -74.501 21.5s-26.5 33.5 -26.5 57.5c0 30.667 17.333 57.667 52 81c-16 -1.33301 -28 -2 -36 -2c-76.667 0 -137.5 25.833 -182.5 77.5s-67.5 116.5 -67.5 194.5c0 76.667 22.833 141.167 68.5 193.5s104.5 78.5 176.5 78.5
c76 0 134.667 -26.5 176 -79.5s62 -123.5 62 -211.5h-400c3.33301 -54.667 19.5 -99.167 48.5 -133.5s68.5 -51.5 118.5 -51.5c77.333 0 125 35.333 143 106h79c-11.333 -52.667 -38 -97.667 -80 -135c-20 -18 -34.5 -31.667 -43.5 -41s-17.667 -20 -26 -32
s-12.5 -22.667 -12.5 -32c0 -22.667 13.333 -34 40 -34c14 0 26.333 2.33301 37 7h3v-56c-19.333 -6 -37.666 -9 -54.999 -9zM270.999 466c-46 0 -82.5 -15.333 -109.5 -46s-43.833 -70.667 -50.5 -120h311c-2.66699 52 -17 92.667 -43 122s-62 44 -108 44z" />
    <glyph glyph-name="Ecaron" unicode="&#x11a;" horiz-adv-x="622" 
d="M67 0v715h505v-79h-415v-226h377v-76h-377v-251h427v-83h-517zM283 757l-89 106h87l49 -63h2l51 63h85l-93 -106h-92z" />
    <glyph glyph-name="ecaron" unicode="&#x11b;" horiz-adv-x="533" 
d="M276 -14c-76.667 0 -137.499 25.832 -182.499 77.499s-67.5 116.5 -67.5 194.5c0 76.667 22.833 141.167 68.5 193.5s104.5 78.5 176.5 78.5c76 0 134.667 -26.5 176 -79.5s62 -123.5 62 -211.5h-400c3.33301 -54.667 19.5 -99.167 48.5 -133.5s68.5 -51.5 118.5 -51.5
c77.333 0 125 35.333 143 106h79c-12 -55.333 -37.333 -98.166 -76 -128.499s-87.334 -45.5 -146.001 -45.5zM271.001 465.999c-46 0 -82.5 -15.333 -109.5 -46s-43.833 -70.667 -50.5 -120h311c-2.66699 52 -17 92.667 -43 122s-62 44 -108 44zM223.001 601.999l-89 106h87
l49 -63h2l51 63h85l-93 -106h-92z" />
    <glyph glyph-name="Gcircumflex" unicode="&#x11c;" horiz-adv-x="742" 
d="M627 0l-25.999 94.002h-2c-52 -72.667 -126.333 -109 -223 -109c-100 0 -181 34.333 -243 103s-93 157.667 -93 267s30.167 199.166 90.5 269.499s144.833 105.5 253.5 105.5c81.333 0 147.166 -20.5 197.499 -61.5s81.5 -97.167 93.5 -168.5h-93
c-10 48.667 -32 86.167 -66 112.5s-78.667 39.5 -134 39.5c-82.667 0 -145 -27.333 -187 -82s-63 -126.334 -63 -215.001c0 -87.333 23 -157.833 69 -211.5s105.333 -80.5 178 -80.5c70 0 123.5 20.667 160.5 62s55.5 94 55.5 158v17h-215v78h305v-378h-58zM241.001 757.002
l93 106h92l89 -106h-87l-49 63h-2l-51 -63h-85z" />
    <glyph glyph-name="gcircumflex" unicode="&#x11d;" horiz-adv-x="543" 
d="M261 -172c-66 0 -117.831 12.5 -155.498 37.5s-58.834 60.167 -63.501 105.5h75c7.33301 -52.667 54.666 -79 141.999 -79c98.667 0 148 44.333 148 133v73h-2c-20.667 -26.667 -42.667 -46.667 -66 -60s-52.333 -20 -87 -20c-66.667 0 -121 24 -163 72
s-63 109.333 -63 184c0 78 21.167 140 63.5 186s94.833 69 157.5 69c68 0 120.667 -26 158 -78h2v66h81v-489c0 -66 -20.167 -115.833 -60.5 -149.5s-95.833 -50.5 -166.5 -50.5zM256.002 86c104.667 0 157.001 64 157.001 192c0 122 -52.667 183 -158 183
c-47.333 0 -83.5 -17 -108.5 -51s-37.5 -79.667 -37.5 -137s12.667 -102.833 38 -136.5s61.666 -50.5 108.999 -50.5zM129.003 602l93 106h92l89 -106h-87l-49 63h-2l-51 -63h-85z" />
    <glyph glyph-name="Gbreve" unicode="&#x11e;" horiz-adv-x="742" 
d="M627 0l-25.999 94.002h-2c-52 -72.667 -126.333 -109 -223 -109c-100 0 -181 34.333 -243 103s-93 157.667 -93 267s30.167 199.166 90.5 269.499s144.833 105.5 253.5 105.5c81.333 0 147.166 -20.5 197.499 -61.5s81.5 -97.167 93.5 -168.5h-93
c-10 48.667 -32 86.167 -66 112.5s-78.667 39.5 -134 39.5c-82.667 0 -145 -27.333 -187 -82s-63 -126.334 -63 -215.001c0 -87.333 23 -157.833 69 -211.5s105.333 -80.5 178 -80.5c70 0 123.5 20.667 160.5 62s55.5 94 55.5 158v17h-215v78h305v-378h-58zM378.001 759.002
c-34.667 0 -64.001 10.167 -88.001 30.5s-37 47.166 -39 80.499h60c6.66699 -32.667 28.667 -49 66 -49c40 0 63.333 16.333 70 49h58c-1.33301 -31.333 -13.666 -57.666 -36.999 -78.999s-53.333 -32 -90 -32z" />
    <glyph glyph-name="gbreve" unicode="&#x11f;" horiz-adv-x="543" 
d="M261 -172c-66 0 -117.831 12.5 -155.498 37.5s-58.834 60.167 -63.501 105.5h75c7.33301 -52.667 54.666 -79 141.999 -79c98.667 0 148 44.333 148 133v73h-2c-20.667 -26.667 -42.667 -46.667 -66 -60s-52.333 -20 -87 -20c-66.667 0 -121 24 -163 72
s-63 109.333 -63 184c0 78 21.167 140 63.5 186s94.833 69 157.5 69c68 0 120.667 -26 158 -78h2v66h81v-489c0 -66 -20.167 -115.833 -60.5 -149.5s-95.833 -50.5 -166.5 -50.5zM256.002 86c104.667 0 157.001 64 157.001 192c0 122 -52.667 183 -158 183
c-47.333 0 -83.5 -17 -108.5 -51s-37.5 -79.667 -37.5 -137s12.667 -102.833 38 -136.5s61.666 -50.5 108.999 -50.5zM266.003 604c-34.667 0 -64.001 10.167 -88.001 30.5s-37 47.166 -39 80.499h60c6.66699 -32.667 28.667 -49 66 -49c40 0 63.333 16.333 70 49h58
c-1.33301 -31.333 -13.666 -57.666 -36.999 -78.999s-53.333 -32 -90 -32z" />
    <glyph glyph-name="Gdotaccent" unicode="&#x120;" horiz-adv-x="742" 
d="M627 0l-25.999 94.002h-2c-52 -72.667 -126.333 -109 -223 -109c-100 0 -181 34.333 -243 103s-93 157.667 -93 267s30.167 199.166 90.5 269.499s144.833 105.5 253.5 105.5c81.333 0 147.166 -20.5 197.499 -61.5s81.5 -97.167 93.5 -168.5h-93
c-10 48.667 -32 86.167 -66 112.5s-78.667 39.5 -134 39.5c-82.667 0 -145 -27.333 -187 -82s-63 -126.334 -63 -215.001c0 -87.333 23 -157.833 69 -211.5s105.333 -80.5 178 -80.5c70 0 123.5 20.667 160.5 62s55.5 94 55.5 158v17h-215v78h305v-378h-58zM339.001 760.002
v95h78v-95h-78z" />
    <glyph glyph-name="gdotaccent" unicode="&#x121;" horiz-adv-x="543" 
d="M261 -172c-66 0 -117.831 12.5 -155.498 37.5s-58.834 60.167 -63.501 105.5h75c7.33301 -52.667 54.666 -79 141.999 -79c98.667 0 148 44.333 148 133v73h-2c-20.667 -26.667 -42.667 -46.667 -66 -60s-52.333 -20 -87 -20c-66.667 0 -121 24 -163 72
s-63 109.333 -63 184c0 78 21.167 140 63.5 186s94.833 69 157.5 69c68 0 120.667 -26 158 -78h2v66h81v-489c0 -66 -20.167 -115.833 -60.5 -149.5s-95.833 -50.5 -166.5 -50.5zM256.002 86c104.667 0 157.001 64 157.001 192c0 122 -52.667 183 -158 183
c-47.333 0 -83.5 -17 -108.5 -51s-37.5 -79.667 -37.5 -137s12.667 -102.833 38 -136.5s61.666 -50.5 108.999 -50.5zM226.003 615v100h81v-100h-81z" />
    <glyph glyph-name="Gcommaaccent" unicode="&#x122;" horiz-adv-x="742" 
d="M627 0l-25.999 94.002h-2c-52 -72.667 -126.333 -109 -223 -109c-100 0 -181 34.333 -243 103s-93 157.667 -93 267s30.167 199.166 90.5 269.499s144.833 105.5 253.5 105.5c81.333 0 147.166 -20.5 197.499 -61.5s81.5 -97.167 93.5 -168.5h-93
c-10 48.667 -32 86.167 -66 112.5s-78.667 39.5 -134 39.5c-82.667 0 -145 -27.333 -187 -82s-63 -126.334 -63 -215.001c0 -87.333 23 -157.833 69 -211.5s105.333 -80.5 178 -80.5c70 0 123.5 20.667 160.5 62s55.5 94 55.5 158v17h-215v78h305v-378h-58z
M335.001 -227.998v38c13.333 4 23.333 10 30 18s10 21 10 39h-39v89h85v-89c0 -56 -28.667 -87.667 -86 -95z" />
    <glyph glyph-name="gcommaaccent" unicode="&#x123;" horiz-adv-x="543" 
d="M261 -172c-66 0 -117.831 12.5 -155.498 37.5s-58.834 60.167 -63.501 105.5h75c7.33301 -52.667 54.666 -79 141.999 -79c98.667 0 148 44.333 148 133v73h-2c-20.667 -26.667 -42.667 -46.667 -66 -60s-52.333 -20 -87 -20c-66.667 0 -121 24 -163 72
s-63 109.333 -63 184c0 78 21.167 140 63.5 186s94.833 69 157.5 69c68 0 120.667 -26 158 -78h2v66h81v-489c0 -66 -20.167 -115.833 -60.5 -149.5s-95.833 -50.5 -166.5 -50.5zM256.002 86c104.667 0 157.001 64 157.001 192c0 122 -52.667 183 -158 183
c-47.333 0 -83.5 -17 -108.5 -51s-37.5 -79.667 -37.5 -137s12.667 -102.833 38 -136.5s61.666 -50.5 108.999 -50.5zM305.003 788v-38c-13.333 -4 -23.333 -10 -30 -18s-10 -21 -10 -39h39v-89h-85v89c0 56 28.667 87.667 86 95z" />
    <glyph glyph-name="Hcircumflex" unicode="&#x124;" horiz-adv-x="696" 
d="M67 0v715h90v-304h382v304h90v-715h-90v338h-382v-338h-90zM211 757l93 106h92l89 -106h-87l-49 63h-2l-51 -63h-85z" />
    <glyph glyph-name="hcircumflex" unicode="&#x125;" horiz-adv-x="528" 
d="M136 715v-265.999h2c40 53.333 94.667 80 164 80c54.667 0 97.334 -14.333 128.001 -43s46 -69.667 46 -123v-363h-81v356c0 33.333 -10.333 59.166 -31 77.499s-49.334 27.5 -86.001 27.5c-41.333 0 -75.333 -13.333 -102 -40s-40 -61 -40 -103v-318h-81v715h81z
M128 757.001l93 106h92l89 -106h-87l-49 63h-2l-51 -63h-85z" />
    <glyph glyph-name="Hbar" unicode="&#x126;" horiz-adv-x="696" 
d="M-3 506v68h70v141h90v-141h382v141h90v-141h70v-68h-70v-506h-90v338h-382v-338h-90v506h-70zM157 411h382v95h-382v-95z" />
    <glyph glyph-name="hbar" unicode="&#x127;" horiz-adv-x="528" 
d="M-8 578v63.001h63v74h81v-74h135v-63h-135v-129h2c40 53.333 94.667 80 164 80c54.667 0 97.334 -14.333 128.001 -43s46 -69.667 46 -123v-363h-81v356c0 33.333 -10.333 59.166 -31 77.499s-49.334 27.5 -86.001 27.5c-41.333 0 -75.333 -13.333 -102 -40
s-40 -61 -40 -103v-318h-81v578h-63z" />
    <glyph glyph-name="Itilde" unicode="&#x128;" horiz-adv-x="228" 
d="M69 0v715h90v-715h-90zM178 760c-18 0 -40.6689 5.33301 -68.002 16s-44.666 16 -51.999 16c-14 0 -21.667 -10 -23 -30h-60c5.33301 61.333 31 92 77 92c19.333 0 41 -5.33301 65 -16s41.333 -16 52 -16c15.333 0 24.333 10 27 30h58
c-3.33301 -61.333 -28.666 -92 -75.999 -92z" />
    <glyph glyph-name="itilde" unicode="&#x129;" horiz-adv-x="191" 
d="M147 601c-13.333 0 -31.333 5.16699 -54 15.5s-37.334 15.5 -44.001 15.5c-11.333 0 -17.666 -9.66699 -18.999 -29h-58c4 61.333 28.333 92 73 92c12.667 0 30.5 -5.16699 53.5 -15.5s37.5 -15.5 43.5 -15.5c12.667 0 19.667 9.66699 21 29h56
c-2 -61.333 -26 -92 -72 -92zM55 0v517h81v-517h-81z" />
    <glyph glyph-name="Imacron" unicode="&#x12a;" horiz-adv-x="228" 
d="M69 0v715h90v-715h-90zM5 760v67h218v-67h-218z" />
    <glyph glyph-name="imacron" unicode="&#x12b;" horiz-adv-x="191" 
d="M55 0v517h81v-517h-81zM-4 622v67h198v-67h-198z" />
    <glyph glyph-name="Ibreve" unicode="&#x12c;" horiz-adv-x="228" 
d="M69 0v715h90v-715h-90zM114 759c-34.667 0 -64.001 10.167 -88.001 30.5s-37 47.166 -39 80.499h60c6.66699 -32.667 28.667 -49 66 -49c40 0 63.333 16.333 70 49h58c-1.33301 -31.333 -13.666 -57.666 -36.999 -78.999s-53.333 -32 -90 -32z" />
    <glyph glyph-name="ibreve" unicode="&#x12d;" horiz-adv-x="191" 
d="M95 604c-34.667 0 -64.001 10.167 -88.001 30.5s-37 47.166 -39 80.499h60c6.66699 -32.667 28.667 -49 66 -49c40 0 63.333 16.333 70 49h58c-1.33301 -31.333 -13.666 -57.666 -36.999 -78.999s-53.333 -32 -90 -32zM54.999 0v517h81v-517h-81z" />
    <glyph glyph-name="Iogonek" unicode="&#x12e;" horiz-adv-x="228" 
d="M69 0l-0.000976562 715h90v-713c-42 -30.667 -63 -58 -63 -82c0 -22.667 13.333 -34 40 -34c14 0 26.333 2.33301 37 7h3v-56c-19.333 -6 -37.666 -9 -54.999 -9c-32 0 -56.833 7.16699 -74.5 21.5s-26.5 33.5 -26.5 57.5c0 36 20.333 67 61 93h-12z" />
    <glyph glyph-name="iogonek" unicode="&#x12f;" horiz-adv-x="191" 
d="M1 -93c0 35.333 18 65.332 54 89.999v520h81v-515c-39.333 -29.333 -59 -56.666 -59 -81.999c0 -22.667 12 -34 36 -34c13.333 0 25.333 2.33301 36 7h3v-56c-19.333 -6 -37.333 -9 -54 -9c-30.667 0 -54.5 7.16699 -71.5 21.5s-25.5 33.5 -25.5 57.5zM55 614.999v100h81
v-100h-81z" />
    <glyph glyph-name="Idotaccent" unicode="&#x130;" horiz-adv-x="228" 
d="M69 0v715h90v-715h-90zM75 760v95h78v-95h-78z" />
    <glyph glyph-name="dotlessi" unicode="&#x131;" horiz-adv-x="191" 
d="M55 0v517h81v-517h-81z" />
    <glyph glyph-name="IJ" unicode="&#x132;" horiz-adv-x="708" 
d="M69 0v715h90v-715h-90zM443 -14c-140 0 -210.001 78.665 -210.001 235.998v10h89v-7c0 -61.333 9.83301 -104.166 29.5 -128.499s51.167 -36.5 94.5 -36.5c76 0 114 42.333 114 127v528h90v-534c0 -59.333 -17.667 -106.666 -53 -141.999s-86.666 -53 -153.999 -53z" />
    <glyph glyph-name="ij" unicode="&#x133;" horiz-adv-x="382" 
d="M55 0v517h81v-517h-81zM55 615v100h81v-100h-81zM208 -147c-12.667 0 -27.667 1.33301 -45 4v66h2c10 -2 19.333 -3 28 -3c35.333 0 53 16.667 53 50v547h81v-551c0 -44 -10.333 -73.833 -31 -89.5s-50 -23.5 -88 -23.5zM246 615v100h81v-100h-81z" />
    <glyph glyph-name="Jcircumflex" unicode="&#x134;" horiz-adv-x="497" 
d="M232 -14c-140 0 -209.999 78.665 -209.999 235.998v10h89v-7c0 -61.333 9.83301 -104.166 29.5 -128.499s51.167 -36.5 94.5 -36.5c76 0 114 42.333 114 127v528h90v-534c0 -59.333 -17.833 -106.666 -53.5 -141.999s-86.834 -53 -153.501 -53zM257.001 756.998l93 106
h92l89 -106h-87l-49 63h-2l-51 -63h-85z" />
    <glyph glyph-name="jcircumflex" unicode="&#x135;" horiz-adv-x="191" 
d="M-27 602l78 106h92l74 -106h-82l-39 61h-2l-41 -61h-80zM17 -147c-12.667 0 -27.667 1.33301 -45 4v66h2c10 -2 19.333 -3 28 -3c35.333 0 53 16.667 53 50v547h81v-551c0 -44 -10.333 -73.833 -31 -89.5s-50 -23.5 -88 -23.5z" />
    <glyph glyph-name="Kcommaaccent" unicode="&#x136;" horiz-adv-x="644" 
d="M67 0v715h90v-355l352 355h113l-289 -286l313 -429h-105l-269 368l-115 -115v-253h-90zM275 -228v38c13.333 4 23.333 10 30 18s10 21 10 39h-39v89h85v-89c0 -56 -28.667 -87.667 -86 -95z" />
    <glyph glyph-name="kcommaaccent" unicode="&#x137;" horiz-adv-x="489" 
d="M395 0l-183 279l-76 -72v-207h-81v715h81v-419l227 221h103l-198 -186l222 -331h-95zM211 -228v38c13.333 4 23.333 10 30 18s10 21 10 39h-39v89h85v-89c0 -56 -28.667 -87.667 -86 -95z" />
    <glyph glyph-name="Lacute" unicode="&#x139;" horiz-adv-x="554" 
d="M67 0v715h90v-632h375v-83h-465zM75 753l51 121h100l-82 -121h-69z" />
    <glyph glyph-name="lacute" unicode="&#x13a;" horiz-adv-x="197" 
d="M58 0v715h81v-715h-81zM66 753l51 121h100l-82 -121h-69z" />
    <glyph glyph-name="Lcommaaccent" unicode="&#x13b;" horiz-adv-x="554" 
d="M67 0v715h90v-632h375v-83h-465zM262 -228v38c13.333 4 23.333 10 30 18s10 21 10 39h-39v89h85v-89c0 -56 -28.667 -87.667 -86 -95z" />
    <glyph glyph-name="lcommaaccent" unicode="&#x13c;" horiz-adv-x="197" 
d="M58 0v715h81v-715h-81zM55 -228v38c13.333 4 23.333 10 30 18s10 21 10 39h-39v89h85v-89c0 -56 -28.667 -87.667 -86 -95z" />
    <glyph glyph-name="Lcaron" unicode="&#x13d;" horiz-adv-x="554" 
d="M67 0v715h90v-632h375v-83h-465zM403 715v-80c0 -54 -28.333 -84.667 -85 -92v38c26.667 8 40 26 40 54h-40v80h85z" />
    <glyph glyph-name="lcaron" unicode="&#x13e;" horiz-adv-x="197" 
d="M58 0v715h81v-715h-81zM277 715v-80c0 -54 -28.333 -84.667 -85 -92v38c26.667 8 40 26 40 54h-40v80h85z" />
    <glyph glyph-name="Ldot" unicode="&#x13f;" horiz-adv-x="554" 
d="M67 0v715h90v-632h375v-83h-465zM364 330v99h97v-99h-97z" />
    <glyph glyph-name="ldot" unicode="&#x140;" horiz-adv-x="294" 
d="M58 0v715h81v-715h-81zM194 293v99h97v-99h-97z" />
    <glyph glyph-name="Lslash" unicode="&#x141;" horiz-adv-x="554" 
d="M-5 201v77l72 38v399h90v-350l248 133v-77l-248 -133v-205h375v-83h-465v239z" />
    <glyph glyph-name="lslash" unicode="&#x142;" horiz-adv-x="227" 
d="M5 241v77l68 55v342h81v-277l79 64v-77l-79 -64v-361h-81v296z" />
    <glyph glyph-name="Nacute" unicode="&#x143;" horiz-adv-x="693" 
d="M67 0v715h95l326 -497l52 -92h2v589h84v-715h-92l-328 498l-53 89h-2v-587h-84zM326 753l51 121h100l-82 -121h-69z" />
    <glyph glyph-name="nacute" unicode="&#x144;" horiz-adv-x="528" 
d="M136 517v-67.999h2c40 53.333 94.667 80 164 80c54.667 0 97.334 -14.333 128.001 -43s46 -69.667 46 -123v-363h-81v356c0 33.333 -10.333 59.166 -31 77.499s-49.334 27.5 -86.001 27.5c-41.333 0 -75.333 -13.333 -102 -40s-40 -61 -40 -103v-318h-81v517h81z
M233 598.001l51 127h100l-82 -127h-69z" />
    <glyph glyph-name="Ncommaaccent" unicode="&#x145;" horiz-adv-x="693" 
d="M67 0v715h95l326 -497l52 -92h2v589h84v-715h-92l-328 498l-53 89h-2v-587h-84zM291 -228v38c13.333 4 23.333 10 30 18s10 21 10 39h-39v89h85v-89c0 -56 -28.667 -87.667 -86 -95z" />
    <glyph glyph-name="ncommaaccent" unicode="&#x146;" horiz-adv-x="528" 
d="M136 517v-67.999h2c40 53.333 94.667 80 164 80c54.667 0 97.334 -14.333 128.001 -43s46 -69.667 46 -123v-363h-81v356c0 33.333 -10.333 59.166 -31 77.499s-49.334 27.5 -86.001 27.5c-41.333 0 -75.333 -13.333 -102 -40s-40 -61 -40 -103v-318h-81v517h81z
M222 -227.999v38c13.333 4 23.333 10 30 18s10 21 10 39h-39v89h85v-89c0 -56 -28.667 -87.667 -86 -95z" />
    <glyph glyph-name="Ncaron" unicode="&#x147;" horiz-adv-x="693" 
d="M67 0v715h95l326 -497l52 -92h2v589h84v-715h-92l-328 498l-53 89h-2v-587h-84zM315 757l-89 106h87l49 -63h2l51 63h85l-93 -106h-92z" />
    <glyph glyph-name="ncaron" unicode="&#x148;" horiz-adv-x="528" 
d="M136 517v-67.999h2c40 53.333 94.667 80 164 80c54.667 0 97.334 -14.333 128.001 -43s46 -69.667 46 -123v-363h-81v356c0 33.333 -10.333 59.166 -31 77.499s-49.334 27.5 -86.001 27.5c-41.333 0 -75.333 -13.333 -102 -40s-40 -61 -40 -103v-318h-81v517h81z
M217 602.001l-89 106h87l49 -63h2l51 63h85l-93 -106h-92z" />
    <glyph glyph-name="napostrophe" unicode="&#x149;" horiz-adv-x="528" 
d="M136 517v-67.999h2c40 53.333 94.667 80 164 80c54.667 0 97.334 -14.333 128.001 -43s46 -69.667 46 -123v-363h-81v356c0 33.333 -10.333 59.166 -31 77.499s-49.334 27.5 -86.001 27.5c-41.333 0 -75.333 -13.333 -102 -40s-40 -61 -40 -103v-318h-81v517h81z
M73 715.001v-80c0 -54 -28.333 -84.667 -85 -92v38c26.667 8 40 26 40 54h-40v80h85z" />
    <glyph glyph-name="Omacron" unicode="&#x14c;" horiz-adv-x="780" 
d="M390 -15c-106 0 -190.833 35 -254.5 105s-95.5 159.333 -95.5 268s31.833 198 95.5 268s148.5 105 254.5 105s190.833 -35 254.5 -105s95.5 -159.333 95.5 -268s-31.833 -198 -95.5 -268s-148.5 -105 -254.5 -105zM390 64c81.333 0 144.666 27.333 189.999 82
s68 125.334 68 212.001s-22.667 157.5 -68 212.5s-108.666 82.5 -189.999 82.5s-144.666 -27.5 -189.999 -82.5s-68 -125.833 -68 -212.5s22.667 -157.334 68 -212.001s108.666 -82 189.999 -82zM261 760v67h258v-67h-258z" />
    <glyph glyph-name="omacron" unicode="&#x14d;" horiz-adv-x="551" 
d="M276 -14c-75.333 0 -135.833 26 -181.5 78s-68.5 116.667 -68.5 194s22.833 142 68.5 194s106.167 78 181.5 78s135.666 -26 180.999 -78s68 -116.667 68 -194s-22.667 -142 -68 -194s-105.666 -78 -180.999 -78zM276 54c53.333 0 94.333 19.167 123 57.5
s43 87.166 43 146.499c0 60 -14.5 109.167 -43.5 147.5s-69.833 57.5 -122.5 57.5c-53.333 0 -94.5 -19.333 -123.5 -58s-43.5 -87.667 -43.5 -147s14.5 -108.166 43.5 -146.499s70.167 -57.5 123.5 -57.5zM146 622v67h258v-67h-258z" />
    <glyph glyph-name="Obreve" unicode="&#x14e;" horiz-adv-x="780" 
d="M390 -15c-106 0 -190.833 35 -254.5 105s-95.5 159.333 -95.5 268s31.833 198 95.5 268s148.5 105 254.5 105s190.833 -35 254.5 -105s95.5 -159.333 95.5 -268s-31.833 -198 -95.5 -268s-148.5 -105 -254.5 -105zM390 64c81.333 0 144.666 27.333 189.999 82
s68 125.334 68 212.001s-22.667 157.5 -68 212.5s-108.666 82.5 -189.999 82.5s-144.666 -27.5 -189.999 -82.5s-68 -125.833 -68 -212.5s22.667 -157.334 68 -212.001s108.666 -82 189.999 -82zM390 759c-34.667 0 -64.001 10.167 -88.001 30.5s-37 47.166 -39 80.499h60
c6.66699 -32.667 28.667 -49 66 -49c40 0 63.333 16.333 70 49h58c-1.33301 -31.333 -13.666 -57.666 -36.999 -78.999s-53.333 -32 -90 -32z" />
    <glyph glyph-name="obreve" unicode="&#x14f;" horiz-adv-x="551" 
d="M276 -14c-75.333 0 -135.833 26 -181.5 78s-68.5 116.667 -68.5 194s22.833 142 68.5 194s106.167 78 181.5 78s135.666 -26 180.999 -78s68 -116.667 68 -194s-22.667 -142 -68 -194s-105.666 -78 -180.999 -78zM276 54c53.333 0 94.333 19.167 123 57.5
s43 87.166 43 146.499c0 60 -14.5 109.167 -43.5 147.5s-69.833 57.5 -122.5 57.5c-53.333 0 -94.5 -19.333 -123.5 -58s-43.5 -87.667 -43.5 -147s14.5 -108.166 43.5 -146.499s70.167 -57.5 123.5 -57.5zM275 604c-34.667 0 -64.001 10.167 -88.001 30.5
s-37 47.166 -39 80.499h60c6.66699 -32.667 28.667 -49 66 -49c40 0 63.333 16.333 70 49h58c-1.33301 -31.333 -13.666 -57.666 -36.999 -78.999s-53.333 -32 -90 -32z" />
    <glyph glyph-name="Ohungarumlaut" unicode="&#x150;" horiz-adv-x="780" 
d="M390 -15c-106 0 -190.833 35 -254.5 105s-95.5 159.333 -95.5 268s31.833 198 95.5 268s148.5 105 254.5 105s190.833 -35 254.5 -105s95.5 -159.333 95.5 -268s-31.833 -198 -95.5 -268s-148.5 -105 -254.5 -105zM390 64c81.333 0 144.666 27.333 189.999 82
s68 125.334 68 212.001s-22.667 157.5 -68 212.5s-108.666 82.5 -189.999 82.5s-144.666 -27.5 -189.999 -82.5s-68 -125.833 -68 -212.5s22.667 -157.334 68 -212.001s108.666 -82 189.999 -82zM433 753l31 127h82l-52 -127h-61zM303 753l31 127h82l-52 -127h-61z" />
    <glyph glyph-name="ohungarumlaut" unicode="&#x151;" horiz-adv-x="551" 
d="M276 -14c-75.333 0 -135.833 26 -181.5 78s-68.5 116.667 -68.5 194s22.833 142 68.5 194s106.167 78 181.5 78s135.666 -26 180.999 -78s68 -116.667 68 -194s-22.667 -142 -68 -194s-105.666 -78 -180.999 -78zM276 54c53.333 0 94.333 19.167 123 57.5
s43 87.166 43 146.499c0 60 -14.5 109.167 -43.5 147.5s-69.833 57.5 -122.5 57.5c-53.333 0 -94.5 -19.333 -123.5 -58s-43.5 -87.667 -43.5 -147s14.5 -108.166 43.5 -146.499s70.167 -57.5 123.5 -57.5zM313 598l31 127h82l-52 -127h-61zM183 598l31 127h82l-52 -127h-61
z" />
    <glyph glyph-name="OE" unicode="&#x152;" horiz-adv-x="1072" 
d="M367 -15c-96 0 -174.5 35.167 -235.5 105.5s-91.5 159.5 -91.5 267.5c0 107.333 31 196.333 93 267s140 106 234 106c75.333 0 136 -27.333 182 -82v66h473v-79h-383v-226h345v-76h-345v-251h395v-83h-485v56c-44 -47.333 -104.667 -71 -182 -71zM369 64
c47.333 0 89.166 12.001 125.499 36.001s54.5 55.667 54.5 95v327c-2.66699 37.333 -22 68.5 -58 93.5s-76.667 37.5 -122 37.5c-73.333 0 -131.166 -27.667 -173.499 -83s-63.5 -126 -63.5 -212c0 -86.667 21 -157.334 63 -212.001s100 -82 174 -82z" />
    <glyph glyph-name="oe" unicode="&#x153;" horiz-adv-x="858" 
d="M251 -14c-70 0 -125.001 25.833 -165.001 77.5s-60 116.5 -60 194.5s20 142.833 60 194.5s95 77.5 165 77.5c79.333 0 138.333 -37 177 -111c37.333 74 98 111 182 111c72.667 0 128.167 -26.667 166.5 -80s57.5 -123.666 57.5 -210.999h-368
c2.66699 -56 16.834 -100.833 42.501 -134.5s63.167 -50.5 112.5 -50.5c32.667 0 59.5 9.33301 80.5 28s35.167 44.667 42.5 78h79c-9.33301 -54.667 -32 -97.334 -68 -128.001s-80.667 -46 -134 -46c-90 0 -154 37.667 -192 113c-38 -75.333 -97.333 -113 -178 -113z
M250.999 54c46 0 81 19 105 57s36 87 36 147s-12 109.167 -36 147.5s-59 57.5 -105 57.5s-81.167 -19.167 -105.5 -57.5s-36.5 -87.5 -36.5 -147.5s12.167 -109 36.5 -147s59.5 -57 105.5 -57zM609.999 466c-42 0 -74.832 -15.167 -98.499 -45.5s-38.167 -70.5 -43.5 -120.5
h279c-0.666992 51.333 -13.334 91.833 -38.001 121.5s-57.667 44.5 -99 44.5z" />
    <glyph glyph-name="Racute" unicode="&#x154;" horiz-adv-x="654" 
d="M67 0l-0.000976562 715h334c62.667 0 113.5 -18 152.5 -54s58.5 -83.333 58.5 -142c0 -91.333 -41.333 -150.333 -124 -177v-3c35.333 -12.667 60.5 -32.5 75.5 -59.5s24.167 -67.833 27.5 -122.5c6.66699 -91.333 17.667 -142.333 33 -153v-4h-97
c-7.33301 6 -12.5 18.667 -15.5 38s-6.5 60 -10.5 122c-3.33301 52 -16.166 88.667 -38.499 110s-57.833 32 -106.5 32h-199v-302h-90zM156.999 637l0.000976562 -262h212c49.333 0 86.666 11.5 111.999 34.5s38 55.167 38 96.5c0 44.667 -11.333 77.667 -34 99
s-59.667 32 -111 32h-217zM290 753l51 121h100l-82 -121h-69z" />
    <glyph glyph-name="racute" unicode="&#x155;" horiz-adv-x="343" 
d="M136 517l-0.00292969 -86h2c16.667 27.333 38.334 49.5 65.001 66.5s56.334 25.5 89.001 25.5c12 0 23 -2 33 -6v-78h-3c-10 3.33301 -22 5 -36 5c-41.333 0 -76.666 -14.5 -105.999 -43.5s-44 -66.833 -44 -113.5v-287h-81v517h81zM164.997 598l51 127h100l-82 -127h-69
z" />
    <glyph glyph-name="Rcommaaccent" unicode="&#x156;" horiz-adv-x="654" 
d="M67 0l-0.000976562 715h334c62.667 0 113.5 -18 152.5 -54s58.5 -83.333 58.5 -142c0 -91.333 -41.333 -150.333 -124 -177v-3c35.333 -12.667 60.5 -32.5 75.5 -59.5s24.167 -67.833 27.5 -122.5c6.66699 -91.333 17.667 -142.333 33 -153v-4h-97
c-7.33301 6 -12.5 18.667 -15.5 38s-6.5 60 -10.5 122c-3.33301 52 -16.166 88.667 -38.499 110s-57.833 32 -106.5 32h-199v-302h-90zM156.999 637l0.000976562 -262h212c49.333 0 86.666 11.5 111.999 34.5s38 55.167 38 96.5c0 44.667 -11.333 77.667 -34 99
s-59.667 32 -111 32h-217zM302 -228v38c13.333 4 23.333 10 30 18s10 21 10 39h-39v89h85v-89c0 -56 -28.667 -87.667 -86 -95z" />
    <glyph glyph-name="rcommaaccent" unicode="&#x157;" horiz-adv-x="343" 
d="M136 517l-0.00292969 -86h2c16.667 27.333 38.334 49.5 65.001 66.5s56.334 25.5 89.001 25.5c12 0 23 -2 33 -6v-78h-3c-10 3.33301 -22 5 -36 5c-41.333 0 -76.666 -14.5 -105.999 -43.5s-44 -66.833 -44 -113.5v-287h-81v517h81zM51.9971 -228v38
c13.333 4 23.333 10 30 18s10 21 10 39h-39v89h85v-89c0 -56 -28.667 -87.667 -86 -95z" />
    <glyph glyph-name="Rcaron" unicode="&#x158;" horiz-adv-x="654" 
d="M67 0l-0.000976562 715h334c62.667 0 113.5 -18 152.5 -54s58.5 -83.333 58.5 -142c0 -91.333 -41.333 -150.333 -124 -177v-3c35.333 -12.667 60.5 -32.5 75.5 -59.5s24.167 -67.833 27.5 -122.5c6.66699 -91.333 17.667 -142.333 33 -153v-4h-97
c-7.33301 6 -12.5 18.667 -15.5 38s-6.5 60 -10.5 122c-3.33301 52 -16.166 88.667 -38.499 110s-57.833 32 -106.5 32h-199v-302h-90zM156.999 637l0.000976562 -262h212c49.333 0 86.666 11.5 111.999 34.5s38 55.167 38 96.5c0 44.667 -11.333 77.667 -34 99
s-59.667 32 -111 32h-217zM279 757l-89 106h87l49 -63h2l51 63h85l-93 -106h-92z" />
    <glyph glyph-name="rcaron" unicode="&#x159;" horiz-adv-x="343" 
d="M136 517l-0.00292969 -86h2c16.667 27.333 38.334 49.5 65.001 66.5s56.334 25.5 89.001 25.5c12 0 23 -2 33 -6v-78h-3c-10 3.33301 -22 5 -36 5c-41.333 0 -76.666 -14.5 -105.999 -43.5s-44 -66.833 -44 -113.5v-287h-81v517h81zM148.997 602l-89 106h87l49 -63h2
l51 63h85l-93 -106h-92z" />
    <glyph glyph-name="Sacute" unicode="&#x15a;" horiz-adv-x="626" 
d="M327 -14c-96 0 -169.829 23.665 -221.496 70.998s-79.5 109 -83.5 185h88c12 -122.667 85.667 -184 221 -184c51.333 0 92.5 11.5 123.5 34.5s46.5 56.167 46.5 99.5c0 19.333 -3.66699 36.333 -11 51s-16.166 26.667 -26.499 36s-25.833 18 -46.5 26
s-39.834 14.333 -57.501 19s-41.834 10.334 -72.501 17.001c-36.667 8 -67 16.167 -91 24.5s-48 19.833 -72 34.5s-41.833 33.5 -53.5 56.5s-17.5 50.833 -17.5 83.5c0 58.667 22.167 104.834 66.5 138.501s103.166 50.5 176.499 50.5c160.667 0 251 -74.333 271 -223h-85
c-6.66699 50.667 -25.667 88.834 -57 114.501s-73.666 38.5 -126.999 38.5c-49.333 0 -88.5 -10 -117.5 -30s-43.5 -48.333 -43.5 -85c0 -16 3.16699 -30.167 9.5 -42.5s14.666 -22.666 24.999 -30.999s24 -15.833 41 -22.5s33.833 -12.167 50.5 -16.5s37 -8.83301 61 -13.5
c33.333 -6.66699 60.666 -12.834 81.999 -18.501s45 -14.167 71 -25.5s46.167 -24.333 60.5 -39s26.666 -33.834 36.999 -57.501s15.5 -51.167 15.5 -82.5c0 -65.333 -24.167 -116.5 -72.5 -153.5s-111.833 -55.5 -190.5 -55.5zM267.004 752.998l51 121h100l-82 -121h-69z
" />
    <glyph glyph-name="sacute" unicode="&#x15b;" horiz-adv-x="478" 
d="M251 -15c-70.667 0 -125.504 15.833 -164.504 47.5s-60.5 76.834 -64.5 135.501h83c9.33301 -76.667 58.666 -115 147.999 -115c40.667 0 70.834 7.83301 90.501 23.5s29.5 36.167 29.5 61.5c0 27.333 -9.66699 47 -29 59s-54.666 23.333 -105.999 34
c-21.333 4.66699 -38.166 8.5 -50.499 11.5s-27.166 7.33301 -44.499 13s-30.833 12 -40.5 19s-19.5 15.5 -29.5 25.5s-17.167 22.333 -21.5 37s-6.5 31 -6.5 49c0 44 16.167 78.667 48.5 104s78.166 38 137.499 38c122.667 0 190.334 -54 203.001 -162h-83
c-4 34 -15.667 58.833 -35 74.5s-48.333 23.5 -87 23.5c-35.333 0 -61.5 -6.83301 -78.5 -20.5s-25.5 -31.5 -25.5 -53.5c0 -25.333 10 -43.166 30 -53.499s56.333 -20.833 109 -31.5c32 -6.66699 57.167 -12.834 75.5 -18.501s37.5 -14.334 57.5 -26.001
s34.667 -27.167 44 -46.5s14 -43.333 14 -72c0 -50.667 -18.667 -89.5 -56 -116.5s-86.666 -40.5 -147.999 -40.5zM205.996 598l51 127h100l-82 -127h-69z" />
    <glyph glyph-name="Scircumflex" unicode="&#x15c;" horiz-adv-x="626" 
d="M327 -14c-96 0 -169.829 23.665 -221.496 70.998s-79.5 109 -83.5 185h88c12 -122.667 85.667 -184 221 -184c51.333 0 92.5 11.5 123.5 34.5s46.5 56.167 46.5 99.5c0 19.333 -3.66699 36.333 -11 51s-16.166 26.667 -26.499 36s-25.833 18 -46.5 26
s-39.834 14.333 -57.501 19s-41.834 10.334 -72.501 17.001c-36.667 8 -67 16.167 -91 24.5s-48 19.833 -72 34.5s-41.833 33.5 -53.5 56.5s-17.5 50.833 -17.5 83.5c0 58.667 22.167 104.834 66.5 138.501s103.166 50.5 176.499 50.5c160.667 0 251 -74.333 271 -223h-85
c-6.66699 50.667 -25.667 88.834 -57 114.501s-73.666 38.5 -126.999 38.5c-49.333 0 -88.5 -10 -117.5 -30s-43.5 -48.333 -43.5 -85c0 -16 3.16699 -30.167 9.5 -42.5s14.666 -22.666 24.999 -30.999s24 -15.833 41 -22.5s33.833 -12.167 50.5 -16.5s37 -8.83301 61 -13.5
c33.333 -6.66699 60.666 -12.834 81.999 -18.501s45 -14.167 71 -25.5s46.167 -24.333 60.5 -39s26.666 -33.834 36.999 -57.501s15.5 -51.167 15.5 -82.5c0 -65.333 -24.167 -116.5 -72.5 -153.5s-111.833 -55.5 -190.5 -55.5zM167.004 756.998l93 106h92l89 -106h-87
l-49 63h-2l-51 -63h-85z" />
    <glyph glyph-name="scircumflex" unicode="&#x15d;" horiz-adv-x="478" 
d="M251 -15c-70.667 0 -125.504 15.833 -164.504 47.5s-60.5 76.834 -64.5 135.501h83c9.33301 -76.667 58.666 -115 147.999 -115c40.667 0 70.834 7.83301 90.501 23.5s29.5 36.167 29.5 61.5c0 27.333 -9.66699 47 -29 59s-54.666 23.333 -105.999 34
c-21.333 4.66699 -38.166 8.5 -50.499 11.5s-27.166 7.33301 -44.499 13s-30.833 12 -40.5 19s-19.5 15.5 -29.5 25.5s-17.167 22.333 -21.5 37s-6.5 31 -6.5 49c0 44 16.167 78.667 48.5 104s78.166 38 137.499 38c122.667 0 190.334 -54 203.001 -162h-83
c-4 34 -15.667 58.833 -35 74.5s-48.333 23.5 -87 23.5c-35.333 0 -61.5 -6.83301 -78.5 -20.5s-25.5 -31.5 -25.5 -53.5c0 -25.333 10 -43.166 30 -53.499s56.333 -20.833 109 -31.5c32 -6.66699 57.167 -12.834 75.5 -18.501s37.5 -14.334 57.5 -26.001
s34.667 -27.167 44 -46.5s14 -43.333 14 -72c0 -50.667 -18.667 -89.5 -56 -116.5s-86.666 -40.5 -147.999 -40.5zM100.996 602l93 106h92l89 -106h-87l-49 63h-2l-51 -63h-85z" />
    <glyph glyph-name="Scedilla" unicode="&#x15e;" horiz-adv-x="626" 
d="M298 -191c-42.667 0 -78.3291 9.66406 -106.996 28.9971l16 29c23.333 -10 47.333 -15 72 -15c38.667 0 58 10.667 58 32c0 18.667 -12.667 28 -38 28c-13.333 0 -27 -2.33301 -41 -7l-16 24l58 58c-88 4.66699 -155.333 30.167 -202 76.5s-72 105.833 -76 178.5h88
c12 -122.667 85.667 -184 221 -184c51.333 0 92.5 11.5 123.5 34.5s46.5 56.167 46.5 99.5c0 19.333 -3.66699 36.333 -11 51s-16.166 26.667 -26.499 36s-25.833 18 -46.5 26s-39.834 14.333 -57.501 19s-41.834 10.334 -72.501 17.001c-36.667 8 -67 16.167 -91 24.5
s-48 19.833 -72 34.5s-41.833 33.5 -53.5 56.5s-17.5 50.833 -17.5 83.5c0 58.667 22.167 104.834 66.5 138.501s103.166 50.5 176.499 50.5c160.667 0 251 -74.333 271 -223h-85c-6.66699 50.667 -25.667 88.834 -57 114.501s-73.666 38.5 -126.999 38.5
c-49.333 0 -88.5 -10 -117.5 -30s-43.5 -48.333 -43.5 -85c0 -16 3.16699 -30.167 9.5 -42.5s14.666 -22.666 24.999 -30.999s24 -15.833 41 -22.5s33.833 -12.167 50.5 -16.5s37 -8.83301 61 -13.5c33.333 -6.66699 60.666 -12.834 81.999 -18.501s45 -14.167 71 -25.5
s46.167 -24.333 60.5 -39s26.666 -33.834 36.999 -57.501s15.5 -51.167 15.5 -82.5c0 -62 -21.5 -111.167 -64.5 -147.5s-100.5 -56.5 -172.5 -60.5l-43 -36v-2c22 2.66699 42.833 -1.16602 62.5 -11.499s29.5 -27.833 29.5 -52.5c0 -23.333 -9.5 -41.833 -28.5 -55.5
s-44.167 -20.5 -75.5 -20.5z" />
    <glyph glyph-name="scedilla" unicode="&#x15f;" horiz-adv-x="478" 
d="M225 -191c-42 0 -77.6689 9.66699 -107.002 29l16 29c23.333 -10 47.333 -15 72 -15c38.667 0 58 10.667 58 32c0 18.667 -12.667 28 -38 28c-13.333 0 -27 -2.33301 -41 -7l-16 24l56 57c-62.667 3.33301 -111.334 20.833 -146.001 52.5s-53.667 74.834 -57 129.501h83
c9.33301 -76.667 58.666 -115 147.999 -115c40.667 0 70.834 7.83301 90.501 23.5s29.5 36.167 29.5 61.5c0 27.333 -9.66699 47 -29 59s-54.666 23.333 -105.999 34c-21.333 4.66699 -38.166 8.5 -50.499 11.5s-27.166 7.33301 -44.499 13s-30.833 12 -40.5 19
s-19.5 15.5 -29.5 25.5s-17.167 22.333 -21.5 37s-6.5 31 -6.5 49c0 44 16.167 78.667 48.5 104s78.166 38 137.499 38c122.667 0 190.334 -54 203.001 -162h-83c-4 34 -15.667 58.833 -35 74.5s-48.333 23.5 -87 23.5c-35.333 0 -61.5 -6.83301 -78.5 -20.5
s-25.5 -31.5 -25.5 -53.5c0 -25.333 10 -43.166 30 -53.499s56.333 -20.833 109 -31.5c32 -6.66699 57.167 -12.834 75.5 -18.501s37.5 -14.334 57.5 -26.001s34.667 -27.167 44 -46.5s14 -43.333 14 -72c0 -46.667 -15.833 -83.334 -47.5 -110.001s-74.5 -42 -128.5 -46
l-42 -35v-2c22 2.66699 42.833 -1.16602 62.5 -11.499s29.5 -27.833 29.5 -52.5c0 -23.333 -9.5 -41.833 -28.5 -55.5s-44.167 -20.5 -75.5 -20.5z" />
    <glyph glyph-name="Scaron" unicode="&#x160;" horiz-adv-x="626" 
d="M327 -14c-96 0 -169.829 23.665 -221.496 70.998s-79.5 109 -83.5 185h88c12 -122.667 85.667 -184 221 -184c51.333 0 92.5 11.5 123.5 34.5s46.5 56.167 46.5 99.5c0 19.333 -3.66699 36.333 -11 51s-16.166 26.667 -26.499 36s-25.833 18 -46.5 26
s-39.834 14.333 -57.501 19s-41.834 10.334 -72.501 17.001c-36.667 8 -67 16.167 -91 24.5s-48 19.833 -72 34.5s-41.833 33.5 -53.5 56.5s-17.5 50.833 -17.5 83.5c0 58.667 22.167 104.834 66.5 138.501s103.166 50.5 176.499 50.5c160.667 0 251 -74.333 271 -223h-85
c-6.66699 50.667 -25.667 88.834 -57 114.501s-73.666 38.5 -126.999 38.5c-49.333 0 -88.5 -10 -117.5 -30s-43.5 -48.333 -43.5 -85c0 -16 3.16699 -30.167 9.5 -42.5s14.666 -22.666 24.999 -30.999s24 -15.833 41 -22.5s33.833 -12.167 50.5 -16.5s37 -8.83301 61 -13.5
c33.333 -6.66699 60.666 -12.834 81.999 -18.501s45 -14.167 71 -25.5s46.167 -24.333 60.5 -39s26.666 -33.834 36.999 -57.501s15.5 -51.167 15.5 -82.5c0 -65.333 -24.167 -116.5 -72.5 -153.5s-111.833 -55.5 -190.5 -55.5zM256.004 756.998l-89 106h87l49 -63h2l51 63
h85l-93 -106h-92z" />
    <glyph glyph-name="scaron" unicode="&#x161;" horiz-adv-x="478" 
d="M251 -15c-70.667 0 -125.504 15.833 -164.504 47.5s-60.5 76.834 -64.5 135.501h83c9.33301 -76.667 58.666 -115 147.999 -115c40.667 0 70.834 7.83301 90.501 23.5s29.5 36.167 29.5 61.5c0 27.333 -9.66699 47 -29 59s-54.666 23.333 -105.999 34
c-21.333 4.66699 -38.166 8.5 -50.499 11.5s-27.166 7.33301 -44.499 13s-30.833 12 -40.5 19s-19.5 15.5 -29.5 25.5s-17.167 22.333 -21.5 37s-6.5 31 -6.5 49c0 44 16.167 78.667 48.5 104s78.166 38 137.499 38c122.667 0 190.334 -54 203.001 -162h-83
c-4 34 -15.667 58.833 -35 74.5s-48.333 23.5 -87 23.5c-35.333 0 -61.5 -6.83301 -78.5 -20.5s-25.5 -31.5 -25.5 -53.5c0 -25.333 10 -43.166 30 -53.499s56.333 -20.833 109 -31.5c32 -6.66699 57.167 -12.834 75.5 -18.501s37.5 -14.334 57.5 -26.001
s34.667 -27.167 44 -46.5s14 -43.333 14 -72c0 -50.667 -18.667 -89.5 -56 -116.5s-86.666 -40.5 -147.999 -40.5zM189.996 602l-89 106h87l49 -63h2l51 63h85l-93 -106h-92z" />
    <glyph glyph-name="Tcommaaccent" unicode="&#x162;" horiz-adv-x="610" 
d="M22 636v79h566v-79h-238v-636h-90v636h-238zM262 -228v38c13.333 4 23.333 10 30 18s10 21 10 39h-39v89h85v-89c0 -56 -28.667 -87.667 -86 -95z" />
    <glyph glyph-name="tcommaaccent" unicode="&#x163;" horiz-adv-x="307" 
d="M22 451v66h75v163h81v-163h100v-66h-100v-336c0 -32 17.333 -48 52 -48c14.667 0 29 2.33301 43 7h3v-70c-22 -4.66699 -43.667 -7 -65 -7c-76 0 -114 33.333 -114 100v354h-75zM132 -228v38c13.333 4 23.333 10 30 18s10 21 10 39h-39v89h85v-89
c0 -56 -28.667 -87.667 -86 -95z" />
    <glyph glyph-name="Tcaron" unicode="&#x164;" horiz-adv-x="610" 
d="M22 636v79h566v-79h-238v-636h-90v636h-238zM257 757l-89 106h87l49 -63h2l51 63h85l-93 -106h-92z" />
    <glyph glyph-name="tcaron" unicode="&#x165;" horiz-adv-x="307" 
d="M22 451v66h75v163h81v-163h100v-66h-100v-336c0 -32 17.333 -48 52 -48c14.667 0 29 2.33301 43 7h3v-70c-22 -4.66699 -43.667 -7 -65 -7c-76 0 -114 33.333 -114 100v354h-75zM325 715v-72c0 -24 -7.66699 -43 -23 -57s-36 -22.333 -62 -25v38
c26.667 6 40 20.667 40 44h-40v72h85z" />
    <glyph glyph-name="Tbar" unicode="&#x166;" horiz-adv-x="610" 
d="M104 346v68h156v222h-238v79h566v-79h-238v-222h156v-68h-156v-346h-90v346h-156z" />
    <glyph glyph-name="tbar" unicode="&#x167;" horiz-adv-x="307" 
d="M22 301v66h75v84h-75v66h75v163h81v-163h100v-66h-100v-84h100v-66h-100v-186c0 -32 17.333 -48 52 -48c14.667 0 29 2.33301 43 7h3v-70c-22 -4.66699 -43.667 -7 -65 -7c-76 0 -114 33.333 -114 100v204h-75z" />
    <glyph glyph-name="Utilde" unicode="&#x168;" horiz-adv-x="658" 
d="M329 -11c-83.333 0 -149.833 19.667 -199.5 59s-74.5 100.333 -74.5 183v484h90v-475c0 -116 62.333 -174 187 -174c120.667 0 181 58 181 174v475h90v-484c0 -82 -25.167 -142.833 -75.5 -182.5s-116.5 -59.5 -198.5 -59.5zM393 760c-18 0 -40.6689 5.33301 -68.002 16
s-44.666 16 -51.999 16c-14 0 -21.667 -10 -23 -30h-60c5.33301 61.333 31 92 77 92c19.333 0 41 -5.33301 65 -16s41.333 -16 52 -16c15.333 0 24.333 10 27 30h58c-3.33301 -61.333 -28.666 -92 -75.999 -92z" />
    <glyph glyph-name="utilde" unicode="&#x169;" horiz-adv-x="520" 
d="M465 0l-81.002 0.00195312v71h-2c-40.667 -55.333 -92.667 -83 -156 -83c-53.333 0 -95.666 15.167 -126.999 45.5s-47 72.166 -47 125.499v358h81v-356c0 -33.333 10.167 -59.333 30.5 -78s48.833 -28 85.5 -28c40.667 0 73.334 13.667 98.001 41s37 61.666 37 102.999
v318h81v-517zM325.998 601.002c-18 0 -40.6689 5.33301 -68.002 16s-44.666 16 -51.999 16c-14 0 -21.667 -10 -23 -30h-60c5.33301 61.333 31 92 77 92c19.333 0 41 -5.33301 65 -16s41.333 -16 52 -16c15.333 0 24.333 10 27 30h58
c-3.33301 -61.333 -28.666 -92 -75.999 -92z" />
    <glyph glyph-name="Umacron" unicode="&#x16a;" horiz-adv-x="658" 
d="M329 -11c-83.333 0 -149.833 19.667 -199.5 59s-74.5 100.333 -74.5 183v484h90v-475c0 -116 62.333 -174 187 -174c120.667 0 181 58 181 174v475h90v-484c0 -82 -25.167 -142.833 -75.5 -182.5s-116.5 -59.5 -198.5 -59.5zM200 760v67h258v-67h-258z" />
    <glyph glyph-name="umacron" unicode="&#x16b;" horiz-adv-x="520" 
d="M465 0l-81.002 0.00195312v71h-2c-40.667 -55.333 -92.667 -83 -156 -83c-53.333 0 -95.666 15.167 -126.999 45.5s-47 72.166 -47 125.499v358h81v-356c0 -33.333 10.167 -59.333 30.5 -78s48.833 -28 85.5 -28c40.667 0 73.334 13.667 98.001 41s37 61.666 37 102.999
v318h81v-517zM132.998 622.002v67h258v-67h-258z" />
    <glyph glyph-name="Ubreve" unicode="&#x16c;" horiz-adv-x="658" 
d="M329 -11c-83.333 0 -149.833 19.667 -199.5 59s-74.5 100.333 -74.5 183v484h90v-475c0 -116 62.333 -174 187 -174c120.667 0 181 58 181 174v475h90v-484c0 -82 -25.167 -142.833 -75.5 -182.5s-116.5 -59.5 -198.5 -59.5zM329 759
c-34.667 0 -64.001 10.167 -88.001 30.5s-37 47.166 -39 80.499h60c6.66699 -32.667 28.667 -49 66 -49c40 0 63.333 16.333 70 49h58c-1.33301 -31.333 -13.666 -57.666 -36.999 -78.999s-53.333 -32 -90 -32z" />
    <glyph glyph-name="ubreve" unicode="&#x16d;" horiz-adv-x="520" 
d="M465 0l-81.002 0.00195312v71h-2c-40.667 -55.333 -92.667 -83 -156 -83c-53.333 0 -95.666 15.167 -126.999 45.5s-47 72.166 -47 125.499v358h81v-356c0 -33.333 10.167 -59.333 30.5 -78s48.833 -28 85.5 -28c40.667 0 73.334 13.667 98.001 41s37 61.666 37 102.999
v318h81v-517zM261.998 604.002c-34.667 0 -64.001 10.167 -88.001 30.5s-37 47.166 -39 80.499h60c6.66699 -32.667 28.667 -49 66 -49c40 0 63.333 16.333 70 49h58c-1.33301 -31.333 -13.666 -57.666 -36.999 -78.999s-53.333 -32 -90 -32z" />
    <glyph glyph-name="Uring" unicode="&#x16e;" horiz-adv-x="658" 
d="M329 -11c-83.333 0 -149.833 19.667 -199.5 59s-74.5 100.333 -74.5 183v484h90v-475c0 -116 62.333 -174 187 -174c120.667 0 181 58 181 174v475h90v-484c0 -82 -25.167 -142.833 -75.5 -182.5s-116.5 -59.5 -198.5 -59.5zM329 746c-24 0 -44.5 8.33301 -61.5 25
s-25.5 36.667 -25.5 60s8.5 43.333 25.5 60s37.5 25 61.5 25s44.5 -8.33301 61.5 -25s25.5 -36.667 25.5 -60s-8.5 -43.333 -25.5 -60s-37.5 -25 -61.5 -25zM329 781c14 0 25.333 4.83301 34 14.5s13 21.5 13 35.5s-4.33301 25.833 -13 35.5s-20 14.5 -34 14.5
s-25.333 -4.83301 -34 -14.5s-13 -21.5 -13 -35.5s4.33301 -25.833 13 -35.5s20 -14.5 34 -14.5z" />
    <glyph glyph-name="uring" unicode="&#x16f;" horiz-adv-x="520" 
d="M465 0l-81.002 0.00195312v71h-2c-40.667 -55.333 -92.667 -83 -156 -83c-53.333 0 -95.666 15.167 -126.999 45.5s-47 72.166 -47 125.499v358h81v-356c0 -33.333 10.167 -59.333 30.5 -78s48.833 -28 85.5 -28c40.667 0 73.334 13.667 98.001 41s37 61.666 37 102.999
v318h81v-517zM261.998 559.002c-24 0 -44.5 8.33301 -61.5 25s-25.5 36.667 -25.5 60s8.5 43.333 25.5 60s37.5 25 61.5 25s44.5 -8.33301 61.5 -25s25.5 -36.667 25.5 -60s-8.5 -43.333 -25.5 -60s-37.5 -25 -61.5 -25zM261.998 594.002c14 0 25.333 4.83301 34 14.5
s13 21.5 13 35.5s-4.33301 25.833 -13 35.5s-20 14.5 -34 14.5s-25.333 -4.83301 -34 -14.5s-13 -21.5 -13 -35.5s4.33301 -25.833 13 -35.5s20 -14.5 34 -14.5z" />
    <glyph glyph-name="Uhungarumlaut" unicode="&#x170;" horiz-adv-x="658" 
d="M329 -11c-83.333 0 -149.833 19.667 -199.5 59s-74.5 100.333 -74.5 183v484h90v-475c0 -116 62.333 -174 187 -174c120.667 0 181 58 181 174v475h90v-484c0 -82 -25.167 -142.833 -75.5 -182.5s-116.5 -59.5 -198.5 -59.5zM372 753l31 127h82l-52 -127h-61zM242 753
l31 127h82l-52 -127h-61z" />
    <glyph glyph-name="uhungarumlaut" unicode="&#x171;" horiz-adv-x="520" 
d="M465 0l-81.002 0.00195312v71h-2c-40.667 -55.333 -92.667 -83 -156 -83c-53.333 0 -95.666 15.167 -126.999 45.5s-47 72.166 -47 125.499v358h81v-356c0 -33.333 10.167 -59.333 30.5 -78s48.833 -28 85.5 -28c40.667 0 73.334 13.667 98.001 41s37 61.666 37 102.999
v318h81v-517zM299.998 598.002l31 127h82l-52 -127h-61zM169.998 598.002l31 127h82l-52 -127h-61z" />
    <glyph glyph-name="Uogonek" unicode="&#x172;" horiz-adv-x="658" 
d="M329 -11c-83.333 0 -149.834 19.667 -199.501 59s-74.5 100.333 -74.5 183v484h90v-475c0 -116 62.333 -174 187 -174c120.667 0 181 58 181 174v475h90v-484c0 -100.667 -42 -171.667 -126 -213c-44.667 -22 -75 -39.333 -91 -52s-24 -28 -24 -46
c0 -22.667 13.333 -34 40 -34c14 0 26.333 2.33301 37 7h3v-56c-19.333 -6 -37.666 -9 -54.999 -9c-32 0 -56.833 7.16699 -74.5 21.5s-26.5 33.5 -26.5 57.5c0 30.667 15.333 58 46 82h-3z" />
    <glyph glyph-name="uogonek" unicode="&#x173;" horiz-adv-x="520" 
d="M425 -172c-32 0 -56.8359 7.16895 -74.5029 21.502s-26.5 33.5 -26.5 57.5c0 36 20 67 60 93v71h-2c-40.667 -55.333 -92.667 -83 -156 -83c-53.333 0 -95.666 15.167 -126.999 45.5s-47 72.166 -47 125.499v358h81v-356c0 -33.333 10.167 -59.333 30.5 -78
s48.833 -28 85.5 -28c40.667 0 73.334 13.667 98.001 41s37 61.666 37 102.999v318h81v-513c-43.333 -31.333 -65 -59.333 -65 -84c0 -22.667 13.333 -34 40 -34c14 0 26.333 2.33301 37 7h3v-56c-19.333 -6 -37.666 -9 -54.999 -9z" />
    <glyph glyph-name="Wcircumflex" unicode="&#x174;" horiz-adv-x="914" 
d="M199 0l-184.999 715.001h94l113 -465l27 -121h2c11.333 50.667 21.333 91.667 30 123l129 463h97l125 -463l29 -123h2c11.333 51.333 20.666 91.666 27.999 120.999l119 465h91l-199 -715h-86l-131 504l-26 109h-2c-10 -44.667 -19 -81 -27 -109l-140 -504h-90z
M320.001 757.001l93 106h92l89 -106h-87l-49 63h-2l-51 -63h-85z" />
    <glyph glyph-name="wcircumflex" unicode="&#x175;" horiz-adv-x="734" 
d="M168 0l-164.001 517.001h87l91 -319l28 -111h2c10 45.333 18.667 81.666 26 108.999l87 321h85l84 -321l25 -109h2c10.667 45.333 20.334 82.333 29.001 111l96 319h84l-169 -517h-83l-86 313l-25 108h-2c-9.33301 -43.333 -18 -79.333 -26 -108l-87 -313h-84z
M229.999 602.001l93 106h92l89 -106h-87l-49 63h-2l-51 -63h-85z" />
    <glyph glyph-name="Ycircumflex" unicode="&#x176;" horiz-adv-x="631" 
d="M269 0v303l-259 412h100l205 -340h2l208 340h96l-262 -414v-301h-90zM178 757l93 106h92l89 -106h-87l-49 63h-2l-51 -63h-85z" />
    <glyph glyph-name="ycircumflex" unicode="&#x177;" horiz-adv-x="489" 
d="M121 -171c-30.667 0 -54.999 3.66699 -72.999 11v72h4c13.333 -7.33301 31.666 -11 54.999 -11c18 0 33 4.5 45 13.5s22.667 25.5 32 49.5l20 51l-202 502h88l122 -322l35 -101h2c12 38.667 23.333 72.334 34 101.001l118 322h86l-221 -559
c-20 -50.667 -40.667 -84.834 -62 -102.501s-49 -26.5 -83 -26.5zM112.001 602l93 106h92l89 -106h-87l-49 63h-2l-51 -63h-85z" />
    <glyph glyph-name="Ydieresis" unicode="&#x178;" horiz-adv-x="631" 
d="M269 0v303l-259 412h100l205 -340h2l208 340h96l-262 -414v-301h-90zM358 760v95h78v-95h-78zM194 760v95h78v-95h-78z" />
    <glyph glyph-name="Zacute" unicode="&#x179;" horiz-adv-x="622" 
d="M30 0v86l428 550v3h-403v76h514v-70l-434 -561v-3h451v-81h-556zM271 753l51 121h100l-82 -121h-69z" />
    <glyph glyph-name="zacute" unicode="&#x17a;" horiz-adv-x="471" 
d="M34 0v64l288 379v3h-271v71h384v-48l-297 -392v-3h308v-74h-412zM211 598l51 127h100l-82 -127h-69z" />
    <glyph glyph-name="Zdotaccent" unicode="&#x17b;" horiz-adv-x="622" 
d="M30 0v86l428 550v3h-403v76h514v-70l-434 -561v-3h451v-81h-556zM269 760v95h78v-95h-78z" />
    <glyph glyph-name="zdotaccent" unicode="&#x17c;" horiz-adv-x="471" 
d="M34 0v64l288 379v3h-271v71h384v-48l-297 -392v-3h308v-74h-412zM203 615v100h81v-100h-81z" />
    <glyph glyph-name="Zcaron" unicode="&#x17d;" horiz-adv-x="622" 
d="M30 0v86l428 550v3h-403v76h514v-70l-434 -561v-3h451v-81h-556zM260 757l-89 106h87l49 -63h2l51 63h85l-93 -106h-92z" />
    <glyph glyph-name="zcaron" unicode="&#x17e;" horiz-adv-x="471" 
d="M34 0v64l288 379v3h-271v71h384v-48l-297 -392v-3h308v-74h-412zM195 602l-89 106h87l49 -63h2l51 63h85l-93 -106h-92z" />
    <glyph glyph-name="florin" unicode="&#x192;" horiz-adv-x="345" 
d="M32 342l0.00195312 64.001h91l25 170c6.66699 49.333 25.5 83.666 56.5 102.999s74.167 25.333 129.5 18v-69c-34.667 3.33301 -60 0.5 -76 -8.5s-26 -27.167 -30 -54.5l-23 -159h105v-64h-114l-53 -375c-6.66699 -48 -23.334 -81 -50.001 -99s-66 -23.667 -118 -17v67
c26 -2 46.167 0.5 60.5 7.5s23.166 22.5 26.499 46.5l52 370h-82z" />
    <glyph glyph-name="AEacute" unicode="&#x1fc;" horiz-adv-x="946" 
d="M532 753l51 121h100l-82 -121h-69zM896 715v-79h-371v-226h333v-76h-333v-251h383v-83h-473v218h-253l-77 -218h-91l260 715h622zM331 636l-123 -345h227v345h-104z" />
    <glyph glyph-name="aeacute" unicode="&#x1fd;" horiz-adv-x="841" 
d="M395 598l51 127h100l-82 -127h-69zM202 -10c-51.333 0 -93.8359 12.668 -127.503 38.001s-50.5 61.666 -50.5 108.999c0 23.333 3.83301 44 11.5 62s17.834 32.5 30.501 43.5s29.167 20.333 49.5 28s40.833 13.5 61.5 17.5s45.334 7.33301 74.001 10
c43.333 4.66699 74.5 12.167 93.5 22.5s28.5 28.5 28.5 54.5c0 29.333 -9.66699 51.833 -29 67.5s-47.333 23.5 -84 23.5c-82.667 0 -127 -38 -133 -114h-78c3.33301 51.333 22.833 93.333 58.5 126s86.167 49 151.5 49c86 0 141.667 -27 167 -81c39.333 56 95 84 167 84
c72.667 0 128.167 -26.667 166.5 -80s57.5 -123.666 57.5 -210.999h-368c2.66699 -56 16.834 -100.833 42.501 -134.5s63.167 -50.5 112.5 -50.5c32.667 0 59.5 9.33301 80.5 28s35.167 44.667 42.5 78h79c-9.33301 -54.667 -32 -97.334 -68 -128.001s-80.667 -46 -134 -46
c-86 0 -149.333 35 -190 105h-2c-28.667 -41.333 -58.667 -68.5 -90 -81.5s-71.333 -19.5 -120 -19.5zM217.997 52.001c50 0 88.501 14.5 115.501 43.5s40.5 60.833 40.5 95.5v79c-30.667 -16 -70.667 -26.667 -120 -32c-50.667 -6 -87.334 -15.5 -110.001 -28.5
s-34 -36.5 -34 -70.5c0 -58 36 -87 108 -87zM592.998 466.001c-42 0 -74.832 -15.167 -98.499 -45.5s-38.167 -70.5 -43.5 -120.5h279c-0.666992 51.333 -13.334 91.833 -38.001 121.5s-57.667 44.5 -99 44.5z" />
    <glyph glyph-name="Oslashacute" unicode="&#x1fe;" horiz-adv-x="780" 
d="M353 753l51 121h100l-82 -121h-69zM76 -16l-38 34.999l82 88c-53.333 66.667 -80 150.334 -80 251.001c0 108.667 31.833 198 95.5 268s148.5 105 254.5 105c94 0 172.333 -28.667 235 -86l79 84l38 -35l-81 -87c52.667 -67.333 79 -150.333 79 -249
c0 -108.667 -31.833 -198 -95.5 -268s-148.5 -105 -254.5 -105c-93.333 0 -171.333 28 -234 84zM132 357.999c0 -73.333 16.332 -135.667 48.999 -187l387 413c-46 46 -105.333 69 -178 69c-81.333 0 -144.666 -27.5 -189.999 -82.5s-68 -125.833 -68 -212.5z
M389.999 63.998c81.333 0 144.667 27.332 190 81.999s68 125.334 68 212.001c0 73.333 -16 135 -48 185l-387 -412c46 -44.667 105 -67 177 -67z" />
    <glyph glyph-name="oslashacute" unicode="&#x1ff;" horiz-adv-x="551" 
d="M243 598l51 127h100l-82 -127h-69zM52 -14l-30.002 28l60 65c-37.333 50 -56 109.667 -56 179c0 77.333 22.833 142 68.5 194s106.167 78 181.5 78c64 0 119 -20.667 165 -62l57 62l30 -28l-59 -64c37.333 -50 56 -110 56 -180c0 -77.333 -22.667 -142 -68 -194
s-105.666 -78 -180.999 -78c-65.333 0 -120.666 21 -165.999 63zM275.998 54c53.333 0 94.333 19.168 123 57.501s43 87.166 43 146.499c0 46.667 -9 87 -27 121l-256 -276c29.333 -32.667 68.333 -49 117 -49zM108.998 258.001c0 -46.667 9 -87 27 -121l255 277
c-28.667 32.667 -67 49 -115 49c-53.333 0 -94.5 -19.333 -123.5 -58s-43.5 -87.667 -43.5 -147z" />
    <glyph glyph-name="Scommaaccent" unicode="&#x218;" horiz-adv-x="626" 
d="M327 -14c-96 0 -169.829 23.665 -221.496 70.998s-79.5 109 -83.5 185h88c12 -122.667 85.667 -184 221 -184c51.333 0 92.5 11.5 123.5 34.5s46.5 56.167 46.5 99.5c0 19.333 -3.66699 36.333 -11 51s-16.166 26.667 -26.499 36s-25.833 18 -46.5 26
s-39.834 14.333 -57.501 19s-41.834 10.334 -72.501 17.001c-36.667 8 -67 16.167 -91 24.5s-48 19.833 -72 34.5s-41.833 33.5 -53.5 56.5s-17.5 50.833 -17.5 83.5c0 58.667 22.167 104.834 66.5 138.501s103.166 50.5 176.499 50.5c160.667 0 251 -74.333 271 -223h-85
c-6.66699 50.667 -25.667 88.834 -57 114.501s-73.666 38.5 -126.999 38.5c-49.333 0 -88.5 -10 -117.5 -30s-43.5 -48.333 -43.5 -85c0 -16 3.16699 -30.167 9.5 -42.5s14.666 -22.666 24.999 -30.999s24 -15.833 41 -22.5s33.833 -12.167 50.5 -16.5s37 -8.83301 61 -13.5
c33.333 -6.66699 60.666 -12.834 81.999 -18.501s45 -14.167 71 -25.5s46.167 -24.333 60.5 -39s26.666 -33.834 36.999 -57.501s15.5 -51.167 15.5 -82.5c0 -65.333 -24.167 -116.5 -72.5 -153.5s-111.833 -55.5 -190.5 -55.5zM261.004 -228.002v38
c13.333 4 23.333 10 30 18s10 21 10 39h-39v89h85v-89c0 -56 -28.667 -87.667 -86 -95z" />
    <glyph glyph-name="scommaaccent" unicode="&#x219;" horiz-adv-x="478" 
d="M251 -15c-70.667 0 -125.504 15.833 -164.504 47.5s-60.5 76.834 -64.5 135.501h83c9.33301 -76.667 58.666 -115 147.999 -115c40.667 0 70.834 7.83301 90.501 23.5s29.5 36.167 29.5 61.5c0 27.333 -9.66699 47 -29 59s-54.666 23.333 -105.999 34
c-21.333 4.66699 -38.166 8.5 -50.499 11.5s-27.166 7.33301 -44.499 13s-30.833 12 -40.5 19s-19.5 15.5 -29.5 25.5s-17.167 22.333 -21.5 37s-6.5 31 -6.5 49c0 44 16.167 78.667 48.5 104s78.166 38 137.499 38c122.667 0 190.334 -54 203.001 -162h-83
c-4 34 -15.667 58.833 -35 74.5s-48.333 23.5 -87 23.5c-35.333 0 -61.5 -6.83301 -78.5 -20.5s-25.5 -31.5 -25.5 -53.5c0 -25.333 10 -43.166 30 -53.499s56.333 -20.833 109 -31.5c32 -6.66699 57.167 -12.834 75.5 -18.501s37.5 -14.334 57.5 -26.001
s34.667 -27.167 44 -46.5s14 -43.333 14 -72c0 -50.667 -18.667 -89.5 -56 -116.5s-86.666 -40.5 -147.999 -40.5zM194.996 -228v38c13.333 4 23.333 10 30 18s10 21 10 39h-39v89h85v-89c0 -56 -28.667 -87.667 -86 -95z" />
    <glyph glyph-name="uni021A" unicode="&#x21a;" horiz-adv-x="610" 
d="M22 636v79h566v-79h-238v-636h-90v636h-238zM262 -228v38c13.333 4 23.333 10 30 18s10 21 10 39h-39v89h85v-89c0 -56 -28.667 -87.667 -86 -95z" />
    <glyph glyph-name="uni021B" unicode="&#x21b;" horiz-adv-x="307" 
d="M22 451v66h75v163h81v-163h100v-66h-100v-336c0 -32 17.333 -48 52 -48c14.667 0 29 2.33301 43 7h3v-70c-22 -4.66699 -43.667 -7 -65 -7c-76 0 -114 33.333 -114 100v354h-75zM132 -228v38c13.333 4 23.333 10 30 18s10 21 10 39h-39v89h85v-89
c0 -56 -28.667 -87.667 -86 -95z" />
    <glyph glyph-name="uni0237" unicode="&#x237;" horiz-adv-x="191" 
d="M17 -147c-12.667 0 -27.667 1.33301 -45 4v66h2c10 -2 19.333 -3 28 -3c35.333 0 53 16.667 53 50v547h81v-551c0 -44 -10.333 -73.833 -31 -89.5s-50 -23.5 -88 -23.5z" />
    <glyph glyph-name="circumflex" unicode="&#x2c6;" 
d="M113 602l93 106h92l89 -106h-87l-49 63h-2l-51 -63h-85z" />
    <glyph glyph-name="caron" unicode="&#x2c7;" 
d="M202 602l-89 106h87l49 -63h2l51 63h85l-93 -106h-92z" />
    <glyph glyph-name="uni02C9" unicode="&#x2c9;" 
d="M121 622v67h258v-67h-258z" />
    <glyph glyph-name="breve" unicode="&#x2d8;" 
d="M250 604c-34.667 0 -64.001 10.167 -88.001 30.5s-37 47.166 -39 80.499h60c6.66699 -32.667 28.667 -49 66 -49c40 0 63.333 16.333 70 49h58c-1.33301 -31.333 -13.666 -57.666 -36.999 -78.999s-53.333 -32 -90 -32z" />
    <glyph glyph-name="dotaccent" unicode="&#x2d9;" 
d="M209 615v100h81v-100h-81z" />
    <glyph glyph-name="ring" unicode="&#x2da;" horiz-adv-x="509" 
d="M254 559c-24 0 -44.5 8.33301 -61.5 25s-25.5 36.667 -25.5 60s8.5 43.333 25.5 60s37.5 25 61.5 25s44.5 -8.33301 61.5 -25s25.5 -36.667 25.5 -60s-8.5 -43.333 -25.5 -60s-37.5 -25 -61.5 -25zM254 594c14 0 25.333 4.83301 34 14.5s13 21.5 13 35.5
s-4.33301 25.833 -13 35.5s-20 14.5 -34 14.5s-25.333 -4.83301 -34 -14.5s-13 -21.5 -13 -35.5s4.33301 -25.833 13 -35.5s20 -14.5 34 -14.5z" />
    <glyph glyph-name="ogonek" unicode="&#x2db;" 
d="M229 -172c-32 0 -56.834 7.16699 -74.501 21.5s-26.5 33.5 -26.5 57.5c0 36.667 24 67.667 72 93h62c-38.667 -32 -58 -58.667 -58 -80c0 -22.667 13.333 -34 40 -34c14 0 26.333 2.33301 37 7h3v-56c-19.333 -6 -37.666 -9 -54.999 -9z" />
    <glyph glyph-name="tilde" unicode="&#x2dc;" 
d="M313 601c-18 0 -40.6689 5.33301 -68.002 16s-44.666 16 -51.999 16c-14 0 -21.667 -10 -23 -30h-60c5.33301 61.333 31 92 77 92c19.333 0 41 -5.33301 65 -16s41.333 -16 52 -16c15.333 0 24.333 10 27 30h58c-3.33301 -61.333 -28.666 -92 -75.999 -92z" />
    <glyph glyph-name="hungarumlaut" unicode="&#x2dd;" 
d="M267 598l31 127h82l-52 -127h-61zM137 598l31 127h82l-52 -127h-61z" />
    <glyph glyph-name="pi" unicode="&#x3c0;" horiz-adv-x="612" 
d="M22 451l0.000976562 66h561v-66h-93v-336c0 -32 17.333 -48 52 -48c10 0 22 2.33301 36 7h3v-70c-18.667 -4.66699 -38.334 -7 -59.001 -7c-75.333 0 -113 33.333 -113 100v354h-226v-451h-81v451h-80z" />
    <glyph glyph-name="Wgrave" unicode="&#x1e80;" horiz-adv-x="914" 
d="M199 0l-184.999 715.001h94l113 -465l27 -121h2c11.333 50.667 21.333 91.667 30 123l129 463h97l125 -463l29 -123h2c11.333 51.333 20.666 91.666 27.999 120.999l119 465h91l-199 -715h-86l-131 504l-26 109h-2c-10 -44.667 -19 -81 -27 -109l-140 -504h-90z
M431.001 753.001l-82 121h100l51 -121h-69z" />
    <glyph glyph-name="wgrave" unicode="&#x1e81;" horiz-adv-x="734" 
d="M168 0l-164.001 517.001h87l91 -319l28 -111h2c10 45.333 18.667 81.666 26 108.999l87 321h85l84 -321l25 -109h2c10.667 45.333 20.334 82.333 29.001 111l96 319h84l-169 -517h-83l-86 313l-25 108h-2c-9.33301 -43.333 -18 -79.333 -26 -108l-87 -313h-84z
M340.999 598.001l-82 127h100l51 -127h-69z" />
    <glyph glyph-name="Wacute" unicode="&#x1e82;" horiz-adv-x="914" 
d="M199 0l-184.999 715.001h94l113 -465l27 -121h2c11.333 50.667 21.333 91.667 30 123l129 463h97l125 -463l29 -123h2c11.333 51.333 20.666 91.666 27.999 120.999l119 465h91l-199 -715h-86l-131 504l-26 109h-2c-10 -44.667 -19 -81 -27 -109l-140 -504h-90z
M420.001 753.001l51 121h100l-82 -121h-69z" />
    <glyph glyph-name="wacute" unicode="&#x1e83;" horiz-adv-x="734" 
d="M168 0l-164.001 517.001h87l91 -319l28 -111h2c10 45.333 18.667 81.666 26 108.999l87 321h85l84 -321l25 -109h2c10.667 45.333 20.334 82.333 29.001 111l96 319h84l-169 -517h-83l-86 313l-25 108h-2c-9.33301 -43.333 -18 -79.333 -26 -108l-87 -313h-84z
M334.999 598.001l51 127h100l-82 -127h-69z" />
    <glyph glyph-name="Wdieresis" unicode="&#x1e84;" horiz-adv-x="914" 
d="M199 0l-184.999 715.001h94l113 -465l27 -121h2c11.333 50.667 21.333 91.667 30 123l129 463h97l125 -463l29 -123h2c11.333 51.333 20.666 91.666 27.999 120.999l119 465h91l-199 -715h-86l-131 504l-26 109h-2c-10 -44.667 -19 -81 -27 -109l-140 -504h-90z
M500.001 760.001v95h78v-95h-78zM336.001 760.001v95h78v-95h-78z" />
    <glyph glyph-name="wdieresis" unicode="&#x1e85;" horiz-adv-x="734" 
d="M168 0l-164.001 517.001h87l91 -319l28 -111h2c10 45.333 18.667 81.666 26 108.999l87 321h85l84 -321l25 -109h2c10.667 45.333 20.334 82.333 29.001 111l96 319h84l-169 -517h-83l-86 313l-25 108h-2c-9.33301 -43.333 -18 -79.333 -26 -108l-87 -313h-84z
M409.999 615.001v95h78v-95h-78zM245.999 615.001v95h78v-95h-78z" />
    <glyph glyph-name="Ygrave" unicode="&#x1ef2;" horiz-adv-x="631" 
d="M269 0v303l-259 412h100l205 -340h2l208 340h96l-262 -414v-301h-90zM289 753l-82 121h100l51 -121h-69z" />
    <glyph glyph-name="ygrave" unicode="&#x1ef3;" horiz-adv-x="489" 
d="M121 -171c-30.667 0 -54.999 3.66699 -72.999 11v72h4c13.333 -7.33301 31.666 -11 54.999 -11c18 0 33 4.5 45 13.5s22.667 25.5 32 49.5l20 51l-202 502h88l122 -322l35 -101h2c12 38.667 23.333 72.334 34 101.001l118 322h86l-221 -559
c-20 -50.667 -40.667 -84.834 -62 -102.501s-49 -26.5 -83 -26.5zM223.001 598l-82 127h100l51 -127h-69z" />
    <glyph glyph-name="uni2009" unicode="&#x2009;" horiz-adv-x="55" 
 />
    <glyph glyph-name="endash" unicode="&#x2013;" horiz-adv-x="523" 
d="M48 220v69h427v-69h-427z" />
    <glyph glyph-name="emdash" unicode="&#x2014;" horiz-adv-x="803" 
d="M48 220v69h707v-69h-707z" />
    <glyph glyph-name="quoteleft" unicode="&#x2018;" horiz-adv-x="169" 
d="M42 507v99.999c0 64.667 28 101.334 84 110.001v-38c-25.333 -10 -38 -34 -38 -72h39v-100h-85z" />
    <glyph glyph-name="quoteright" unicode="&#x2019;" horiz-adv-x="169" 
d="M127 715v-99.999c0 -64.667 -28 -101.334 -84 -110.001v38c25.333 10 38 34 38 72h-39v100h85z" />
    <glyph glyph-name="quotesinglbase" unicode="&#x201a;" horiz-adv-x="169" 
d="M127 100v-99.999c0 -64.667 -28 -101.334 -84 -110.001v38c25.333 10 38 34 38 72h-39v100h85z" />
    <glyph glyph-name="quotedblleft" unicode="&#x201c;" horiz-adv-x="320" 
d="M42 507v99.999c0 64.667 28 101.334 84 110.001v-38c-25.333 -10 -38 -34 -38 -72h39v-100h-85zM193 506.999v99.999c0 64.667 28 101.334 84 110.001v-38c-25.333 -10 -38 -34 -38 -72h39v-100h-85z" />
    <glyph glyph-name="quotedblright" unicode="&#x201d;" horiz-adv-x="320" 
d="M278 715v-99.999c0 -64.667 -28 -101.334 -84 -110.001v38c25.333 10 38 34 38 72h-39v100h85zM127 715.001v-99.999c0 -64.667 -28 -101.334 -84 -110.001v38c25.333 10 38 34 38 72h-39v100h85z" />
    <glyph glyph-name="quotedblbase" unicode="&#x201e;" horiz-adv-x="320" 
d="M278 100v-99.999c0 -64.667 -28 -101.334 -84 -110.001v38c25.333 10 38 34 38 72h-39v100h85zM127 100.001v-99.999c0 -64.667 -28 -101.334 -84 -110.001v38c25.333 10 38 34 38 72h-39v100h85z" />
    <glyph glyph-name="dagger" unicode="&#x2020;" horiz-adv-x="546" 
d="M34 456v73h198v186h82v-186h198v-73h-198v-560h-82v560h-198z" />
    <glyph glyph-name="daggerdbl" unicode="&#x2021;" horiz-adv-x="546" 
d="M34 456v73h198v186h82v-186h198v-73h-198v-301h198v-73h-198v-186h-82v186h-198v73h198v301h-198z" />
    <glyph glyph-name="bullet" unicode="&#x2022;" horiz-adv-x="305" 
d="M153 207c-32.667 0 -60.667 11.5 -84 34.5s-35 50.833 -35 83.5s11.667 60.667 35 84s51.333 35 84 35s60.5 -11.667 83.5 -35s34.5 -51.333 34.5 -84s-11.5 -60.5 -34.5 -83.5s-50.833 -34.5 -83.5 -34.5z" />
    <glyph glyph-name="ellipsis" unicode="&#x2026;" horiz-adv-x="615" 
d="M474 0v99h97v-99h-97zM44 0v99h97v-99h-97zM259 0v99h97v-99h-97z" />
    <glyph glyph-name="perthousand" unicode="&#x2030;" horiz-adv-x="1153" 
d="M186 305c-48 0 -87.001 18.001 -117.001 54.001s-45 84 -45 144s15.333 108 46 144s69.334 54 116.001 54s85 -17.833 115 -53.5s45 -83.834 45 -144.501c0 -60 -14.667 -108 -44 -144s-68 -54 -116 -54zM608.999 -14.999c-48 0 -87.001 18.001 -117.001 54.001
s-45 84 -45 144s15.333 108 46 144s69.334 54 116.001 54s85 -17.833 115 -53.5s45 -83.834 45 -144.501c0 -60 -14.667 -108 -44 -144s-68 -54 -116 -54zM968.998 -14.998c-48 0 -87.001 18.001 -117.001 54.001s-45 84 -45 144s15.333 108 46 144s69.334 54 116.001 54
s85 -17.833 115 -53.5s45 -83.834 45 -144.501c0 -60 -14.667 -108 -44 -144s-68 -54 -116 -54zM165.997 0.00292969l393 685h68l-393 -685h-68zM185.997 365.003c27.333 0 48.5 12.668 63.5 38.001s22.5 58.666 22.5 99.999c0 40 -7.66699 73 -23 99s-36.333 39 -63 39
c-27.333 0 -48.5 -12.667 -63.5 -38s-22.5 -58.666 -22.5 -99.999c0 -40.667 7.5 -73.834 22.5 -99.501s36.167 -38.5 63.5 -38.5zM608.997 45.0039c27.333 0 48.5 12.668 63.5 38.001s22.5 58.666 22.5 99.999c0 40 -7.66699 73 -23 99s-36.333 39 -63 39
c-27.333 0 -48.5 -12.667 -63.5 -38s-22.5 -58.666 -22.5 -99.999c0 -40.667 7.5 -73.834 22.5 -99.501s36.167 -38.5 63.5 -38.5zM968.997 45.0049c27.333 0 48.5 12.668 63.5 38.001s22.5 58.666 22.5 99.999c0 40 -7.66699 73 -23 99s-36.333 39 -63 39
c-27.333 0 -48.5 -12.667 -63.5 -38s-22.5 -58.666 -22.5 -99.999c0 -40.667 7.5 -73.834 22.5 -99.501s36.167 -38.5 63.5 -38.5z" />
    <glyph glyph-name="uni2032" unicode="&#x2032;" horiz-adv-x="158" 
d="M24 501l36 214h74l-36 -214h-74z" />
    <glyph glyph-name="uni2033" unicode="&#x2033;" horiz-adv-x="297" 
d="M163 501l36 214h74l-36 -214h-74zM24 501l36 214h74l-36 -214h-74z" />
    <glyph glyph-name="guilsinglleft" unicode="&#x2039;" horiz-adv-x="246" 
d="M196 113l-146 115v87l146 115v-79l-104 -78v-2l104 -79v-79z" />
    <glyph glyph-name="guilsinglright" unicode="&#x203a;" horiz-adv-x="246" 
d="M50 113v79l104 78v2l-104 79v79l146 -115v-87z" />
    <glyph glyph-name="fraction" unicode="&#x2044;" horiz-adv-x="169" 
d="M-178 0l453 715h72l-453 -715h-72z" />
    <glyph glyph-name="Euro" unicode="&#x20ac;" horiz-adv-x="611" 
d="M22 376l0.000976562 54h64c13.333 82.667 44 148.5 92 197.5s106.333 73.5 175 73.5c62 0 113.333 -18.667 154 -56s65 -86.666 73 -147.999h-82c-16.667 88 -65.667 132 -147 132c-48 0 -87 -17.5 -117 -52.5s-50 -83.833 -60 -146.5h200v-54h-205
c-0.666992 -8 -1 -19.667 -1 -35s0.333008 -26.666 1 -33.999h205v-54h-200c10 -62.667 30.667 -110.834 62 -144.501s71.666 -50.5 120.999 -50.5c44.667 0 79.667 14.667 105 44s41 71 47 125h78c-2.66699 -70.667 -25.5 -128.667 -68.5 -174s-98.5 -68 -166.5 -68
c-66 0 -123.333 23.833 -172 71.5s-80 113.167 -94 196.5h-64v54h58c-0.666992 7.33301 -1 18.666 -1 33.999s0.333008 27 1 35h-58z" />
    <glyph glyph-name="uni2113" unicode="&#x2113;" horiz-adv-x="337" 
d="M68 270l-0.000976562 323.999c0 40.667 11.167 72.334 33.5 95.001s52.5 34 90.5 34c77.333 0 116 -50.667 116 -152c0 -149.333 -53 -257.333 -159 -324v-103c0 -28 5.33301 -48.167 16 -60.5s27.334 -18.5 50.001 -18.5c23.333 0 49 7.66699 77 23h3v-67
c-22 -16 -51.667 -24 -89 -24c-92 0 -138 47.333 -138 142v68c-24 -8 -42 -13.667 -54 -17v60c23.333 7.33301 41.333 14 54 20zM200.999 384.999c25.333 44.667 38 107 38 187c0 58.667 -15.333 88 -46 88c-29.333 0 -44 -22 -44 -66v-274c20 18 37.333 39.667 52 65z" />
    <glyph glyph-name="trademark" unicode="&#x2122;" horiz-adv-x="639" 
d="M315 429v286h80l62 -218h1l63 218h81v-286h-52v219h-2c-8 -30 -15.667 -57 -23 -81l-41 -138h-53l-41 138l-22 81h-2v-219h-51zM32 668v47h236v-47h-90v-239h-56v239h-90z" />
    <glyph glyph-name="Omega" unicode="&#x2126;" horiz-adv-x="740" 
d="M562 77v-2h132v-75h-283v75c66 8.66699 115.333 40.334 148 95.001s49 123 49 205c0 85.333 -20.833 153 -62.5 203s-100.167 75 -175.5 75s-133.833 -25 -175.5 -75s-62.5 -117.667 -62.5 -203c0 -82 16.333 -150.333 49 -205s82 -86.334 148 -95.001v-75h-283v75h131v2
c-91.333 56 -137 154.333 -137 295c0 106.667 30.5 193.167 91.5 259.5s140.5 99.5 238.5 99.5s177.5 -33.167 238.5 -99.5s91.5 -152.833 91.5 -259.5c0 -140.667 -46 -239 -138 -295z" />
    <glyph glyph-name="estimated" unicode="&#x212e;" horiz-adv-x="621" 
d="M591 301l-431 0.000976562v-203c39.333 -40.667 95 -61 167 -61c56.667 0 101.5 12.667 134.5 38s57.833 62.333 74.5 111h51c-13.333 -59.333 -42.333 -107 -87 -143s-102.334 -54 -173.001 -54c-93.333 0 -166.333 29.333 -219 88s-79 136 -79 232
c0 93.333 27.333 169.666 82 228.999s125 89 211 89c68.667 0 126.334 -19.667 173.001 -59c65.333 -55.333 97.333 -144.333 96 -267zM322 582.001c-70 0 -124 -20.667 -162 -62v-175h303v188c-32.667 32.667 -79.667 49 -141 49z" />
    <glyph glyph-name="onethird" unicode="&#x2153;" horiz-adv-x="836" 
d="M125 304v289.001h-99v49c66 1.33301 102.667 26.666 110 75.999h61v-414h-72zM103 0.000976562l453 715h72l-453 -715h-72zM653 -8.99902c-50 0 -89.832 13.167 -119.499 39.5s-44.834 62.166 -45.501 107.499h68c3.33301 -60 34.666 -90 93.999 -90
c26 0 46.5 6.33301 61.5 19s22.5 31 22.5 55c0 45.333 -29.667 68 -89 68h-26v55h25c24.667 0 43.834 5.33301 57.501 16s20.5 25.334 20.5 44.001s-6.66699 33.5 -20 44.5s-30.333 16.5 -51 16.5c-25.333 0 -45 -7.33301 -59 -22s-21.667 -34.667 -23 -60h-68
c1.33301 41.333 15.333 74.333 42 99s63 37 109 37c41.333 0 74.833 -10.167 100.5 -30.5s38.5 -47.833 38.5 -82.5c0 -42 -22.333 -70.333 -67 -85v-2c55.333 -13.333 83 -48 83 -104c0 -39.333 -14.667 -70 -44 -92s-66 -33 -110 -33z" />
    <glyph glyph-name="twothirds" unicode="&#x2154;" horiz-adv-x="886" 
d="M26 304c2 41.333 13.832 75.168 35.499 101.501s51.167 51.833 88.5 76.5l22.5 14.5c11 7 18.333 11.833 22 14.5l18 13c8.33301 6 14 11 17 15l11 15c4.33301 6 7.33301 12.167 9 18.5s2.5 13.166 2.5 20.499c0 22 -6.5 39.333 -19.5 52s-30.167 19 -51.5 19
c-24 0 -42.833 -7.83301 -56.5 -23.5s-20.5 -38.5 -20.5 -68.5h-68c0 48.667 13.167 86 39.5 112s62.833 39 109.5 39c42 0 76 -12.333 102 -37s39 -55.334 39 -92.001c0 -17.333 -2.5 -32.833 -7.5 -46.5s-14 -26.5 -27 -38.5s-23.167 -20.667 -30.5 -26s-21 -14 -41 -26
c-1.33301 -1.33301 -2.5 -2.16602 -3.5 -2.49902s-2.16699 -1 -3.5 -2s-2.66602 -1.83301 -3.99902 -2.5c-58.667 -35.333 -91.667 -64.333 -99 -87h215v-59h-299zM186.999 0.00195312l453 715h72l-453 -715h-72zM702.999 -8.99805c-50 0 -89.832 13.167 -119.499 39.5
s-44.834 62.166 -45.501 107.499h68c3.33301 -60 34.666 -90 93.999 -90c26 0 46.5 6.33301 61.5 19s22.5 31 22.5 55c0 45.333 -29.667 68 -89 68h-26v55h25c24.667 0 43.834 5.33301 57.501 16s20.5 25.334 20.5 44.001s-6.66699 33.5 -20 44.5s-30.333 16.5 -51 16.5
c-25.333 0 -45 -7.33301 -59 -22s-21.667 -34.667 -23 -60h-68c1.33301 41.333 15.333 74.333 42 99s63 37 109 37c41.333 0 74.833 -10.167 100.5 -30.5s38.5 -47.833 38.5 -82.5c0 -42 -22.333 -70.333 -67 -85v-2c55.333 -13.333 83 -48 83 -104
c0 -39.333 -14.667 -70 -44 -92s-66 -33 -110 -33z" />
    <glyph glyph-name="oneeighth" unicode="&#x215b;" horiz-adv-x="833" 
d="M125 304v289.001h-99v49c66 1.33301 102.667 26.666 110 75.999h61v-414h-72zM99 0.000976562l453 715h72l-453 -715h-72zM638 -8.99902c-46 0 -85.333 10.999 -118 32.999s-49 53.333 -49 94c0 51.333 26.333 87 79 107v2c-38.667 18 -58 46 -58 84
c0 33.333 13.667 59.833 41 79.5s62 29.5 104 29.5c42.667 0 77.334 -9.66699 104.001 -29s40 -45.333 40 -78c0 -40 -19 -68.333 -57 -85v-2c23.333 -8 42.166 -21.167 56.499 -39.5s21.5 -40.166 21.5 -65.499c0 -42 -15.833 -74.167 -47.5 -96.5
s-70.5 -33.5 -116.5 -33.5zM637 47c28 0 50.333 6.66699 67 20s25 31 25 53c0 24 -8 42.833 -24 56.5s-38.667 20.5 -68 20.5c-28.667 0 -51.167 -6.83301 -67.5 -20.5s-24.5 -32.5 -24.5 -56.5c0 -23.333 8.16699 -41.333 24.5 -54s38.833 -19 67.5 -19zM637 247
c23.333 0 41.667 5.50098 55 16.501s20 25.5 20 43.5s-6.5 32.333 -19.5 43s-31.5 16 -55.5 16s-42.5 -5.33301 -55.5 -16s-19.5 -25 -19.5 -43c0 -18.667 6.5 -33.334 19.5 -44.001s31.5 -16 55.5 -16z" />
    <glyph glyph-name="threeeighths" unicode="&#x215c;" horiz-adv-x="891" 
d="M190 295c-50 0 -89.832 13.167 -119.499 39.5s-44.834 62.166 -45.501 107.499h68c3.33301 -60 34.666 -90 93.999 -90c26 0 46.5 6.33301 61.5 19s22.5 31 22.5 55c0 45.333 -29.667 68 -89 68h-26v55h25c24.667 0 43.834 5.33301 57.501 16s20.5 25.334 20.5 44.001
s-6.66699 33.5 -20 44.5s-30.333 16.5 -51 16.5c-25.333 0 -45 -7.33301 -59 -22s-21.667 -34.667 -23 -60h-68c1.33301 41.333 15.333 74.333 42 99s63 37 109 37c41.333 0 74.833 -10.167 100.5 -30.5s38.5 -47.833 38.5 -82.5c0 -42 -22.333 -70.333 -67 -85v-2
c55.333 -13.333 83 -48 83 -104c0 -39.333 -14.667 -70 -44 -92s-66 -33 -110 -33zM173.001 0l453 715h72l-453 -715h-72zM696.001 -9c-46 0 -85.333 10.999 -118 32.999s-49 53.333 -49 94c0 51.333 26.333 87 79 107v2c-38.667 18 -58 46 -58 84
c0 33.333 13.667 59.833 41 79.5s62 29.5 104 29.5c42.667 0 77.334 -9.66699 104.001 -29s40 -45.333 40 -78c0 -40 -19 -68.333 -57 -85v-2c23.333 -8 42.166 -21.167 56.499 -39.5s21.5 -40.166 21.5 -65.499c0 -42 -15.833 -74.167 -47.5 -96.5
s-70.5 -33.5 -116.5 -33.5zM695.001 46.999c28 0 50.333 6.66699 67 20s25 31 25 53c0 24 -8 42.833 -24 56.5s-38.667 20.5 -68 20.5c-28.667 0 -51.167 -6.83301 -67.5 -20.5s-24.5 -32.5 -24.5 -56.5c0 -23.333 8.16699 -41.333 24.5 -54s38.833 -19 67.5 -19z
M695.001 246.999c23.333 0 41.667 5.50098 55 16.501s20 25.5 20 43.5s-6.5 32.333 -19.5 43s-31.5 16 -55.5 16s-42.5 -5.33301 -55.5 -16s-19.5 -25 -19.5 -43c0 -18.667 6.5 -33.334 19.5 -44.001s31.5 -16 55.5 -16z" />
    <glyph glyph-name="fiveeighths" unicode="&#x215d;" horiz-adv-x="880" 
d="M186 295c-45.333 0 -82.833 11.5 -112.5 34.5s-45.834 54.167 -48.501 93.5h71c2.66699 -22 12 -39 28 -51s36.333 -18 61 -18s44.667 8 60 24s23 36.667 23 62c0 26 -7.83301 46.667 -23.5 62s-35.5 23 -59.5 23c-34 0 -60.333 -11 -79 -33h-66l42 223h236v-60h-188
l-20 -103h2c22.667 20.667 52.334 31 89.001 31c38.667 0 71.667 -13.167 99 -39.5s41 -60.833 41 -103.5s-14.667 -77.5 -44 -104.5s-66.333 -40.5 -111 -40.5zM173 0l453 715h72l-453 -715h-72zM685 -9c-46 0 -85.333 10.999 -118 32.999s-49 53.333 -49 94
c0 51.333 26.333 87 79 107v2c-38.667 18 -58 46 -58 84c0 33.333 13.667 59.833 41 79.5s62 29.5 104 29.5c42.667 0 77.334 -9.66699 104.001 -29s40 -45.333 40 -78c0 -40 -19 -68.333 -57 -85v-2c23.333 -8 42.166 -21.167 56.499 -39.5s21.5 -40.166 21.5 -65.499
c0 -42 -15.833 -74.167 -47.5 -96.5s-70.5 -33.5 -116.5 -33.5zM684 46.999c28 0 50.333 6.66699 67 20s25 31 25 53c0 24 -8 42.833 -24 56.5s-38.667 20.5 -68 20.5c-28.667 0 -51.167 -6.83301 -67.5 -20.5s-24.5 -32.5 -24.5 -56.5c0 -23.333 8.16699 -41.333 24.5 -54
s38.833 -19 67.5 -19zM684 246.999c23.333 0 41.667 5.50098 55 16.501s20 25.5 20 43.5s-6.5 32.333 -19.5 43s-31.5 16 -55.5 16s-42.5 -5.33301 -55.5 -16s-19.5 -25 -19.5 -43c0 -18.667 6.5 -33.334 19.5 -44.001s31.5 -16 55.5 -16z" />
    <glyph glyph-name="seveneighths" unicode="&#x215e;" horiz-adv-x="816" 
d="M168 304l-77.002 0.00292969c3.33301 69.333 20.5 135.166 51.5 197.499s67.167 112.5 108.5 150.5v1h-223v62h298v-59c-43.333 -40.667 -79.666 -91.334 -108.999 -152.001s-45.666 -127.334 -48.999 -200.001zM88.998 0.00292969l453 715h72l-453 -715h-72z
M620.998 -8.99707c-46 0 -85.333 10.999 -118 32.999s-49 53.333 -49 94c0 51.333 26.333 87 79 107v2c-38.667 18 -58 46 -58 84c0 33.333 13.667 59.833 41 79.5s62 29.5 104 29.5c42.667 0 77.334 -9.66699 104.001 -29s40 -45.333 40 -78c0 -40 -19 -68.333 -57 -85v-2
c23.333 -8 42.166 -21.167 56.499 -39.5s21.5 -40.166 21.5 -65.499c0 -42 -15.833 -74.167 -47.5 -96.5s-70.5 -33.5 -116.5 -33.5zM619.998 47.002c28 0 50.333 6.66699 67 20s25 31 25 53c0 24 -8 42.833 -24 56.5s-38.667 20.5 -68 20.5
c-28.667 0 -51.167 -6.83301 -67.5 -20.5s-24.5 -32.5 -24.5 -56.5c0 -23.333 8.16699 -41.333 24.5 -54s38.833 -19 67.5 -19zM619.998 247.002c23.333 0 41.667 5.50098 55 16.501s20 25.5 20 43.5s-6.5 32.333 -19.5 43s-31.5 16 -55.5 16s-42.5 -5.33301 -55.5 -16
s-19.5 -25 -19.5 -43c0 -18.667 6.5 -33.334 19.5 -44.001s31.5 -16 55.5 -16z" />
    <glyph glyph-name="partialdiff" unicode="&#x2202;" horiz-adv-x="549" 
d="M414 397c-9.33301 74.667 -35.3301 132.331 -77.9971 172.998s-102.334 67.334 -179.001 80.001v72c65.333 -7.33301 121.166 -23.333 167.499 -48s82.333 -56.667 108 -96s44.167 -82.666 55.5 -129.999s17 -101.333 17 -162c0 -81.333 -21.5 -151.666 -64.5 -210.999
s-104.5 -89 -184.5 -89c-66.667 0 -118.667 19.833 -156 59.5s-56 90.5 -56 152.5c0 75.333 21.667 137.666 65 186.999s100.666 74 171.999 74c58.667 0 103 -20.667 133 -62zM257.003 52.9971c46 0 84.5 20.001 115.5 60.001s46.5 86 46.5 138
c0 41.333 -12.333 75.166 -37 101.499s-57 39.5 -97 39.5c-46.667 0 -84.667 -18 -114 -54s-44 -82.667 -44 -140c0 -43.333 11.333 -78.333 34 -105s54.667 -40 96 -40z" />
    <glyph glyph-name="Delta" unicode="&#x2206;" horiz-adv-x="648" 
d="M19 0v80l254 635h101l255 -636v-79h-610zM288 535l-181 -461.999h430l-180 462l-33 101h-2c-12 -40.667 -23.333 -74.334 -34 -101.001z" />
    <glyph glyph-name="product" unicode="&#x220f;" horiz-adv-x="703" 
d="M71 715h561v-815h-90v736h-381v-736h-90v815z" />
    <glyph glyph-name="summation" unicode="&#x2211;" horiz-adv-x="616" 
d="M578 -100h-538v91l282 324v2l-282 312v86h528v-79h-423v-2l273 -295v-40l-280 -314v-2h440v-83z" />
    <glyph glyph-name="minus" unicode="&#x2212;" horiz-adv-x="560" 
d="M53 294v64h454v-64h-454z" />
    <glyph glyph-name="uni2215" unicode="&#x2215;" horiz-adv-x="169" 
d="M-178 0l453 715h72l-453 -715h-72z" />
    <glyph glyph-name="uni2219" unicode="&#x2219;" horiz-adv-x="185" 
d="M47 263v99h97v-99h-97z" />
    <glyph glyph-name="radical" unicode="&#x221a;" horiz-adv-x="579" 
d="M14 239v74h130l79 -206l41 -121h2l35 121l184 608h84l-256 -815h-92l-133 339h-74z" />
    <glyph glyph-name="infinity" unicode="&#x221e;" horiz-adv-x="715" 
d="M186 131c-48 0 -85.167 16.668 -111.5 50.001s-39.5 74.666 -39.5 123.999c0 48.667 13.333 89.667 40 123s63.667 50 111 50c66 0 124 -39 174 -117c50 78 106 117 168 117c46 0 82.833 -15.833 110.5 -47.5s41.5 -73.5 41.5 -125.5s-13.833 -94 -41.5 -126
s-64.5 -48 -110.5 -48c-62 0 -118 39 -168 117c-50 -78 -108 -117 -174 -117zM192 406.001c-26 0 -45.5 -9.33203 -58.5 -27.999s-19.5 -43 -19.5 -73c0 -30.667 6.5 -55.334 19.5 -74.001s32.5 -28 58.5 -28c42 0 83 33.667 123 101c-39.333 68 -80.333 102 -123 102z
M522 203.002c26 0 45.668 9.5 59.001 28.5s20 43.5 20 73.5s-6.66699 54.333 -20 73s-33 28 -59 28c-22.667 0 -43.334 -9 -62.001 -27s-37 -43 -55 -75c40 -67.333 79 -101 117 -101z" />
    <glyph glyph-name="integral" unicode="&#x222b;" horiz-adv-x="337" 
d="M117 -34l0.000976562 638c0 46.667 12.333 81.167 37 103.5s57.334 33.5 98.001 33.5c28.667 0 53 -3 73 -9v-72h-3c-16.667 6 -35.334 9 -56.001 9c-45.333 0 -68 -23.333 -68 -70v-638c0 -46.667 -12.333 -81.167 -37 -103.5s-57.334 -33.5 -98.001 -33.5
c-26.667 0 -51 3.33301 -73 10v72h3c18 -6.66699 36.667 -10 56 -10c45.333 0 68 23.333 68 70z" />
    <glyph glyph-name="approxequal" unicode="&#x2248;" horiz-adv-x="560" 
d="M399 337c-28 0 -73.167 6.83301 -135.5 20.5s-101.833 20.5 -118.5 20.5c-28 0 -42.667 -16.333 -44 -49h-65c0.666992 36.667 10.667 65 30 85s45.333 30 78 30c29.333 0 74.5 -6.83301 135.5 -20.5s99.167 -20.5 114.5 -20.5c30.667 0 46.667 16.333 48 49h65
c-1.33301 -36 -10.833 -64.167 -28.5 -84.5s-44.167 -30.5 -79.5 -30.5zM399 178c-28 0 -73.167 6.83301 -135.5 20.5s-101.833 20.5 -118.5 20.5c-28 0 -42.667 -16.333 -44 -49h-65c0.666992 36.667 10.667 65 30 85s45.333 30 78 30c29.333 0 74.5 -6.83301 135.5 -20.5
s99.167 -20.5 114.5 -20.5c30.667 0 46.667 16.333 48 49h65c-1.33301 -36 -10.833 -64.167 -28.5 -84.5s-44.167 -30.5 -79.5 -30.5z" />
    <glyph glyph-name="notequal" unicode="&#x2260;" horiz-adv-x="560" 
d="M53 369v64h251l45 96h68l-45 -96h135v-64h-164l-52 -111h216v-64h-245l-51 -110h-68l51 110h-141v64h170l52 111h-222z" />
    <glyph glyph-name="lessequal" unicode="&#x2264;" horiz-adv-x="511" 
d="M457 107l-407 168v83l407 168v-73l-343 -134v-2l343 -136v-74zM50 0v64h407v-64h-407z" />
    <glyph glyph-name="greaterequal" unicode="&#x2265;" horiz-adv-x="511" 
d="M461 275l-407 -168v74l343 136v2l-343 134v73l407 -168v-83zM461 64v-64h-407v64h407z" />
    <glyph glyph-name="uni24C5" unicode="&#x24c5;" horiz-adv-x="812" 
d="M406 -17c-103.333 0 -190.166 35.333 -260.499 106s-105.5 159.334 -105.5 266.001s35.167 195.5 105.5 266.5s157.166 106.5 260.499 106.5s190.166 -35.5 260.499 -106.5s105.5 -159.833 105.5 -266.5s-35.167 -195.334 -105.5 -266.001s-157.166 -106 -260.499 -106z
M406 22c92 0 168.333 31.5 229 94.5s91 142.5 91 238.5s-30.5 175.667 -91.5 239s-137.167 95 -228.5 95s-167.5 -31.667 -228.5 -95s-91.5 -143 -91.5 -239s30.333 -175.5 91 -238.5s137 -94.5 229 -94.5zM267 151v411.999h177c46 0 81 -13 105 -39
c21.333 -22.667 32 -52 32 -88c0 -39.333 -11.833 -70.166 -35.5 -92.499s-57.167 -33.5 -100.5 -33.5h-106v-159h-72zM339 501.999l-0.000976562 -135h95c24.667 0 43.334 6 56.001 18s19 28.333 19 49c0 22 -6.33301 38.833 -19 50.5s-30.667 17.5 -54 17.5h-97z" />
    <glyph glyph-name="lozenge" unicode="&#x25ca;" horiz-adv-x="546" 
d="M318 715l202 -358l-201 -357h-91l-202 358l201 357h91zM271 636l-151 -276l153 -281h2l150 275l-152 282h-2z" />
    <glyph glyph-name="uniF8FF" unicode="&#xf8ff;" horiz-adv-x="846" 
d="M65 0v716h716v-716h-716zM183 431v-144h168v-169h144v169h168v144h-168v163h-144v-163h-168z" />
    <glyph glyph-name=".null" horiz-adv-x="0" 
 />
    <glyph glyph-name="nonmarkingreturn" horiz-adv-x="333" 
 />
    <glyph glyph-name="idotaccent" horiz-adv-x="191" 
d="M55 0v517h81v-517h-81zM55 615v100h81v-100h-81z" />
    <glyph glyph-name="grave.cap" 
d="M221 753l-82 121h100l51 -121h-69z" />
    <glyph glyph-name="acute.cap" 
d="M210 753l51 121h100l-82 -121h-69z" />
    <glyph glyph-name="circumflex.cap" 
d="M113 757l93 106h92l89 -106h-87l-49 63h-2l-51 -63h-85z" />
    <glyph glyph-name="caron.cap" 
d="M202 757l-89 106h87l49 -63h2l51 63h85l-93 -106h-92z" />
    <glyph glyph-name="caron.alt" 
d="M292 715v-80c0 -54 -28.333 -84.667 -85 -92v38c26.667 8 40 26 40 54h-40v80h85z" />
    <glyph glyph-name="tilde.cap" 
d="M313 760c-18 0 -40.6689 5.33301 -68.002 16s-44.666 16 -51.999 16c-14 0 -21.667 -10 -23 -30h-60c5.33301 61.333 31 92 77 92c19.333 0 41 -5.33301 65 -16s41.333 -16 52 -16c15.333 0 24.333 10 27 30h58c-3.33301 -61.333 -28.666 -92 -75.999 -92z" />
    <glyph glyph-name="dieresis.cap" 
d="M293 760v95h78v-95h-78zM129 760v95h78v-95h-78z" />
    <glyph glyph-name="macron.cap" 
d="M121 760v67h258v-67h-258z" />
    <glyph glyph-name="breve.cap" 
d="M250 759c-34.667 0 -64.001 10.167 -88.001 30.5s-37 47.166 -39 80.499h60c6.66699 -32.667 28.667 -49 66 -49c40 0 63.333 16.333 70 49h58c-1.33301 -31.333 -13.666 -57.666 -36.999 -78.999s-53.333 -32 -90 -32z" />
    <glyph glyph-name="ring.cap" horiz-adv-x="509" 
d="M254 746c-24 0 -44.5 8.33301 -61.5 25s-25.5 36.667 -25.5 60s8.5 43.333 25.5 60s37.5 25 61.5 25s44.5 -8.33301 61.5 -25s25.5 -36.667 25.5 -60s-8.5 -43.333 -25.5 -60s-37.5 -25 -61.5 -25zM254 781c14 0 25.333 4.83301 34 14.5s13 21.5 13 35.5
s-4.33301 25.833 -13 35.5s-20 14.5 -34 14.5s-25.333 -4.83301 -34 -14.5s-13 -21.5 -13 -35.5s4.33301 -25.833 13 -35.5s20 -14.5 34 -14.5z" />
    <glyph glyph-name="hungarumlaut.cap" 
d="M267 753l31 127h82l-52 -127h-61zM137 753l31 127h82l-52 -127h-61z" />
    <glyph glyph-name="dotaccent.cap" 
d="M211 760v95h78v-95h-78z" />
    <glyph glyph-name="space_uni0326" 
d="M207 -228v38c13.333 4 23.333 10 30 18s10 21 10 39h-39v89h85v-89c0 -56 -28.667 -87.667 -86 -95z" />
    <glyph glyph-name="space_uni0326.alt" 
d="M293 788v-38c-13.333 -4 -23.333 -10 -30 -18s-10 -21 -10 -39h39v-89h-85v89c0 56 28.667 87.667 86 95z" />
    <glyph glyph-name="R.alt" horiz-adv-x="652" 
d="M525 0l-164 299.999h-204v-300h-90v715h322c74.667 0 131.334 -23 170.001 -69c32 -37.333 48 -82.666 48 -135.999c0 -50.667 -13.833 -93.667 -41.5 -129s-65.834 -59.333 -114.501 -72l176 -309h-102zM157 636.999v-264h212c99.333 0 149 44.333 149 133
c0 87.333 -48 131 -144 131h-217z" />
    <glyph glyph-name="Racute.alt" horiz-adv-x="652" 
d="M525 0l-164 299.999h-204v-300h-90v715h322c74.667 0 131.334 -23 170.001 -69c32 -37.333 48 -82.666 48 -135.999c0 -50.667 -13.833 -93.667 -41.5 -129s-65.834 -59.333 -114.501 -72l176 -309h-102zM157 636.999v-264h212c99.333 0 149 44.333 149 133
c0 87.333 -48 131 -144 131h-217zM289 752.999l51 121h100l-82 -121h-69z" />
    <glyph glyph-name="Rcaron.alt" horiz-adv-x="652" 
d="M525 0l-164 299.999h-204v-300h-90v715h322c74.667 0 131.334 -23 170.001 -69c32 -37.333 48 -82.666 48 -135.999c0 -50.667 -13.833 -93.667 -41.5 -129s-65.834 -59.333 -114.501 -72l176 -309h-102zM157 636.999v-264h212c99.333 0 149 44.333 149 133
c0 87.333 -48 131 -144 131h-217zM278 756.999l-89 106h87l49 -63h2l51 63h85l-93 -106h-92z" />
    <glyph glyph-name="Rcommaaccent.alt" horiz-adv-x="652" 
d="M525 0l-164 299.999h-204v-300h-90v715h322c74.667 0 131.334 -23 170.001 -69c32 -37.333 48 -82.666 48 -135.999c0 -50.667 -13.833 -93.667 -41.5 -129s-65.834 -59.333 -114.501 -72l176 -309h-102zM157 636.999v-264h212c99.333 0 149 44.333 149 133
c0 87.333 -48 131 -144 131h-217zM283 -228.001v38c13.333 4 23.333 10 30 18s10 21 10 39h-39v89h85v-89c0 -56 -28.667 -87.667 -86 -95z" />
    <glyph glyph-name="a.alt" horiz-adv-x="499" 
d="M387 0c-10 10 -15.335 33.6689 -16.002 71.002h-1c-42 -54 -98 -81 -168 -81c-51.333 0 -93.833 12.667 -127.5 38s-50.5 61.666 -50.5 108.999c0 23.333 3.83301 44 11.5 62s17.834 32.5 30.501 43.5s29.167 20.333 49.5 28s40.833 13.5 61.5 17.5
s45.334 7.33301 74.001 10c43.333 4.66699 74.5 12.167 93.5 22.5s28.5 28.5 28.5 54.5c0 29.333 -9.66699 51.833 -29 67.5s-47.333 23.5 -84 23.5c-82.667 0 -127 -38 -133 -114h-78c3.33301 51.333 22.833 93.333 58.5 126s86.167 49 151.5 49
c125.333 0 188 -54.667 188 -164v-289c0 -38.667 6.33301 -62.334 19 -71.001v-3h-79zM217.998 52.002c50 0 88.501 14.5 115.501 43.5s40.5 60.833 40.5 95.5v79c-30.667 -16 -70.667 -26.667 -120 -32c-50.667 -6 -87.334 -15.5 -110.001 -28.5s-34 -36.5 -34 -70.5
c0 -58 36 -87 108 -87z" />
    <glyph glyph-name="aacute.alt" horiz-adv-x="499" 
d="M387 0c-10 10 -15.335 33.6689 -16.002 71.002h-1c-42 -54 -98 -81 -168 -81c-51.333 0 -93.833 12.667 -127.5 38s-50.5 61.666 -50.5 108.999c0 23.333 3.83301 44 11.5 62s17.834 32.5 30.501 43.5s29.167 20.333 49.5 28s40.833 13.5 61.5 17.5
s45.334 7.33301 74.001 10c43.333 4.66699 74.5 12.167 93.5 22.5s28.5 28.5 28.5 54.5c0 29.333 -9.66699 51.833 -29 67.5s-47.333 23.5 -84 23.5c-82.667 0 -127 -38 -133 -114h-78c3.33301 51.333 22.833 93.333 58.5 126s86.167 49 151.5 49
c125.333 0 188 -54.667 188 -164v-289c0 -38.667 6.33301 -62.334 19 -71.001v-3h-79zM217.998 52.002c50 0 88.501 14.5 115.501 43.5s40.5 60.833 40.5 95.5v79c-30.667 -16 -70.667 -26.667 -120 -32c-50.667 -6 -87.334 -15.5 -110.001 -28.5s-34 -36.5 -34 -70.5
c0 -58 36 -87 108 -87zM230.999 598.002l51 127h100l-82 -127h-69z" />
    <glyph glyph-name="abreve.alt" horiz-adv-x="499" 
d="M387 0c-10 10 -15.335 33.6689 -16.002 71.002h-1c-42 -54 -98 -81 -168 -81c-51.333 0 -93.833 12.667 -127.5 38s-50.5 61.666 -50.5 108.999c0 23.333 3.83301 44 11.5 62s17.834 32.5 30.501 43.5s29.167 20.333 49.5 28s40.833 13.5 61.5 17.5
s45.334 7.33301 74.001 10c43.333 4.66699 74.5 12.167 93.5 22.5s28.5 28.5 28.5 54.5c0 29.333 -9.66699 51.833 -29 67.5s-47.333 23.5 -84 23.5c-82.667 0 -127 -38 -133 -114h-78c3.33301 51.333 22.833 93.333 58.5 126s86.167 49 151.5 49
c125.333 0 188 -54.667 188 -164v-289c0 -38.667 6.33301 -62.334 19 -71.001v-3h-79zM217.998 52.002c50 0 88.501 14.5 115.501 43.5s40.5 60.833 40.5 95.5v79c-30.667 -16 -70.667 -26.667 -120 -32c-50.667 -6 -87.334 -15.5 -110.001 -28.5s-34 -36.5 -34 -70.5
c0 -58 36 -87 108 -87zM262.999 604.002c-34.667 0 -64.001 10.167 -88.001 30.5s-37 47.166 -39 80.499h60c6.66699 -32.667 28.667 -49 66 -49c40 0 63.333 16.333 70 49h58c-1.33301 -31.333 -13.666 -57.666 -36.999 -78.999s-53.333 -32 -90 -32z" />
    <glyph glyph-name="acircumflex.alt" horiz-adv-x="499" 
d="M387 0c-10 10 -15.335 33.6689 -16.002 71.002h-1c-42 -54 -98 -81 -168 -81c-51.333 0 -93.833 12.667 -127.5 38s-50.5 61.666 -50.5 108.999c0 23.333 3.83301 44 11.5 62s17.834 32.5 30.501 43.5s29.167 20.333 49.5 28s40.833 13.5 61.5 17.5
s45.334 7.33301 74.001 10c43.333 4.66699 74.5 12.167 93.5 22.5s28.5 28.5 28.5 54.5c0 29.333 -9.66699 51.833 -29 67.5s-47.333 23.5 -84 23.5c-82.667 0 -127 -38 -133 -114h-78c3.33301 51.333 22.833 93.333 58.5 126s86.167 49 151.5 49
c125.333 0 188 -54.667 188 -164v-289c0 -38.667 6.33301 -62.334 19 -71.001v-3h-79zM217.998 52.002c50 0 88.501 14.5 115.501 43.5s40.5 60.833 40.5 95.5v79c-30.667 -16 -70.667 -26.667 -120 -32c-50.667 -6 -87.334 -15.5 -110.001 -28.5s-34 -36.5 -34 -70.5
c0 -58 36 -87 108 -87zM125.999 602.002l93 106h92l89 -106h-87l-49 63h-2l-51 -63h-85z" />
    <glyph glyph-name="adieresis.alt" horiz-adv-x="499" 
d="M387 0c-10 10 -15.335 33.6689 -16.002 71.002h-1c-42 -54 -98 -81 -168 -81c-51.333 0 -93.833 12.667 -127.5 38s-50.5 61.666 -50.5 108.999c0 23.333 3.83301 44 11.5 62s17.834 32.5 30.501 43.5s29.167 20.333 49.5 28s40.833 13.5 61.5 17.5
s45.334 7.33301 74.001 10c43.333 4.66699 74.5 12.167 93.5 22.5s28.5 28.5 28.5 54.5c0 29.333 -9.66699 51.833 -29 67.5s-47.333 23.5 -84 23.5c-82.667 0 -127 -38 -133 -114h-78c3.33301 51.333 22.833 93.333 58.5 126s86.167 49 151.5 49
c125.333 0 188 -54.667 188 -164v-289c0 -38.667 6.33301 -62.334 19 -71.001v-3h-79zM217.998 52.002c50 0 88.501 14.5 115.501 43.5s40.5 60.833 40.5 95.5v79c-30.667 -16 -70.667 -26.667 -120 -32c-50.667 -6 -87.334 -15.5 -110.001 -28.5s-34 -36.5 -34 -70.5
c0 -58 36 -87 108 -87zM305.999 615.002v95h78v-95h-78zM141.999 615.002v95h78v-95h-78z" />
    <glyph glyph-name="agrave.alt" horiz-adv-x="499" 
d="M387 0c-10 10 -15.335 33.6689 -16.002 71.002h-1c-42 -54 -98 -81 -168 -81c-51.333 0 -93.833 12.667 -127.5 38s-50.5 61.666 -50.5 108.999c0 23.333 3.83301 44 11.5 62s17.834 32.5 30.501 43.5s29.167 20.333 49.5 28s40.833 13.5 61.5 17.5
s45.334 7.33301 74.001 10c43.333 4.66699 74.5 12.167 93.5 22.5s28.5 28.5 28.5 54.5c0 29.333 -9.66699 51.833 -29 67.5s-47.333 23.5 -84 23.5c-82.667 0 -127 -38 -133 -114h-78c3.33301 51.333 22.833 93.333 58.5 126s86.167 49 151.5 49
c125.333 0 188 -54.667 188 -164v-289c0 -38.667 6.33301 -62.334 19 -71.001v-3h-79zM217.998 52.002c50 0 88.501 14.5 115.501 43.5s40.5 60.833 40.5 95.5v79c-30.667 -16 -70.667 -26.667 -120 -32c-50.667 -6 -87.334 -15.5 -110.001 -28.5s-34 -36.5 -34 -70.5
c0 -58 36 -87 108 -87zM236.999 598.002l-82 127h100l51 -127h-69z" />
    <glyph glyph-name="amacron.alt" horiz-adv-x="499" 
d="M387 0c-10 10 -15.335 33.6689 -16.002 71.002h-1c-42 -54 -98 -81 -168 -81c-51.333 0 -93.833 12.667 -127.5 38s-50.5 61.666 -50.5 108.999c0 23.333 3.83301 44 11.5 62s17.834 32.5 30.501 43.5s29.167 20.333 49.5 28s40.833 13.5 61.5 17.5
s45.334 7.33301 74.001 10c43.333 4.66699 74.5 12.167 93.5 22.5s28.5 28.5 28.5 54.5c0 29.333 -9.66699 51.833 -29 67.5s-47.333 23.5 -84 23.5c-82.667 0 -127 -38 -133 -114h-78c3.33301 51.333 22.833 93.333 58.5 126s86.167 49 151.5 49
c125.333 0 188 -54.667 188 -164v-289c0 -38.667 6.33301 -62.334 19 -71.001v-3h-79zM217.998 52.002c50 0 88.501 14.5 115.501 43.5s40.5 60.833 40.5 95.5v79c-30.667 -16 -70.667 -26.667 -120 -32c-50.667 -6 -87.334 -15.5 -110.001 -28.5s-34 -36.5 -34 -70.5
c0 -58 36 -87 108 -87zM133.999 622.002v67h258v-67h-258z" />
    <glyph glyph-name="aogonek.alt" horiz-adv-x="499" 
d="M427 -172c-32 0 -56.8359 7.16797 -74.5029 21.501s-26.5 33.5 -26.5 57.5c0 36 21.333 66.333 64 91c-12 10 -18.333 34.333 -19 73h-1c-42 -54 -98 -81 -168 -81c-51.333 0 -93.833 12.667 -127.5 38s-50.5 61.666 -50.5 108.999c0 23.333 3.83301 44 11.5 62
s17.834 32.5 30.501 43.5s29.167 20.333 49.5 28s40.833 13.5 61.5 17.5s45.334 7.33301 74.001 10c43.333 4.66699 74.5 12.167 93.5 22.5s28.5 28.5 28.5 54.5c0 29.333 -9.66699 51.833 -29 67.5s-47.333 23.5 -84 23.5c-82.667 0 -127 -38 -133 -114h-78
c3.33301 51.333 22.833 93.333 58.5 126s86.167 49 151.5 49c125.333 0 188 -54.667 188 -164v-289c0 -32 5.33301 -55.667 16 -71v-3c-40.667 -30 -61 -56.667 -61 -80c0 -22.667 13.333 -34 40 -34c14 0 26.333 2.33301 37 7h3v-56c-19.333 -6 -37.666 -9 -54.999 -9z
M217.997 52.001c50 0 88.501 14.5 115.501 43.5s40.5 60.833 40.5 95.5v79c-30.667 -16 -70.667 -26.667 -120 -32c-50.667 -6 -87.334 -15.5 -110.001 -28.5s-34 -36.5 -34 -70.5c0 -58 36 -87 108 -87z" />
    <glyph glyph-name="aring.alt" horiz-adv-x="499" 
d="M387 0c-10 10 -15.335 33.6689 -16.002 71.002h-1c-42 -54 -98 -81 -168 -81c-51.333 0 -93.833 12.667 -127.5 38s-50.5 61.666 -50.5 108.999c0 23.333 3.83301 44 11.5 62s17.834 32.5 30.501 43.5s29.167 20.333 49.5 28s40.833 13.5 61.5 17.5
s45.334 7.33301 74.001 10c43.333 4.66699 74.5 12.167 93.5 22.5s28.5 28.5 28.5 54.5c0 29.333 -9.66699 51.833 -29 67.5s-47.333 23.5 -84 23.5c-82.667 0 -127 -38 -133 -114h-78c3.33301 51.333 22.833 93.333 58.5 126s86.167 49 151.5 49
c125.333 0 188 -54.667 188 -164v-289c0 -38.667 6.33301 -62.334 19 -71.001v-3h-79zM217.998 52.002c50 0 88.501 14.5 115.501 43.5s40.5 60.833 40.5 95.5v79c-30.667 -16 -70.667 -26.667 -120 -32c-50.667 -6 -87.334 -15.5 -110.001 -28.5s-34 -36.5 -34 -70.5
c0 -58 36 -87 108 -87zM262.999 559.002c-24 0 -44.5 8.33301 -61.5 25s-25.5 36.667 -25.5 60s8.5 43.333 25.5 60s37.5 25 61.5 25s44.5 -8.33301 61.5 -25s25.5 -36.667 25.5 -60s-8.5 -43.333 -25.5 -60s-37.5 -25 -61.5 -25zM262.999 594.002
c14 0 25.333 4.83301 34 14.5s13 21.5 13 35.5s-4.33301 25.833 -13 35.5s-20 14.5 -34 14.5s-25.333 -4.83301 -34 -14.5s-13 -21.5 -13 -35.5s4.33301 -25.833 13 -35.5s20 -14.5 34 -14.5z" />
    <glyph glyph-name="atilde.alt" horiz-adv-x="499" 
d="M387 0c-10 10 -15.335 33.6689 -16.002 71.002h-1c-42 -54 -98 -81 -168 -81c-51.333 0 -93.833 12.667 -127.5 38s-50.5 61.666 -50.5 108.999c0 23.333 3.83301 44 11.5 62s17.834 32.5 30.501 43.5s29.167 20.333 49.5 28s40.833 13.5 61.5 17.5
s45.334 7.33301 74.001 10c43.333 4.66699 74.5 12.167 93.5 22.5s28.5 28.5 28.5 54.5c0 29.333 -9.66699 51.833 -29 67.5s-47.333 23.5 -84 23.5c-82.667 0 -127 -38 -133 -114h-78c3.33301 51.333 22.833 93.333 58.5 126s86.167 49 151.5 49
c125.333 0 188 -54.667 188 -164v-289c0 -38.667 6.33301 -62.334 19 -71.001v-3h-79zM217.998 52.002c50 0 88.501 14.5 115.501 43.5s40.5 60.833 40.5 95.5v79c-30.667 -16 -70.667 -26.667 -120 -32c-50.667 -6 -87.334 -15.5 -110.001 -28.5s-34 -36.5 -34 -70.5
c0 -58 36 -87 108 -87zM326.999 601.002c-18 0 -40.6689 5.33301 -68.002 16s-44.666 16 -51.999 16c-14 0 -21.667 -10 -23 -30h-60c5.33301 61.333 31 92 77 92c19.333 0 41 -5.33301 65 -16s41.333 -16 52 -16c15.333 0 24.333 10 27 30h58
c-3.33301 -61.333 -28.666 -92 -75.999 -92z" />
    <glyph glyph-name="Ccedilla.alt" horiz-adv-x="709" 
d="M320 -167v31.001c31.333 1.33301 47 14.666 47 39.999h-46v71h88v-59c0 -30 -7.5 -51 -22.5 -63s-37.167 -18.667 -66.5 -20zM375 -13.999c-100.667 0 -181.667 34.6689 -243 104.002s-92 158.666 -92 267.999c0 108 30.5 197.167 91.5 267.5s143.5 105.5 247.5 105.5
c81.333 0 147 -21 197 -63s80 -97 90 -165h-88c-8.66699 45.333 -30.5 81.666 -65.5 108.999s-80.167 41 -135.5 41c-76.667 0 -136.667 -27.5 -180 -82.5s-65 -125.833 -65 -212.5c0 -88 22.5 -158.833 67.5 -212.5s104.5 -80.5 178.5 -80.5c64 0 113.5 18.667 148.5 56
s54.833 84.333 59.5 141h89c-0.666992 -35.333 -8.83398 -71.5 -24.501 -108.5s-36.167 -67.833 -61.5 -92.5c-51.333 -50 -122.666 -75 -213.999 -75z" />
    <glyph glyph-name="Scedilla.alt" horiz-adv-x="626" 
d="M327 -14c-96 0 -169.829 23.665 -221.496 70.998s-79.5 109 -83.5 185h88c12 -122.667 85.667 -184 221 -184c51.333 0 92.5 11.5 123.5 34.5s46.5 56.167 46.5 99.5c0 19.333 -3.66699 36.333 -11 51s-16.166 26.667 -26.499 36s-25.833 18 -46.5 26
s-39.834 14.333 -57.501 19s-41.834 10.334 -72.501 17.001c-36.667 8 -67 16.167 -91 24.5s-48 19.833 -72 34.5s-41.833 33.5 -53.5 56.5s-17.5 50.833 -17.5 83.5c0 58.667 22.167 104.834 66.5 138.501s103.166 50.5 176.499 50.5c160.667 0 251 -74.333 271 -223h-85
c-6.66699 50.667 -25.667 88.834 -57 114.501s-73.666 38.5 -126.999 38.5c-49.333 0 -88.5 -10 -117.5 -30s-43.5 -48.333 -43.5 -85c0 -16 3.16699 -30.167 9.5 -42.5s14.666 -22.666 24.999 -30.999s24 -15.833 41 -22.5s33.833 -12.167 50.5 -16.5s37 -8.83301 61 -13.5
c33.333 -6.66699 60.666 -12.834 81.999 -18.501s45 -14.167 71 -25.5s46.167 -24.333 60.5 -39s26.666 -33.834 36.999 -57.501s15.5 -51.167 15.5 -82.5c0 -65.333 -24.167 -116.5 -72.5 -153.5s-111.833 -55.5 -190.5 -55.5zM260.004 -167.002v31.001
c31.333 1.33301 47 14.666 47 39.999h-46v71h88v-59c0 -30 -7.5 -51 -22.5 -63s-37.167 -18.667 -66.5 -20z" />
    <glyph glyph-name="ccedilla.alt" horiz-adv-x="519" 
d="M276 -14c-75.333 0 -135.833 25.998 -181.5 77.998s-68.5 116.667 -68.5 194s22.833 142 68.5 194s106.167 78 181.5 78c60.667 0 110.334 -16.167 149.001 -48.5s62.667 -76.166 72 -131.499h-82c-6 35.333 -21 63 -45 83s-55.333 30 -94 30
c-53.333 0 -94.5 -19.333 -123.5 -58s-43.5 -87.667 -43.5 -147s14.5 -108.166 43.5 -146.499s70.167 -57.5 123.5 -57.5c41.333 0 74.333 11.167 99 33.5s38.667 53.833 42 94.5h80c-5.33301 -62 -27.333 -110.167 -66 -144.5s-90.334 -51.5 -155.001 -51.5zM219 -167.002
v31.001c31.333 1.33301 47 14.666 47 39.999h-46v71h88v-59c0 -30 -7.5 -51 -22.5 -63s-37.167 -18.667 -66.5 -20z" />
    <glyph glyph-name="scedilla.alt" horiz-adv-x="478" 
d="M251 -15c-70.667 0 -125.504 15.833 -164.504 47.5s-60.5 76.834 -64.5 135.501h83c9.33301 -76.667 58.666 -115 147.999 -115c40.667 0 70.834 7.83301 90.501 23.5s29.5 36.167 29.5 61.5c0 27.333 -9.66699 47 -29 59s-54.666 23.333 -105.999 34
c-21.333 4.66699 -38.166 8.5 -50.499 11.5s-27.166 7.33301 -44.499 13s-30.833 12 -40.5 19s-19.5 15.5 -29.5 25.5s-17.167 22.333 -21.5 37s-6.5 31 -6.5 49c0 44 16.167 78.667 48.5 104s78.166 38 137.499 38c122.667 0 190.334 -54 203.001 -162h-83
c-4 34 -15.667 58.833 -35 74.5s-48.333 23.5 -87 23.5c-35.333 0 -61.5 -6.83301 -78.5 -20.5s-25.5 -31.5 -25.5 -53.5c0 -25.333 10 -43.166 30 -53.499s56.333 -20.833 109 -31.5c32 -6.66699 57.167 -12.834 75.5 -18.501s37.5 -14.334 57.5 -26.001
s34.667 -27.167 44 -46.5s14 -43.333 14 -72c0 -50.667 -18.667 -89.5 -56 -116.5s-86.666 -40.5 -147.999 -40.5zM192.996 -167v31.001c31.333 1.33301 47 14.666 47 39.999h-46v71h88v-59c0 -30 -7.5 -51 -22.5 -63s-37.167 -18.667 -66.5 -20z" />
    <glyph glyph-name="hyphen.cap" horiz-adv-x="364" 
d="M38 285v85h288v-85h-288z" />
    <glyph glyph-name="endash.cap" horiz-adv-x="523" 
d="M48 293v69h427v-69h-427z" />
    <glyph glyph-name="emdash.cap" horiz-adv-x="803" 
d="M48 293v69h707v-69h-707z" />
    <glyph glyph-name="questiondown.cap" horiz-adv-x="504" 
d="M248 -13c-68 0 -121.335 18.1689 -160.002 54.502s-58 81.833 -58 136.5c0 37.333 8.16699 68.666 24.5 93.999s38.833 50 67.5 74c44 36.667 72.5 66.334 85.5 89.001s19.833 58.334 20.5 107.001h76c-0.666992 -54 -8.5 -96.833 -23.5 -128.5
s-42.167 -64.834 -81.5 -99.501l-43 -39.5c-8 -7.66699 -16.667 -20.5 -26 -38.5s-14 -37 -14 -57c0 -34 12 -62.5 36 -85.5s57 -34.5 99 -34.5c50 0 87.833 15.167 113.5 45.5s39.167 72.166 40.5 125.499h82c-1.33301 -72.667 -21.666 -131.334 -60.999 -176.001
s-98.666 -67 -177.999 -67zM217.998 616.002v99h97v-99h-97z" />
    <glyph glyph-name="exclamdown.cap" horiz-adv-x="235" 
d="M73 0v229l22 313h45l22 -313v-229h-89zM69 616v99h97v-99h-97z" />
    <glyph glyph-name="parenleft.cap" horiz-adv-x="304" 
d="M217 -88c-46 70.667 -81.833 142.001 -107.5 214.001s-38.5 151.667 -38.5 239c0 143.333 48.667 283 146 419h66c-78 -132.667 -117 -272.334 -117 -419.001c0 -158.667 39 -309.667 117 -453h-66z" />
    <glyph glyph-name="parenright.cap" horiz-adv-x="304" 
d="M22 -88c78 143.333 117 294.332 117 452.999c0 146.667 -39 286.334 -117 419.001h66c97.333 -136 146 -275.667 146 -419c0 -87.333 -12.833 -167 -38.5 -239s-61.5 -143.333 -107.5 -214h-66z" />
    <glyph glyph-name="bracketleft.cap" horiz-adv-x="296" 
d="M77 -88v872h189v-66h-105v-737h105v-69h-189z" />
    <glyph glyph-name="bracketright.cap" horiz-adv-x="296" 
d="M30 -88v69h105v737h-105v66h189v-872h-189z" />
    <glyph glyph-name="braceleft.cap" horiz-adv-x="296" 
d="M248 -88c-52 0 -90.832 12.4941 -116.499 37.4941s-38.5 66.167 -38.5 123.5v178c0 22.667 -5 39.334 -15 50.001s-28 16.334 -54 17.001v67c25.333 0.666992 43.166 6.33398 53.499 17.001s15.5 27.334 15.5 50.001v174c0 57.333 12.833 98 38.5 122s64.5 36 116.5 36
h18v-66h-16c-26.667 0 -45.5 -6.66699 -56.5 -20s-16.5 -37.666 -16.5 -72.999v-179c0 -50.667 -18.667 -81.667 -56 -93v-3c37.333 -11.333 56 -42.333 56 -93v-183c0 -35.333 5.5 -59.666 16.5 -72.999s29.833 -20 56.5 -20h16v-69h-18z" />
    <glyph glyph-name="braceright.cap" horiz-adv-x="296" 
d="M30 -88l-0.000976562 69.0049h16c27.333 0 46.333 6.16699 57 18.5s16 36.166 16 71.499v183c0 50.667 18.667 81.667 56 93v3c-37.333 11.333 -56 42.333 -56 93v179c0 36 -5.5 61 -16.5 75s-29.833 21 -56.5 21h-16v66h18c52 0 90.833 -12.5 116.5 -37.5
s38.5 -66.167 38.5 -123.5v-174c0 -22.667 5 -39.334 15 -50.001s28 -16.334 54 -17.001v-67c-25.333 -0.666992 -43.166 -6.33398 -53.499 -17.001s-15.5 -27.334 -15.5 -50.001v-178c0 -57.333 -12.833 -98 -38.5 -122s-64.5 -36 -116.5 -36h-18z" />
    <glyph glyph-name="guillemotleft.cap" horiz-adv-x="424" 
d="M374 158l-137 115v87l137 115v-79l-93 -78v-2l93 -79v-79zM187 158l-137 115v87l137 115v-79l-93 -78v-2l93 -79v-79z" />
    <glyph glyph-name="guillemotright.cap" horiz-adv-x="424" 
d="M237 158v79l93 78v2l-93 79v79l137 -115v-87zM50 158v79l93 78v2l-93 79v79l137 -115v-87z" />
    <glyph glyph-name="guilsinglleft.cap" horiz-adv-x="246" 
d="M196 158l-146 115v87l146 115v-79l-104 -78v-2l104 -79v-79z" />
    <glyph glyph-name="guilsinglright.cap" horiz-adv-x="246" 
d="M50 158v79l104 78v2l-104 79v79l146 -115v-87z" />
    <glyph glyph-name="registered.alt" horiz-adv-x="812" 
d="M406 -17c-103.333 0 -190.166 35.333 -260.499 106s-105.5 159.334 -105.5 266.001s35.167 195.5 105.5 266.5s157.166 106.5 260.499 106.5s190.166 -35.5 260.499 -106.5s105.5 -159.833 105.5 -266.5s-35.167 -195.334 -105.5 -266.001s-157.166 -106 -260.499 -106z
M406 22c92 0 168.333 31.5 229 94.5s91 142.5 91 238.5s-30.5 175.667 -91.5 239s-137.167 95 -228.5 95s-167.5 -31.667 -228.5 -95s-91.5 -143 -91.5 -239s30.333 -175.5 91 -238.5s137 -94.5 229 -94.5zM257 149l-0.00292969 411.997h190c38 0 69 -10.667 93 -32
s36 -48.666 36 -81.999c0 -52.667 -25.667 -86.334 -77 -101.001v-2c20.667 -6 35.5 -15.833 44.5 -29.5s15.167 -34.167 18.5 -61.5c0.666992 -5.33301 1.33398 -11.666 2.00098 -18.999s1.16699 -13.166 1.5 -17.499s0.833008 -9.33301 1.5 -15s1.16699 -10.167 1.5 -13.5
s0.833008 -7 1.5 -11s1.33398 -7.16699 2.00098 -9.5s1.5 -4.66602 2.5 -6.99902s2 -4 3 -5s2.16699 -1.83301 3.5 -2.5v-4h-70c-7.33301 4 -12.666 35.333 -15.999 94c-2.66699 50 -29.667 75 -81 75h-87v-169h-70zM326.997 501.997l-0.000976562 -129h103
c24.667 0 43.334 5.66699 56.001 17s19 27 19 47c0 43.333 -24.667 65 -74 65h-104z" />
    <glyph glyph-name="dollar.cap" horiz-adv-x="579" 
d="M263 -78l-0.00488281 84.999c-80.667 5.33301 -141.167 29.5 -181.5 72.5s-62.166 95.833 -65.499 158.5h84c4.66699 -49.333 19.834 -87.666 45.501 -114.999s64.834 -43.333 117.501 -48v259c-35.333 8 -64.166 15.833 -86.499 23.5s-44.333 18.5 -66 32.5
s-37.5 31.833 -47.5 53.5s-15 47.834 -15 78.501c0 55.333 19.667 99.5 59 132.5s91.333 51.167 156 54.5v55h56v-55c126.667 -9.33301 198 -70.333 214 -183h-81c-9.33301 68 -53.666 106.667 -132.999 116v-241c37.333 -7.33301 68 -15 92 -23s47.5 -19 70.5 -33
s40 -32.5 51 -55.5s16.5 -50.833 16.5 -83.5c0 -58.667 -21.5 -105.834 -64.5 -141.501s-98.167 -55.167 -165.5 -58.5v-84h-56zM466.995 202.999c0 34.667 -11.333 60 -34 76s-60.667 30 -114 42v-247c42 3.33301 77.167 16.5 105.5 39.5s42.5 52.833 42.5 89.5z
M126.995 525.999c0 -31.333 10.667 -55.501 32 -72.501s56 -30.833 104 -41.5v231c-41.333 -3.33301 -74.333 -15.166 -99 -35.499s-37 -47.5 -37 -81.5z" />
    <glyph glyph-name="Euro.cap" horiz-adv-x="638" 
d="M23 392l0.000976562 56.9961h67c14 86.667 45.833 155.334 95.5 206.001s110.5 76 182.5 76c65.333 0 119.166 -19.167 161.499 -57.5s67.5 -89.833 75.5 -154.5h-87c-15.333 91.333 -66 137 -152 137c-50 0 -91 -18.167 -123 -54.5s-52.667 -87.166 -62 -152.499h209
v-57h-215c-0.666992 -8 -1 -20 -1 -36s0.333008 -28 1 -36h215v-56h-209c10 -65.333 31.5 -115.333 64.5 -150s75.5 -52 127.5 -52c92 0 144.333 58.333 157 175h84c-3.33301 -73.333 -27.5 -133.666 -72.5 -180.999s-103.167 -71 -174.5 -71
c-68.667 0 -128.5 24.833 -179.5 74.5s-83.5 117.834 -97.5 204.501h-67v56h61c-1.33301 8 -2 20 -2 36s0.666992 28 2 36h-61z" />
    <glyph glyph-name="sterling.cap" horiz-adv-x="570" 
d="M36 314l-0.00195312 66.9961h63c-22 59.333 -33 108.333 -33 147c0 59.333 21.833 108 65.5 146s101.167 57 172.5 57c66 0 121.167 -19.833 165.5 -59.5s66.833 -99.5 67.5 -179.5h-86c-0.666992 57.333 -14.667 99.333 -42 126s-63.333 40 -108 40
c-45.333 0 -80.666 -11.667 -105.999 -35s-38 -55.333 -38 -96c0 -9.33301 0.666992 -18.666 2 -27.999s3.33301 -19.666 6 -30.999s5.16699 -20.333 7.5 -27l10.5 -31c4.66699 -14 7.66699 -23.667 9 -29h150v-67h-131c4.66699 -23.333 7 -43.666 7 -60.999
c0 -61.333 -27.667 -114.666 -83 -159.999l2 -2c34 11.333 61.333 17 82 17c26.667 0 58.334 -7.16699 95.001 -21.5s64.667 -21.5 84 -21.5c34.667 0 70.667 16.667 108 50l51 -62c-50.667 -44 -104.667 -66 -162 -66c-32.667 0 -70 9.33301 -112 28s-76 28 -102 28
c-6 0 -11.667 -0.333008 -17 -1s-11 -2.16699 -17 -4.5l-14.5 -5.5c-3.66699 -1.33301 -8.83398 -4 -15.501 -8s-11 -6.66699 -13 -8l-14 -9.5c-7.33301 -5 -11.666 -7.83301 -12.999 -8.5l-50 69c36.667 26.667 64 52 82 76s27 55.333 27 94c0 22 -4.66699 47.667 -14 77
h-86z" />
    <glyph glyph-name="yen.cap" horiz-adv-x="587" 
d="M64 284v56h173l-217 375h97l179 -322h2l176 322h92l-214 -375h175v-56h-188v-72h188v-56h-188v-156h-87v156h-188v56h188v72h-188z" />
    <glyph glyph-name="zero.cap" horiz-adv-x="641" 
d="M321 -15c-87.333 0 -155.498 33.333 -204.498 100s-73.5 157.667 -73.5 273s25.167 206.333 75.5 273s118.166 100 203.499 100s152.666 -33.167 201.999 -99.5s74 -157.5 74 -273.5c0 -115.333 -24.167 -206.333 -72.5 -273s-116.5 -100 -204.5 -100zM322.002 63
c122.667 0 184 98.333 184 295c0 93.333 -15.5 166 -46.5 218s-76.833 78 -137.5 78c-62 0 -108.667 -25.667 -140 -77s-47 -124.333 -47 -219c0 -93.333 15.667 -165.833 47 -217.5s78 -77.5 140 -77.5z" />
    <glyph glyph-name="one.cap" horiz-adv-x="354" 
d="M185 0v519.999h-157v59c106 2.66699 165 49.334 177 140.001h70v-719h-90z" />
    <glyph glyph-name="two.cap" horiz-adv-x="572" 
d="M26 0c1.33301 26 5.33398 50.5039 12.001 73.5039s13.5 42.667 20.5 59s18.667 33.666 35 51.999s29.166 32.166 38.499 41.499s25.666 21.833 48.999 37.5s39.333 26.167 48 31.5s26.667 15.666 54 30.999c5.33301 3.33301 9.33301 5.66602 12 6.99902
c54.667 31.333 93.334 58.833 116.001 82.5s34 55.167 34 94.5c0 44 -14 79.667 -42 107s-65.667 41 -113 41c-46.667 0 -84 -15 -112 -45c-27.333 -29.333 -41 -77 -41 -143h-93c0 84 22.667 148.667 68 194c45.333 44.667 107.333 67 186 67
c72 0 129.833 -20.5 173.5 -61.5s65.5 -93.833 65.5 -158.5c0 -31.333 -4.5 -59 -13.5 -83s-23.833 -45.5 -44.5 -64.5s-40.167 -34.5 -58.5 -46.5s-44.5 -27.333 -78.5 -46c-6 -2.66699 -10.333 -5 -13 -7c-34 -18.667 -61.667 -35 -83 -49s-44 -33.167 -68 -57.5
s-39 -48.833 -45 -73.5h389v-84h-496z" />
    <glyph glyph-name="three.cap" horiz-adv-x="594" 
d="M304 -15c-82 0 -149.666 22.1709 -202.999 66.5039s-80.666 105.833 -81.999 184.5h87c2 -56.667 20.167 -100.334 54.5 -131.001s81.166 -46 140.499 -46c51.333 0 92.166 12.5 122.499 37.5s45.5 62.167 45.5 111.5c0 45.333 -16 79.666 -48 102.999
s-78.333 35 -139 35h-45v69h44c54.667 0 96 10.667 124 32s42 51.666 42 90.999c0 38 -14.5 68 -43.5 90s-65.833 33 -110.5 33c-51.333 0 -91.5 -14.833 -120.5 -44.5s-43.5 -69.5 -43.5 -119.5h-86c0.666992 71.333 23.5 128.166 68.5 170.499s106.5 63.5 184.5 63.5
c68.667 0 125.5 -17.5 170.5 -52.5s67.5 -82.833 67.5 -143.5c0 -74 -39.333 -124 -118 -150v-3c96.667 -24.667 145 -85.667 145 -183c0 -66 -24.167 -118.167 -72.5 -156.5s-109.833 -57.5 -184.5 -57.5z" />
    <glyph glyph-name="four.cap" horiz-adv-x="589" 
d="M362 0v175h-337v80l354 467h71v-476h118v-71h-118v-175h-88zM109 249v-3h253v333h-2z" />
    <glyph glyph-name="five.cap" horiz-adv-x="577" 
d="M287 -15c-74.667 0 -136.503 20.499 -185.503 61.499s-74.833 94.5 -77.5 160.5h89c5.33301 -45.333 23 -80.666 53 -105.999s70 -38 120 -38c50.667 0 91.167 15.5 121.5 46.5s45.5 72.833 45.5 125.5c0 52 -15.667 93.167 -47 123.5s-71.333 45.5 -120 45.5
c-71.333 0 -124.666 -24.667 -159.999 -74h-85l79 385h381v-79h-319l-47 -215h2c42.667 40.667 97.334 61 164.001 61s123.834 -22.5 171.501 -67.5s71.5 -105.5 71.5 -181.5c0 -75.333 -24 -135.5 -72 -180.5s-109.667 -67.5 -185 -67.5z" />
    <glyph glyph-name="six.cap" horiz-adv-x="605" 
d="M325 -15c-75.333 0 -135.665 21.0029 -180.998 63.0029c-36.667 33.333 -62.667 75 -78 125s-23 113 -23 189c0 114 24.167 204 72.5 270s117.166 99 206.499 99c67.333 0 120.166 -18.833 158.499 -56.5s60.5 -84.834 66.5 -141.501h-87
c-3.33301 35.333 -17 64.666 -41 87.999s-55.667 35 -95 35c-67.333 0 -116 -24.5 -146 -73.5s-45.667 -119.833 -47 -212.5h2c48 66 113.333 99 196 99c66.667 0 122.5 -23.333 167.5 -70s67.833 -103.334 68.5 -170.001c0.666992 -67.333 -22 -124.833 -68 -172.5
s-103.333 -71.5 -172 -71.5zM323.001 57.0029c46 0 83.501 15.499 112.501 46.499s43.5 71.5 43.5 121.5c0 50.667 -15 91.834 -45 123.501s-68.333 47.5 -115 47.5c-51.333 0 -93 -15.5 -125 -46.5s-48 -71.833 -48 -122.5s16.667 -91.667 50 -123s75.666 -47 126.999 -47z
" />
    <glyph glyph-name="seven.cap" horiz-adv-x="535" 
d="M126 0c8 122.667 40.668 242.5 98.001 359.5s126.666 208.5 207.999 274.5v2h-408v79h500v-73c-80 -70.667 -148.5 -162 -205.5 -274s-89.167 -234.667 -96.5 -368h-96z" />
    <glyph glyph-name="eight.cap" horiz-adv-x="610" 
d="M308 -15c-34.667 0 -67.667 3.99902 -99 11.999s-60.333 20.333 -87 37s-48 39.667 -64 69s-24 63.333 -24 102c0 91.333 49.333 153 148 185v4c-34.667 12.667 -62 32.167 -82 58.5s-30 57.5 -30 93.5c0 56 22.333 101 67 135s100.667 51 168 51s123.333 -17 168 -51
s67 -79 67 -135c0 -72.667 -36.667 -123.334 -110 -152.001v-4c42.667 -12.667 77.5 -35.167 104.5 -67.5s40.5 -71.5 40.5 -117.5c0 -39.333 -7.66699 -73.666 -23 -102.999s-36 -52.166 -62 -68.499s-54.167 -28.5 -84.5 -36.5s-62.833 -12 -97.5 -12zM308 58.999
c56 0 99.333 12.833 130 38.5s46 61.5 46 107.5c0 47.333 -15.667 84.5 -47 111.5s-75.333 40.5 -132 40.5c-56 0 -100 -13.5 -132 -40.5s-48 -64.167 -48 -111.5c0 -46.667 16 -82.667 48 -108s77 -38 135 -38zM305 426.999c46 0 82.167 10.167 108.5 30.5
s39.5 48.833 39.5 85.5c0 36 -13.167 64.167 -39.5 84.5s-62.5 30.5 -108.5 30.5s-82.167 -10.167 -108.5 -30.5s-39.5 -48.5 -39.5 -84.5c0 -36.667 13.167 -65.167 39.5 -85.5s62.5 -30.5 108.5 -30.5z" />
    <glyph glyph-name="nine.cap" horiz-adv-x="606" 
d="M296 -15c-70.667 0 -128.832 19.168 -174.499 57.501s-69.834 88.833 -72.501 151.5h90c3.33301 -40.667 18.333 -73.167 45 -97.5s63.334 -36.5 110.001 -36.5c52.667 0 93 15.333 121 46c38.667 41.333 60 118.666 64 231.999h-2
c-48.667 -60.667 -114.334 -91 -197.001 -91c-67.333 0 -123.666 23.333 -168.999 70s-68.333 103.334 -69 170.001c-0.666992 68 22.666 125.667 69.999 173s107.333 71 180 71c64.667 0 119.667 -17.667 165 -53c40 -30 68.167 -70.833 84.5 -122.5
s24.5 -118.834 24.5 -201.501c0 -148.667 -34 -252.667 -102 -312c-42 -38 -98 -57 -168 -57zM291.002 320.001c53.333 0 96 15.6689 128 47.002s48 72.666 48 123.999c0 49.333 -16.833 89.333 -50.5 120s-75.167 46 -124.5 46s-89 -15 -119 -45s-45 -70.333 -45 -121
s15.333 -91.834 46 -123.501s69.667 -47.5 117 -47.5z" />
    <glyph glyph-name="percent.cap" horiz-adv-x="813" 
d="M186 335c-48 0 -87.001 18.001 -117.001 54.001s-45 84 -45 144s15.333 108 46 144s69.334 54 116.001 54s85 -17.833 115 -53.5s45 -83.834 45 -144.501c0 -60 -14.667 -108 -44 -144s-68 -54 -116 -54zM628.999 -14.999c-48 0 -87.001 18.001 -117.001 54.001
s-45 84 -45 144s15.333 108 46 144s69.334 54 116.001 54s85 -17.833 115 -53.5s45 -83.834 45 -144.501c0 -60 -14.667 -108 -44 -144s-68 -54 -116 -54zM155.998 0.00195312l433 715h68l-433 -715h-68zM185.998 395.002c27.333 0 48.5 12.668 63.5 38.001
s22.5 58.666 22.5 99.999c0 40 -7.66699 73 -23 99s-36.333 39 -63 39c-27.333 0 -48.5 -12.667 -63.5 -38s-22.5 -58.666 -22.5 -99.999c0 -40.667 7.5 -73.834 22.5 -99.501s36.167 -38.5 63.5 -38.5zM628.998 45.0029c27.333 0 48.5 12.668 63.5 38.001
s22.5 58.666 22.5 99.999c0 40 -7.66699 73 -23 99s-36.333 39 -63 39c-27.333 0 -48.5 -12.667 -63.5 -38s-22.5 -58.666 -22.5 -99.999c0 -40.667 7.5 -73.834 22.5 -99.501s36.167 -38.5 63.5 -38.5z" />
    </font>
</defs>
</svg>
