<svg width="112" height="21" viewBox="0 0 112 21" fill="none" xmlns="http://www.w3.org/2000/svg">
<path fill-rule="evenodd" clip-rule="evenodd" d="M0 0H16.4086V21H0V0ZM3.97419 17.8117V3.80146H8.0086C9.42366 3.80146 10.5376 4.10803 11.3204 4.75182C12.1032 5.39562 12.5247 6.34598 12.5247 7.60292C12.5247 8.21606 12.3742 8.8292 12.1032 9.38102C11.8022 9.90219 11.3505 10.3007 10.8086 10.546C11.471 10.6686 12.0731 11.0978 12.4043 11.6803C12.7656 12.2934 12.9462 12.9985 12.9161 13.7036C12.9161 15.0526 12.5548 16.0642 11.8022 16.7387C11.0495 17.4131 9.96559 17.781 8.58065 17.781L3.97419 17.8117ZM6.47312 11.619V15.635H8.36989C8.85161 15.6657 9.30323 15.4818 9.63441 15.1445C9.93548 14.746 10.086 14.2248 10.0559 13.7036C10.086 13.1825 9.96559 12.6307 9.69462 12.1708C9.42366 11.8029 9.00215 11.5883 8.55054 11.619H6.47312ZM6.47312 9.71825H7.94839C8.43011 9.74891 8.88172 9.56496 9.2129 9.22774C9.51398 8.85985 9.69462 8.36934 9.63441 7.87883C9.66452 7.35766 9.51398 6.8365 9.1828 6.43796C8.82151 6.10073 8.30968 5.94744 7.82796 5.9781H6.47312C6.47312 6.00876 6.47312 9.71825 6.47312 9.71825Z" fill="white"/>
<path d="M33.1177 20.9693H32.1543V0H33.1177V20.9693Z" fill="white"/>
<path d="M49.858 20.9693H48.8945V0H49.858V20.9693Z" fill="white"/>
<path d="M66.567 20.9693H65.6035V0H66.567V20.9693Z" fill="white"/>
<path d="M83.3083 20.9693H82.375V0H83.3083V20.9693Z" fill="white"/>
<path d="M100.079 20.9693H99.1152V0H100.079V20.9693Z" fill="white"/>
<path d="M28.4823 15.4818C28.121 16.1256 27.5791 16.6468 26.9468 17.0147C26.1339 17.5052 25.1705 17.7198 24.2371 17.6891C22.792 17.6891 21.6178 17.2293 20.7447 16.3402C19.8715 15.4512 19.4199 14.1942 19.4199 12.5387V8.40006C19.4199 6.77524 19.8414 5.51831 20.6844 4.62926C21.5274 3.74021 22.6414 3.28035 24.0264 3.31101C25.4414 3.31101 26.4952 3.67889 27.2479 4.384C28.0006 5.08911 28.392 6.10079 28.4522 7.41904L28.4221 7.48035H26.6156C26.5855 6.5913 26.3748 5.91685 25.9533 5.48765C25.5318 5.05845 24.8995 4.8132 24.0866 4.8132C23.3339 4.78254 22.5812 5.11977 22.0995 5.73291C21.6178 6.34605 21.3769 7.2351 21.3769 8.40006V12.5694C21.3769 13.765 21.6479 14.6847 22.1597 15.2979C22.6715 15.911 23.4543 16.2789 24.2672 16.2482C24.8092 16.2789 25.321 16.1563 25.8027 15.911C26.1339 15.6964 26.435 15.3898 26.6156 15.0526V11.8336H24.2672V10.4234H28.5425V15.4818H28.4823Z" fill="white"/>
<path d="M39.1396 12.6922H42.6321L40.9461 6.56078H40.8859L39.1396 12.6922ZM43.0837 14.225H38.7181L37.7246 17.7506H35.7676L39.9826 3.771H41.8493L46.0342 17.7506H44.0773L43.0837 14.225Z" fill="white"/>
<path d="M54.4942 3.771L57.7157 15.1754H57.7759L60.9974 3.771H63.4663V17.7506H61.5695V12.3856L61.72 7.02063L61.6598 6.98997L58.3781 17.7506H57.1136L53.8017 7.02063H53.7716L53.9222 12.3856V17.7506H52.0254V3.771H54.4942Z" fill="white"/>
<path d="M75.3597 17.7506H73.4629V3.771H75.3597V17.7506Z" fill="white"/>
<path d="M95.9831 17.7506H94.0562L88.8476 7.35786H88.7874V17.7506H86.8906V3.771H88.7874L93.996 14.133H94.0562V3.771H95.9831V17.7506Z" fill="white"/>
<path d="M112 15.5739C111.608 16.2177 111.097 16.7389 110.464 17.1068C109.651 17.5973 108.688 17.8119 107.755 17.7812C106.31 17.7812 105.165 17.352 104.262 16.463C103.389 15.5739 102.938 14.317 102.938 12.6615V8.46151C102.938 6.83669 103.359 5.57975 104.202 4.6907C105.045 3.80165 106.159 3.3418 107.514 3.3418C108.929 3.3418 109.983 3.70968 110.735 4.41479C111.488 5.1199 111.879 6.13158 111.94 7.44983L111.91 7.51114H110.103C110.073 6.62209 109.862 5.97829 109.441 5.51844C109.019 5.05859 108.387 4.84399 107.574 4.84399C106.821 4.81333 106.069 5.15056 105.587 5.76369C105.105 6.37683 104.864 7.26588 104.864 8.43085V12.6002C104.864 13.7958 105.135 14.7155 105.647 15.3287C106.159 15.9418 106.942 16.3097 107.755 16.279C108.297 16.3097 108.808 16.1871 109.29 15.9418C109.621 15.7272 109.922 15.4206 110.103 15.0834V11.8951H107.755V10.4849H112V15.5739Z" fill="white"/>
</svg>
