<svg width="30" height="30" viewBox="0 0 30 30" fill="none" xmlns="http://www.w3.org/2000/svg">
<path d="M14.9998 30C12.0331 29.9999 9.13294 29.1201 6.66621 27.4718C4.19948 25.8236 2.27692 23.4808 1.14167 20.7399C0.00641084 17.9989 -0.290556 14.9829 0.28832 12.0731C0.867196 9.16341 2.29592 6.49069 4.3938 4.39296C5.78254 2.98149 7.43698 1.85894 9.26172 1.09007C11.0865 0.321204 13.0454 -0.0787751 15.0255 -0.0867911C17.0055 -0.0948072 18.9676 0.289298 20.7985 1.04337C22.6294 1.79744 24.2929 2.90655 25.693 4.30673C27.0931 5.70691 28.2022 7.37045 28.9562 9.20139C29.7102 11.0323 30.0942 12.9944 30.0861 14.9745C30.0779 16.9546 29.6779 18.9135 28.9089 20.7382C28.14 22.5629 27.0173 24.2173 25.6058 25.606C24.2164 27.0033 22.5635 28.1112 20.743 28.8654C18.9224 29.6197 16.9704 30.0053 14.9998 30ZM12.5408 20.914C12.9008 20.995 13.2318 21.076 13.5408 21.152L13.7258 21.197C13.7958 21.232 13.7898 21.266 13.7808 21.318V21.325C13.7776 21.3461 13.7759 21.3675 13.7758 21.389C13.5528 22.102 13.3698 22.871 13.1928 23.615V23.631V23.64L13.1658 23.754C13.1545 23.7701 13.1466 23.7883 13.1424 23.8075C13.1383 23.8268 13.1381 23.8466 13.1418 23.866C13.1548 23.895 13.1908 23.919 13.2618 23.942C13.4558 23.986 13.6548 24.042 13.9138 24.106L13.9628 24.119C14.1628 24.171 14.3848 24.23 14.5878 24.274C14.6401 24.2999 14.6967 24.3161 14.7548 24.322C14.8238 24.322 14.8388 24.263 14.8658 24.156L14.8718 24.132C14.9428 23.843 15.0298 23.491 15.1318 23.065L15.1708 22.909C15.2568 22.55 15.3498 22.169 15.4388 21.815C15.4466 21.7712 15.4693 21.7315 15.503 21.7025C15.5367 21.6736 15.5794 21.6571 15.6238 21.656C15.6579 21.6565 15.6917 21.6626 15.7238 21.674C16.3386 21.7743 16.9599 21.8291 17.5828 21.838C17.9264 21.8393 18.2696 21.8159 18.6098 21.768C19.3669 21.6864 20.0625 21.313 20.5488 20.727C20.9554 20.2117 21.2461 19.6148 21.4008 18.977C21.5515 18.4537 21.5857 17.9038 21.5008 17.366C21.3137 16.7169 20.9131 16.15 20.3638 15.757C20.2738 15.69 20.1838 15.634 20.0848 15.572L20.0738 15.565L20.0598 15.556C19.9798 15.507 19.8868 15.448 19.7948 15.381H19.8038C19.8457 15.3799 19.8869 15.37 19.9248 15.352C19.9439 15.3425 19.9646 15.3368 19.9858 15.335C20.3724 15.206 20.7269 14.996 21.0258 14.719C21.3783 14.3318 21.6225 13.8586 21.7338 13.347C21.8407 12.9768 21.8707 12.5887 21.8218 12.2066C21.773 11.8244 21.6464 11.4563 21.4498 11.125C21.1255 10.663 20.7065 10.2754 20.2208 9.98796L19.5698 9.69996L18.6438 9.27996C18.5068 9.23396 18.4538 9.18896 18.5018 9.04096C18.5872 8.81143 18.6508 8.57439 18.6918 8.33296V8.31896L18.7038 8.27196L18.7318 8.15696C18.8558 7.65696 18.9838 7.13196 19.1118 6.58296C19.1026 6.58293 19.0935 6.58085 19.0852 6.57687C19.0769 6.5729 19.0696 6.56712 19.0638 6.55996C19.058 6.5528 19.0507 6.54703 19.0424 6.54305C19.0341 6.53907 19.025 6.53699 19.0158 6.53696C18.7988 6.47596 18.5888 6.42496 18.3858 6.37496H18.3728H18.3568L18.3098 6.36296C18.0508 6.29896 17.8098 6.23896 17.5518 6.16296C17.5315 6.15174 17.509 6.14524 17.4858 6.14396C17.4368 6.14396 17.4088 6.18596 17.4088 6.25796C17.3898 6.33096 17.3718 6.40396 17.3538 6.47796L17.3298 6.57796C17.3088 6.66096 17.2888 6.74396 17.2688 6.82696C17.0588 7.49896 16.9118 8.11196 16.7958 8.62696C16.7799 8.64292 16.7655 8.66033 16.7528 8.67896L16.7478 8.68496C16.7218 8.72096 16.6858 8.76996 16.6478 8.76996C16.4148 8.71096 16.1598 8.65096 15.9628 8.60496L15.8998 8.57196L15.4758 8.47196C15.5092 8.41362 15.5258 8.34716 15.5238 8.27996C15.5988 7.97996 15.6748 7.67196 15.7478 7.37096L15.8008 7.15396L15.8318 7.02996C15.9248 6.64296 16.0098 6.29396 16.0928 5.96296C16.1041 5.94647 16.1119 5.92788 16.1159 5.9083C16.1198 5.88871 16.1198 5.86853 16.1158 5.84896C16.1048 5.81996 16.0678 5.79596 15.9988 5.77296C15.4598 5.66796 15.0498 5.57296 14.6268 5.44396C14.5974 5.43281 14.5663 5.42673 14.5348 5.42596C14.4558 5.42596 14.4218 5.48396 14.3898 5.58396C14.3118 5.91496 14.2338 6.23696 14.1528 6.56896L14.1428 6.60896L14.1328 6.64896C14.0328 7.07396 13.9248 7.50996 13.8208 7.94896C13.7858 8.04896 13.7518 8.10696 13.6738 8.10696C13.643 8.10573 13.6127 8.09965 13.5838 8.08896C13.3298 8.01996 13.0648 7.95996 12.8318 7.90596H12.8198C12.5608 7.84796 12.2858 7.78496 12.0198 7.71196C11.7538 7.63896 11.4788 7.57796 11.2368 7.52296C11.0438 7.47896 10.8028 7.42296 10.5678 7.36396C10.5178 7.54796 10.4678 7.73696 10.4198 7.92096L10.3908 8.03396L10.3718 8.10796C10.3078 8.35396 10.2418 8.60796 10.1718 8.84896C10.1624 8.86372 10.1568 8.8806 10.1556 8.89807C10.1544 8.91554 10.1575 8.93303 10.1648 8.94896C10.1769 8.96328 10.1924 8.97442 10.2098 8.98139C10.2273 8.98836 10.2461 8.99096 10.2648 8.98896L10.3358 9.00596L10.3828 9.01696L10.4448 9.03196C10.7838 9.11396 11.1348 9.19896 11.4938 9.31696C11.69 9.37513 11.8572 9.50481 11.9624 9.68035C12.0676 9.8559 12.1031 10.0645 12.0618 10.265C11.5258 12.587 10.9788 14.75 10.2618 17.552C10.2491 17.6794 10.188 17.7972 10.0911 17.8809C9.99414 17.9646 9.86876 18.008 9.7408 18.002C9.67669 18.0014 9.61288 17.993 9.5508 17.977C9.19958 17.9216 8.85247 17.8428 8.5118 17.741C8.3778 17.741 8.3278 17.741 8.2788 17.884C8.1388 18.261 7.9448 18.698 7.7588 19.113C7.7168 19.196 7.6848 19.271 7.6508 19.352V19.359L7.6388 19.386C7.6068 19.461 7.5708 19.542 7.5258 19.633C8.6368 19.911 9.6838 20.183 10.8398 20.485C10.8394 20.5288 10.8288 20.572 10.8088 20.611C10.7993 20.6304 10.7935 20.6514 10.7918 20.673C10.5628 21.406 10.3728 22.209 10.2048 22.917V22.924L10.1768 23.038C10.1538 23.088 10.1428 23.122 10.1548 23.152C10.1668 23.182 10.2038 23.205 10.2728 23.228C10.7515 23.3144 11.2254 23.4252 11.6928 23.56C11.7205 23.5696 11.7495 23.5753 11.7788 23.577C11.8268 23.577 11.8418 23.547 11.8658 23.497C11.8699 23.4856 11.8749 23.4745 11.8808 23.464C11.9288 23.247 11.9888 23.03 12.0468 22.821L12.0568 22.783C12.1108 22.583 12.1678 22.383 12.2128 22.183C12.2628 21.953 12.3268 21.721 12.3838 21.521L12.4138 21.412C12.4588 21.246 12.5068 21.074 12.5438 20.905L12.5408 20.914ZM15.8858 19.568C15.7198 19.568 15.5428 19.56 15.3318 19.542C14.6463 19.4801 13.9684 19.3515 13.3078 19.158H13.3008L12.9658 19.073C12.9392 19.0455 12.9038 19.0281 12.8658 19.024C12.9468 18.724 13.0168 18.444 13.1048 18.086V18.076C13.1908 17.721 13.2808 17.355 13.3848 16.991C13.4288 16.769 13.4848 16.55 13.5398 16.346L13.5508 16.306L13.5628 16.262C13.6138 16.062 13.6718 15.845 13.7168 15.619L13.7308 15.581C13.7568 15.501 13.7698 15.46 13.8248 15.46C13.8529 15.4613 13.8805 15.467 13.9068 15.477L13.9838 15.493C14.9263 15.6293 15.842 15.9103 16.6988 16.326L16.7228 16.341H16.7298C17.109 16.5431 17.4381 16.8278 17.6928 17.174C17.8171 17.3652 17.8953 17.5828 17.9212 17.8094C17.947 18.0361 17.9199 18.2656 17.8418 18.48C17.7737 18.6936 17.6561 18.8881 17.4987 19.0478C17.3413 19.2075 17.1484 19.3278 16.9358 19.399C16.5989 19.5169 16.2437 19.5741 15.8868 19.568H15.8858ZM16.8438 14.195C16.3386 14.1859 15.8349 14.1357 15.3378 14.045H15.3198H15.3038L15.2038 14.03C15.0598 14.008 14.9118 13.985 14.7628 13.964C14.6798 13.943 14.6058 13.923 14.5338 13.903L14.5048 13.895L14.4748 13.887C14.4108 13.869 14.3308 13.847 14.2418 13.824C14.1488 13.777 14.0998 13.724 14.1418 13.633C14.3938 12.753 14.6198 11.876 14.8988 10.699C14.9328 10.599 14.9678 10.541 15.0468 10.541C15.0782 10.5418 15.1092 10.5475 15.1388 10.558C15.2728 10.594 15.4048 10.628 15.5388 10.658H15.5468H15.5548C16.107 10.7843 16.6484 10.9542 17.1738 11.166C17.6255 11.3388 18.008 11.6549 18.2628 12.066C18.3732 12.2522 18.437 12.4624 18.4489 12.6786C18.4607 12.8949 18.4202 13.1107 18.3308 13.308C18.2437 13.5074 18.1105 13.6833 17.9423 13.8213C17.774 13.9594 17.5754 14.0555 17.3628 14.102C17.193 14.1485 17.0193 14.1797 16.8438 14.195Z" fill="#FFBC00"/>
</svg>
