<svg width="15" height="13" viewBox="0 0 15 13" fill="none" xmlns="http://www.w3.org/2000/svg">
<g clip-path="url(#clip0)">
<path fill-rule="evenodd" clip-rule="evenodd" d="M14.2888 7.24992L9.87992 7.00732C9.57947 6.99156 9.30514 6.96951 9.09939 6.77731L9.11572 6.80252C9.47169 7.39801 7.42728 8.55118 6.98312 8.03761C7.04844 8.30858 6.93414 8.54488 6.79044 8.8064L4.78195 12.6031C4.58273 12.9843 4.04387 13.2679 3.6585 12.6125L2.14968 10.0761L1.65327 9.24435L0.144456 6.69854C-0.247444 6.04004 0.271824 5.69975 0.709447 5.72496L5.16405 5.97387C5.45145 5.98962 5.69965 6.02743 5.89233 6.19757L5.876 6.17237C5.52003 5.57057 7.58404 4.41425 8.01513 4.94672C7.94981 4.69466 8.04452 4.46466 8.17516 4.21575L10.2098 0.387587C10.409 0.0063457 10.9707 -0.258317 11.3691 0.406491L12.878 2.9523L13.3613 3.78095L14.8669 6.3173C15.2522 6.96636 14.733 7.27198 14.2888 7.24992Z" fill="white"/>
</g>
<defs>
<clipPath id="clip0">
<rect width="15" height="13" fill="white"/>
</clipPath>
</defs>
</svg>
