<svg width="30" height="30" viewBox="0 0 30 30" fill="none" xmlns="http://www.w3.org/2000/svg">
<path d="M15 29.9998C11.5372 30.0018 8.18035 28.8057 5.49908 26.6144C2.8178 24.4231 0.977273 21.3716 0.289807 17.9777C-0.397659 14.5839 0.110287 11.0567 1.72745 7.99466C3.34461 4.93267 5.97138 2.5245 9.16201 1.1788C11.4428 0.215123 13.9267 -0.168956 16.3921 0.0608327C18.8574 0.290621 21.2276 1.12713 23.291 2.49572C25.3544 3.86431 27.047 5.72241 28.2176 7.90424C29.3883 10.0861 30.0006 12.5238 30 14.9998C30.0018 16.9701 29.6151 18.9215 28.8619 20.7422C28.1088 22.5629 27.004 24.2173 25.6107 25.6105C24.2175 27.0038 22.5632 28.1086 20.7424 28.8617C18.9217 29.6149 16.9704 30.0016 15 29.9998ZM8.34401 19.9078L7.71501 23.3998H15.236C16.94 23.5195 18.6477 23.2248 20.213 22.5408C21.5195 21.93 22.6242 20.9585 23.397 19.7408C24.2424 18.3844 24.8106 16.874 25.069 15.2968C25.3298 14.0514 25.4073 12.7746 25.299 11.5068C25.2194 10.4586 24.8283 9.45815 24.176 8.6338C23.5741 7.93834 22.7942 7.41982 21.92 7.1338C20.7216 6.7494 19.4672 6.56889 18.209 6.5998H10.67L10.049 10.0918L16.849 10.0998C18.593 10.0998 19.765 10.4308 20.435 11.1108C20.7013 11.4123 20.9034 11.7649 21.0287 12.1471C21.154 12.5294 21.2001 12.9332 21.164 13.3338C21.0766 14.4727 20.8558 15.5974 20.506 16.6848C20.2542 17.547 19.7392 18.3088 19.033 18.8638C17.8332 19.6443 16.4119 20.0129 14.984 19.9138H14.957H8.34401V19.9078ZM7.42201 13.2488C7.07346 13.2181 6.7225 13.2676 6.39609 13.3936C6.06967 13.5197 5.77647 13.7188 5.53901 13.9758C5.25637 14.3623 5.06709 14.8089 4.98601 15.2808V15.2868V15.3118C4.75201 16.2948 4.66201 16.7348 4.66201 16.7418H12.377C12.7255 16.7723 13.0764 16.7226 13.4028 16.5966C13.7292 16.4706 14.0224 16.2716 14.26 16.0148C14.5419 15.6298 14.7312 15.1849 14.813 14.7148V14.7078V14.6828C15.034 13.7668 15.122 13.3338 15.137 13.2568L7.42201 13.2488Z" fill="#28779D"/>
</svg>
