<svg width="49" height="54" viewBox="0 0 49 54" fill="none" xmlns="http://www.w3.org/2000/svg">
<path d="M27.2531 38.0447C25.7788 38.9733 23.3504 38.9733 21.8761 38.0447C20.4018 37.116 20.4018 35.6302 21.8761 34.7016C23.3504 33.773 25.7788 33.773 27.2531 34.7016C28.7708 35.6302 28.7708 37.116 27.2531 38.0447ZM35.7956 9.30349C35.7956 11.1608 37.0097 13.3895 38.4841 14.3181C39.9584 15.2467 41.1726 14.5038 41.1726 12.6466C41.1726 10.7893 39.9584 8.56058 38.4841 7.63195C37.0097 6.70331 35.7956 7.44622 35.7956 9.30349ZM10.6885 14.0859C12.1628 13.1573 13.377 10.9286 13.377 9.07133C13.377 7.21406 12.1628 6.47116 10.6885 7.39979C9.21416 8.32842 8 10.5571 8 12.4144C8 14.2717 9.21416 15.0146 10.6885 14.0859ZM24.5646 11.2536C20.4885 11.2536 17.1929 14.7824 17.1929 19.147C17.1929 23.5116 20.4885 27.0404 24.5646 27.0404C28.6407 27.0404 31.9363 23.5116 31.9363 19.147C31.9363 14.7824 28.6407 11.2536 24.5646 11.2536Z" fill="white"/>
<path d="M21.6816 17.6903C20.2072 16.8081 17.7789 15.2758 16.3046 14.3936L16.1311 14.3008C14.6568 13.3721 12.2285 11.8863 10.7541 10.9577L10.624 10.8648C9.14971 9.93619 7.93555 10.6791 7.93555 12.4899V26.1873C7.93555 27.9981 9.14971 30.2732 10.624 31.1554L10.7975 31.2483C12.2718 32.1769 14.7001 33.6628 16.1745 34.5914L16.3479 34.6842C17.7355 35.6129 20.1639 37.1451 21.6382 38.0273L21.8117 38.1202C23.286 39.0488 24.5001 38.3059 24.5001 36.4487V22.7513C24.5001 20.9405 23.286 18.6653 21.8117 17.7831L21.6816 17.6903Z" fill="white"/>
<path d="M13.6158 17.2258C13.6158 18.6188 12.7051 19.176 11.5777 18.4795C10.4936 17.783 9.58301 16.0651 9.58301 14.7185C9.58301 13.3256 10.4936 12.7684 11.6211 13.4649C12.7485 14.1614 13.6158 15.8329 13.6158 17.2258Z" fill="#012E3E"/>
<path d="M18.2124 25.7693C18.2124 27.1623 17.3018 27.7194 16.1744 27.023C15.0903 26.2801 14.1797 24.6085 14.1797 23.262C14.1797 21.869 15.0903 21.3119 16.2177 22.0083C17.3018 22.7048 18.2124 24.3764 18.2124 25.7693Z" fill="#012E3E"/>
<path d="M22.8091 34.2663C22.8091 35.6593 21.8985 36.2165 20.7711 35.52C19.687 34.8235 18.7764 33.152 18.7764 31.8054C18.7764 30.4125 19.687 29.8553 20.8144 30.5518C21.9419 31.2483 22.8091 32.9198 22.8091 34.2663Z" fill="#012E3E"/>
<path d="M38.289 10.958C36.8147 11.8866 34.3863 13.3724 32.912 14.2546L32.7385 14.3939C31.2642 15.3226 28.8359 16.8084 27.3616 17.6906L27.2315 17.7834C25.7571 18.7121 24.543 20.9408 24.543 22.7516V36.4954C24.543 38.3062 25.7571 39.0956 27.2315 38.1669L27.3616 38.0741C28.8359 37.1454 31.2208 35.6596 32.7385 34.731L32.912 34.6381C34.3863 33.7095 36.8147 32.2237 38.289 31.3415L38.4624 31.2486C39.9368 30.32 41.1509 28.0913 41.1509 26.2804V12.5367C41.1509 10.7258 39.9368 9.93649 38.4624 10.8651L38.289 10.958Z" fill="#D6D2D2"/>
<path d="M36.901 21.9623C36.901 24.7947 35.0364 28.1842 32.7816 29.5771C30.5267 30.9701 28.6621 29.8093 28.6621 27.0234C28.6621 24.2375 30.5267 20.8015 32.7816 19.4086C35.0798 18.0156 36.901 19.1764 36.901 21.9623Z" fill="#012E3E"/>
<path d="M38.1597 7.52193C36.6854 6.63973 34.257 5.10748 32.7827 4.22528L32.6093 4.13242C31.1349 3.20378 28.7066 1.71797 27.2323 0.789338L27.1022 0.696475C25.6278 -0.232158 23.1995 -0.232158 21.7252 0.696475L10.6243 7.52193C9.14997 8.45056 9.14997 9.93637 10.6243 10.865L10.7978 10.9579C12.2721 11.8865 14.7004 13.3723 16.1747 14.3009L16.3482 14.3938C17.8225 15.3224 20.2509 16.8083 21.7252 17.7369L21.8986 17.8298C23.373 18.7584 25.8013 18.7584 27.2756 17.8298L38.3765 11.0043C39.8509 10.0757 39.8509 8.58985 38.3765 7.66122L38.1597 7.52193Z" fill="#F2EFEF"/>
<path d="M26.4945 4.78211C25.3671 5.47858 23.5892 5.47858 22.4618 4.78211C21.3344 4.08563 21.3344 2.97127 22.4618 2.2748C23.5892 1.57832 25.3671 1.57832 26.4945 2.2748C27.622 3.0177 27.5786 4.13206 26.4945 4.78211Z" fill="#012E3E"/>
<path d="M26.4516 10.493C25.3241 11.1895 23.5463 11.1895 22.4188 10.493C21.2914 9.79657 21.2914 8.68221 22.4188 7.98573C23.5463 7.28926 25.3241 7.28926 26.4516 7.98573C27.579 8.68221 27.579 9.79657 26.4516 10.493Z" fill="#012E3E"/>
<path d="M26.4516 16.1576C25.3241 16.8541 23.5463 16.8541 22.4188 16.1576C21.2914 15.4611 21.2914 14.3468 22.4188 13.6503C23.5463 12.9538 25.3241 12.9538 26.4516 13.6503C27.579 14.3468 27.579 15.5076 26.4516 16.1576Z" fill="#012E3E"/>
<path d="M31.4386 7.98622C30.3545 8.6827 30.3545 9.79706 31.4819 10.4935C32.6094 11.19 34.3872 11.19 35.5147 10.4935C36.6421 9.79706 36.6421 8.6827 35.5147 7.98622C34.3872 7.28975 32.566 7.28975 31.4386 7.98622Z" fill="#012E3E"/>
<path d="M22.246 7.98605C21.1185 8.68253 21.1185 9.79688 22.246 10.4934C23.3734 11.1898 25.1513 11.1898 26.2787 10.4934C27.4061 9.79688 27.4061 8.68253 26.2787 7.98605C25.1946 7.28958 23.3734 7.33601 22.246 7.98605Z" fill="#012E3E"/>
<path d="M13.0526 8.03261C11.9252 8.72908 11.9252 9.84344 13.0526 10.5399C14.18 11.2364 15.9579 11.2364 17.0854 10.5399C18.2128 9.84344 18.2128 8.72908 17.0854 8.03261C15.9579 7.33614 14.18 7.33614 13.0526 8.03261Z" fill="#012E3E"/>
</svg>
