<svg width="30" height="30" viewBox="0 0 30 30" fill="none" xmlns="http://www.w3.org/2000/svg">
<path d="M14.9998 30.0002C12.033 30.0004 9.13274 29.1207 6.66586 27.4725C4.19897 25.8243 2.27626 23.4816 1.14088 20.7406C0.00550175 17.9996 -0.29155 14.9835 0.287295 12.0736C0.866139 9.16383 2.29488 6.49101 4.39283 4.39322C7.20585 1.58007 11.0212 -0.000394509 14.9995 -0.000488277C18.9778 -0.000582045 22.7932 1.5797 25.6063 4.39272C28.4195 7.20574 29.9999 11.0211 30 14.9994C30.0001 18.9777 28.4198 22.7931 25.6068 25.6062C24.2173 27.0037 22.5643 28.1116 20.7435 28.8659C18.9228 29.6201 16.9706 30.0057 14.9998 30.0002ZM8.29983 19.4542C7.84283 19.4542 7.78583 19.6842 7.57583 20.5392V20.5452C7.5817 20.6421 7.56599 20.7391 7.52983 20.8292C7.49801 20.8769 7.4768 20.9309 7.46766 20.9875C7.45852 21.044 7.46164 21.1019 7.47683 21.1572C7.52783 21.2792 7.67683 21.3362 7.86683 21.3972C8.59683 21.5722 9.36683 21.7652 9.92383 21.9062L9.99383 21.9242C11.2148 22.2302 12.4778 22.5462 13.7508 22.8242C14.3374 22.9462 14.9347 23.0088 15.5338 23.0112C16.9943 23.0343 18.4219 22.5777 19.5978 21.7112C20.7902 20.7725 21.6633 19.4882 22.0978 18.0342C22.3464 17.2359 22.4761 16.4053 22.4828 15.5692C22.5828 12.3602 20.7508 9.96922 17.4668 9.02222C16.0758 8.60422 14.7158 8.28522 13.2758 7.94722L13.2358 7.93822L12.1998 7.68922C11.9244 7.60959 11.6416 7.558 11.3558 7.53522C10.9558 7.53522 10.8838 7.81322 10.6558 8.63522C10.5478 8.97622 10.5378 9.17522 10.6238 9.32222C10.7098 9.46922 10.8918 9.56122 11.2318 9.63222C11.7468 9.73222 12.0098 9.86022 12.1418 10.0642C12.2738 10.2682 12.2768 10.5732 12.1508 11.1042C12.1208 11.2189 12.0905 11.3362 12.0598 11.4562V11.4632C12.0332 11.5666 12.0062 11.6716 11.9788 11.7782L11.8848 12.1472V12.1522C11.7848 12.5572 11.6768 12.9702 11.5738 13.3812C11.4998 13.6372 11.3978 13.7462 11.2308 13.7462C11.1673 13.7446 11.1044 13.7325 11.0448 13.7102C10.7268 13.6152 10.3958 13.5412 10.1038 13.4752H10.0938L10.0618 13.4682C9.76183 13.4012 9.46183 13.3322 9.16183 13.2412C9.04541 13.198 8.92291 13.1733 8.79883 13.1682C8.50983 13.1682 8.41383 13.3862 8.34383 13.7622C8.33339 13.8779 8.29936 13.9902 8.24383 14.0922C8.20797 14.1586 8.18699 14.232 8.18232 14.3072C8.17766 14.3825 8.18943 14.4579 8.21683 14.5282C8.2651 14.5938 8.32684 14.6482 8.39791 14.6879C8.46898 14.7275 8.54771 14.7515 8.62883 14.7582C8.95183 14.8262 9.28883 14.9082 9.58683 14.9812L9.63983 14.9942C9.94483 15.0692 10.3048 15.1562 10.6568 15.2312C10.7918 15.2592 10.8988 15.2872 10.9478 15.3662C10.9862 15.4601 10.9862 15.5653 10.9478 15.6592L10.8298 16.1082C10.5918 17.0032 10.3368 17.9702 10.0798 18.9792C10.0441 19.1524 9.94768 19.3072 9.80801 19.4158C9.66833 19.5243 9.49452 19.5794 9.31783 19.5712C9.23295 19.5707 9.14828 19.5627 9.06483 19.5472H9.04983C8.80218 19.4995 8.55162 19.4685 8.29983 19.4542ZM14.6768 20.8452H14.6568C14.1622 20.8487 13.6726 20.7464 13.2208 20.5452C12.8808 20.4022 12.7858 20.2162 12.8818 19.8812C13.0238 19.3012 13.1718 18.7072 13.3018 18.1812L13.3708 17.9022C13.5108 17.3442 13.6348 16.8432 13.7518 16.3682C13.8228 16.1212 13.8928 16.0412 14.0418 16.0412C14.1231 16.0447 14.2035 16.0592 14.2808 16.0842C14.5558 16.1612 14.8388 16.2252 15.0878 16.2842H15.0998L15.1308 16.2902C15.5283 16.3722 15.9206 16.4774 16.3058 16.6052C16.3772 16.6273 16.4512 16.6394 16.5258 16.6412C16.7038 16.6412 16.7998 16.5412 16.8368 16.3222C16.8738 16.1032 16.9238 15.9392 16.9588 15.8012L16.9698 15.7592V15.7522V15.7422C17.0438 15.4512 17.0698 15.3192 17.0228 15.2422C16.9758 15.1652 16.8398 15.1312 16.5778 15.0742H16.5638C16.4318 15.0452 16.2638 15.0092 16.0638 14.9552C16.0337 14.952 16.0042 14.9449 15.9758 14.9342H15.9678C15.9357 14.922 15.9021 14.9142 15.8678 14.9112H15.8568C15.0438 14.7232 14.6348 14.6282 14.4788 14.3772C14.3228 14.1262 14.4218 13.7312 14.6118 12.9372V12.9212C14.6818 12.6152 14.7678 12.2992 14.8448 12.0212L14.8588 11.9712V11.9622C14.9388 11.6752 15.0218 11.3702 15.0918 11.0712C15.1618 10.7722 15.2338 10.6582 15.4648 10.6582C15.5504 10.6603 15.6355 10.6714 15.7188 10.6912C16.752 10.8824 17.686 11.4281 18.3598 12.2342C18.9708 13.1504 19.2631 14.2423 19.1918 15.3412C19.1429 17.0667 18.4152 18.7031 17.1668 19.8952C16.4901 20.5227 15.5965 20.8636 14.6738 20.8462L14.6768 20.8452Z" fill="#8A7831"/>
</svg>
