<svg width="30" height="30" viewBox="0 0 30 30" fill="none" xmlns="http://www.w3.org/2000/svg">
<path d="M14.9996 30C11.536 30.0035 8.17792 28.8083 5.49545 26.6172C2.81297 24.4262 0.971397 21.3743 0.283349 17.9798C-0.4047 14.5852 0.103182 11.0572 1.72077 7.99455C3.33837 4.93191 5.96598 2.52343 9.15755 1.17799C12.8239 -0.367266 16.9535 -0.394525 20.6399 1.10219C24.3263 2.59891 27.2681 5.49728 28.8196 9.16099C29.7834 11.4418 30.1677 13.9257 29.938 16.3911C29.7084 18.8565 28.872 21.2267 27.5035 23.2903C26.135 25.3538 24.277 27.0465 22.0952 28.2173C19.9133 29.3881 17.4756 30.0005 14.9996 30ZM9.55055 16.47C9.55055 16.482 9.55855 16.488 9.56855 16.495C9.57856 16.502 9.58855 16.51 9.58855 16.526L9.63955 16.595C9.77055 16.769 9.90355 16.95 10.0456 17.134C10.3876 17.609 10.7386 18.073 11.0666 18.507L11.1326 18.596C11.3576 18.896 11.5876 19.196 11.8066 19.496C12.3706 20.231 12.9706 21.022 13.6446 21.916C14.0216 22.41 14.3846 22.898 14.6606 23.267L14.8366 23.502C15.0366 23.766 15.2366 24.039 15.4436 24.31C15.4786 24.341 15.4786 24.341 15.5046 24.341C15.5826 24.233 15.6606 24.131 15.7316 24.041L15.7546 24.008C15.8596 23.87 15.9546 23.739 16.0546 23.595C16.8416 22.54 17.6486 21.469 18.4296 20.434L18.9046 19.804C19.6346 18.834 20.5046 17.687 21.3696 16.529C21.3946 16.498 21.3946 16.498 21.3946 16.473C21.3912 16.473 21.3878 16.4737 21.3848 16.475C21.3817 16.4763 21.3788 16.4782 21.3765 16.4807C21.3742 16.4831 21.3724 16.486 21.3712 16.4891C21.37 16.4923 21.3694 16.4956 21.3696 16.499L20.2586 17.118L19.0316 17.8L18.4786 18.108L16.6976 19.099C16.3366 19.28 15.9576 19.499 15.6526 19.676L15.5046 19.762V19.795C15.5046 19.777 15.4986 19.762 15.4796 19.762C15.4036 19.721 15.3276 19.68 15.2316 19.632L15.2026 19.616C15.1306 19.579 15.0546 19.54 14.9836 19.502C14.4996 19.221 13.9836 18.936 13.5046 18.669L13.4146 18.619C12.9866 18.382 12.5476 18.136 12.1146 17.889C11.7046 17.657 11.2726 17.419 10.8666 17.195L10.7766 17.146C10.3936 16.935 9.99555 16.716 9.61455 16.501C9.61 16.5012 9.60543 16.5006 9.60114 16.499C9.59684 16.4975 9.5929 16.4951 9.58955 16.492C9.58492 16.4858 9.57906 16.4807 9.57235 16.4769C9.56564 16.4731 9.55822 16.4708 9.55055 16.47ZM15.4786 18.691C15.4859 18.6913 15.4931 18.6934 15.4996 18.697H15.5116H15.5196L15.5336 18.692V18.677C15.5363 18.6719 15.5406 18.6677 15.5457 18.665C15.5509 18.6623 15.5568 18.6613 15.5626 18.662C16.3416 18.226 17.1266 17.79 17.8866 17.368L17.9076 17.355L18.0676 17.266C18.7066 16.912 19.3676 16.546 20.0166 16.18L20.2006 16.08L20.2556 16.05C20.6016 15.861 21.0266 15.625 21.4216 15.376C21.4116 15.376 21.4021 15.3725 21.3946 15.366V15.375C21.2366 15.317 21.0826 15.248 20.9516 15.187L20.7306 15.087C20.5976 15.0163 20.4607 14.9532 20.3206 14.898C20.3705 14.9142 20.4193 14.9339 20.4666 14.957C20.5008 14.9732 20.5358 14.9875 20.5716 15C20.6416 15.027 20.7196 15.062 20.7886 15.1C20.8576 15.138 20.9506 15.175 21.0306 15.2C21.1846 15.262 21.3116 15.32 21.4236 15.371H21.4296C21.4296 15.351 21.4066 15.328 21.3866 15.305L21.3766 15.295C21.3733 15.2918 21.3706 15.2881 21.3686 15.284C19.5446 12.435 17.6796 9.52099 15.5036 6.11399V6.09099H15.4996C15.4937 6.09305 15.4883 6.0961 15.4836 6.09999C15.4651 6.11194 15.4435 6.11788 15.4216 6.11699C15.1216 6.62299 14.8126 7.10799 14.5056 7.57599C14.4846 7.61199 14.4606 7.64899 14.4376 7.68499C14.4146 7.72099 14.3766 7.77699 14.3476 7.82299C14.0076 8.34499 13.6606 8.89799 13.3226 9.43199L13.2286 9.58499C13.1136 9.76599 13.0036 9.94399 12.8886 10.125C12.6056 10.581 12.3166 11.034 12.0956 11.377L11.9396 11.625C11.7286 11.957 11.5076 12.3 11.3006 12.636C11.0626 13.009 10.8146 13.396 10.6006 13.73L10.4676 13.93C10.2486 14.27 10.0226 14.621 9.80755 14.964C9.76455 15.031 9.71955 15.093 9.67855 15.154L9.67055 15.166C9.62955 15.224 9.57855 15.293 9.53155 15.366H9.55655C9.56855 15.375 9.57455 15.379 9.58155 15.379C9.58549 15.38 9.58961 15.38 9.59355 15.379C9.59749 15.3755 9.60208 15.3728 9.60706 15.3711C9.61203 15.3694 9.6173 15.3687 9.62255 15.369L9.95855 15.226L10.0426 15.19C10.1226 15.154 10.2106 15.117 10.2886 15.09C10.5426 14.97 10.7806 14.867 11.0426 14.756L11.1426 14.712L11.4806 14.567L11.8206 14.421L11.7566 14.451L11.7256 14.466L11.6926 14.481L11.0986 14.74L10.4996 15C10.3586 15.067 10.2106 15.13 10.0696 15.19L10.0406 15.202L9.99555 15.222C9.86055 15.28 9.72256 15.34 9.58755 15.404C9.61132 15.4067 9.6335 15.4172 9.65055 15.434C10.2986 15.797 10.9686 16.169 11.6136 16.528L12.4396 16.989L12.9396 17.266C13.6996 17.688 14.4726 18.119 15.2346 18.544C15.2756 18.5802 15.3218 18.6102 15.3716 18.633C15.4086 18.651 15.4436 18.669 15.4826 18.693L15.4786 18.691ZM14.8286 13.129H14.8366C14.9306 13.087 15.0246 13.047 15.1136 13.008L15.2016 12.972L15.2736 12.941C15.1256 13.008 14.9786 13.071 14.8396 13.13L14.8286 13.129Z" fill="#4A6F8C"/>
</svg>
