<svg width="134" height="20" viewBox="0 0 134 20" fill="none" xmlns="http://www.w3.org/2000/svg">
<path d="M17.5148 4.50251C15.8827 4.50251 14.8204 5.12557 14.8204 6.26772C14.8204 10.0318 24.5616 8.00719 24.5357 14.6006C24.5357 18.0013 21.5824 20.0002 17.5925 20.0002C14.691 20.0002 11.8669 18.832 9.92383 17.0928L11.3747 14.1334C13.24 15.8467 15.7014 16.8591 17.6444 16.8591C19.5875 16.8591 20.7533 16.0804 20.7533 14.7825C20.7533 10.9404 11.0119 13.1211 11.0119 6.57918C11.0119 3.3861 13.7324 1.33545 17.7998 1.33545C20.2093 1.33545 22.6186 2.11424 24.3544 3.25639L22.9554 6.29361C21.0123 5.09968 18.9139 4.50251 17.5148 4.50251Z" fill="white"/>
<path d="M31.0257 10.6287C31.0257 14.1074 33.8498 16.8589 37.1919 16.8589C40.508 16.8589 43.2542 14.1074 43.2542 10.6287C43.2542 7.15019 40.508 4.45046 37.1919 4.45046C33.8239 4.45046 31.0257 7.15019 31.0257 10.6287ZM46.8035 10.6287C46.8035 15.8986 42.6065 20.0002 37.1401 20.0002C31.6734 20.0002 27.4766 15.8986 27.4766 10.6287C27.4766 5.33307 31.6734 1.33545 37.1401 1.33545C42.6065 1.33545 46.8035 5.35895 46.8035 10.6287Z" fill="white"/>
<path d="M62.8922 1.52588V4.56296H53.8505V9.46935H62.0632V12.5064H53.8505V19.6973H50.3789V1.52588H62.8922Z" fill="white"/>
<path d="M80.8165 1.52588V4.61501H75.169V19.6973H71.6713V4.61501H66.0234V1.52588H80.8165Z" fill="white"/>
<path d="M95.7451 14.2458C95.7451 12.7663 94.4238 11.8575 92.2216 11.8836H87.8172V16.6859H92.2216C94.4238 16.712 95.7451 15.8033 95.7451 14.2458ZM95.0973 6.69168C95.0973 5.31572 94.0091 4.51119 92.2216 4.53693H87.8172V8.95025H92.2216C94.0091 8.95025 95.0973 8.11941 95.0973 6.69168ZM98.6467 6.06862C98.6467 8.06764 97.4548 9.59919 95.486 10.0924C97.8953 10.5337 99.3462 12.273 99.3462 14.6872C99.3462 17.8023 96.7814 19.6973 92.636 19.6973H84.3457V1.52588H92.4029C96.2631 1.52588 98.6467 3.26507 98.6467 6.06862Z" fill="white"/>
<path d="M115.952 1.52588V4.56296H106.134V9.05393H114.942V12.0911H106.134V16.6601H115.952V19.6973H102.662V1.52588H115.952Z" fill="white"/>
<path d="M133.865 1.52588V4.61501H128.218V19.6973H124.72V4.61501H119.072V1.52588H133.865Z" fill="white"/>
<path d="M1.9082 9.15967V19.5733H5.37984V9.15967C4.81847 9.34239 4.23589 9.43932 3.64423 9.43932C3.05215 9.43932 2.46957 9.34239 1.9082 9.15967Z" fill="white"/>
<path d="M3.82495 6.04923C2.5966 6.04923 1.60053 5.0533 1.60053 3.82495C1.60053 2.5966 2.5966 1.60081 3.82495 1.60081C5.05331 1.60081 6.04923 2.5966 6.04923 3.82495C6.04923 5.0533 5.05331 6.04923 3.82495 6.04923ZM3.82495 0C1.71578 0 0 1.71592 0 3.82495C0 5.48717 1.06601 6.9043 2.54992 7.43056C2.94896 7.57211 3.378 7.6499 3.82495 7.6499C4.2719 7.6499 4.70081 7.57211 5.09971 7.4307C6.58389 6.90444 7.64991 5.48717 7.64991 3.82495C7.64991 1.71592 5.93399 0 3.82495 0Z" fill="white"/>
</svg>
