<svg width="31" height="30" viewBox="0 0 31 30" fill="none" xmlns="http://www.w3.org/2000/svg">
<path d="M15.0426 29.96H14.9526C12.9798 29.9585 11.0266 29.5679 9.20494 28.8105C7.38328 28.0531 5.72892 26.9437 4.33662 25.546C2.94575 24.1573 1.84579 22.5052 1.1011 20.6864C0.356409 18.8675 -0.018053 16.9183 -0.000378865 14.953C0.00412007 10.9888 1.58083 7.18818 4.38387 4.38495C7.18691 1.58173 10.9874 0.00476406 14.9516 0L15.0516 0C17.0337 0.00273728 18.9955 0.398904 20.8233 1.16553C22.6512 1.93216 24.3086 3.05399 25.6996 4.466C27.0822 5.85794 28.1748 7.51049 28.9139 9.32783C29.6531 11.1452 30.0242 13.0912 30.0056 15.053C29.9632 19.0031 28.3714 22.7786 25.5729 25.5667C22.7743 28.3548 18.9929 29.9324 15.0426 29.96ZM9.94262 17.132V17.15C9.68362 18.163 9.42462 19.143 9.16362 20.131C8.99862 20.754 8.83462 21.376 8.66862 22.011H20.8766C21.0996 22.011 21.2076 21.969 21.2546 21.723C21.3373 21.3297 21.4421 20.9414 21.5686 20.56L21.6326 20.354C21.6716 20.1035 21.7247 19.8555 21.7916 19.611L21.8666 19.311C19.2666 19.211 16.7156 19.165 14.2506 19.122V19.022C14.4816 17.964 14.7456 16.96 15.0236 15.898L15.1956 15.242C15.2644 15.1251 15.36 15.0264 15.4746 14.954C15.8002 14.8084 16.1341 14.6822 16.4746 14.576C16.8106 14.5253 17.1196 14.3626 17.3516 14.1143C17.5836 13.866 17.7249 13.5467 17.7526 13.208C17.7866 13.0041 17.8375 12.8035 17.9046 12.608C17.9486 12.466 17.9946 12.319 18.0316 12.165C17.2386 12.451 16.5316 12.725 15.7626 13.065C15.9496 12.336 16.1296 11.619 16.3076 10.91C16.6346 9.61 16.9406 8.389 17.2746 7.151H12.9746C12.6506 7.151 12.5436 7.236 12.4976 7.529C11.8406 9.987 11.1746 12.453 10.5076 14.911C10.4981 14.9875 10.4668 15.0596 10.4173 15.1187C10.3678 15.1778 10.3023 15.2213 10.2286 15.244C10.0196 15.335 9.80262 15.416 9.58562 15.497C9.35162 15.584 9.12262 15.669 8.90462 15.766C8.79862 15.766 8.66162 15.813 8.66162 15.901C8.42562 16.573 8.23662 17.186 8.04962 17.891L8.54962 17.672C8.98762 17.495 9.43762 17.313 9.92062 17.141L9.94262 17.132Z" fill="#DBDBDB"/>
</svg>
