<svg width="48" height="47" viewBox="0 0 48 47" fill="none" xmlns="http://www.w3.org/2000/svg">
<g clip-path="url(#clip0)">
<path d="M20.1515 47C15.6771 46.948 11.5702 45.6823 8.51347 43.0916C6.57442 42.0116 4.89416 40.5678 3.54395 38.8159C0.134665 34.3954 -0.874242 28.2712 0.776015 22.0209C2.34001 16.1046 6.06434 10.5706 11.2739 6.43216C16.5735 2.22321 22.8145 -0.0668521 28.8079 -4.32493e-05C34.7113 0.0704772 39.7408 2.41621 42.9776 6.61403C43.6115 7.438 44.174 8.33992 44.6504 9.29009L44.6841 9.30865V9.34577C47.9771 13.6549 48.8173 19.5675 47.212 25.636C48.7573 19.7828 47.7521 14.015 44.6841 9.79858V9.97303L44.4328 9.46454L44.0878 9.01544L44.2453 9.09338C43.814 8.27311 43.3189 7.49739 42.7638 6.78105C39.5758 2.65004 34.6213 0.337712 28.8041 0.270904C22.867 0.196672 16.6935 2.47188 11.4427 6.64372C6.28188 10.745 2.58755 16.2271 1.03856 22.0877C-0.592948 28.2601 0.400957 34.2989 3.75773 38.6526C5.08544 40.3747 6.73945 41.7963 8.66725 42.8727C11.694 45.4374 15.7409 46.948 20.1515 47Z" fill="#FFFFEB"/>
<path d="M17.7139 45.2966C11.8554 45.2297 6.85965 42.8989 3.6529 38.7344C0.266123 34.3473 -0.731533 28.2677 0.907473 22.0545C2.46397 16.1679 6.1733 10.6562 11.3566 6.5363C16.5549 2.409 22.6571 0.133789 28.5418 0.133789C28.6281 0.133789 28.7181 0.133789 28.8043 0.133789C34.6628 0.200598 39.6585 2.53148 42.8653 6.6959C46.2483 11.0867 47.2497 17.1663 45.6107 23.3795C44.0542 29.2661 40.3449 34.7779 35.1616 38.8978C29.9633 43.0288 23.8611 45.3003 17.9801 45.3003C17.9801 45.3003 17.8001 45.3003 17.7139 45.2966Z" fill="url(#paint0_radial)"/>
<path d="M42.2835 21.8207C45.2428 10.6154 38.6417 1.42915 27.54 1.29924C16.442 1.16934 5.04023 10.1477 2.08102 21.353C-0.878195 32.5583 5.72284 41.7446 16.8246 41.8745C27.9263 42.0044 39.3243 33.026 42.2835 21.8207Z" fill="url(#paint1_linear)"/>
<path d="M44.5454 9.39062C46.5369 13.4177 46.9383 18.3541 45.6105 23.3759C44.0541 29.2625 40.3447 34.7743 35.1614 38.8941C29.9631 43.0252 23.8609 45.2966 17.98 45.2966C17.98 45.2966 17.8 45.2966 17.7137 45.2966C14.3269 45.2558 11.2327 44.4578 8.60352 42.9917C11.6077 45.5416 15.5571 46.9483 20.024 47.0003C20.1103 47.0003 20.2828 47.0003 20.2828 47.0003C26.0175 47.0003 31.9622 44.7844 37.0292 40.7611C42.0812 36.7488 45.6968 31.3744 47.2158 25.6363C48.8098 19.5901 47.8346 13.6701 44.5454 9.39062Z" fill="#66104B"/>
<path d="M41.7741 21.8986C44.647 11.0236 38.241 2.1046 27.4656 1.9784C16.6902 1.85221 5.62593 10.567 2.75298 21.442C-0.119965 32.317 6.28604 41.236 17.0615 41.3622C27.8369 41.4884 38.9011 32.7736 41.7741 21.8986Z" fill="url(#paint2_radial)"/>
<path opacity="0.4" d="M10.7746 14.7761C13.1412 12.1558 15.8829 9.82858 19.0446 8.22517C22.2026 6.62175 25.8332 5.79036 29.3662 6.13925C29.4825 5.01834 29.5237 4.08302 29.85 3.00294C25.6719 2.52415 21.3662 3.21451 17.5556 4.97009C13.745 6.72568 10.437 9.5465 8.11914 13.0168C9.1693 13.3917 10.0132 13.967 10.7746 14.7761Z" fill="#862A5D"/>
<path d="M40.6709 23.6802C43.0975 14.4012 37.6141 6.77758 28.4177 6.64768C19.2213 6.51777 9.79979 13.9335 7.36941 23.2088C4.94278 32.4878 10.4261 40.1115 19.6226 40.2414C28.819 40.3713 38.2442 32.9592 40.6709 23.6802Z" fill="url(#paint3_linear)"/>
<path d="M19.2587 35.331C17.5297 35.305 15.977 34.8818 14.7018 34.1061L17.5335 29.3182C18.3886 30.0271 19.435 30.5022 20.6052 30.7063L19.8476 35.3198C19.7088 35.3235 19.57 35.331 19.435 35.331H19.2587ZM13.7941 33.4529L17.0234 28.8431C16.8734 28.6872 16.7309 28.5239 16.5958 28.3494C16.0858 27.6851 15.7219 26.9353 15.5044 26.1225L11.2512 29.0695C11.5063 30.2535 11.9714 31.3261 12.654 32.2466C12.9878 32.6957 13.3703 33.0966 13.7941 33.4529ZM15.7257 21.6055C16.082 20.5365 16.6258 19.5344 17.3159 18.6399L14.7805 17.1033C13.6554 18.51 12.7515 20.0429 12.1139 21.65L15.7257 21.6055ZM31.6619 23.246C31.3131 24.5116 30.698 25.6919 29.8954 26.7238L32.2845 28.3235C33.3685 26.9205 34.2311 25.3987 34.8424 23.8101L31.6619 23.246ZM25.2072 30.2089C24.1645 30.6061 23.0656 30.8214 21.9592 30.8214C21.8804 30.8214 21.8016 30.8214 21.7229 30.8176C21.6104 30.8139 21.5016 30.8065 21.3891 30.7991L21.0553 35.2159C22.8293 34.9821 24.6296 34.3734 26.3549 33.4195L25.2072 30.2089ZM31.5419 29.2217L29.3178 27.4067C28.3802 28.4274 27.2512 29.2699 26.0211 29.8638L27.4013 32.8034C28.0314 32.3988 28.6502 31.9497 29.2503 31.456C30.0829 30.762 30.8481 30.0159 31.5419 29.2217ZM31.842 22.4591L35.2025 22.7635C35.2813 22.5074 35.3563 22.2513 35.42 21.9952C35.7876 20.5328 35.9151 19.1298 35.8063 17.8308L31.6769 18.9517C32.0107 20.0317 32.067 21.2232 31.842 22.4591ZM15.5194 22.3107C15.5232 22.3032 15.5232 22.2921 15.5269 22.2847L11.7276 22.7226C11.6263 23.0344 11.5325 23.3499 11.4538 23.6691C11.075 25.1723 10.955 26.6087 11.0787 27.9412L15.3619 25.4581C15.2006 24.4634 15.2494 23.4019 15.5194 22.3107ZM34.9512 12.9834C35.7051 14.0004 36.2152 15.1844 36.4777 16.4946L39.8157 15.318C39.4107 14.082 38.8181 12.9389 38.0304 11.9145C37.5466 11.2872 36.999 10.723 36.3989 10.222L34.1148 12.0332C34.4149 12.3265 34.6962 12.6419 34.9512 12.9834ZM28.8115 15.3737L32.6258 11.8588C31.2719 10.8938 29.5541 10.363 27.6113 10.3333H27.5888L25.5635 14.494C26.7674 14.5349 27.8663 14.8392 28.8115 15.3737ZM15.5307 16.2125L17.7998 18.0535C18.6024 17.1478 19.5513 16.3795 20.594 15.7857L19.7651 12.6791C19.0337 13.1319 18.3136 13.6404 17.6235 14.2119C16.8696 14.8355 16.172 15.5036 15.5307 16.2125ZM21.3028 15.4182C22.4055 14.8986 23.5907 14.5757 24.7946 14.5089L26.3511 10.389C24.5171 10.5523 22.6493 11.1276 20.849 12.0666L21.3028 15.4182ZM26.5949 9.73576L27.45 7.47168C25.0797 7.57932 22.7055 8.20287 20.4664 9.23098L20.7777 11.5359C22.6718 10.5226 24.6483 9.9102 26.5949 9.73576ZM29.8917 31.7455C29.1715 32.3394 28.4214 32.8739 27.6563 33.3415L29.2803 36.7933C31.4332 35.5722 33.4135 33.9762 35.0937 32.1167L32.0783 29.6522C31.4069 30.3982 30.6793 31.0997 29.8917 31.7455ZM19.7276 35.7541H19.5475C17.646 35.7244 15.9432 35.2382 14.5593 34.3548L12.7177 37.4651C14.533 38.6417 16.7309 39.3172 19.1725 39.4248L19.7763 35.7541C19.7576 35.7504 19.7426 35.7541 19.7276 35.7541ZM21.0178 35.6873L20.7365 39.4174C23.1481 39.2875 25.5597 38.6269 27.8288 37.5542L26.5499 33.9725C24.7421 34.9115 22.8668 35.498 21.0178 35.6873ZM32.8659 28.7132L36.1251 30.8919C37.6104 28.999 38.7843 26.8834 39.5344 24.6415L35.6188 23.9475C34.9662 25.6288 34.0323 27.2397 32.8659 28.7132ZM33.4547 12.5529L29.4078 15.7597C29.8729 16.1012 30.293 16.502 30.6493 16.9697C30.9606 17.3742 31.2194 17.8122 31.4219 18.2761L35.6601 16.7841C35.4163 15.5259 34.9362 14.3864 34.2161 13.4177C33.9873 13.1059 33.7323 12.8201 33.4547 12.5529ZM40.1645 16.643L36.6352 17.6006C36.759 18.9776 36.6315 20.4623 36.2414 22.0026C36.1701 22.281 36.0914 22.5556 36.0051 22.8303L39.9507 23.1866C40.5171 20.8854 40.5808 18.6659 40.1645 16.643ZM27.9114 9.68008C29.9667 9.70977 31.7895 10.2739 33.2297 11.3021L35.285 9.40914C33.5035 8.26225 31.3581 7.59787 28.9765 7.47539L27.9039 9.68008H27.9114ZM12.5114 32.4508C11.8101 31.508 11.3225 30.4131 11.045 29.2105L8.11951 31.2408C8.52082 32.6029 9.15092 33.8612 10.0136 34.9783C10.4786 35.5833 11.0037 36.1252 11.5775 36.6115L13.6404 33.6644C13.2278 33.3007 12.8452 32.8999 12.5114 32.4508ZM17.571 13.6849C18.2386 13.1319 18.9324 12.6382 19.6376 12.1965L19.0375 9.95103C16.9296 11.109 14.9718 12.6271 13.2953 14.4012L15.2269 15.9638C15.9357 15.151 16.7196 14.3864 17.571 13.6849ZM11.2212 23.4241C11.2775 23.2014 11.3375 22.9825 11.405 22.7635L8.24328 23.1309C8.21702 23.2274 8.18702 23.3202 8.16076 23.413C7.57192 25.6697 7.4594 27.8447 7.80071 29.8415L10.8574 28.0711C10.6924 26.6272 10.8087 25.061 11.2212 23.4241ZM14.4505 16.9029L12.2602 15.5741C10.7412 17.4151 9.51848 19.4824 8.7046 21.6871L11.7801 21.65C12.4102 19.9798 13.3103 18.3727 14.4505 16.9029Z" fill="#6B1F50"/>
<path d="M19.1241 39.3432C16.8925 39.217 14.8222 38.5935 13.1157 37.5283L14.7509 34.7631C16.1387 35.5982 17.8302 36.0548 19.6605 36.0844L19.1241 39.3432ZM28.0393 33.5531C28.7706 33.0929 29.4795 32.5844 30.1433 32.0351C30.8785 31.4301 31.5761 30.7657 32.2174 30.0679L34.9216 32.2726C33.3276 34.0059 31.5011 35.4757 29.4945 36.6449L28.0393 33.5531ZM19.3829 35.2605C17.7964 35.2382 16.3187 34.8596 15.1035 34.1655L17.7139 29.7525C18.5128 30.3686 19.4504 30.788 20.4968 30.9996L19.7955 35.2568C19.7167 35.2605 19.6342 35.2605 19.5554 35.2605H19.3829ZM26.4115 30.0865C27.5329 29.5186 28.5831 28.7392 29.4607 27.815L31.3735 29.3776C30.7134 30.1162 29.9971 30.8065 29.2395 31.4301C28.7181 31.8606 28.1705 32.2652 27.608 32.6364L26.4115 30.0865ZM8.0749 29.6522C7.78986 27.7408 7.92488 25.7031 8.47621 23.5949C8.49122 23.5429 8.50247 23.4947 8.51747 23.4464L11.2441 23.131C11.2104 23.2572 11.1766 23.3833 11.1429 23.5095C10.7416 25.1018 10.6103 26.6458 10.7566 28.0971L8.0749 29.6522ZM11.3754 27.7371C11.2967 26.5085 11.4279 25.202 11.7692 23.851C11.833 23.6023 11.908 23.3425 12.0018 23.0419L15.3848 22.6522C15.171 23.6357 15.1335 24.5785 15.261 25.4841L11.3754 27.7371ZM36.3956 22.7895C36.4593 22.5705 36.5156 22.3775 36.5606 22.1882C36.9357 20.6961 37.0744 19.2486 36.9732 17.8865L40.1274 17.0291C40.4837 18.9331 40.4124 20.9782 39.9136 23.1087L36.3956 22.7895ZM32.2024 22.4109C32.3787 21.2937 32.3262 20.2211 32.0524 19.2226L35.743 18.2205C35.818 19.4379 35.683 20.737 35.3454 22.0769C35.3004 22.2624 35.2441 22.4592 35.1804 22.6781L32.2024 22.4109ZM15.9474 16.3239C16.5475 15.6744 17.1926 15.0619 17.8752 14.5015C18.4715 14.0078 19.1054 13.5476 19.7617 13.1319L20.4818 15.8228C19.5254 16.3833 18.6591 17.0848 17.9014 17.9087L15.9474 16.3239ZM13.712 14.5126C15.2873 12.8758 17.0726 11.4877 19.0266 10.3816L19.5217 12.2337C18.8391 12.6717 18.179 13.1505 17.5601 13.659C16.7688 14.3122 16.0149 15.036 15.321 15.8117L13.712 14.5126ZM28.9019 15.2587C28.0318 14.791 27.0604 14.52 26.0027 14.4458L27.8405 10.6711C29.592 10.7157 31.1635 11.1796 32.4275 12.0147L28.9019 15.2587ZM33.3351 11.1759C31.9511 10.2331 30.2371 9.69868 28.3468 9.62073L29.2245 7.81689C31.4185 7.9468 33.3839 8.53695 35.0754 9.57248L33.3351 11.1759Z" fill="url(#paint4_linear)"/>
<path d="M31.2007 22.875C32.2433 18.6623 29.6929 15.1512 25.5073 15.0287C21.3216 14.9062 17.0872 18.2244 16.0446 22.437C15.0057 26.6497 17.5523 30.1646 21.738 30.2833C25.9236 30.4058 30.158 27.0877 31.2007 22.875Z" fill="url(#paint5_radial)"/>
<path d="M27.0371 21.3532C27.6597 18.8331 26.1332 16.7286 23.6316 16.6581C21.1262 16.5876 18.5908 18.5733 17.9682 21.0934C17.3456 23.6136 18.8721 25.7181 21.3737 25.7886C23.8791 25.8591 26.4145 23.8734 27.0371 21.3532Z" fill="url(#paint6_linear)"/>
<path d="M21.329 36.0025C23.073 35.8021 24.8283 35.2602 26.5536 34.3917L27.6937 37.5836C25.5034 38.6006 23.2793 39.187 21.0777 39.3392L21.329 36.0025ZM11.6637 36.4442C11.1574 35.9951 10.6998 35.5051 10.2985 34.9892C9.49215 33.9426 8.8808 32.7548 8.47949 31.4558L11.0411 29.6779C11.3374 30.8063 11.8175 31.8232 12.4701 32.7029C12.7664 33.1037 13.1115 33.4823 13.494 33.8312L11.6637 36.4442ZM21.6966 31.1477C21.7416 31.1514 21.7903 31.1514 21.8353 31.1551C21.9178 31.1589 21.9966 31.1589 22.0791 31.1589C23.118 31.1589 24.1682 30.9733 25.2034 30.6058L26.2235 33.4675C24.6408 34.3211 23.0168 34.8742 21.3928 35.1228L21.6966 31.1477ZM13.8766 33.2856C13.5278 32.9738 13.2127 32.6286 12.9389 32.2612C12.3051 31.4075 11.855 30.4091 11.6 29.2919L15.5081 26.5825C15.7406 27.3211 16.0894 28.0003 16.5545 28.6016C16.6558 28.7352 16.7645 28.8614 16.8846 28.9913L13.8766 33.2856ZM33.2821 28.7983C34.3698 27.3916 35.2399 25.8847 35.87 24.3072L39.3881 24.9308C38.6792 26.9759 37.6103 28.9319 36.2038 30.7506L33.2821 28.7983ZM30.3079 26.8089C31.0468 25.8179 31.5944 24.7415 31.9319 23.6095L34.6886 24.0994C34.1147 25.5321 33.3346 26.9054 32.3632 28.1859L30.3079 26.8089ZM9.12084 21.6126C9.88971 19.6269 10.9999 17.7303 12.4289 15.971L14.2741 17.0919C13.2165 18.4949 12.3688 20.0055 11.7613 21.5866L9.12084 21.6126ZM12.5339 21.5755C13.134 20.1465 13.9441 18.7807 14.9455 17.5002L17.1396 18.8289C16.517 19.6752 16.0332 20.5845 15.6994 21.5384L12.5339 21.5755ZM31.6544 18.1534C31.4556 17.7377 31.2155 17.3406 30.9343 16.9768C30.623 16.5723 30.2629 16.2048 29.8578 15.8856L33.5597 12.9535C33.7847 13.1836 33.991 13.4248 34.1748 13.6661C34.8386 14.5606 35.2999 15.6072 35.5475 16.7801L31.6544 18.1534ZM36.7477 16.3607C36.4664 15.1025 35.9563 13.9704 35.2324 12.998C35.0261 12.7196 34.7899 12.445 34.5348 12.1852L36.5114 10.6189C37.0627 11.0939 37.5578 11.6136 37.9854 12.1703C38.7092 13.1093 39.2793 14.1709 39.6769 15.3289L36.7477 16.3607ZM21.1902 12.3113C22.833 11.4688 24.5057 10.9455 26.1635 10.7525L24.7683 14.4492C23.6919 14.5272 22.6267 14.7981 21.5878 15.2546L21.1902 12.3113ZM20.8077 9.4794C22.953 8.51438 25.1246 7.95764 27.2699 7.82031L26.5686 9.67982C24.7233 9.86169 22.8742 10.4259 21.059 11.3538L20.8077 9.4794Z" fill="url(#paint7_radial)"/>
<path d="M23.2677 18.5581L23.219 18.5469V18.5432C23.3502 18.3057 23.2977 17.9976 23.114 17.8195C22.9339 17.6339 22.6414 17.5968 22.4276 17.7044C22.4126 17.7118 22.3901 17.7118 22.3751 17.7081L22.3676 17.7044L21.1074 17.2479C21.0549 17.2293 21.0249 17.1774 21.0286 17.1217V17.1143C21.0624 16.8545 20.9986 16.6058 20.8186 16.461L20.8111 16.4536L20.8036 16.4425L20.4023 15.9674C20.3573 15.9117 20.3498 15.8375 20.3835 15.7781L20.391 15.767C20.6161 15.3624 20.8449 14.9615 21.0961 14.5718L21.8238 13.3915V13.3878C21.8688 13.3173 21.9513 13.2802 22.03 13.295C22.2213 13.3284 22.4276 13.2245 22.5064 13.0501C22.5926 12.8793 22.5476 12.6529 22.3976 12.5304C22.2551 12.4005 22.0225 12.3857 21.8613 12.4933C21.6962 12.5973 21.6212 12.8088 21.6812 12.9944C21.7037 13.0649 21.685 13.1391 21.64 13.1911L21.6362 13.1948L19.926 15.0172C19.8509 15.0989 19.7197 15.1026 19.6372 15.0284C19.6297 15.0209 19.6222 15.0135 19.6147 15.0024L19.2959 14.5941C19.2846 14.5755 19.2734 14.557 19.2659 14.5384C19.2208 14.4122 19.1271 14.3566 18.9733 14.3343C18.8195 14.3231 18.6358 14.364 18.4632 14.4271C18.1107 14.557 17.7769 14.7722 17.4656 15.0098C17.3831 15.0729 17.2668 15.0655 17.1955 14.9912L17.0155 14.8131C16.963 14.7611 16.9442 14.6869 16.963 14.6201C17.038 14.3454 17.0268 14.0485 16.9217 13.785C16.8242 13.5177 16.6254 13.2987 16.3854 13.1466C15.9016 12.8422 15.219 12.8942 14.7952 13.2802C14.3601 13.6513 14.2176 14.3157 14.4689 14.8279C14.5889 15.084 14.7952 15.2993 15.0464 15.4329C15.2977 15.5665 15.594 15.6148 15.8753 15.574C15.9391 15.5628 16.0028 15.5888 16.0479 15.6296L16.3216 15.8932C16.3967 15.9637 16.4042 16.075 16.3442 16.1567C16.1004 16.4907 15.8791 16.847 15.7516 17.2219C15.6878 17.4075 15.6503 17.6005 15.6653 17.7675C15.6878 17.9345 15.7516 18.0347 15.8866 18.0719C15.9053 18.0756 15.9241 18.0867 15.9428 18.0978L15.9466 18.1016L16.5692 18.5247C16.663 18.5878 16.6855 18.714 16.6217 18.803L16.6179 18.8105L15.0277 20.9075V20.9112C14.9789 20.978 14.8927 21.004 14.8177 20.9855C14.6226 20.9372 14.4088 21.0263 14.3188 21.2007C14.2213 21.3715 14.2626 21.6016 14.4088 21.7315C14.5514 21.8651 14.7877 21.8874 14.9527 21.776C15.1215 21.6721 15.1965 21.4568 15.129 21.2676C15.1027 21.1896 15.1252 21.108 15.1852 21.056H15.189L16.2466 20.1318C16.5917 19.8163 16.9517 19.5194 17.3193 19.2262L17.3306 19.2187C17.3943 19.1705 17.4806 19.1705 17.5406 19.215L17.9081 19.486L17.9194 19.4934L17.9269 19.5008C18.0469 19.627 18.2344 19.679 18.4407 19.6641C18.6433 19.6493 18.8533 19.5788 19.0558 19.4897L19.0633 19.486C19.1158 19.4637 19.1758 19.4823 19.2021 19.5305C19.6522 20.3248 20.0347 21.1562 20.316 22.021C19.956 21.1896 19.5096 20.399 19.0108 19.6456L19.1571 19.6864C18.9471 19.7978 18.7258 19.898 18.4707 19.9351C18.3432 19.9536 18.2119 19.9536 18.0769 19.924C17.9419 19.8943 17.8106 19.8312 17.7056 19.7384L17.7244 19.7532L17.3381 19.512L17.5593 19.4971C17.2218 19.82 16.8767 20.1392 16.5167 20.4362L15.459 21.3603L15.519 21.1451C15.6465 21.494 15.5003 21.9245 15.1777 22.1175C14.8627 22.3254 14.4126 22.2882 14.1388 22.0284C13.8575 21.7798 13.7788 21.3381 13.9663 21.0115C14.1351 20.6774 14.5589 20.4955 14.9189 20.5958L14.7089 20.67L16.2991 18.5729L16.3479 18.8587L15.7253 18.4356L15.7816 18.4616C15.6428 18.4245 15.5003 18.3354 15.414 18.2092C15.324 18.083 15.2865 17.942 15.2715 17.8121C15.249 17.5485 15.3052 17.3147 15.3765 17.0994C15.5303 16.6652 15.7666 16.2829 16.0291 15.9266L16.0516 16.1901L15.7778 15.9266L15.9503 15.9822C15.5828 16.0342 15.2002 15.9748 14.8702 15.8004C14.5401 15.6259 14.2738 15.3438 14.1163 15.0098C13.7863 14.3417 13.9738 13.4769 14.5401 12.9907C15.0952 12.4859 15.9841 12.4154 16.6179 12.8162C16.9292 13.013 17.188 13.3062 17.3193 13.6551C17.4543 14.0002 17.4693 14.3862 17.3718 14.7388L17.3193 14.5458L17.4993 14.724L17.2293 14.7092C17.5631 14.4531 17.9231 14.2192 18.3357 14.0633C18.542 13.9891 18.767 13.9297 19.0221 13.9483C19.1496 13.9594 19.2884 13.9965 19.4084 14.0819C19.5321 14.1598 19.6184 14.2935 19.6634 14.4196L19.6334 14.364L19.9522 14.7722L19.6409 14.7574L21.3512 12.935L21.3062 13.1317C21.1862 12.7865 21.3324 12.3671 21.6512 12.1741C21.9588 11.9663 22.4013 11.996 22.6751 12.2447C22.9602 12.4822 23.0502 12.9127 22.8852 13.2394C22.7314 13.5734 22.3376 13.7775 21.9738 13.707L22.1801 13.6142L21.4562 14.7982C21.2237 15.1991 20.9686 15.5851 20.7098 15.9674L20.6986 15.767L21.0624 16.268L21.0436 16.2495C21.1674 16.3682 21.2537 16.5278 21.2874 16.6911C21.3212 16.8545 21.3137 17.0178 21.2837 17.1699L21.2087 17.0363L22.4314 17.5856H22.3713C22.6526 17.4669 22.9977 17.556 23.1777 17.7824C23.3652 18.0013 23.3802 18.3354 23.2302 18.5618V18.5581H23.2677Z" fill="#FFFFEB"/>
<path d="M16.5056 18.6211L14.6865 21.0151L15.2529 21.2563L17.6195 19.1927L16.5056 18.6211Z" fill="url(#paint8_linear)"/>
<path d="M23.2677 18.558C25.4581 20.2282 22.5476 23.68 20.3122 22.0098C19.2583 19.2224 17.0155 16.3719 14.4238 14.5717L15.8228 13.1094C17.6943 15.611 20.3423 17.7415 23.2677 18.558Z" fill="url(#paint9_linear)"/>
<path opacity="0.4" d="M21.0394 21.9691C20.8894 21.9913 20.6531 21.8948 20.5068 21.8503C20.2518 20.9113 19.9518 20.0576 19.4717 19.2076C19.5467 19.1446 19.6067 19.0963 19.6817 19.0332C20.3343 19.8906 20.7731 20.9298 21.0394 21.9691Z" fill="#CFF3ED"/>
<path opacity="0.25" d="M17.0565 14.7725C18.913 16.8287 21.0208 18.0498 23.2412 18.6993C23.8638 19.1484 23.9238 20.3473 23.4325 21.1156L16.7227 15.2587L17.0565 14.7725Z" fill="#862A5D"/>
<path opacity="0.4" d="M21.9774 22.2027C21.5911 22.4366 20.7959 22.2213 20.4021 22.0023C19.487 19.6714 18.043 17.541 16.209 15.8151C16.2727 15.778 16.3328 15.726 16.3928 15.6852C16.3928 15.6703 16.3928 15.6555 16.3965 15.6406C18.2831 17.2997 19.7045 19.5155 20.4509 21.9058C20.8672 22.0506 21.5461 22.277 21.9774 22.2027Z" fill="#CFF3ED"/>
<path d="M20.9308 16.3461C22.0672 17.4002 18.883 20.5996 17.8141 19.6049L15.6875 18.1573L19.3556 14.3232L20.9308 16.3461Z" fill="url(#paint10_linear)"/>
<path opacity="0.2" d="M20.9496 16.6839C21.0134 17.1738 20.9646 17.5673 20.6646 17.9607C20.147 17.378 19.6182 16.7581 19.1006 16.1754C19.4381 15.8043 19.6294 15.4034 19.6332 14.9023L20.9496 16.6839Z" fill="#862A5D"/>
<path d="M19.337 14.2676C19.7795 14.6833 19.3107 15.8895 18.2868 16.9585C17.2629 18.0274 16.0739 18.5582 15.6276 18.1425C15.1851 17.7268 15.6539 16.5205 16.6778 15.4516C17.7017 14.3826 18.8944 13.8519 19.337 14.2676Z" fill="#FFFFC4"/>
<path d="M16.9857 16.8432C16.5356 17.1402 16.0931 17.4928 15.7067 17.8713C15.6055 17.4037 15.7217 16.8952 16.018 16.5129C16.2431 16.5129 16.4869 16.4981 16.7044 16.4609C16.8094 16.5834 16.8844 16.7208 16.9857 16.8432Z" fill="#FFFFF7"/>
<path d="M19.7832 14.876L21.846 12.6787L22.1873 13.1872L20.5521 15.8596L19.7832 14.876Z" fill="url(#paint11_linear)"/>
<path d="M19.9406 16.6427L22.8098 17.8045L22.2697 18.506L20.1019 17.9529C20.1019 17.9529 19.6968 17.9492 19.5206 17.5818C19.3405 17.2106 19.4906 16.4609 19.9406 16.6427Z" fill="url(#paint12_linear)"/>
<path d="M15.6953 15.5589L16.9855 16.8023C17.3193 17.1029 18.4332 15.9004 18.0994 15.5997L16.8242 14.3267L15.6953 15.5589Z" fill="url(#paint13_linear)"/>
<path opacity="0.4" d="M17.4997 16.5763C17.4472 16.6356 17.3947 16.6913 17.3309 16.7359C17.2672 16.7804 17.1997 16.8101 17.1209 16.8027C16.7196 16.4686 16.3483 16.0975 16.0107 15.7003C16.1533 15.6966 16.2883 15.6261 16.3896 15.5259C16.7008 15.9119 17.1247 16.2534 17.4997 16.5763Z" fill="#CFF3ED"/>
<path opacity="0.25" d="M17.7842 16.2976C17.9342 16.1528 18.0242 15.9301 18.0354 15.7223C17.7016 15.3734 17.3678 15.0208 17.0378 14.6719C16.9328 14.8389 16.8053 14.9799 16.6777 15.1247C17.1091 15.4328 17.5029 15.8447 17.7842 16.2976Z" fill="#862A5D"/>
<path d="M16.7496 13.1613C16.1307 12.5823 15.1556 12.6083 14.5705 13.2207C13.9854 13.8331 14.0117 14.7981 14.6305 15.3771C15.2493 15.9562 16.2245 15.9302 16.8096 15.3178C17.3909 14.7053 17.3647 13.7403 16.7496 13.1613Z" fill="url(#paint14_radial)"/>
<path opacity="0.4" d="M14.495 14.1003C14.5137 14.1857 14.5662 14.2896 14.675 14.2673C14.7125 14.2599 14.7462 14.2376 14.7763 14.2191C14.945 14.1003 15.0838 13.9444 15.1926 13.77C15.2413 13.692 15.2901 13.6067 15.2901 13.5139C15.2938 13.3951 15.2038 13.3023 15.0913 13.2763C14.6937 13.191 14.4349 13.7885 14.495 14.1003Z" fill="#CFF3ED"/>
<path opacity="0.2" d="M16.07 13.0391C16.3138 13.2172 16.4451 13.5179 16.4451 13.8185C16.4451 14.1154 16.3288 14.4086 16.1525 14.6499C16.0475 14.7909 15.9237 14.9208 15.7662 15.0062C15.4587 15.1769 15.0461 15.1435 14.7686 14.9283C15.0986 15.3588 15.6462 15.6632 16.1675 15.4887C16.6851 15.3143 17.0602 14.7909 17.0602 14.249C17.0527 13.7034 16.5876 13.2061 16.07 13.0391Z" fill="#862A5D"/>
<path d="M15.159 20.9334C14.9002 20.6884 14.4876 20.6996 14.2438 20.9594C13.9963 21.2155 14.0076 21.6238 14.2701 21.865C14.5289 22.11 14.9415 22.0988 15.1852 21.839C15.429 21.5829 15.4178 21.1784 15.159 20.9334Z" fill="url(#paint15_radial)"/>
<path opacity="0.4" d="M14.21 21.3304C14.2175 21.3675 14.24 21.4121 14.285 21.4009C14.3 21.3972 14.315 21.3898 14.3262 21.3787C14.3975 21.3304 14.4537 21.2636 14.5025 21.1894C14.525 21.156 14.5438 21.1189 14.5438 21.0817C14.5438 21.0298 14.5062 20.9927 14.4612 20.9815C14.2925 20.9481 14.1837 21.2005 14.21 21.3304Z" fill="#CFF3ED"/>
<path opacity="0.2" d="M14.8738 20.8813C14.975 20.9556 15.0313 21.0818 15.0313 21.208C15.0313 21.3342 14.9825 21.4566 14.9075 21.5569C14.8625 21.6162 14.81 21.6719 14.7462 21.7053C14.615 21.7758 14.4424 21.7647 14.3262 21.6719C14.4649 21.8538 14.6975 21.98 14.915 21.9095C15.1325 21.8352 15.2901 21.6162 15.2901 21.3898C15.2863 21.1634 15.0913 20.9556 14.8738 20.8813Z" fill="#862A5D"/>
<path d="M22.5555 12.3968C22.2967 12.1518 21.8841 12.1629 21.6403 12.4228C21.3928 12.6789 21.404 13.0871 21.6666 13.3284C21.9254 13.5733 22.3379 13.5622 22.5817 13.3024C22.8255 13.0463 22.8143 12.638 22.5555 12.3968Z" fill="url(#paint16_radial)"/>
<path opacity="0.4" d="M21.6103 12.7904C21.6178 12.8275 21.6404 12.872 21.6854 12.8609C21.7004 12.8572 21.7154 12.8498 21.7266 12.8386C21.7979 12.7904 21.8541 12.7236 21.9029 12.6493C21.9254 12.6159 21.9441 12.5788 21.9441 12.5417C21.9441 12.4897 21.9066 12.4526 21.8616 12.4415C21.6929 12.4081 21.5841 12.6605 21.6103 12.7904Z" fill="#CFF3ED"/>
<path opacity="0.2" d="M22.2702 12.3447C22.3715 12.419 22.4278 12.5452 22.4278 12.6713C22.4278 12.7975 22.379 12.92 22.304 13.0202C22.259 13.0796 22.2065 13.1353 22.1427 13.1687C22.0115 13.2392 21.8389 13.2281 21.7227 13.1353C21.8614 13.3172 22.094 13.4434 22.3115 13.3728C22.529 13.2986 22.6866 13.0796 22.6866 12.8532C22.6828 12.6231 22.4878 12.4152 22.2702 12.3447Z" fill="#862A5D"/>
<path d="M23.1102 17.7561C22.8514 17.5112 22.4388 17.5223 22.195 17.7821C21.9475 18.0382 21.9587 18.4465 22.2213 18.6878C22.4801 18.9327 22.8926 18.9216 23.1364 18.6618C23.3802 18.4057 23.3689 17.9974 23.1102 17.7561Z" fill="url(#paint17_radial)"/>
<path opacity="0.4" d="M22.1611 18.1498C22.1686 18.1869 22.1911 18.2314 22.2361 18.2203C22.2511 18.2166 22.2661 18.2091 22.2774 18.198C22.3487 18.1498 22.4049 18.0829 22.4537 18.0087C22.4762 17.9753 22.4949 17.9382 22.4949 17.9011C22.4949 17.8491 22.4574 17.812 22.4124 17.8009C22.2436 17.7675 22.1349 18.0199 22.1611 18.1498Z" fill="#CFF3ED"/>
<path opacity="0.2" d="M22.8249 17.7041C22.9262 17.7783 22.9825 17.9045 22.9825 18.0307C22.9825 18.1569 22.9337 18.2794 22.8587 18.3796C22.8137 18.439 22.7612 18.4947 22.6974 18.5281C22.5661 18.5986 22.3936 18.5875 22.2773 18.4947C22.4161 18.6765 22.6487 18.8027 22.8662 18.7322C23.0837 18.658 23.2412 18.439 23.2412 18.2126C23.2375 17.9825 23.0425 17.7746 22.8249 17.7041Z" fill="#862A5D"/>
<path opacity="0.2" d="M15.3613 20.8816C15.3576 20.8667 16.8616 19.1445 16.8616 19.1445L17.2291 19.3746L15.4701 20.9818L15.3613 20.8816Z" fill="#862A5D"/>
<path opacity="0.2" d="M20.2676 15.34L21.6065 13.4619L21.7753 13.5658L20.5451 15.7223L20.2676 15.34Z" fill="#862A5D"/>
<path opacity="0.4" d="M22.3117 17.6599C22.2404 17.7119 22.1579 17.749 22.0866 17.801C21.284 17.5337 20.4514 17.3073 19.6113 17.2257C19.5475 17.0401 19.6075 16.8174 19.7538 16.6875C20.5564 17.0512 21.4828 17.363 22.3117 17.6599Z" fill="#CFF3ED"/>
<path opacity="0.4" d="M15.0957 20.7032L16.4647 18.8325L16.6184 18.903L15.2007 20.7032H15.0957Z" fill="#CFF3ED"/>
<path opacity="0.4" d="M19.9375 14.8725L21.4602 13.269V13.347L20.0763 15.0655L19.9375 14.8725Z" fill="#CFF3ED"/>
<path opacity="0.4" d="M16.2949 18.4024L18.0389 19.6198C18.594 19.8017 19.1679 19.3971 19.7417 18.9666C19.2954 19.115 18.8416 19.2783 18.5978 19.1447L17.4839 18.1277C17.8589 17.957 18.1777 17.5487 18.4778 17.0625C17.7201 17.6898 16.985 18.1871 16.2949 18.4024Z" fill="#CFF3ED"/>
<path opacity="0.2" d="M18.9209 15.9341C19.1047 15.6928 19.2734 15.433 19.341 15.1398C19.4085 14.8466 19.3335 14.5274 19.1309 14.3047C18.7484 14.6424 18.3658 14.9765 17.9795 15.3142C18.1183 15.3773 18.2345 15.5481 18.2645 15.7002C18.2945 15.8524 18.2458 16.012 18.137 16.1234C18.3808 16.0863 18.6809 15.9935 18.9209 15.9341Z" fill="#862A5D"/>
<path opacity="0.4" d="M21.7077 22.0356C21.5427 22.0764 21.3627 22.0727 21.1939 22.0282C21.1151 21.542 20.9576 21.0706 20.7363 20.6289C21.1301 21.0335 21.4564 21.5271 21.7077 22.0356Z" fill="#CFF3ED"/>
<path opacity="0.25" d="M25.7208 17.8159C26.3059 18.3875 26.7035 19.1484 26.8348 19.9538C26.966 20.7592 26.831 21.5943 26.4522 22.3181C25.6233 21.9729 24.8057 21.5387 23.9618 21.2306C24.2169 20.8038 24.3219 20.2916 24.2544 19.8016C24.1869 19.3117 23.9468 18.844 23.583 18.5026C24.2619 18.2465 25.0382 18.072 25.7208 17.8159Z" fill="#862A5D"/>
<path opacity="0.25" d="M25.8858 22.7447C25.1919 22.3773 24.5018 22.0061 23.808 21.6387C23.5604 21.9208 23.1854 22.1806 22.8516 22.355C23.1741 23.1678 23.4742 23.9992 23.7967 24.8121C24.6818 24.3667 25.342 23.5724 25.8858 22.7447Z" fill="#862A5D"/>
<path opacity="0.4" d="M19.7393 21.1265C19.6905 21.583 19.8743 22.0581 20.2156 22.3699C19.6342 22.8152 18.9666 23.372 18.3815 23.8174C18.059 23.0788 17.9652 22.2214 18.1415 21.4345C18.6291 21.3492 19.2517 21.2118 19.7393 21.1265Z" fill="#CFF3ED"/>
<path opacity="0.4" d="M19.503 20.8893C19.1204 20.9524 18.7379 21.0192 18.3516 21.0823C18.4153 20.8225 18.5053 20.5478 18.6366 20.314C18.9967 20.3399 19.323 20.3696 19.683 20.3993C19.5743 20.5626 19.5105 20.6925 19.503 20.8893Z" fill="#CFF3ED"/>
<path opacity="0.4" d="M12.2118 13.436C12.2118 13.436 11.533 12.9757 10.7791 12.3151C10.0252 11.6544 9.48139 11.042 9.48139 11.042C9.48139 11.042 10.1603 11.5022 10.9141 12.1629C11.668 12.8236 12.2118 13.436 12.2118 13.436ZM19.1579 6.10555C18.9404 5.20735 18.6666 4.50214 18.6666 4.50214C18.6666 4.50214 18.7416 5.2556 18.9591 6.1538C19.1767 7.05201 19.4505 7.75722 19.4505 7.75722C19.4505 7.75722 19.3754 7.00376 19.1579 6.10555ZM28.6056 4.59122C28.6094 3.65219 28.4819 2.89502 28.4819 2.89502C28.4819 2.89502 28.4068 3.6559 28.4031 4.58751C28.3993 5.51912 28.4669 6.28371 28.4669 6.28371C28.4669 6.28371 28.6019 5.53026 28.6056 4.59122ZM37.2207 7.27471C36.9694 8.02816 36.8682 8.66656 36.8682 8.66656C36.8682 8.66656 37.1682 8.08755 37.4158 7.33781C37.6633 6.58806 37.7721 5.94596 37.7721 5.94596C37.7721 5.94596 37.472 6.52125 37.2207 7.27471ZM4.99569 22.1805C3.93053 22.0988 3.05664 22.0729 3.05664 22.0729C3.05664 22.0729 3.90427 22.2993 4.97694 22.3809C6.04961 22.4663 6.92349 22.3735 6.92349 22.3735C6.92349 22.3735 6.06086 22.2659 4.99569 22.1805ZM6.51093 31.3519C6.27839 31.4818 5.95209 31.6525 5.59204 31.8307C5.23198 32.0088 4.89818 32.161 4.65439 32.2649C4.40685 32.3688 4.25308 32.4356 4.25308 32.4356C4.25308 32.4356 4.42185 32.4208 4.68439 32.3614C4.94694 32.302 5.31074 32.1944 5.68205 32.0125C6.05336 31.8307 6.36091 31.6117 6.56719 31.4372C6.77347 31.2628 6.88974 31.1403 6.88974 31.1403C6.88974 31.1403 6.74347 31.222 6.51093 31.3519ZM10.9816 38.6303C10.7078 38.905 10.5578 39.2019 10.5578 39.2019C10.5578 39.2019 10.8504 39.0497 11.1242 38.7714C11.3979 38.4967 11.548 38.1998 11.548 38.1998C11.548 38.1998 11.2554 38.3557 10.9816 38.6303Z" fill="#F3F1CF"/>
<path d="M7.69564 16.3125C7.69564 16.3125 7.7819 16.7653 7.58687 17.181C7.39184 17.5967 6.98678 17.8231 6.98678 17.8231C6.98678 17.8231 6.90052 17.3703 7.09555 16.9546C7.29058 16.5352 7.69564 16.3125 7.69564 16.3125Z" fill="url(#paint18_linear)"/>
<path d="M15.5006 8.22518C15.5006 8.22518 15.3693 8.65573 14.983 8.89698C14.6005 9.13824 14.1504 9.07514 14.1504 9.07514C14.1504 9.07514 14.3304 8.67058 14.6905 8.44417C15.0543 8.21405 15.5006 8.22518 15.5006 8.22518Z" fill="url(#paint19_linear)"/>
<path d="M24.6221 4.7399C24.6221 4.7399 24.2846 5.08508 23.797 5.18901C23.3094 5.28922 22.8594 5.11106 22.8594 5.11106C22.8594 5.11106 23.1969 4.76588 23.6845 4.66196C24.1721 4.55803 24.6221 4.7399 24.6221 4.7399Z" fill="url(#paint20_linear)"/>
<path d="M34.355 5.61608C34.355 5.61608 34.2463 5.64206 34.0962 5.6569C33.9462 5.67175 33.7512 5.67546 33.5562 5.62721C33.3611 5.57896 33.1961 5.48246 33.0686 5.39709C32.9448 5.31172 32.8623 5.2412 32.8623 5.2412C32.8623 5.2412 32.9523 5.18182 33.1061 5.13357C33.2561 5.08532 33.4699 5.05191 33.6912 5.10759C33.9125 5.16326 34.085 5.29317 34.1938 5.40823C34.3025 5.51957 34.355 5.61608 34.355 5.61608Z" fill="url(#paint21_linear)"/>
<path d="M39.6731 9.67269C39.6731 9.67269 39.3318 9.66527 39.1818 9.46113C39.0318 9.25699 39.133 8.93408 39.133 8.93408C39.133 8.93408 39.4743 8.94151 39.6244 9.14564C39.7744 9.35349 39.6731 9.67269 39.6731 9.67269Z" fill="url(#paint22_linear)"/>
<path d="M4.92789 27.7558C4.92789 27.7558 4.83412 27.6852 4.72911 27.5479C4.62409 27.4106 4.51157 27.2065 4.48157 26.9578C4.45156 26.7128 4.51157 26.4827 4.57908 26.3268C4.64659 26.1672 4.72161 26.0781 4.72161 26.0781C4.72161 26.0781 4.78536 26.1783 4.85288 26.3268C4.92039 26.4753 4.9954 26.672 5.0254 26.8947C5.05166 27.1137 5.02915 27.3215 4.99915 27.4848C4.96539 27.6444 4.92789 27.7558 4.92789 27.7558Z" fill="url(#paint23_linear)"/>
<path d="M8.38617 36.7451C8.38617 36.7451 8.25865 36.7191 8.07863 36.6338C7.90235 36.5521 7.67356 36.4073 7.49353 36.1846C7.31351 35.962 7.21599 35.7133 7.17098 35.524C7.12598 35.3384 7.12598 35.2085 7.12598 35.2085C7.12598 35.2085 7.24224 35.2679 7.39977 35.3792C7.55729 35.4906 7.75232 35.6428 7.9211 35.8506C8.08988 36.0547 8.2024 36.2774 8.27741 36.4519C8.35242 36.6189 8.38617 36.7451 8.38617 36.7451Z" fill="url(#paint24_linear)"/>
<path opacity="0.4" d="M8.50554 17.9681C8.9256 16.9734 9.50694 16.0306 10.2496 15.24C9.5482 14.5163 8.68181 13.9558 7.73667 13.6069C6.78777 14.5608 6.0414 15.6632 5.58008 16.9214C6.61899 17.1738 7.6654 17.4484 8.61055 17.9384C8.5918 17.9569 8.52429 17.9495 8.50554 17.9681Z" fill="#862A5D"/>
<path opacity="0.4" d="M30.9977 6.34724C30.6227 6.25074 30.2551 6.18393 29.8838 6.08371C29.8913 5.11499 30.0563 4.14626 30.3751 3.22949C30.8289 3.37424 31.324 3.45961 31.7741 3.60436C31.3578 4.4469 31.1215 5.41191 30.9977 6.34724Z" fill="#862A5D"/>
<path opacity="0.25" d="M14.8336 39.8035C11.8744 39.3544 9.41773 37.1237 8.07502 34.4773C6.73231 31.831 6.3535 28.8097 6.25974 25.8516C4.71075 26.6755 3.81811 28.4348 3.78435 30.1756C3.7506 31.9126 4.46321 33.6014 5.47212 35.0266C7.57245 37.9996 11.1655 39.7107 14.8336 39.8035Z" fill="#F3E6CF"/>
<path opacity="0.4" d="M44.624 10.3706C46.3568 17.3039 45.2203 24.8941 41.5335 31.0331C37.8467 37.1721 31.7032 41.8227 24.7196 43.6303C24.3296 43.1032 24.0033 42.5873 23.8232 41.96C30.1505 39.7219 35.8739 35.6095 39.5382 30.0384C43.2025 24.4673 44.6727 17.4078 43.0225 10.9607C43.5401 10.7566 44.1064 10.5747 44.624 10.3706Z" fill="#862A5D"/>
<path opacity="0.4" d="M23.2383 42.0488C23.2571 42.6278 23.4859 43.1994 23.8684 43.6411C21.9556 44.3352 19.9078 44.6618 17.8787 44.4799C17.68 43.9677 17.5862 43.3702 17.59 42.8208C19.4652 42.8728 21.4456 42.613 23.2383 42.0488Z" fill="#862A5D"/>
<path opacity="0.6" d="M19.037 2.36475C19.037 2.36475 18.7107 2.50579 18.1144 2.76189C17.8181 2.89179 17.4656 3.06995 17.053 3.26667C16.8505 3.3743 16.6329 3.48565 16.4041 3.60813C16.1753 3.7269 15.9316 3.85681 15.6878 4.00527C13.685 5.12989 11.0933 7.00425 8.70043 9.54298C6.29255 12.0706 4.53353 14.7244 3.47211 16.7472C2.93578 17.7568 2.56447 18.6067 2.31693 19.1969C2.07314 19.7907 1.95312 20.121 1.95312 20.121C1.95312 20.121 2.05064 19.7796 2.25692 19.1746C2.46696 18.5696 2.79326 17.6974 3.28833 16.6581C4.26349 14.5759 5.9625 11.833 8.40038 9.26832C9.61557 7.98782 10.8945 6.87805 12.1285 5.97242C13.3624 5.06308 14.5551 4.35788 15.5865 3.83083C15.8415 3.6935 16.0891 3.57102 16.3254 3.46338C16.5617 3.35203 16.7829 3.2444 16.993 3.15161C17.4205 2.97716 17.7806 2.81756 18.0844 2.70621C18.6995 2.48723 19.037 2.36475 19.037 2.36475Z" fill="#F3F1CF"/>
<path d="M35.461 3.86035C35.461 3.86035 35.6561 3.9717 36.0236 4.18326C36.2074 4.2909 36.4249 4.44307 36.6837 4.61009C36.8112 4.69917 36.9425 4.8031 37.0888 4.90702C37.2351 5.01095 37.3851 5.12972 37.5389 5.26334C38.1614 5.77554 38.8778 6.46961 39.5829 7.37524C40.2843 8.28087 40.9894 9.39806 41.5407 10.7342C41.8258 11.3986 42.0658 12.115 42.2571 12.8833C42.4484 13.6478 42.5946 14.457 42.6697 15.3032C42.8234 16.992 42.7297 18.8218 42.3434 20.6925C41.957 22.5631 41.2744 24.4709 40.3105 26.3118C39.3466 28.1565 38.1014 29.9343 36.6575 31.6046C35.2097 33.2711 33.6345 34.7594 32.0105 36.0696C30.3827 37.3761 28.6875 38.4822 26.9584 39.3321C26.0958 39.7552 25.2257 40.1153 24.363 40.4085C23.5004 40.7054 22.634 40.9095 21.7976 41.0803C20.1136 41.3883 18.5084 41.4626 17.0569 41.3846C15.6017 41.3067 14.3002 41.0766 13.1863 40.7908C12.0686 40.5013 11.131 40.1709 10.3884 39.848C10.2008 39.7664 10.0246 39.6996 9.86328 39.6216C9.702 39.5437 9.55198 39.4694 9.40946 39.4026C9.27068 39.3358 9.13941 39.2727 9.02315 39.2133C8.90688 39.1502 8.80561 39.0909 8.71185 39.0389C8.34054 38.8311 8.14551 38.7234 8.14551 38.7234C8.14551 38.7234 8.34429 38.8273 8.71935 39.0278C8.81311 39.0797 8.91813 39.1354 9.0344 39.1948C9.15442 39.2505 9.28194 39.3098 9.42446 39.3767C9.56698 39.4435 9.717 39.514 9.87828 39.5882C10.0396 39.6624 10.2196 39.7293 10.4071 39.8072C11.1535 40.119 12.0949 40.4345 13.2088 40.7091C14.3227 40.9801 15.6204 41.1916 17.0644 41.251C18.5084 41.3141 20.0986 41.2213 21.7639 40.9021C22.5928 40.724 23.4441 40.5161 24.2955 40.2155C25.1469 39.9185 26.0058 39.5585 26.8572 39.1317C28.5599 38.2817 30.2365 37.1757 31.8455 35.8729C33.4545 34.5701 35.011 33.0855 36.4474 31.4338C37.8839 29.7785 39.1141 28.0192 40.078 26.2005C41.0419 24.3818 41.7245 22.5 42.1183 20.6553C42.5121 18.8107 42.6209 16.9994 42.4859 15.3292C42.4221 14.4904 42.2833 13.6887 42.1033 12.9315C41.9233 12.1743 41.6908 11.458 41.417 10.7973C40.8844 9.46858 40.2018 8.35139 39.5154 7.44205C38.8291 6.52899 38.1239 5.83121 37.5126 5.30788C37.3626 5.17426 37.2125 5.05549 37.07 4.94785C36.9275 4.84021 36.8 4.73258 36.6725 4.6435C36.4137 4.46905 36.1999 4.31317 36.0199 4.20553C35.6523 3.97541 35.461 3.86035 35.461 3.86035Z" fill="#FFFFEB"/>
<path opacity="0.75" d="M27.649 7.04473C27.649 7.04473 27.5215 7.05957 27.2815 7.08556C27.0414 7.11896 26.6814 7.13752 26.2313 7.21917C25.3199 7.34908 24.0147 7.62003 22.4657 8.13965C22.0757 8.25471 21.6818 8.42915 21.2655 8.58133C20.853 8.74464 20.4329 8.94136 19.9978 9.13436C19.574 9.35705 19.1202 9.55748 18.6851 9.81729C18.4638 9.94349 18.2388 10.066 18.0138 10.1996C17.7925 10.3406 17.5712 10.4817 17.3424 10.6227C15.5496 11.7882 13.7606 13.3433 12.2229 15.2511C10.7076 17.1774 9.59745 19.2633 8.87734 21.2639C8.79108 21.5163 8.70481 21.7612 8.61855 22.0062C8.53979 22.2512 8.47228 22.4998 8.40101 22.7411C8.24724 23.2236 8.15723 23.7024 8.03721 24.1626C7.95094 24.6266 7.85343 25.0757 7.78967 25.5137C7.73716 25.9516 7.6584 26.3673 7.6359 26.7719C7.49337 28.3827 7.53088 29.704 7.61714 30.6097C7.6434 31.0662 7.71091 31.4151 7.73341 31.6526C7.76342 31.8902 7.77842 32.0164 7.77842 32.0164C7.77842 32.0164 7.75216 31.8939 7.69966 31.6564C7.65465 31.4188 7.55713 31.0773 7.49337 30.6208C7.3321 29.7189 7.18958 28.3901 7.23083 26.7422C7.22708 26.3302 7.27959 25.8997 7.30959 25.4506C7.3471 25.0014 7.42211 24.5375 7.48962 24.055C7.58714 23.5799 7.6584 23.0788 7.79342 22.5778C7.85718 22.3254 7.91719 22.0693 7.98845 21.8132C8.06721 21.5571 8.14598 21.2973 8.22849 21.0375C8.89984 18.9515 10.0063 16.7543 11.5853 14.7463C13.1868 12.7569 15.0846 11.1757 16.9749 10.04C17.2149 9.90266 17.4474 9.76162 17.68 9.628C17.9163 9.4981 18.1525 9.38304 18.3851 9.26055C18.8464 9.01188 19.319 8.8263 19.7653 8.62216C20.2229 8.444 20.6617 8.26584 21.093 8.1248C21.5281 7.99119 21.9369 7.83901 22.3419 7.74622C23.9509 7.31567 25.2899 7.14123 26.2125 7.08556C26.6739 7.04102 27.0339 7.05586 27.2777 7.04102C27.5215 7.04844 27.649 7.04473 27.649 7.04473Z" fill="#F3F1CF"/>
<path opacity="0.4" d="M26.659 28.3235C25.9351 27.674 25.2075 26.3118 24.96 25.3765C26.2614 24.675 27.2891 23.3314 27.6454 21.9099C28.0017 20.4846 27.7279 18.9183 26.9065 17.6972C27.7429 17.3558 28.4743 17.044 29.3594 16.8584C30.5446 17.8011 31.1672 19.2672 31.1934 20.7704C31.2197 22.2736 30.6684 23.7546 29.7945 24.9868C28.9206 26.2191 27.9304 27.5033 26.659 28.3235Z" fill="#862A5D"/>
<path opacity="0.4" d="M22.166 26.6828C22.9574 26.6197 23.8538 26.2225 24.5326 25.8105C24.5626 26.8572 24.8927 27.8928 25.474 28.7613C24.7764 29.2364 24.0376 29.5667 23.2012 29.6966C22.7249 28.8244 22.3273 27.6626 22.166 26.6828Z" fill="#862A5D"/>
<path opacity="0.2" d="M17.1998 20.2061C17.4474 20.2766 17.7137 20.3211 17.9687 20.2951C17.3461 21.5905 17.3874 23.2087 18.0925 24.4633C17.4924 24.9272 16.9485 25.5174 16.6147 26.1929C15.9996 24.5523 16.0597 22.6706 16.7835 21.0746C16.896 20.8259 17.0573 20.4399 17.1998 20.2061Z" fill="#CFF3ED"/>
<path opacity="0.2" d="M23.1967 15.4736C23.0392 15.8151 22.9529 16.1269 22.9116 16.498C22.5891 16.5389 22.2703 16.6131 21.959 16.7096C21.9815 16.4275 22.0865 16.1343 22.1578 15.8596C22.4466 15.752 22.9116 15.585 23.1967 15.4736Z" fill="#CFF3ED"/>
<path opacity="0.2" d="M5.89911 27.0986C6.07914 28.9396 6.39044 30.7694 6.82175 32.5732C6.52171 32.7031 6.19916 32.5992 5.92161 32.4248C5.64407 32.2503 5.43779 31.9831 5.27651 31.701C4.86395 30.9847 4.68767 30.1347 4.78143 29.3145C4.8752 28.4905 5.33277 27.7036 5.89911 27.0986Z" fill="#F3E6CF"/>
</g>
<defs>
<radialGradient id="paint0_radial" cx="0" cy="0" r="1" gradientUnits="userSpaceOnUse" gradientTransform="translate(6.57679 4.57294) scale(41.226 40.7975)">
<stop offset="0.1389" stop-color="#CE7561"/>
<stop offset="0.2075" stop-color="#BC5647"/>
<stop offset="0.282" stop-color="#AD3B31"/>
<stop offset="0.3582" stop-color="#A22821"/>
<stop offset="0.4365" stop-color="#9B1D18"/>
<stop offset="0.5198" stop-color="#991915"/>
<stop offset="1" stop-color="#781646"/>
</radialGradient>
<linearGradient id="paint1_linear" x1="1.37467" y1="21.5862" x2="42.9909" y2="21.5862" gradientUnits="userSpaceOnUse">
<stop stop-color="#FFD586"/>
<stop offset="1" stop-color="#E98A17"/>
</linearGradient>
<radialGradient id="paint2_radial" cx="0" cy="0" r="1" gradientUnits="userSpaceOnUse" gradientTransform="translate(35.4168 35.2601) scale(40.7874 40.3634)">
<stop offset="0.1389" stop-color="#CE7561"/>
<stop offset="0.2075" stop-color="#BC5647"/>
<stop offset="0.282" stop-color="#AD3B31"/>
<stop offset="0.3582" stop-color="#A22821"/>
<stop offset="0.4365" stop-color="#9B1D18"/>
<stop offset="0.5198" stop-color="#991915"/>
<stop offset="1" stop-color="#781646"/>
</radialGradient>
<linearGradient id="paint3_linear" x1="9.07772" y1="18.8293" x2="38.9915" y2="28.267" gradientUnits="userSpaceOnUse">
<stop stop-color="#FFD586"/>
<stop offset="1" stop-color="#E98A17"/>
</linearGradient>
<linearGradient id="paint4_linear" x1="11.2276" y1="13.8383" x2="28.5192" y2="27.1642" gradientUnits="userSpaceOnUse">
<stop stop-color="#CC5AAA"/>
<stop offset="0.3656" stop-color="#C247A1"/>
<stop offset="1" stop-color="#AB1C8D"/>
</linearGradient>
<radialGradient id="paint5_radial" cx="0" cy="0" r="1" gradientUnits="userSpaceOnUse" gradientTransform="translate(18.4876 17.8591) scale(13.4735 13.3334)">
<stop offset="0.1389" stop-color="#CE7561"/>
<stop offset="0.2075" stop-color="#BC5647"/>
<stop offset="0.282" stop-color="#AD3B31"/>
<stop offset="0.3582" stop-color="#A22821"/>
<stop offset="0.4365" stop-color="#9B1D18"/>
<stop offset="0.5198" stop-color="#991915"/>
<stop offset="1" stop-color="#781646"/>
</radialGradient>
<linearGradient id="paint6_linear" x1="19.3282" y1="18.3345" x2="25.1707" y2="23.7634" gradientUnits="userSpaceOnUse">
<stop stop-color="#FFD586"/>
<stop offset="1" stop-color="#E98A17"/>
</linearGradient>
<radialGradient id="paint7_radial" cx="0" cy="0" r="1" gradientUnits="userSpaceOnUse" gradientTransform="translate(12.3172 11.1485) scale(28.9022 28.6017)">
<stop offset="0.1389" stop-color="#FBAD89"/>
<stop offset="0.1569" stop-color="#FBA784"/>
<stop offset="0.2435" stop-color="#FB8C6D"/>
<stop offset="0.332" stop-color="#FB795E"/>
<stop offset="0.423" stop-color="#FB6E54"/>
<stop offset="0.5198" stop-color="#FB6A51"/>
<stop offset="1" stop-color="#DB2447"/>
</radialGradient>
<linearGradient id="paint8_linear" x1="15.4367" y1="19.5392" x2="16.3446" y2="20.2698" gradientUnits="userSpaceOnUse">
<stop stop-color="#FFD586"/>
<stop offset="1" stop-color="#E98A17"/>
</linearGradient>
<linearGradient id="paint9_linear" x1="14.8287" y1="17.1913" x2="23.0981" y2="18.4976" gradientUnits="userSpaceOnUse">
<stop stop-color="#FFD586"/>
<stop offset="1" stop-color="#E98A17"/>
</linearGradient>
<linearGradient id="paint10_linear" x1="17.5494" y1="18.9165" x2="20.3127" y2="15.6503" gradientUnits="userSpaceOnUse">
<stop stop-color="#FFD586"/>
<stop offset="1" stop-color="#E98A17"/>
</linearGradient>
<linearGradient id="paint11_linear" x1="20.6672" y1="13.8614" x2="21.4912" y2="14.5073" gradientUnits="userSpaceOnUse">
<stop stop-color="#FFD586"/>
<stop offset="1" stop-color="#E98A17"/>
</linearGradient>
<linearGradient id="paint12_linear" x1="20.5615" y1="18.06" x2="21.3238" y2="17.1202" gradientUnits="userSpaceOnUse">
<stop stop-color="#FFD586"/>
<stop offset="1" stop-color="#E98A17"/>
</linearGradient>
<linearGradient id="paint13_linear" x1="16.4068" y1="16.2695" x2="17.3238" y2="15.3429" gradientUnits="userSpaceOnUse">
<stop stop-color="#FFD586"/>
<stop offset="1" stop-color="#E98A17"/>
</linearGradient>
<radialGradient id="paint14_radial" cx="0" cy="0" r="1" gradientUnits="userSpaceOnUse" gradientTransform="translate(14.9616 13.7487) scale(1.88587 1.86627)">
<stop stop-color="#FFD586"/>
<stop offset="1" stop-color="#E98A17"/>
</radialGradient>
<radialGradient id="paint15_radial" cx="0" cy="0" r="1" gradientUnits="userSpaceOnUse" gradientTransform="translate(14.4065 21.1819) scale(0.793475 0.785226)">
<stop stop-color="#FFD586"/>
<stop offset="1" stop-color="#E98A17"/>
</radialGradient>
<radialGradient id="paint16_radial" cx="0" cy="0" r="1" gradientUnits="userSpaceOnUse" gradientTransform="translate(21.804 12.6428) scale(0.793474 0.785227)">
<stop stop-color="#FFD586"/>
<stop offset="1" stop-color="#E98A17"/>
</radialGradient>
<radialGradient id="paint17_radial" cx="0" cy="0" r="1" gradientUnits="userSpaceOnUse" gradientTransform="translate(22.3577 18.0027) scale(0.793474 0.785226)">
<stop stop-color="#FFD586"/>
<stop offset="1" stop-color="#E98A17"/>
</radialGradient>
<linearGradient id="paint18_linear" x1="6.96578" y1="17.0656" x2="7.71526" y2="17.0656" gradientUnits="userSpaceOnUse">
<stop stop-color="#FFD586"/>
<stop offset="1" stop-color="#E98A17"/>
</linearGradient>
<linearGradient id="paint19_linear" x1="14.1507" y1="8.65217" x2="15.4993" y2="8.65217" gradientUnits="userSpaceOnUse">
<stop stop-color="#FFD586"/>
<stop offset="1" stop-color="#E98A17"/>
</linearGradient>
<linearGradient id="paint20_linear" x1="22.8607" y1="4.92337" x2="24.6235" y2="4.92337" gradientUnits="userSpaceOnUse">
<stop stop-color="#FFD586"/>
<stop offset="1" stop-color="#E98A17"/>
</linearGradient>
<linearGradient id="paint21_linear" x1="32.8628" y1="5.37026" x2="34.3533" y2="5.37026" gradientUnits="userSpaceOnUse">
<stop stop-color="#FFD586"/>
<stop offset="1" stop-color="#E98A17"/>
</linearGradient>
<linearGradient id="paint22_linear" x1="39.1022" y1="9.30435" x2="39.7064" y2="9.30435" gradientUnits="userSpaceOnUse">
<stop stop-color="#FFD586"/>
<stop offset="1" stop-color="#E98A17"/>
</linearGradient>
<linearGradient id="paint23_linear" x1="4.47493" y1="26.9171" x2="5.03332" y2="26.9171" gradientUnits="userSpaceOnUse">
<stop stop-color="#FFD586"/>
<stop offset="1" stop-color="#E98A17"/>
</linearGradient>
<linearGradient id="paint24_linear" x1="7.12583" y1="35.9762" x2="8.38734" y2="35.9762" gradientUnits="userSpaceOnUse">
<stop stop-color="#FFD586"/>
<stop offset="1" stop-color="#E98A17"/>
</linearGradient>
<clipPath id="clip0">
<rect width="48" height="47" fill="white"/>
</clipPath>
</defs>
</svg>
