<svg width="180" height="46" viewBox="0 0 180 46" fill="none" xmlns="http://www.w3.org/2000/svg">
<g clip-path="url(#clip0)">
<path d="M22.2688 45.1608C34.4467 45.1608 44.3188 35.2085 44.3188 22.9317C44.3188 10.6549 34.4467 0.702637 22.2688 0.702637C10.0909 0.702637 0.21875 10.6549 0.21875 22.9317C0.21875 35.2085 10.0909 45.1608 22.2688 45.1608Z" fill="white"/>
<path d="M36.0926 9.21703C33.0595 6.14126 29.1418 4.10764 24.8965 3.40527C25.6908 7.11509 26.897 10.8185 28.1053 12.8651C32.3303 11.6363 35.7356 12.1091 36.2109 13.357C36.6862 14.605 34.4343 17.3118 30.3446 19.2497C30.2921 20.0297 30.2921 20.8123 30.3446 21.5923C30.6741 26.3819 32.964 29.998 34.4449 31.1948C35.0644 31.6808 35.7229 32.1139 36.4137 32.4896C36.9925 32.7963 37.4108 32.9645 37.4108 32.9645C38.0191 33.2187 38.6473 33.4217 39.2888 33.5715C40.2913 32.1737 41.0533 30.6157 41.5428 28.963C42.1533 26.8695 42.147 25.1956 42.147 23.9349C42.1546 21.1998 41.6233 18.4903 40.584 15.9638C39.5447 13.4373 38.018 11.144 36.0926 9.21703Z" fill="#F6BC38"/>
<path d="M22.8148 0C18.3024 0 13.8914 1.34893 10.1396 3.8762C6.3877 6.40347 3.46347 9.99558 1.73668 14.1983C0.00988411 18.401 -0.441923 23.0255 0.43839 27.4871C1.3187 31.9486 3.49161 36.0469 6.68231 39.2635C9.87301 42.4801 13.9382 44.6706 18.3638 45.5581C22.7895 46.4455 27.3768 45.99 31.5456 44.2492C35.7145 42.5084 39.2776 39.5604 41.7846 35.7781C44.2915 31.9958 45.6295 27.549 45.6295 23C45.6228 16.9021 43.217 11.0559 38.9398 6.74401C34.6627 2.43214 28.8636 0.00676418 22.8148 0ZM22.8148 44.5859C18.5799 44.5859 14.4401 43.3199 10.9189 40.948C7.39767 38.5762 4.65323 35.2049 3.0326 31.2606C1.41197 27.3163 0.987941 22.9761 1.81413 18.7888C2.64032 14.6015 4.67962 10.7553 7.67416 7.73645C10.6687 4.7176 14.4839 2.66174 18.6375 1.82884C22.791 0.995946 27.0963 1.42342 31.0088 3.0572C34.9214 4.69099 38.2655 7.45772 40.6183 11.0075C42.9711 14.5573 44.2269 18.7307 44.2269 23C44.2207 28.723 41.9628 34.2099 37.9486 38.2567C33.9344 42.3035 28.4917 44.5797 22.8148 44.5859Z" fill="#010101"/>
<path d="M26.0647 32.7431C25.3601 33.5594 24.5923 34.3178 23.7684 35.0112C22.9403 35.7054 22.4629 35.9866 21.8672 35.9674C21.4481 35.9597 21.044 35.8096 20.7201 35.5415C20.4138 35.2689 20.3208 34.9707 20.0863 34.1338C19.6638 32.5919 19.2857 31.0756 19.1442 30.5134C19.0977 30.3303 19.0597 30.1812 19.0343 30.0875C18.8231 30.1982 18.6668 30.3004 18.5569 30.3579C18.4471 30.4154 18.4428 30.4303 18.2316 30.5539C18.0203 30.6774 17.9063 30.7434 17.7922 30.803C17.7534 30.8261 17.7132 30.8468 17.6718 30.8648C17.6258 30.8786 17.5782 30.8857 17.5302 30.8861C17.4303 30.8858 17.333 30.8534 17.2525 30.7937C17.172 30.734 17.1124 30.65 17.0824 30.5539V30.5411C17.0824 30.5134 17.0824 30.49 17.0718 30.4687C17.0707 30.451 17.0707 30.4332 17.0718 30.4154C16.9768 29.6807 16.8057 27.7577 16.624 25.2149C15.6248 25.4279 10.4661 26.4053 9.73731 24.8337C8.91134 23.0512 14.1735 18.8537 14.8073 18.4299C18.9477 15.5953 21.2609 14.5433 26.071 12.6799C22.013 13.8044 18.139 15.5183 14.5707 17.7676C13.8788 16.2098 13.103 14.6912 12.2469 13.2187C11.3562 11.6801 10.3801 10.1934 9.32326 8.76562C7.51971 10.526 6.07985 12.6291 5.08676 14.9534C4.09366 17.2777 3.567 19.7773 3.53718 22.3079C3.5299 25.0408 4.06031 27.748 5.09773 30.2729C6.13514 32.7977 7.65896 35.0901 9.58099 37.0173C12.001 39.3354 14.9815 40.9736 18.2253 41.7685C18.69 41.8878 22.0509 42.6864 24.7042 40.5333C25.5791 39.8151 26.2618 38.8875 26.69 37.8351C26.9531 36.9906 27.0341 36.0991 26.9273 35.2205C26.8205 34.3419 26.5286 33.4965 26.071 32.741L26.0647 32.7431Z" fill="#010101"/>
<path d="M34.7469 34.1508C34.7152 34.1011 34.6718 34.0599 34.6207 34.0308C34.5696 34.0018 34.5122 33.9857 34.4535 33.984C34.3949 33.9824 34.3367 33.9951 34.284 34.0212C34.2313 34.0473 34.1858 34.0859 34.1512 34.1338L32.4126 36.5083L29.5587 37.1472C29.5015 37.1602 29.4482 37.187 29.4035 37.2253C29.3588 37.2636 29.3239 37.3123 29.3019 37.3671C29.2799 37.4219 29.2714 37.4813 29.2771 37.5402C29.2828 37.5991 29.3026 37.6557 29.3348 37.7051L30.9635 40.2181C30.9956 40.2674 31.039 40.3082 31.0901 40.3369C31.1412 40.3657 31.1984 40.3816 31.2569 40.3832C31.3154 40.3849 31.3735 40.3723 31.4261 40.3465C31.4787 40.3208 31.5244 40.2825 31.5592 40.2351L33.302 37.8691L36.1581 37.2196C36.2153 37.2069 36.2685 37.1803 36.3133 37.1422C36.358 37.1042 36.3929 37.0557 36.4149 37.001C36.437 36.9463 36.4455 36.887 36.4397 36.8283C36.434 36.7695 36.4142 36.7131 36.382 36.6637L34.7469 34.1508Z" fill="#010101"/>
<path d="M53.8477 30.5748V15.8633H64.3572V18.5275H56.6023V22.5482H63.9347V25.1293H56.6023V30.5812L53.8477 30.5748Z" fill="white"/>
<path d="M76.2884 25.1661C76.2884 28.1476 74.2625 30.5753 70.9227 30.5753C67.5829 30.5753 65.5781 28.154 65.5781 25.1661C65.5781 22.1782 67.6251 19.7568 70.9016 19.7568C74.178 19.7568 76.2884 22.1995 76.2884 25.1661ZM68.1258 25.1661C68.1258 26.7441 69.0658 28.2178 70.9227 28.2178C72.7796 28.2178 73.7196 26.7441 73.7196 25.1661C73.7196 23.588 72.6359 22.093 70.9227 22.093C69.0869 22.093 68.1258 23.6093 68.1258 25.1661Z" fill="white"/>
<path d="M80.4112 20.1995L80.5992 21.3985C81.3914 20.1207 82.4561 19.9248 83.4996 19.9248C84.5432 19.9248 85.5868 20.3507 86.1508 20.9151L85.0037 23.1448C84.7563 22.9163 84.4666 22.7393 84.1513 22.6238C83.8359 22.5083 83.5011 22.4567 83.1659 22.4718C81.8308 22.4718 80.5992 23.1874 80.5992 25.1019V30.5751H78.041V20.1995H80.4112Z" fill="white"/>
<path d="M91.3393 17.1436V20.091H94.1785V22.2994H91.3182V26.7716C91.3182 27.7619 91.8611 28.2453 92.6533 28.2453C93.0819 28.2334 93.5025 28.1257 93.8849 27.9301L94.5946 30.1173C93.9252 30.4002 93.208 30.5506 92.4822 30.5602C90.2493 30.6433 88.7874 29.3613 88.7874 26.7716V22.2994H86.8672V20.091H88.7874V17.4162L91.3393 17.1436Z" fill="white"/>
<path d="M98.686 20.0312V25.4597C98.686 27.0377 99.531 28.2388 101.17 28.2388C102.736 28.2388 103.8 26.9121 103.8 25.334V20.0312H106.335C106.351 23.5451 106.365 27.0597 106.378 30.5751H104.493L103.887 29.0162C102.831 30.0682 101.842 30.5751 100.401 30.5751C97.9382 30.5751 96.1426 28.701 96.1426 25.481V20.0312H98.686Z" fill="white"/>
<path d="M116.161 30.575V25.1445C116.161 23.5664 115.316 22.376 113.677 22.376C112.111 22.376 111.047 23.7006 111.047 25.2787V30.5836H108.512V20.1782H110.787L110.954 21.588C111.997 20.5573 113.041 20.0312 114.334 20.0312C116.755 20.0312 118.696 21.8606 118.696 25.1232V30.575H116.161Z" fill="white"/>
<path d="M123.071 26.0282C123.238 27.306 124.339 28.2388 126.138 28.2388C127.078 28.2388 128.31 27.881 128.885 27.2698L130.513 28.8905C129.428 30.0277 127.653 30.575 126.077 30.575C122.528 30.575 120.42 28.3645 120.42 25.038C120.42 21.8797 122.549 19.6074 125.889 19.6074C129.332 19.6074 131.483 21.7541 131.086 26.0261L123.071 26.0282ZM128.665 23.8986C128.498 22.5527 127.454 21.8776 125.993 21.8776C124.615 21.8776 123.487 22.5527 123.113 23.8986H128.665Z" fill="white"/>
<path d="M142.755 15.5464V18.1339V23.9861C142.755 26.2158 141.584 27.9621 139.079 27.9621C136.573 27.9621 135.384 26.6843 135.384 24.1543H132.674C132.674 28.3199 135.346 30.5731 139.081 30.5731C143.112 30.5731 145.511 27.7939 145.511 23.9861V15.5464H142.755Z" fill="#FEBD39"/>
<path d="M155.637 19.8823H158.079L158.039 30.5752H156.161C155.958 29.9647 155.756 29.3542 155.554 28.7437C154.969 29.964 153.362 30.5539 152.212 30.5752C149.166 30.5944 146.91 28.7011 146.91 25.0595C146.91 21.4817 149.27 19.6097 152.276 19.631C153.653 19.631 154.969 20.2827 155.554 21.3135L155.637 19.8823ZM149.458 25.0595C149.458 27.0379 150.814 28.2177 152.506 28.2177C156.52 28.2177 156.52 21.9247 152.506 21.9247C150.814 21.9353 149.458 23.0832 149.458 25.0595Z" fill="#FEBD39"/>
<path d="M169.29 28.9333C168.779 29.4706 168.162 29.8943 167.478 30.177C166.795 30.4598 166.061 30.5954 165.323 30.5752C162.338 30.5752 159.854 28.7651 159.854 25.0808C159.854 21.3965 162.338 19.5927 165.333 19.5927C166.025 19.5688 166.715 19.6935 167.355 19.9586C167.996 20.2237 168.573 20.6231 169.049 21.1303L167.442 22.834C166.876 22.3146 166.141 22.0228 165.376 22.0141C163.664 22.0141 162.418 23.277 162.418 25.085C162.418 27.0635 163.753 28.1155 165.34 28.1155C165.753 28.1329 166.166 28.0665 166.553 27.9202C166.941 27.7738 167.295 27.5506 167.596 27.2637L169.29 28.9333Z" fill="#FEBD39"/>
<path d="M172.901 15.8633V24.3648L176.366 20.1992H179.414V20.3461L175.216 25.0803L179.999 30.3852V30.5748H176.93L172.901 25.8896V30.5748H170.354V15.8633H172.901Z" fill="#FEBD39"/>
</g>
<defs>
<clipPath id="clip0">
<rect width="180" height="46" fill="white"/>
</clipPath>
</defs>
</svg>
