<svg width="31" height="31" viewBox="0 0 31 31" fill="none" xmlns="http://www.w3.org/2000/svg">
<g clip-path="url(#clip0)">
<path d="M27.4973 22.954H21.5813V14.814L15.0033 21.393L8.42434 14.814V22.954H2.31934C3.66423 25.1066 5.53335 26.8827 7.75172 28.116C9.9701 29.3494 12.4652 29.9997 15.0033 30.006C17.5436 30.0102 20.0426 29.3645 22.2628 28.1301C24.4829 26.8958 26.3503 25.1139 27.6873 22.954H27.4973Z" fill="#986830"/>
<path d="M5.30005 19.83V7.33596L15 17.036L24.7 7.33596V19.83H29.2C29.7335 18.2767 30.0038 16.6453 30 15.003C30.0004 11.0247 28.4205 7.20925 25.6077 4.39592C22.7949 1.5826 18.9798 0.00186274 15.0015 0.00146492C11.0233 0.00106709 7.20783 1.58104 4.39451 4.3938C1.58118 7.20657 0.000444304 11.0217 4.6479e-05 15C-0.00407787 16.6433 0.266309 18.2757 0.800047 19.83H5.30005Z" fill="#986830"/>
</g>
<defs>
<clipPath id="clip0">
<rect width="30.006" height="30.006" fill="white"/>
</clipPath>
</defs>
</svg>
