<svg width="80" height="28" viewBox="0 0 80 28" fill="none" xmlns="http://www.w3.org/2000/svg">
<path d="M41.4895 0H40.6895V28H41.4895V22.61H51.6995V19.35H43.8495V15.59H50.5595V12.31H43.8495V8.67H51.6995V5.39H41.4895V0Z" fill="white"/>
<path d="M9.73 15.9501L6.83 11.2601L3.12 5.45014L3.08 5.39014H0V22.6101H3.42V12.0301L5.97 16.1501L10.07 22.6101H13.17V5.39014H9.73V15.9501Z" fill="white"/>
<path d="M15.0996 22.6101H26.3896V19.3501H18.5396V15.5901H25.2496V12.3101H18.5396V8.67014H26.3896V5.39014H15.0996V22.6101Z" fill="white"/>
<path d="M27.7695 8.70014H31.7195V22.6101H35.1595V8.70014H39.0795V5.39014H27.7695V8.70014Z" fill="white"/>
<path d="M63.1499 15.9799L60.2499 11.2899L56.5299 5.47992L56.4999 5.41992H53.4199V22.6399H56.8299V12.0499L59.3799 16.1799L63.4799 22.6399H66.5899V5.41992H63.1499V15.9799Z" fill="white"/>
<path d="M68 5.41992V8.72992H71.94V22.6399H75.38V8.72992H79.31V5.41992H68Z" fill="white"/>
</svg>
