<svg width="38" height="45" viewBox="0 0 38 45" fill="none" xmlns="http://www.w3.org/2000/svg">
<path d="M36.7821 35.3443L30.3936 39.08C31.2423 38.5853 31.4535 36.9837 30.7289 35.3905L37.1175 31.6548C37.8379 33.2522 37.6309 34.8496 36.7821 35.3443Z" fill="url(#paint0_linear)"/>
<path d="M33.371 40.2373L26.9824 43.9729C27.5082 43.6669 27.8229 42.996 27.7484 42.0653L34.1369 38.3296C34.2114 39.2562 33.8926 39.9312 33.371 40.2373Z" fill="url(#paint1_linear)"/>
<path d="M35.4413 38.2918L29.0527 42.0275C29.7442 41.6208 30.0671 40.5433 29.711 39.2352L36.0996 35.4995C36.4557 36.8076 36.1368 37.8851 35.4413 38.2918Z" fill="url(#paint2_linear)"/>
<path d="M37.2836 31.579L30.8951 35.3147C31.9012 34.7277 31.8474 32.5181 30.7295 30.7991L37.118 27.0635C38.2359 28.7825 38.2898 30.9878 37.2836 31.579Z" fill="url(#paint3_linear)"/>
<path d="M37.118 27.0595L30.7295 30.7952C31.6155 29.8728 31.098 27.2985 29.7109 25.764L36.0995 22.0283C37.4865 23.567 38.004 26.1413 37.118 27.0595Z" fill="url(#paint4_linear)"/>
<path d="M36.0993 22.028L29.7108 25.7637C30.249 24.4179 29.2429 21.7974 27.7441 20.6361L34.1327 16.9004C35.6356 18.0618 36.6376 20.6822 36.0993 22.028Z" fill="url(#paint5_linear)"/>
<path d="M34.1364 16.9007L27.7479 20.6364C27.9011 18.9593 26.4809 16.4689 24.9697 15.7645L31.3583 12.0288C32.8653 12.7332 34.2896 15.2236 34.1364 16.9007Z" fill="url(#paint6_linear)"/>
<path d="M31.3583 12.0289L24.9698 15.7645C24.7255 13.8694 22.9865 11.6767 21.5664 11.4754L27.9549 7.73975C29.3751 7.94099 31.114 10.1338 31.3583 12.0289Z" fill="url(#paint7_linear)"/>
<path d="M27.9557 7.73942L21.5672 11.4751C20.942 9.49196 19.0043 7.7478 17.7705 8.06645L24.159 4.33077C25.3929 4.01213 27.3305 5.75628 27.9557 7.73942Z" fill="url(#paint8_linear)"/>
<path d="M13.0296 1.31219L6.64111 5.04787C5.88757 4.5154 5.15473 4.4567 4.62891 4.76696L11.0174 1.03128C11.5433 0.721023 12.2761 0.779721 13.0296 1.31219Z" fill="url(#paint9_linear)"/>
<path d="M16.4327 1.00618L10.0442 4.73766C9.10433 3.76916 8.0237 3.5134 7.32812 3.92009L13.7167 0.184418C14.4122 -0.222271 15.4929 0.0376746 16.4327 1.00618Z" fill="url(#paint10_linear)"/>
<path d="M20.2298 2.03347L13.8413 5.76915C12.8393 4.33945 11.3654 3.72312 10.5166 4.22205L16.9051 0.486375C17.7539 -0.0125532 19.2279 0.60377 20.2298 2.03347Z" fill="url(#paint11_linear)"/>
<path d="M24.1589 4.33122L17.7704 8.06689C16.8595 6.22631 15.0005 5.07332 13.9902 5.66449L20.3788 1.92881C21.3849 1.33765 23.248 2.49063 24.1589 4.33122Z" fill="url(#paint12_linear)"/>
<path d="M30.7293 30.795C31.6154 29.8726 31.0978 27.2983 29.7108 25.7638C30.2491 24.4179 29.243 21.7975 27.7442 20.6361C27.8974 18.959 26.4772 16.4686 24.966 15.7642C24.7217 13.8691 22.9828 11.6764 21.5626 11.4751C20.9374 9.49198 18.9998 7.74783 17.766 8.06647C16.8551 6.22589 14.9961 5.0729 13.9858 5.66407C13.932 5.69342 13.8823 5.73115 13.8368 5.76889C12.8348 4.33918 11.3609 3.72286 10.5121 4.22179C10.3175 4.33499 10.156 4.50689 10.0401 4.74168C9.10023 3.77317 8.0196 3.51742 7.32403 3.92411C6.9721 4.12955 6.71954 4.50689 6.63673 5.05194C5.88319 4.51947 5.15035 4.46077 4.62453 4.77103C4.0987 5.07709 3.78404 5.75212 3.85856 6.6787C3.35344 6.47745 2.90215 6.51099 2.55022 6.71643C1.85878 7.12312 1.53584 8.19645 1.89191 9.50875C1.6352 9.49198 1.40749 9.55068 1.21289 9.66388C0.364121 10.1586 0.152964 11.7602 0.877523 13.3534C0.819558 13.3744 0.765734 13.3996 0.71191 13.4331C-0.294192 14.0201 -0.240368 16.2296 0.877523 17.9486C-0.00850886 18.871 0.509033 21.4411 1.89605 22.9798C1.36194 24.3173 2.3639 26.9377 3.8627 28.0991C3.70951 29.7761 5.12965 32.2666 6.64087 32.971C6.88515 34.8661 8.62409 37.0588 10.0442 37.2601C10.6653 39.2432 12.6071 40.9832 13.8409 40.6687C14.7518 42.5093 16.6149 43.6623 17.621 43.0711C17.6749 43.0418 17.7245 43.004 17.7701 42.9663C18.7721 44.396 20.2419 45.0123 21.0906 44.5176C21.2852 44.4044 21.4467 44.2325 21.5626 43.9977C22.5025 44.9662 23.5831 45.222 24.2787 44.8195C24.6306 44.614 24.8832 44.2367 24.966 43.6916C25.7237 44.2241 26.4524 44.2828 26.9782 43.9726C27.504 43.6665 27.8187 42.9957 27.7442 42.0649C28.2493 42.2619 28.7006 42.2326 29.0525 42.0271C29.7439 41.6205 30.0669 40.5429 29.7108 39.2348C29.9675 39.2516 30.1952 39.1929 30.3898 39.0797C31.2386 38.585 31.4498 36.9834 30.7252 35.3901C30.7832 35.3692 30.8411 35.344 30.8908 35.3105C31.9011 34.7235 31.8472 32.5182 30.7293 30.795Z" fill="url(#paint13_radial)"/>
<path d="M15.1697 20.0156C15.1697 20.5816 15.0827 21.047 14.9047 21.4076C14.7267 21.7682 14.4989 22.0365 14.205 22.2042C13.9152 22.3719 13.5756 22.4348 13.1947 22.3929C12.8097 22.3509 12.4122 22.2084 11.994 21.9652C11.5345 21.6969 11.1121 21.3573 10.7271 20.9506C10.342 20.5439 10.0108 20.0869 9.72927 19.588C9.44773 19.089 9.22829 18.5566 9.07096 17.9989C8.91363 17.4413 8.83496 16.8795 8.83496 16.3135C8.83496 15.7265 8.91363 15.2402 9.07096 14.8544C9.22829 14.4687 9.44773 14.1878 9.72927 14.0159C10.0108 13.8398 10.342 13.7727 10.7271 13.8105C11.1121 13.8482 11.5345 13.9991 11.994 14.2675C12.4536 14.5358 12.8759 14.8796 13.2693 15.2947C13.6585 15.7097 13.9938 16.1709 14.2754 16.6741C14.5569 17.1772 14.7763 17.7138 14.9337 18.284C15.091 18.8501 15.1697 19.4286 15.1697 20.0156ZM19.3224 19.1855C19.4135 19.1184 19.5253 19.0723 19.6578 19.0471C19.7903 19.022 19.9766 19.0807 20.2126 19.219L22.2621 20.4181L12.3046 29.5791C12.2135 29.6588 12.1017 29.7049 11.9651 29.7133C11.8284 29.7217 11.6628 29.6714 11.4724 29.5582L9.36906 28.3297L19.3224 19.1855ZM13.0126 18.7536C13.0126 18.3931 12.9877 18.0786 12.938 17.8145C12.8884 17.5461 12.8138 17.3155 12.7227 17.1227C12.6316 16.9298 12.524 16.7663 12.3998 16.6363C12.2756 16.5063 12.1431 16.4015 11.9982 16.3135C11.8533 16.2296 11.7208 16.1793 11.5966 16.1667C11.4765 16.1542 11.373 16.1919 11.2902 16.2841C11.2074 16.3764 11.1411 16.5273 11.0914 16.7369C11.0418 16.9466 11.0211 17.2317 11.0211 17.5923C11.0211 17.9319 11.0459 18.2295 11.0914 18.4811C11.1411 18.7369 11.2074 18.9549 11.2902 19.1394C11.373 19.3238 11.4765 19.479 11.5966 19.6047C11.7166 19.7347 11.8491 19.8395 11.9982 19.9234C12.1431 20.0072 12.2797 20.0575 12.3998 20.0743C12.524 20.0911 12.6316 20.0575 12.7227 19.9779C12.8138 19.8982 12.8842 19.7599 12.938 19.5628C12.9877 19.3574 13.0126 19.089 13.0126 18.7536ZM22.7713 32.535C22.7713 33.101 22.6844 33.5664 22.5064 33.9353C22.3283 34.3043 22.0965 34.5684 21.8066 34.7361C21.5168 34.9038 21.1814 34.9667 20.7964 34.9248C20.4113 34.8829 20.0097 34.7403 19.5957 34.4971C19.1361 34.2288 18.7138 33.8892 18.3288 33.4825C17.9437 33.0758 17.6125 32.6188 17.3309 32.1199C17.0494 31.621 16.83 31.0885 16.6726 30.5267C16.5153 29.9648 16.4366 29.3988 16.4366 28.837C16.4366 28.25 16.5153 27.7637 16.6726 27.378C16.83 26.9922 17.0494 26.7113 17.3309 26.5394C17.6125 26.3633 17.9437 26.2963 18.3288 26.334C18.7138 26.3717 19.132 26.5227 19.5957 26.791C20.0553 27.0593 20.4776 27.4031 20.8709 27.8182C21.2601 28.2333 21.5955 28.6945 21.877 29.1976C22.1586 29.7007 22.378 30.2374 22.5353 30.8076C22.6927 31.3694 22.7713 31.948 22.7713 32.535ZM20.6101 31.273C20.6101 30.9208 20.5852 30.6105 20.5314 30.3422C20.4776 30.0739 20.4113 29.8433 20.3203 29.6504C20.2292 29.4575 20.1215 29.294 19.9973 29.164C19.8731 29.0341 19.7406 28.9293 19.5957 28.8454C19.4508 28.7615 19.3183 28.7112 19.1982 28.6987C19.0782 28.6861 18.9746 28.7238 18.8918 28.8161C18.8049 28.9083 18.7386 29.0592 18.6931 29.2689C18.6434 29.4785 18.6186 29.7594 18.6186 30.1116C18.6186 30.4512 18.6434 30.7489 18.6931 31.0046C18.7428 31.2604 18.809 31.4784 18.8918 31.6629C18.9746 31.8474 19.0782 32.0025 19.1982 32.1283C19.3183 32.254 19.4508 32.3631 19.5957 32.4469C19.7406 32.5308 19.8772 32.5811 19.9973 32.5978C20.1215 32.6146 20.2292 32.5811 20.3203 32.5014C20.4113 32.4217 20.4817 32.2792 20.5314 32.0863C20.5852 31.8809 20.6101 31.6126 20.6101 31.273Z" fill="#FFF0E6"/>
<defs>
<linearGradient id="paint0_linear" x1="33.008" y1="34.0583" x2="34.5296" y2="36.6608" gradientUnits="userSpaceOnUse">
<stop stop-color="#FF6A00"/>
<stop offset="1" stop-color="#E81E00"/>
</linearGradient>
<linearGradient id="paint1_linear" x1="30.2465" y1="40.6037" x2="30.8821" y2="41.6908" gradientUnits="userSpaceOnUse">
<stop stop-color="#FF6A00"/>
<stop offset="1" stop-color="#E81E00"/>
</linearGradient>
<linearGradient id="paint2_linear" x1="32.0626" y1="37.8597" x2="33.1117" y2="39.6541" gradientUnits="userSpaceOnUse">
<stop stop-color="#FF6A00"/>
<stop offset="1" stop-color="#E81E00"/>
</linearGradient>
<linearGradient id="paint3_linear" x1="33.0245" y1="29.4541" x2="35.0346" y2="32.8922" gradientUnits="userSpaceOnUse">
<stop stop-color="#FF6A00"/>
<stop offset="1" stop-color="#E81E00"/>
</linearGradient>
<linearGradient id="paint4_linear" x1="32.2634" y1="24.2712" x2="34.7158" y2="28.4658" gradientUnits="userSpaceOnUse">
<stop stop-color="#FF6A00"/>
<stop offset="1" stop-color="#E81E00"/>
</linearGradient>
<linearGradient id="paint5_linear" x1="30.737" y1="18.887" x2="33.4719" y2="23.5648" gradientUnits="userSpaceOnUse">
<stop stop-color="#FF6A00"/>
<stop offset="1" stop-color="#E81E00"/>
</linearGradient>
<linearGradient id="paint6_linear" x1="28.4745" y1="13.7123" x2="31.3057" y2="18.5549" gradientUnits="userSpaceOnUse">
<stop stop-color="#FF6A00"/>
<stop offset="1" stop-color="#E81E00"/>
</linearGradient>
<linearGradient id="paint7_linear" x1="25.2745" y1="9.30626" x2="28.0095" y2="13.9844" gradientUnits="userSpaceOnUse">
<stop stop-color="#FF6A00"/>
<stop offset="1" stop-color="#E81E00"/>
</linearGradient>
<linearGradient id="paint8_linear" x1="21.7116" y1="5.76207" x2="24.1636" y2="9.95599" gradientUnits="userSpaceOnUse">
<stop stop-color="#FF6A00"/>
<stop offset="1" stop-color="#E81E00"/>
</linearGradient>
<linearGradient id="paint9_linear" x1="8.51813" y1="2.49063" x2="9.15404" y2="3.57833" gradientUnits="userSpaceOnUse">
<stop stop-color="#FF6A00"/>
<stop offset="1" stop-color="#E81E00"/>
</linearGradient>
<linearGradient id="paint10_linear" x1="11.3671" y1="1.5589" x2="12.416" y2="3.35303" gradientUnits="userSpaceOnUse">
<stop stop-color="#FF6A00"/>
<stop offset="1" stop-color="#E81E00"/>
</linearGradient>
<linearGradient id="paint11_linear" x1="14.6269" y1="1.81751" x2="16.1486" y2="4.42033" gradientUnits="userSpaceOnUse">
<stop stop-color="#FF6A00"/>
<stop offset="1" stop-color="#E81E00"/>
</linearGradient>
<linearGradient id="paint12_linear" x1="18.0931" y1="3.26502" x2="20.1031" y2="6.70299" gradientUnits="userSpaceOnUse">
<stop stop-color="#FF6A00"/>
<stop offset="1" stop-color="#E81E00"/>
</linearGradient>
<radialGradient id="paint13_radial" cx="0" cy="0" r="1" gradientUnits="userSpaceOnUse" gradientTransform="translate(-8.53482 -4.76253) scale(69.9761 70.8607)">
<stop stop-color="#FFF2D9"/>
<stop offset="0.0141" stop-color="#FFDDB7"/>
<stop offset="0.0347" stop-color="#FFC28D"/>
<stop offset="0.057" stop-color="#FFAA67"/>
<stop offset="0.0808" stop-color="#FF9647"/>
<stop offset="0.1064" stop-color="#FF862D"/>
<stop offset="0.1346" stop-color="#FF7A19"/>
<stop offset="0.1667" stop-color="#FF710B"/>
<stop offset="0.2059" stop-color="#FF6C02"/>
<stop offset="0.2733" stop-color="#FF6A00"/>
<stop offset="1" stop-color="#E81E00"/>
</radialGradient>
</defs>
</svg>
