<svg width="67" height="34" viewBox="0 0 67 34" fill="none" xmlns="http://www.w3.org/2000/svg">
<g clip-path="url(#clip0)">
<g opacity="0.3">
<path opacity="0.3" d="M4.83789 9.85147L22.2119 8.99658L22.3334 15.5507C18.9704 20.623 18.0385 26.7049 18.4275 33.3242L10.5104 33.9918C10.6481 25.1743 12.9414 16.9755 16.2234 13.1896L10.9804 13.499L11.2964 18.4655L6.28842 19.3448L4.83789 9.85147Z" fill="#862A5D"/>
<path opacity="0.3" d="M45.0234 8.61377L62.365 10.0142L61.7815 16.5357C57.8999 21.1439 56.3198 27.0549 55.9875 33.6823L48.0542 33.324C49.14 24.5879 52.3004 16.7392 55.9632 13.4093L50.7202 13.0429L50.5014 18.0175L45.4367 18.2455L45.0234 8.61377Z" fill="#862A5D"/>
<path opacity="0.3" d="M24.084 5.87012L43.9214 6.15508L43.6621 13.6292C39.5212 19.1656 38.095 26.0291 38.1436 33.601L29.0839 33.7882C29.7727 23.7576 32.8763 14.5737 36.847 10.5028L30.8504 10.4784L30.9153 16.1532L25.1537 16.7882L24.084 5.87012Z" fill="#862A5D"/>
</g>
<path d="M21.3533 7.12391H21.2804L21.2723 6.83895H21.1994L21.1913 6.55399H21.1183L21.1102 6.26903H21.0373L21.0292 5.98407H20.9563L20.9482 5.6991H20.8752L20.8671 5.41414H20.7942L20.8266 5.16989H20.7537L20.7456 4.89307H20.6726L20.6645 4.60811H20.5916L20.5835 4.32315H20.5106L20.5025 4.03818H20.4295L20.4214 3.75322H20.3485L20.3404 3.46826L0.203125 4.40456L1.88866 14.5085L2.02642 14.4922L2.06694 14.7283L2.2047 14.7039L2.24521 14.94L2.38297 14.9156L2.42349 15.1517L2.56125 15.1273L2.60177 15.3634L2.73953 15.339L2.78005 15.5751L2.91781 15.5506L2.95833 15.7867L3.09609 15.7623L3.1366 15.9984L3.27436 15.974L3.31488 16.2101L3.45264 16.1857L3.49316 16.4218L3.63092 16.3974L3.67144 16.6335L3.8092 16.6091L3.84971 16.8452L3.98747 16.8208L4.0523 17.1057L4.19006 17.0813L4.23058 17.3174L8.8739 16.5684C7.62596 20.5171 6.86423 25.2068 6.78319 30.0755L6.93716 30.0674C6.93716 30.1162 6.93716 30.157 6.92906 30.2058L7.08302 30.1977C7.08302 30.2465 7.07492 30.2872 7.07492 30.3361L7.22889 30.3279C7.22889 30.3768 7.22889 30.4175 7.22078 30.4663L7.37475 30.4582C7.37475 30.5071 7.37475 30.5478 7.36665 30.5966L7.52061 30.5885C7.52061 30.6373 7.52061 30.678 7.51251 30.7269L7.66648 30.7106C7.66648 30.7594 7.66648 30.8002 7.65837 30.849L7.81234 30.8327C7.81234 30.8816 7.81234 30.9223 7.80424 30.9711L7.9582 30.963C7.9582 31.0118 7.9582 31.0526 7.9501 31.1014L8.10407 31.0933C8.10407 31.1421 8.10407 31.1828 8.09596 31.2317L8.24993 31.2154C8.24993 31.2642 8.24993 31.3049 8.24183 31.3538L8.39579 31.3375C8.39579 31.3864 8.38769 31.4271 8.38769 31.4759L8.54166 31.4596C8.54166 31.5085 8.54166 31.5492 8.53355 31.5981L8.68752 31.5899C8.68752 31.6388 8.68752 31.6795 8.67942 31.7283L17.1881 31.0688C16.7748 24.5473 17.7716 18.5631 21.3858 13.564L21.3533 7.12391ZM9.27098 11.5693L10.9727 11.4798C10.4379 12.4812 9.94357 13.5885 9.49787 14.7772L9.27098 11.5693Z" fill="#702B57"/>
<path d="M23.8007 11.7973H23.8331L23.8574 12.0334H23.8898L23.9141 12.2696H23.9465L23.9709 12.5057H24.0033L24.0276 12.7418H24.06L24.0843 12.9779H24.1167L24.141 13.214H24.1734L24.1978 13.4501H24.2302L24.2545 13.6862H24.2869L24.3112 13.9223H24.3436L24.3679 14.1584H24.4003L24.4246 14.3946H24.4571L24.4814 14.6307H24.5138L24.5381 14.8668L30.7292 14.2399L30.6563 8.64647L34.5784 8.66276C31.3613 13.7269 28.995 21.543 28.363 29.9209H28.4035C28.4035 29.9616 28.3954 30.0105 28.3954 30.0512H28.4359C28.4359 30.0919 28.4278 30.1407 28.4278 30.1814H28.4683C28.4683 30.2221 28.4602 30.271 28.4602 30.3117H28.5007C28.5007 30.3524 28.4926 30.4013 28.4926 30.442H28.5331C28.5331 30.4827 28.525 30.5315 28.525 30.5722H28.5656C28.5656 30.613 28.5575 30.6618 28.5575 30.7025H28.598C28.598 30.7432 28.5899 30.7921 28.5899 30.8328H28.6304C28.6304 30.8735 28.6223 30.9223 28.6223 30.963H28.6628C28.6628 31.0038 28.6547 31.0526 28.6547 31.0933H28.6952C28.6952 31.134 28.6871 31.1829 28.6871 31.2236H28.7276C28.7276 31.2643 28.7195 31.3131 28.7195 31.3539H28.76C28.76 31.3946 28.7519 31.4434 28.7519 31.4841H28.7925C28.7925 31.5248 28.7843 31.5737 28.7843 31.6144L38.5248 31.4271C38.5248 31.3864 38.5248 31.3376 38.5248 31.2969H38.5572C38.5572 31.2561 38.5572 31.2073 38.5572 31.1666H38.5896C38.5896 31.1259 38.5896 31.077 38.5896 31.0363H38.622C38.622 30.9956 38.622 30.9468 38.622 30.9061H38.6544C38.6544 30.8653 38.6544 30.8165 38.6544 30.7758H38.6869C38.6869 30.7351 38.6869 30.6862 38.6869 30.6455H38.7193C38.7193 30.6048 38.7193 30.556 38.7193 30.5153H38.7517C38.7517 30.4745 38.7517 30.4257 38.7517 30.385H38.7841C38.7841 30.3443 38.7841 30.2954 38.7841 30.2547H38.8165C38.8165 30.214 38.8165 30.1652 38.8165 30.1244H38.8489C38.8489 30.0837 38.8489 30.0349 38.8489 29.9942H38.8813C38.8813 29.9535 38.8813 29.9046 38.8813 29.8639H38.9138C38.9138 29.8232 38.9138 29.7744 38.9138 29.7336H38.9462C38.93 27.2097 39.0839 24.7509 39.4486 22.3979C40.3319 18.498 41.9202 14.9075 44.489 11.7648L44.4971 11.5938C44.5214 11.5694 44.5376 11.5449 44.5538 11.5124L44.5619 11.3414C44.5862 11.317 44.6024 11.2925 44.6186 11.26L44.6268 11.089C44.6511 11.0646 44.6673 11.0402 44.6835 11.0076L44.6916 10.8366C44.7159 10.8122 44.7321 10.7878 44.7483 10.7552L44.7564 10.5842C44.7807 10.5598 44.7969 10.5354 44.8131 10.5028L44.8212 10.3318C44.8455 10.3074 44.8618 10.283 44.878 10.2504L44.8861 10.0794C44.9104 10.055 44.9266 10.0306 44.9428 9.99801L44.9509 9.82703C44.9752 9.8026 44.9914 9.77818 45.0076 9.74561L45.0157 9.57464C45.04 9.55021 45.0562 9.52578 45.0724 9.49322L45.0805 9.32224C45.1049 9.29781 45.1211 9.27339 45.1373 9.24082L45.1454 9.06985C45.1697 9.04542 45.1859 9.021 45.2021 8.98843L45.2102 8.81745C45.2345 8.79303 45.2507 8.7686 45.2669 8.73603L45.275 8.56506C45.2993 8.54063 45.3155 8.51621 45.3318 8.48364L45.6316 0.529136L22.5527 0.170898L23.8007 11.7973Z" fill="#702B57"/>
<path d="M67.0003 4.57555L46.863 3.09375L46.8793 3.37871L46.7901 3.37057L46.8063 3.65553L46.7172 3.64739L46.7334 3.93235L46.6443 3.92421L46.6605 4.20917L46.5713 4.20103L46.5875 4.48599L46.4984 4.47785L46.5146 4.76281L46.4255 4.75467L46.4417 5.03963L46.3525 5.03149L46.3687 5.31645L46.2796 5.30831L46.2958 5.59327L46.2067 5.58513L46.2229 5.87009L46.1094 5.90266L46.1256 6.18762H46.0365L46.0527 6.47258L45.9636 6.46444L45.9798 6.7494L45.8906 6.74126L46.3363 16.2183L51.7819 15.9984L51.79 15.7786L51.8872 15.7705L51.8953 15.5506H51.9926L52.0007 15.3308L52.106 15.3227L52.1141 15.1028L52.2114 15.0947L52.2195 14.8749H52.3248L52.3329 14.6551H52.4302L52.4383 14.4352L52.5355 14.4271L52.5436 14.2073H52.649L52.6571 13.9874L52.7543 13.9793L52.7624 13.7595L52.8597 13.7513L52.8678 13.5315H52.965L52.9731 13.3117H53.0785L53.0866 13.0918H53.1838L53.2729 11.1948L56.6683 11.4146C56.1578 12.2125 55.6149 13.0837 55.1043 14.0363C55.0638 14.1096 55.0233 14.1828 54.9828 14.2561C54.9423 14.3294 54.9018 14.4027 54.8612 14.4759C54.8207 14.5492 54.7802 14.6225 54.7397 14.6958C54.6992 14.769 54.6586 14.8423 54.6181 14.9156C54.5776 14.9889 54.5371 15.0621 54.4966 15.1354C54.4561 15.2087 54.4155 15.282 54.375 15.3552C54.3345 15.4285 54.294 15.5018 54.2535 15.5751C54.213 15.6483 54.1724 15.7216 54.1319 15.7949C54.0914 15.8682 54.0509 15.9415 54.0104 16.0147C53.9698 16.088 53.9293 16.1613 53.8888 16.2346C53.8483 16.3078 53.8078 16.3811 53.7673 16.4544C53.7267 16.5277 53.6862 16.6009 53.6457 16.6742C51.5388 20.5171 49.8938 25.622 49.1482 31.0851L57.6813 31.4352C57.6813 31.3864 57.6894 31.3457 57.6894 31.2968L57.8271 31.305C57.8271 31.2561 57.8352 31.2154 57.8352 31.1665L57.973 31.1747C57.973 31.1258 57.9811 31.0851 57.9811 31.0363L58.1189 31.0444C58.1189 30.9956 58.127 30.9549 58.127 30.906L58.2647 30.9142C58.2647 30.8653 58.2728 30.8246 58.2728 30.7757L58.4106 30.7839C58.4106 30.735 58.4187 30.6943 58.4187 30.6455L58.5565 30.6536C58.5565 30.6048 58.5645 30.5641 58.5645 30.5152L58.7023 30.5233C58.7023 30.4745 58.7104 30.4338 58.7104 30.3849L58.8482 30.3931C58.8482 30.3442 58.8563 30.3035 58.8563 30.2547L58.994 30.2628C58.994 30.214 59.0021 30.1733 59.0021 30.1244L59.1561 30.1407C59.1561 30.0918 59.1642 30.0511 59.1642 30.0023L59.302 30.0104C59.302 29.9616 59.3101 29.9209 59.3101 29.872L59.4478 29.8801C59.4478 29.8313 59.4559 29.7906 59.4559 29.7417L59.5937 29.7499C59.9178 23.7901 61.2792 18.384 64.4153 13.8897C64.4315 13.8734 64.4396 13.8572 64.4558 13.849V13.8327C64.4639 13.8165 64.472 13.8002 64.4882 13.792C64.545 13.735 64.5855 13.6699 64.6422 13.6129V13.5885C64.707 13.5152 64.7638 13.4501 64.8286 13.3768V13.3524C64.8934 13.2791 64.9501 13.214 65.015 13.1407V13.1163C65.0798 13.043 65.1365 12.9778 65.2013 12.9046V12.8801C65.2662 12.8069 65.3229 12.7417 65.3877 12.6685V12.644C65.4526 12.5708 65.5093 12.5056 65.5741 12.4324V12.4079C65.6389 12.3347 65.6957 12.2695 65.7605 12.1962V12.1718C65.8253 12.0985 65.882 12.0334 65.9469 11.9601V11.9357C66.0117 11.8624 66.0684 11.7973 66.1333 11.724V11.6996C66.1981 11.6263 66.2548 11.5612 66.3196 11.4879L67.0003 4.57555Z" fill="#702B57"/>
<path d="M0.203125 4.40455L20.3728 3.49268L20.5106 10.462C16.6047 15.86 15.5269 22.3246 15.9726 29.3672L6.78319 30.0837C6.94526 20.7125 9.61133 11.9845 13.42 7.9625L7.32613 8.29632L7.69889 13.5722L1.88056 14.5085L0.203125 4.40455Z" fill="url(#paint0_radial)"/>
<path d="M46.8633 3.09375L67.0006 4.58369L66.3199 11.5205C61.8062 16.4137 59.9748 22.7073 59.5939 29.758L50.3802 29.3754C51.6444 20.0856 55.3072 11.7403 59.5696 8.19863L53.4839 7.79969L53.2327 13.0837L47.3495 13.3198L46.8633 3.09375Z" fill="url(#paint1_radial)"/>
<path d="M22.5527 0.170898L45.5911 0.472144L45.2912 8.42665C40.4858 14.3131 38.8327 21.6082 38.8813 29.6604L28.363 29.8639C29.1652 19.1982 32.7713 9.42808 37.3822 5.10481L30.4213 5.08038L30.4942 11.1216L23.8088 11.7973L22.5527 0.170898Z" fill="url(#paint2_radial)"/>
<path d="M7.99808 28.8056C8.36273 20.3463 10.8262 12.4162 14.2702 8.78498L16.3204 6.61927L6.06943 7.18105L6.4503 12.579L2.86044 13.1571L1.58008 5.52828L19.2134 4.73038L19.3187 10.0958C15.9395 14.932 14.4404 20.8918 14.7321 28.2764L7.99808 28.8056ZM58.4912 28.5206C59.0665 21.1523 61.2626 15.4124 65.1847 11.0077L65.7114 5.66669L48.1106 4.364L48.4752 12.0905L52.1137 11.944L52.373 6.53785L62.624 7.19734L60.3307 9.10251C56.4815 12.3022 53.1104 19.8822 51.749 28.2357L58.4912 28.5206ZM37.7056 28.4962C37.8353 20.0043 39.9422 13.2792 44.1236 7.98709L44.3667 1.64465L23.8648 1.37598L24.8453 10.5029L29.2942 10.0551L29.2212 3.89992L40.3555 3.93249L38.1837 5.97607C33.9699 9.93297 30.6069 18.9378 29.6507 28.659L37.7056 28.4962Z" fill="#702B57"/>
<path d="M8.50053 28.7324C8.93001 20.4686 11.3206 12.913 14.643 9.41204L17.382 6.52985L5.72912 7.17305L6.10998 12.6117L3.25754 13.0677L2.12305 6.26932L18.9136 5.51213L19.0108 10.3402C15.6884 15.152 14.1811 21.0222 14.4161 28.2765L8.50053 28.7324ZM30.1694 28.6103C31.1742 19.06 34.4399 10.4623 38.5322 6.61941L41.4252 3.90006L28.9052 3.85121L28.9863 10.0471L25.2829 10.4216L24.3916 2.1333L44.0426 2.39384L43.8238 8.20706C39.691 13.4829 37.5841 20.1185 37.4058 28.4719L30.1694 28.6103ZM52.292 28.2277C53.6858 20.0696 56.9515 12.856 60.6549 9.77027L63.7099 7.23004L52.0732 6.481L51.8139 11.9278L48.929 12.05L48.6049 5.16204L65.363 6.39958L64.893 11.2032C61.0276 15.5835 58.8478 21.242 58.2238 28.4719L52.292 28.2277Z" fill="url(#paint3_linear)"/>
<path d="M17.1717 10.8935C17.1717 10.2014 16.6125 9.63965 15.9237 9.63965C15.2349 9.63965 14.6758 10.2014 14.6758 10.8935C14.6758 11.5855 15.2349 12.1473 15.9237 12.1473C16.6206 12.1392 17.1717 11.5774 17.1717 10.8935Z" fill="#702B57"/>
<path d="M16.7824 10.6085C16.7824 9.92457 16.2314 9.36279 15.5426 9.36279C14.8619 9.36279 14.3027 9.91643 14.3027 10.6085C14.3027 11.2924 14.8538 11.8542 15.5426 11.8542C16.2314 11.8542 16.7824 11.3005 16.7824 10.6085Z" fill="url(#paint4_radial)"/>
<path opacity="0.15" d="M16.2716 9.81885C16.3203 9.93283 16.3446 10.0631 16.3446 10.2015C16.3446 10.747 15.907 11.1948 15.3559 11.1948C14.967 11.1948 14.6347 10.9668 14.4727 10.633C14.5051 11.1867 14.9589 11.6345 15.518 11.6345C16.1015 11.6345 16.5715 11.1622 16.5715 10.576C16.5796 10.2748 16.458 10.0142 16.2716 9.81885Z" fill="#AB1535"/>
<path opacity="0.75" d="M15.6633 10.0791C15.6633 10.299 15.485 10.4781 15.2662 10.4781C15.0474 10.4781 14.8691 10.299 14.8691 10.0791C14.8691 9.85929 15.0474 9.68018 15.2662 9.68018C15.485 9.68018 15.6633 9.86744 15.6633 10.0791Z" fill="#FFFFC4"/>
<path d="M15.5992 14.053C15.5992 13.304 14.9914 12.6934 14.2459 12.6934C13.5003 12.6934 12.8926 13.304 12.8926 14.053C12.8926 14.8021 13.5003 15.4127 14.2459 15.4127C14.9914 15.4127 15.5992 14.8021 15.5992 14.053Z" fill="#702B57"/>
<path d="M15.2177 13.7597C15.2177 13.0107 14.6181 12.4082 13.8725 12.4082C13.127 12.4082 12.5273 13.0107 12.5273 13.7597C12.5273 14.5088 13.127 15.1113 13.8725 15.1113C14.6181 15.1113 15.2177 14.5006 15.2177 13.7597Z" fill="url(#paint5_radial)"/>
<path opacity="0.15" d="M14.6584 13.0107C14.7071 13.1329 14.7395 13.2631 14.7395 13.4097C14.7395 13.9796 14.2776 14.4356 13.7184 14.4356C13.3133 14.4356 12.9648 14.1994 12.8027 13.8575C12.8351 14.4356 13.3052 14.8915 13.8886 14.8915C14.4964 14.8915 14.9826 14.403 14.9826 13.7924C14.9745 13.4911 14.8529 13.2143 14.6584 13.0107Z" fill="#AB1535"/>
<path opacity="0.75" d="M13.5729 13.6294C13.7922 13.6294 13.9699 13.4508 13.9699 13.2305C13.9699 13.0102 13.7922 12.8315 13.5729 12.8315C13.3536 12.8315 13.1758 13.0102 13.1758 13.2305C13.1758 13.4508 13.3536 13.6294 13.5729 13.6294Z" fill="#FFFFC4"/>
<path d="M14.4095 17.57C14.4095 16.764 13.7531 16.1045 12.9508 16.1045C12.1486 16.1045 11.4922 16.764 11.4922 17.57C11.4922 18.376 12.1486 19.0355 12.9508 19.0355C13.7531 19.0355 14.4095 18.3842 14.4095 17.57Z" fill="#702B57"/>
<path d="M14.0358 17.2606C14.0358 16.4546 13.3875 15.8032 12.5853 15.8032C11.783 15.8032 11.1348 16.4546 11.1348 17.2606C11.1348 18.0666 11.783 18.718 12.5853 18.718C13.3875 18.718 14.0358 18.0585 14.0358 17.2606Z" fill="url(#paint6_radial)"/>
<path opacity="0.15" d="M13.3791 16.3081C13.4358 16.4384 13.4682 16.5849 13.4682 16.7396C13.4682 17.3584 12.9739 17.855 12.3581 17.855C11.9205 17.855 11.5396 17.5945 11.3613 17.22C11.3937 17.8469 11.9124 18.3435 12.5444 18.3435C13.2008 18.3435 13.7357 17.8062 13.7357 17.1467C13.7276 16.821 13.5979 16.5279 13.3791 16.3081Z" fill="#AB1535"/>
<path opacity="0.75" d="M12.5207 16.6499C12.5207 16.8698 12.3424 17.0489 12.1236 17.0489C11.9048 17.0489 11.7266 16.8698 11.7266 16.6499C11.7266 16.4301 11.9048 16.251 12.1236 16.251C12.3424 16.2591 12.5207 16.4301 12.5207 16.6499Z" fill="#FFFFC4"/>
<path d="M13.5967 21.4454C13.5967 20.5742 12.8998 19.874 12.0327 19.874C11.1657 19.874 10.4688 20.5742 10.4688 21.4454C10.4688 22.3166 11.1657 23.0167 12.0327 23.0167C12.8998 23.0167 13.5967 22.3166 13.5967 21.4454Z" fill="#702B57"/>
<path d="M13.2329 21.1116C13.2329 20.2485 12.5359 19.5483 11.677 19.5483C10.818 19.5483 10.1211 20.2485 10.1211 21.1116C10.1211 21.9746 10.818 22.6748 11.677 22.6748C12.5359 22.6748 13.2329 21.9746 13.2329 21.1116Z" fill="url(#paint7_radial)"/>
<path opacity="0.15" d="M12.5352 20.2568C12.592 20.3952 12.6244 20.5499 12.6244 20.7046C12.6244 21.3478 12.1057 21.877 11.4575 21.877C10.9956 21.877 10.5985 21.6084 10.4121 21.2176C10.4526 21.877 10.9875 22.3981 11.6519 22.3981C12.3407 22.3981 12.8999 21.8363 12.8999 21.1443C12.8999 20.8023 12.7621 20.4848 12.5352 20.2568Z" fill="#AB1535"/>
<path opacity="0.75" d="M11.6367 20.4358C11.6367 20.6882 11.4341 20.8998 11.1748 20.8998C10.9236 20.8998 10.7129 20.6963 10.7129 20.4358C10.7129 20.1834 10.9155 19.9717 11.1748 19.9717C11.4341 19.9798 11.6367 20.1834 11.6367 20.4358Z" fill="#FFFFC4"/>
<path d="M11.5053 27.3564C10.5815 27.3564 9.83594 26.6073 9.83594 25.6792C9.83594 24.751 10.5815 24.002 11.5053 24.002C12.4291 24.002 13.1746 24.751 13.1746 25.6792C13.1746 26.5992 12.4291 27.3564 11.5053 27.3564Z" fill="#702B57"/>
<path d="M11.1495 26.9817C10.2338 26.9817 9.48828 26.2326 9.48828 25.3126C9.48828 24.3926 10.2338 23.6436 11.1495 23.6436C12.0652 23.6436 12.8107 24.3926 12.8107 25.3126C12.8107 26.2326 12.0652 26.9817 11.1495 26.9817Z" fill="url(#paint8_radial)"/>
<path opacity="0.15" d="M12.0977 24.3599C12.1625 24.5064 12.1949 24.6693 12.1949 24.8484C12.1949 25.5486 11.6358 26.1103 10.9389 26.1103C10.4446 26.1103 10.0151 25.8172 9.8125 25.3939C9.85302 26.1022 10.4284 26.664 11.1496 26.664C11.887 26.664 12.4948 26.0615 12.4948 25.3125C12.4867 24.9379 12.3408 24.6041 12.0977 24.3599Z" fill="#AB1535"/>
<path opacity="0.75" d="M10.6885 25.0602C10.975 25.0602 11.2072 24.8269 11.2072 24.5391C11.2072 24.2514 10.975 24.0181 10.6885 24.0181C10.4021 24.0181 10.1699 24.2514 10.1699 24.5391C10.1699 24.8269 10.4021 25.0602 10.6885 25.0602Z" fill="#FFFFC4"/>
<path d="M42.2929 8.00339C42.3659 7.17293 41.75 6.44831 40.9234 6.37503C40.0969 6.30176 39.3757 6.92053 39.3027 7.75099C39.2298 8.58145 39.8457 9.30607 40.6722 9.37934C41.4988 9.44448 42.22 8.83385 42.2929 8.00339Z" fill="#702B57"/>
<path d="M41.8549 7.62903C41.9197 6.80672 41.3119 6.0821 40.4935 6.00882C39.675 5.93555 38.9538 6.55432 38.8809 7.37664C38.8079 8.19896 39.4238 8.92357 40.2423 8.99685C41.0607 9.07013 41.7819 8.45135 41.8549 7.62903Z" fill="url(#paint9_radial)"/>
<path opacity="0.15" d="M41.3128 6.62744C41.3615 6.77399 41.3777 6.92869 41.3696 7.09152C41.3128 7.751 40.7375 8.23951 40.0892 8.18252C39.6192 8.14181 39.2383 7.83242 39.0844 7.41719C39.0682 8.08482 39.5706 8.66288 40.2432 8.71987C40.9401 8.77687 41.5559 8.25579 41.6127 7.5556C41.637 7.20551 41.5235 6.87984 41.3128 6.62744Z" fill="#AB1535"/>
<path opacity="0.75" d="M40.5592 6.88023C40.5349 7.14076 40.308 7.33617 40.0487 7.31174C39.7894 7.28732 39.5949 7.05935 39.6192 6.79881C39.6436 6.53827 39.8705 6.34287 40.1298 6.3673C40.3891 6.39172 40.5836 6.61969 40.5592 6.88023Z" fill="#FFFFC4"/>
<path d="M40.0809 11.6424C40.1538 10.7386 39.4893 9.94889 38.5979 9.87562C37.6984 9.80234 36.9124 10.47 36.8395 11.3656C36.7665 12.2693 37.431 13.059 38.3224 13.1323C39.2219 13.2137 40.0079 12.538 40.0809 11.6424Z" fill="#702B57"/>
<path d="M39.6507 11.2437C39.7236 10.3481 39.0672 9.55833 38.1758 9.48505C37.2844 9.41178 36.4984 10.0713 36.4255 10.9669C36.3525 11.8624 37.0089 12.6522 37.9003 12.7255C38.7917 12.8069 39.5777 12.1393 39.6507 11.2437Z" fill="url(#paint10_radial)"/>
<path opacity="0.15" d="M39.0582 10.2993C39.1068 10.454 39.1311 10.6168 39.1149 10.7797C39.0582 11.4636 38.4586 11.9684 37.786 11.9114C37.2997 11.8707 36.9108 11.545 36.7406 11.1216C36.7244 11.8218 37.243 12.4162 37.9399 12.4732C38.6692 12.5383 39.3013 11.9928 39.3661 11.26C39.3905 10.9018 39.277 10.5599 39.0582 10.2993Z" fill="#AB1535"/>
<path opacity="0.75" d="M38.1999 10.4867C38.1756 10.7472 37.9487 10.9426 37.6894 10.9182C37.43 10.8938 37.2356 10.6658 37.2599 10.4053C37.2842 10.1447 37.5111 9.94932 37.7704 9.97374C38.0297 9.99003 38.2242 10.218 38.1999 10.4867Z" fill="#FFFFC4"/>
<path d="M38.296 15.7464C38.377 14.7775 37.6558 13.9226 36.6915 13.8412C35.7272 13.7598 34.8763 14.4844 34.7953 15.4533C34.7142 16.4221 35.4355 17.277 36.3998 17.3584C37.3641 17.4399 38.215 16.7152 38.296 15.7464Z" fill="#702B57"/>
<path d="M37.8756 15.3311C37.9566 14.3622 37.2435 13.5155 36.2792 13.434C35.3148 13.3526 34.4721 14.0691 34.391 15.038C34.31 16.0068 35.0231 16.8536 35.9874 16.935C36.9518 17.0164 37.7945 16.2918 37.8756 15.3311Z" fill="url(#paint11_radial)"/>
<path opacity="0.15" d="M37.1944 14.126C37.243 14.2888 37.2673 14.4679 37.2511 14.647C37.1863 15.3879 36.538 15.9334 35.8087 15.8765C35.2819 15.8357 34.8524 15.4857 34.6742 15.0134C34.658 15.7706 35.2171 16.422 35.9788 16.4871C36.7649 16.5522 37.4618 15.966 37.5266 15.1763C37.559 14.7773 37.4294 14.4028 37.1944 14.126Z" fill="#AB1535"/>
<path opacity="0.75" d="M36.1257 14.4515C36.1013 14.7121 35.8744 14.9075 35.6151 14.883C35.3558 14.8586 35.1613 14.6306 35.1856 14.3701C35.21 14.1096 35.4369 13.9142 35.6962 13.9386C35.9555 13.9549 36.15 14.191 36.1257 14.4515Z" fill="#FFFFC4"/>
<path d="M36.9347 20.3138C37.0239 19.2717 36.254 18.3517 35.2168 18.2702C34.1795 18.1807 33.2638 18.9541 33.1828 19.9963C33.0937 21.0384 33.8635 21.9585 34.9007 22.0399C35.938 22.1294 36.8537 21.356 36.9347 20.3138Z" fill="#702B57"/>
<path d="M36.5299 19.874C36.619 18.84 35.8492 17.9282 34.82 17.8386C33.7909 17.749 32.8833 18.5225 32.7941 19.5565C32.705 20.5905 33.4748 21.5024 34.504 21.592C35.5331 21.6815 36.4407 20.908 36.5299 19.874Z" fill="url(#paint12_radial)"/>
<path opacity="0.15" d="M35.785 18.7832C35.8418 18.9542 35.8661 19.1414 35.8499 19.3368C35.785 20.1103 35.1043 20.6884 34.3345 20.6232C33.7835 20.5744 33.3297 20.208 33.1433 19.7195C33.119 20.5093 33.7186 21.1932 34.5128 21.2583C35.3393 21.3316 36.0687 20.7128 36.1335 19.8823C36.1659 19.4671 36.0281 19.0763 35.785 18.7832Z" fill="#AB1535"/>
<path opacity="0.75" d="M34.682 18.9051C34.6577 19.2145 34.3903 19.4343 34.0824 19.4099C33.7745 19.3855 33.5557 19.1168 33.58 18.8074C33.6043 18.498 33.8717 18.2782 34.1796 18.3026C34.4795 18.3352 34.7064 18.6039 34.682 18.9051Z" fill="#FFFFC4"/>
<path d="M33.8325 27.1931C32.7223 27.1035 31.9038 26.1184 31.993 25.0111C32.0821 23.8957 33.0626 23.0734 34.1647 23.1629C35.2749 23.2525 36.0934 24.2376 36.0042 25.3449C35.9151 26.4603 34.9427 27.2908 33.8325 27.1931Z" fill="#702B57"/>
<path d="M33.4435 26.7129C32.3414 26.6234 31.523 25.6464 31.6121 24.5391C31.7012 23.4318 32.6737 22.6095 33.7758 22.6991C34.8778 22.7886 35.6963 23.7656 35.6072 24.8729C35.5099 25.9883 34.5456 26.8106 33.4435 26.7129Z" fill="url(#paint13_radial)"/>
<path opacity="0.15" d="M34.845 23.6597C34.9017 23.8469 34.926 24.0423 34.9098 24.254C34.8369 25.0926 34.1076 25.7114 33.281 25.6381C32.6814 25.5893 32.2033 25.1903 32.0007 24.6692C31.9764 25.5241 32.6165 26.2569 33.4755 26.3302C34.3669 26.4034 35.1448 25.744 35.2259 24.8484C35.2583 24.4006 35.1124 23.9772 34.845 23.6597Z" fill="#AB1535"/>
<path opacity="0.75" d="M33.7596 23.7817C33.7272 24.1318 33.4274 24.3842 33.0789 24.3598C32.7305 24.3272 32.4793 24.026 32.5036 23.6759C32.536 23.3258 32.8358 23.0734 33.1843 23.0978C33.5327 23.1304 33.792 23.4398 33.7596 23.7817Z" fill="#FFFFC4"/>
<path d="M4.45659 12.2046C3.89745 12.2046 3.43555 11.7486 3.43555 11.1787C3.43555 10.6169 3.88934 10.1528 4.45659 10.1528C5.02384 10.1528 5.47764 10.6088 5.47764 11.1787C5.47764 11.7486 5.01574 12.2046 4.45659 12.2046Z" fill="#702B57"/>
<path d="M4.23755 11.9847C3.67841 11.9847 3.22461 11.5287 3.22461 10.9669C3.22461 10.4052 3.67841 9.94922 4.23755 9.94922C4.79669 9.94922 5.25049 10.4052 5.25049 10.9669C5.25049 11.5287 4.79669 11.9847 4.23755 11.9847Z" fill="url(#paint14_radial)"/>
<path opacity="0.15" d="M4.82154 10.3809C4.86206 10.4704 4.87827 10.5681 4.87827 10.674C4.87827 11.0973 4.53792 11.4393 4.11653 11.4393C3.8167 11.4393 3.55739 11.2602 3.42773 11.0078C3.45204 11.4393 3.8086 11.7812 4.23809 11.7812C4.69189 11.7812 5.05654 11.4149 5.05654 10.9589C5.05654 10.7391 4.9674 10.5274 4.82154 10.3809Z" fill="#AB1535"/>
<path opacity="0.75" d="M4.27856 10.4946C4.27856 10.6737 4.1327 10.8121 3.96252 10.8121C3.78424 10.8121 3.64648 10.6656 3.64648 10.4946C3.64648 10.3155 3.79235 10.1771 3.96252 10.1771C4.1327 10.1689 4.27856 10.3155 4.27856 10.4946Z" fill="#FFFFC4"/>
<path d="M4.18079 9.25738C3.56492 9.25738 3.0625 8.75259 3.0625 8.13382C3.0625 7.51504 3.56492 7.01025 4.18079 7.01025C4.79666 7.01025 5.29907 7.51504 5.29907 8.13382C5.29907 8.76073 4.79666 9.25738 4.18079 9.25738Z" fill="#702B57"/>
<path d="M3.93831 9.01307C3.32244 9.01307 2.82812 8.51642 2.82812 7.89765C2.82812 7.27887 3.32244 6.78223 3.93831 6.78223C4.55418 6.78223 5.04849 7.27887 5.04849 7.89765C5.04849 8.51642 4.55418 9.01307 3.93831 9.01307Z" fill="url(#paint15_radial)"/>
<path opacity="0.15" d="M4.57815 7.2627C4.61867 7.3604 4.64298 7.47438 4.64298 7.58837C4.64298 8.05245 4.27022 8.42697 3.80832 8.42697C3.47607 8.42697 3.19245 8.23157 3.05469 7.9466C3.079 8.41883 3.46797 8.79335 3.94608 8.79335C4.44039 8.79335 4.84557 8.3944 4.84557 7.88961C4.83746 7.6535 4.74022 7.42553 4.57815 7.2627Z" fill="#AB1535"/>
<path opacity="0.75" d="M3.98792 7.38476C3.98792 7.58017 3.83395 7.73486 3.63947 7.73486C3.44498 7.73486 3.29102 7.57202 3.29102 7.38476C3.29102 7.18936 3.44498 7.03467 3.63947 7.03467C3.83395 7.03467 3.98792 7.18936 3.98792 7.38476Z" fill="#FFFFC4"/>
<path d="M63.3687 11.5693C63.4578 10.8854 62.9797 10.2585 62.299 10.1689C61.6183 10.0794 60.9944 10.5597 60.9052 11.2437C60.8161 11.9276 61.2942 12.5545 61.9749 12.644C62.6556 12.7336 63.2796 12.2532 63.3687 11.5693Z" fill="#702B57"/>
<path d="M63.0208 11.2438C63.1099 10.5599 62.6318 9.94112 61.9511 9.85156C61.2704 9.762 60.6545 10.2424 60.5654 10.9263C60.4762 11.6102 60.9543 12.229 61.635 12.3185C62.3076 12.3999 62.9316 11.9277 63.0208 11.2438Z" fill="url(#paint16_radial)"/>
<path opacity="0.15" d="M62.6075 10.3887C62.6399 10.5108 62.648 10.6411 62.6318 10.7795C62.5588 11.325 62.0645 11.6995 61.5297 11.6344C61.1407 11.5855 60.8409 11.3087 60.7275 10.9586C60.6869 11.5122 61.084 12.0089 61.635 12.0822C62.2104 12.1554 62.7452 11.7483 62.8182 11.1703C62.8587 10.8853 62.7695 10.6085 62.6075 10.3887Z" fill="#AB1535"/>
<path opacity="0.75" d="M61.9759 10.5761C61.9516 10.7959 61.749 10.9425 61.5383 10.9181C61.3195 10.8936 61.1736 10.6901 61.198 10.4784C61.2223 10.2586 61.4249 10.112 61.6355 10.1364C61.8543 10.1609 62.0083 10.3563 61.9759 10.5761Z" fill="#FFFFC4"/>
<path d="M61.3932 14.5006C61.4905 13.7597 60.9718 13.0758 60.2263 12.9781C59.4889 12.8804 58.8082 13.4014 58.7109 14.1505C58.6137 14.8914 59.1323 15.5753 59.8778 15.673C60.6153 15.7707 61.296 15.2415 61.3932 14.5006Z" fill="#702B57"/>
<path d="M61.0606 14.1585C61.1578 13.4176 60.6392 12.7418 59.9018 12.6441C59.1644 12.5464 58.4918 13.0675 58.3945 13.8084C58.2973 14.5493 58.8159 15.225 59.5533 15.3227C60.2827 15.4204 60.9634 14.8994 61.0606 14.1585Z" fill="url(#paint17_radial)"/>
<path opacity="0.15" d="M60.5986 13.3442C60.631 13.4745 60.6472 13.6048 60.6229 13.7432C60.55 14.305 60.0395 14.7039 59.4722 14.6306C59.067 14.5736 58.7591 14.2968 58.6376 13.9304C58.597 14.5085 59.0022 15.0214 59.5776 15.1029C60.1772 15.1843 60.7283 14.7609 60.8012 14.1584C60.8579 13.8572 60.7688 13.5722 60.5986 13.3442Z" fill="#AB1535"/>
<path opacity="0.75" d="M59.886 13.4662C59.8617 13.6861 59.6591 13.8326 59.4485 13.8082C59.2297 13.7838 59.0838 13.5802 59.1081 13.3685C59.1324 13.1487 59.335 13.0022 59.5457 13.0266C59.7564 13.051 59.9104 13.2464 59.886 13.4662Z" fill="#FFFFC4"/>
<path d="M59.7553 17.8303C59.8607 17.0243 59.3015 16.2915 58.4993 16.1857C57.697 16.0798 56.9677 16.6416 56.8624 17.4476C56.757 18.2537 57.3162 18.9864 58.1184 19.0923C58.9206 19.1981 59.65 18.6363 59.7553 17.8303Z" fill="#702B57"/>
<path d="M59.4227 17.4721C59.5281 16.6742 58.9689 15.9414 58.1748 15.8356C57.3806 15.7297 56.6513 16.2915 56.546 17.0894C56.4406 17.8873 56.9997 18.62 57.7939 18.7259C58.5961 18.8317 59.3255 18.2699 59.4227 17.4721Z" fill="url(#paint18_radial)"/>
<path opacity="0.15" d="M58.9041 16.4463C58.9446 16.5847 58.9527 16.7313 58.9365 16.8859C58.8555 17.4966 58.2963 17.9281 57.6886 17.8467C57.251 17.7897 56.9106 17.4803 56.781 17.0895C56.7323 17.7164 57.178 18.2782 57.8101 18.3596C58.4584 18.4492 59.0581 17.9851 59.1472 17.3337C59.1796 16.9999 59.0905 16.6905 58.9041 16.4463Z" fill="#AB1535"/>
<path opacity="0.75" d="M58.0052 16.6742C57.9809 16.8941 57.7783 17.0406 57.5676 17.0162C57.3488 16.9918 57.2029 16.7882 57.2273 16.5765C57.2516 16.3567 57.4541 16.2102 57.6648 16.2346C57.8836 16.259 58.0376 16.4544 58.0052 16.6742Z" fill="#FFFFC4"/>
<path d="M58.4493 21.5676C58.5628 20.7045 57.955 19.9148 57.1041 19.8008C56.2452 19.6868 55.4591 20.2974 55.3457 21.1523C55.2322 22.0154 55.84 22.8051 56.6908 22.9191C57.5498 23.0331 58.3359 22.4306 58.4493 21.5676Z" fill="#702B57"/>
<path d="M58.1341 21.1847C58.2476 20.3298 57.6479 19.5401 56.797 19.4343C55.9462 19.3203 55.1601 19.9228 55.0548 20.7776C54.9413 21.6325 55.541 22.4223 56.3919 22.5281C57.2346 22.6421 58.0207 22.0396 58.1341 21.1847Z" fill="url(#paint19_radial)"/>
<path opacity="0.15" d="M57.55 20.2485C57.5906 20.3951 57.5987 20.5498 57.5825 20.7045C57.5014 21.3477 56.9099 21.7955 56.2778 21.714C55.824 21.6571 55.4674 21.3314 55.3297 20.9162C55.2811 21.5756 55.743 22.1618 56.4074 22.2514C57.0881 22.341 57.7121 21.8606 57.8094 21.1767C57.8418 20.8347 57.7445 20.5091 57.55 20.2485Z" fill="#AB1535"/>
<path opacity="0.75" d="M56.6344 20.3135C56.6019 20.5659 56.3669 20.745 56.1157 20.7124C55.8645 20.6799 55.6862 20.4437 55.7186 20.1913C55.7511 19.9389 55.9861 19.7598 56.2373 19.7924C56.4966 19.825 56.6668 20.0611 56.6344 20.3135Z" fill="#FFFFC4"/>
<path d="M55.6156 27.1526C54.6999 27.0305 54.0597 26.1919 54.1732 25.2719C54.2947 24.3519 55.1294 23.7087 56.0451 23.8227C56.9608 23.9448 57.601 24.7834 57.4875 25.7034C57.366 26.6234 56.5313 27.2666 55.6156 27.1526Z" fill="#702B57"/>
<path d="M55.3067 26.7374C54.3991 26.6153 53.7589 25.7767 53.8724 24.8648C53.994 23.9529 54.8286 23.3097 55.7362 23.4237C56.6438 23.5459 57.284 24.3845 57.1705 25.2963C57.049 26.2082 56.2143 26.8514 55.3067 26.7374Z" fill="url(#paint20_radial)"/>
<path opacity="0.15" d="M56.5875 24.2544C56.628 24.4091 56.6442 24.5801 56.6199 24.751C56.5308 25.4431 55.8987 25.9235 55.2099 25.8339C54.7156 25.7688 54.3347 25.4268 54.1888 24.979C54.1402 25.6873 54.6345 26.3224 55.3476 26.412C56.0851 26.5097 56.7577 25.9886 56.8549 25.2477C56.9035 24.8895 56.7982 24.5312 56.5875 24.2544Z" fill="#AB1535"/>
<path opacity="0.75" d="M55.6867 24.3194C55.6461 24.6044 55.3868 24.8079 55.1032 24.7672C54.8196 24.7265 54.617 24.466 54.6575 24.181C54.698 23.896 54.9573 23.6925 55.241 23.7332C55.5165 23.7739 55.7191 24.0345 55.6867 24.3194Z" fill="#FFFFC4"/>
<path d="M50.405 11.0563C49.8459 11.0318 49.4083 10.5515 49.4326 9.9897C49.4569 9.42792 49.935 8.98826 50.4942 9.01269C51.0533 9.03711 51.4909 9.51748 51.4666 10.0793C51.4423 10.641 50.9642 11.0807 50.405 11.0563Z" fill="#702B57"/>
<path d="M50.1938 10.8203C49.6347 10.7959 49.2052 10.3236 49.2295 9.76185C49.2538 9.20007 49.7238 8.76855 50.283 8.79298C50.8421 8.81741 51.2716 9.28963 51.2473 9.85141C51.223 10.405 50.753 10.8447 50.1938 10.8203Z" fill="url(#paint21_radial)"/>
<path opacity="0.15" d="M50.8417 9.24902C50.8741 9.33858 50.8903 9.44443 50.8903 9.55027C50.8741 9.97364 50.5175 10.2993 50.0961 10.283C49.7963 10.2667 49.5451 10.0795 49.4316 9.81895C49.4397 10.2505 49.772 10.6087 50.2096 10.625C50.6634 10.6413 51.0442 10.2912 51.0605 9.83523C51.0605 9.6154 50.9794 9.40372 50.8417 9.24902Z" fill="#AB1535"/>
<path opacity="0.75" d="M50.2906 9.33027C50.2825 9.50939 50.1367 9.63965 49.9584 9.63151C49.7801 9.62337 49.6505 9.47682 49.6586 9.2977C49.6667 9.11858 49.8125 8.98831 49.9908 8.99646C50.1691 9.0046 50.2988 9.15929 50.2906 9.33027Z" fill="#FFFFC4"/>
<path d="M50.2506 8.1012C49.6347 8.07678 49.1566 7.54756 49.1891 6.93693C49.2134 6.31816 49.7401 5.83779 50.3479 5.86222C50.9637 5.88665 51.4418 6.41586 51.4094 7.02649C51.3851 7.64527 50.8665 8.12563 50.2506 8.1012Z" fill="#702B57"/>
<path d="M50.0234 7.84062C49.4075 7.8162 48.9375 7.29512 48.9618 6.67635C48.9862 6.06572 49.5048 5.58535 50.1206 5.60978C50.7284 5.6342 51.2065 6.15528 51.1822 6.77405C51.1498 7.39282 50.6393 7.86505 50.0234 7.84062Z" fill="url(#paint22_radial)"/>
<path opacity="0.15" d="M50.7277 6.12256C50.7683 6.22026 50.7845 6.33424 50.7764 6.44823C50.7602 6.91231 50.3631 7.27055 49.9012 7.25426C49.5689 7.23798 49.2934 7.03444 49.1719 6.74947C49.18 7.2217 49.5446 7.6125 50.0227 7.63693C50.5171 7.66135 50.9384 7.27055 50.9546 6.7739C50.979 6.5215 50.8898 6.29354 50.7277 6.12256Z" fill="#AB1535"/>
<path opacity="0.75" d="M50.1367 6.21241C50.1286 6.40781 49.9665 6.55436 49.772 6.54622C49.5856 6.53808 49.4317 6.37524 49.4398 6.17984C49.4479 5.98444 49.6099 5.83788 49.8044 5.84603C49.9989 5.86231 50.1448 6.02515 50.1367 6.21241Z" fill="#FFFFC4"/>
<path d="M26.9284 9.17593C26.2558 9.17593 25.7129 8.63043 25.7129 7.95466C25.7129 7.2789 26.2558 6.7334 26.9284 6.7334C27.601 6.7334 28.1439 7.2789 28.1439 7.95466C28.1521 8.63043 27.601 9.17593 26.9284 9.17593Z" fill="#702B57"/>
<path d="M26.6684 8.9072C26.0039 8.9072 25.4609 8.3617 25.4609 7.69408C25.4609 7.02646 26.0039 6.48096 26.6684 6.48096C27.3329 6.48096 27.8758 7.02646 27.8758 7.69408C27.8839 8.3617 27.341 8.9072 26.6684 8.9072Z" fill="url(#paint23_radial)"/>
<path opacity="0.15" d="M27.3644 7.00195C27.413 7.1078 27.4373 7.22992 27.4373 7.35205C27.4373 7.85684 27.0321 8.27207 26.5216 8.27207C26.1569 8.27207 25.849 8.06038 25.7031 7.751C25.7355 8.26393 26.1569 8.67916 26.6755 8.67916C27.2185 8.67916 27.6561 8.2395 27.6561 7.694C27.648 7.42532 27.5345 7.17293 27.3644 7.00195Z" fill="#AB1535"/>
<path opacity="0.75" d="M26.7168 7.13217C26.7168 7.34386 26.5466 7.51484 26.3359 7.51484C26.1253 7.51484 25.9551 7.34386 25.9551 7.13217C25.9551 6.92049 26.1253 6.74951 26.3359 6.74951C26.5466 6.74951 26.7168 6.92049 26.7168 7.13217Z" fill="#FFFFC4"/>
<path d="M26.7731 5.79677C26.06 5.79677 25.4766 5.21056 25.4766 4.49409C25.4766 3.77761 26.06 3.19141 26.7731 3.19141C27.4862 3.19141 28.0697 3.77761 28.0697 4.49409C28.0697 5.21056 27.4862 5.79677 26.7731 5.79677Z" fill="#702B57"/>
<path d="M26.4896 5.50363C25.7765 5.50363 25.2012 4.92557 25.2012 4.20909C25.2012 3.49262 25.7765 2.91455 26.4896 2.91455C27.2027 2.91455 27.7781 3.49262 27.7781 4.20909C27.7862 4.92557 27.2027 5.50363 26.4896 5.50363Z" fill="url(#paint24_radial)"/>
<path opacity="0.15" d="M27.2278 3.46826C27.2764 3.58225 27.3007 3.71251 27.3007 3.84278C27.3007 4.38014 26.8631 4.81979 26.3283 4.81979C25.9393 4.81979 25.6152 4.59182 25.4531 4.26615C25.4855 4.81165 25.9312 5.25131 26.4904 5.25131C27.0657 5.25131 27.5357 4.77909 27.5357 4.20102C27.5357 3.9242 27.4223 3.66366 27.2278 3.46826Z" fill="#AB1535"/>
<path opacity="0.75" d="M26.5389 3.60679C26.5389 3.83476 26.3606 4.01388 26.1337 4.01388C25.9068 4.01388 25.7285 3.83476 25.7285 3.60679C25.7285 3.37883 25.9068 3.19971 26.1337 3.19971C26.3606 3.20785 26.5389 3.38697 26.5389 3.60679Z" fill="#FFFFC4"/>
<path d="M1.88002 14.5166C1.56398 12.8394 1.22363 11.1622 0.923802 9.48501L0.0324141 4.43712L0 4.24986L0.194485 4.23358C3.55745 4.05446 6.92041 3.90791 10.2834 3.77764L15.3319 3.60666C17.0174 3.54967 18.6948 3.53338 20.3804 3.49268C18.6948 3.60666 17.0174 3.74507 15.3319 3.83463L10.2915 4.11959C6.92852 4.29871 3.56555 4.44526 0.202588 4.57553L0.364659 4.38013L1.1507 9.44431C1.41812 11.1297 1.63691 12.8231 1.88002 14.5166Z" fill="#FAEFC1"/>
<path d="M6.78342 30.0836C6.75101 28.1214 6.84825 26.1511 7.07515 24.1971C7.30205 22.2431 7.66671 20.3053 8.14481 18.392C8.65534 16.495 9.28741 14.6142 10.1302 12.8312C10.9729 11.0563 12.0345 9.35464 13.4202 7.9624C12.148 9.45235 11.1917 11.1784 10.4057 12.9533C9.61966 14.7363 9.00379 16.5927 8.51758 18.4897C8.00705 20.3786 7.6505 22.3 7.36688 24.2378C7.09136 26.1755 6.89687 28.1214 6.78342 30.0836Z" fill="#FAEFC1"/>
<path d="M47.3481 13.3279C47.2346 11.6262 47.0888 9.92461 46.9915 8.21484L46.6917 3.10181L46.6836 2.91455L46.8781 2.93083C50.2329 3.15066 53.5959 3.40306 56.9508 3.67173L61.9831 4.10325C63.6605 4.24166 65.3298 4.42892 67.0073 4.58361C65.3298 4.49405 63.6443 4.42892 61.9669 4.32308L56.9265 4.00555C53.5716 3.78572 50.2086 3.53333 46.8538 3.26465L47.032 3.08553L47.2184 8.2067C47.2833 9.90833 47.2995 11.6181 47.3481 13.3279Z" fill="#FAEFC1"/>
<path d="M50.3887 29.3672C50.5913 27.4131 50.9154 25.4672 51.3692 23.5539C51.823 21.6406 52.4146 19.7599 53.1115 17.9198C53.8489 16.0961 54.6835 14.3049 55.737 12.6358C56.7824 10.9749 58.0384 9.41169 59.57 8.19043C58.1275 9.51754 56.9849 11.1215 55.9882 12.7905C54.9996 14.4677 54.1649 16.2426 53.468 18.0664C52.7387 19.882 52.1633 21.7465 51.6528 23.6354C51.1504 25.5242 50.729 27.4376 50.3887 29.3672Z" fill="#FAEFC1"/>
<path d="M23.7999 11.7974C23.5567 9.86782 23.2893 7.93008 23.0624 6.00048L22.3817 0.195402L22.3574 0H22.5519C26.393 0.0244253 30.2341 0.0732759 34.0751 0.154693L39.8367 0.284962C41.7573 0.325671 43.6778 0.41523 45.5983 0.472222C43.6778 0.480364 41.7573 0.521073 39.8367 0.512931L34.0751 0.496648C30.2341 0.472222 26.393 0.423372 22.5519 0.341954L22.7221 0.154693L23.2893 5.97605C23.4757 7.91379 23.6297 9.85153 23.7999 11.7974Z" fill="#FAEFC1"/>
<path d="M28.3633 29.8639C28.4686 27.6249 28.7117 25.3941 29.1007 23.1795C29.4897 20.965 30.0326 18.783 30.7052 16.6417C31.4102 14.5086 32.253 12.4161 33.3307 10.4377C34.4085 8.46737 35.7213 6.60291 37.3744 5.09668C35.8185 6.70061 34.6111 8.60578 33.5901 10.5761C32.5771 12.5545 31.7425 14.6307 31.0699 16.7557C30.373 18.8725 29.83 21.0383 29.3843 23.2284C28.9467 25.4267 28.6064 27.6331 28.3633 29.8639Z" fill="#FAEFC1"/>
</g>
<defs>
<radialGradient id="paint0_radial" cx="0" cy="0" r="1" gradientUnits="userSpaceOnUse" gradientTransform="translate(0.107396 -1.39884) rotate(-3.33498) scale(32.8509 33.0048)">
<stop stop-color="#FAF1D5"/>
<stop offset="0.0265" stop-color="#FBECB7"/>
<stop offset="0.0746" stop-color="#FCE387"/>
<stop offset="0.1241" stop-color="#FDDC5D"/>
<stop offset="0.1742" stop-color="#FED63C"/>
<stop offset="0.2251" stop-color="#FED221"/>
<stop offset="0.2772" stop-color="#FFCF0F"/>
<stop offset="0.3312" stop-color="#FFCD04"/>
<stop offset="0.39" stop-color="#FFCC00"/>
<stop offset="0.6283" stop-color="#F8B208"/>
<stop offset="1" stop-color="#EB8117"/>
</radialGradient>
<radialGradient id="paint1_radial" cx="0" cy="0" r="1" gradientUnits="userSpaceOnUse" gradientTransform="translate(47.4514 -2.68522) rotate(3.46749) scale(32.8511 33.005)">
<stop stop-color="#FAF1D5"/>
<stop offset="0.0265" stop-color="#FBECB7"/>
<stop offset="0.0746" stop-color="#FCE387"/>
<stop offset="0.1241" stop-color="#FDDC5D"/>
<stop offset="0.1742" stop-color="#FED63C"/>
<stop offset="0.2251" stop-color="#FED221"/>
<stop offset="0.2772" stop-color="#FFCF0F"/>
<stop offset="0.3312" stop-color="#FFCD04"/>
<stop offset="0.39" stop-color="#FFCC00"/>
<stop offset="0.6283" stop-color="#F8B208"/>
<stop offset="1" stop-color="#EB8117"/>
</radialGradient>
<radialGradient id="paint2_radial" cx="0" cy="0" r="1" gradientUnits="userSpaceOnUse" gradientTransform="translate(22.8243 -6.44901) scale(37.4881 37.6649)">
<stop stop-color="#FAF1D5"/>
<stop offset="0.0265" stop-color="#FBECB7"/>
<stop offset="0.0746" stop-color="#FCE387"/>
<stop offset="0.1241" stop-color="#FDDC5D"/>
<stop offset="0.1742" stop-color="#FED63C"/>
<stop offset="0.2251" stop-color="#FED221"/>
<stop offset="0.2772" stop-color="#FFCF0F"/>
<stop offset="0.3312" stop-color="#FFCD04"/>
<stop offset="0.39" stop-color="#FFCC00"/>
<stop offset="0.6283" stop-color="#F8B208"/>
<stop offset="1" stop-color="#EB8117"/>
</radialGradient>
<linearGradient id="paint3_linear" x1="33.5244" y1="32.881" x2="33.8246" y2="-3.2759" gradientUnits="userSpaceOnUse">
<stop stop-color="#EB3A67"/>
<stop offset="0.4259" stop-color="#D82D6E"/>
<stop offset="1" stop-color="#B7177A"/>
</linearGradient>
<radialGradient id="paint4_radial" cx="0" cy="0" r="1" gradientUnits="userSpaceOnUse" gradientTransform="translate(15.2772 10.2161) scale(1.23838 1.24422)">
<stop stop-color="#FFFFE0"/>
<stop offset="1" stop-color="#FFCB87"/>
</radialGradient>
<radialGradient id="paint5_radial" cx="0" cy="0" r="1" gradientUnits="userSpaceOnUse" gradientTransform="translate(13.6025 13.2396) scale(1.34429 1.35064)">
<stop stop-color="#FFFFE0"/>
<stop offset="1" stop-color="#FFCB87"/>
</radialGradient>
<radialGradient id="paint6_radial" cx="0" cy="0" r="1" gradientUnits="userSpaceOnUse" gradientTransform="translate(12.2633 16.8126) scale(1.45013 1.45697)">
<stop stop-color="#FFFFE0"/>
<stop offset="1" stop-color="#FFCB87"/>
</radialGradient>
<radialGradient id="paint7_radial" cx="0" cy="0" r="1" gradientUnits="userSpaceOnUse" gradientTransform="translate(11.4032 20.7381) scale(1.55604 1.56338)">
<stop stop-color="#FFFFE0"/>
<stop offset="1" stop-color="#FFCB87"/>
</radialGradient>
<radialGradient id="paint8_radial" cx="0" cy="0" r="1" gradientUnits="userSpaceOnUse" gradientTransform="translate(10.8493 24.554) scale(1.40515 1.41178)">
<stop stop-color="#FFFFE0"/>
<stop offset="1" stop-color="#FFCB87"/>
</radialGradient>
<radialGradient id="paint9_radial" cx="0" cy="0" r="1" gradientUnits="userSpaceOnUse" gradientTransform="translate(40.0795 7.00111) rotate(4.81803) scale(1.49216 1.49909)">
<stop stop-color="#FFFFE0"/>
<stop offset="1" stop-color="#FFCB87"/>
</radialGradient>
<radialGradient id="paint10_radial" cx="0" cy="0" r="1" gradientUnits="userSpaceOnUse" gradientTransform="translate(37.7663 10.4613) rotate(4.81804) scale(1.61979 1.62732)">
<stop stop-color="#FFFFE0"/>
<stop offset="1" stop-color="#FFCB87"/>
</radialGradient>
<radialGradient id="paint11_radial" cx="0" cy="0" r="1" gradientUnits="userSpaceOnUse" gradientTransform="translate(35.7983 14.6161) rotate(4.81804) scale(1.74734 1.75547)">
<stop stop-color="#FFFFE0"/>
<stop offset="1" stop-color="#FFCB87"/>
</radialGradient>
<radialGradient id="paint12_radial" cx="0" cy="0" r="1" gradientUnits="userSpaceOnUse" gradientTransform="translate(34.3724 19.2423) rotate(4.81804) scale(1.87506 1.88378)">
<stop stop-color="#FFFFE0"/>
<stop offset="1" stop-color="#FFCB87"/>
</radialGradient>
<radialGradient id="paint13_radial" cx="0" cy="0" r="1" gradientUnits="userSpaceOnUse" gradientTransform="translate(33.3267 23.7681) rotate(4.81803) scale(1.69313 1.701)">
<stop stop-color="#FFFFE0"/>
<stop offset="1" stop-color="#FFCB87"/>
</radialGradient>
<radialGradient id="paint14_radial" cx="0" cy="0" r="1" gradientUnits="userSpaceOnUse" gradientTransform="translate(4.05741 10.5012) scale(0.856462 0.860503)">
<stop stop-color="#FFFFE0"/>
<stop offset="1" stop-color="#FFCB87"/>
</radialGradient>
<radialGradient id="paint15_radial" cx="0" cy="0" r="1" gradientUnits="userSpaceOnUse" gradientTransform="translate(3.74342 7.3931) scale(0.937497 0.941921)">
<stop stop-color="#FFFFE0"/>
<stop offset="1" stop-color="#FFCB87"/>
</radialGradient>
<radialGradient id="paint16_radial" cx="0" cy="0" r="1" gradientUnits="userSpaceOnUse" gradientTransform="translate(61.5742 10.653) rotate(7.52735) scale(1.23845 1.24409)">
<stop stop-color="#FFFFE0"/>
<stop offset="1" stop-color="#FFCB87"/>
</radialGradient>
<radialGradient id="paint17_radial" cx="0" cy="0" r="1" gradientUnits="userSpaceOnUse" gradientTransform="translate(59.523 13.4309) rotate(7.52737) scale(1.34437 1.3505)">
<stop stop-color="#FFFFE0"/>
<stop offset="1" stop-color="#FFCB87"/>
</radialGradient>
<radialGradient id="paint18_radial" cx="0" cy="0" r="1" gradientUnits="userSpaceOnUse" gradientTransform="translate(57.7294 16.7978) rotate(7.52735) scale(1.4503 1.45691)">
<stop stop-color="#FFFFE0"/>
<stop offset="1" stop-color="#FFCB87"/>
</radialGradient>
<radialGradient id="paint19_radial" cx="0" cy="0" r="1" gradientUnits="userSpaceOnUse" gradientTransform="translate(56.3677 20.5772) rotate(7.52737) scale(1.55622 1.56331)">
<stop stop-color="#FFFFE0"/>
<stop offset="1" stop-color="#FFCB87"/>
</radialGradient>
<radialGradient id="paint20_radial" cx="0" cy="0" r="1" gradientUnits="userSpaceOnUse" gradientTransform="translate(55.3247 24.2881) rotate(7.52735) scale(1.40524 1.41164)">
<stop stop-color="#FFFFE0"/>
<stop offset="1" stop-color="#FFCB87"/>
</radialGradient>
<radialGradient id="paint21_radial" cx="0" cy="0" r="1" gradientUnits="userSpaceOnUse" gradientTransform="translate(50.0751 9.33326) rotate(2.49902) scale(0.856428 0.86045)">
<stop stop-color="#FFFFE0"/>
<stop offset="1" stop-color="#FFCB87"/>
</radialGradient>
<radialGradient id="paint22_radial" cx="0" cy="0" r="1" gradientUnits="userSpaceOnUse" gradientTransform="translate(49.8948 6.21437) rotate(2.49903) scale(0.937547 0.941952)">
<stop stop-color="#FFFFE0"/>
<stop offset="1" stop-color="#FFCB87"/>
</radialGradient>
<radialGradient id="paint23_radial" cx="0" cy="0" r="1" gradientUnits="userSpaceOnUse" gradientTransform="translate(26.4541 7.14077) scale(1.02283 1.02765)">
<stop stop-color="#FFFFE0"/>
<stop offset="1" stop-color="#FFCB87"/>
</radialGradient>
<radialGradient id="paint24_radial" cx="0" cy="0" r="1" gradientUnits="userSpaceOnUse" gradientTransform="translate(26.2624 3.62313) scale(1.09025 1.09539)">
<stop stop-color="#FFFFE0"/>
<stop offset="1" stop-color="#FFCB87"/>
</radialGradient>
<clipPath id="clip0">
<rect width="67" height="34" fill="white"/>
</clipPath>
</defs>
</svg>
