<svg width="40" height="40" viewBox="0 0 40 40" fill="none" xmlns="http://www.w3.org/2000/svg">
<path d="M20 40C31.0457 40 40 31.0457 40 20C40 8.9543 31.0457 0 20 0C8.9543 0 0 8.9543 0 20C0 31.0457 8.9543 40 20 40Z" fill="url(#paint0_radial)"/>
<path d="M39.6433 22.0357C39.4907 19.0332 39.2362 16.6413 38.4728 14.3003C38.6255 13.8932 38.6764 13.6897 38.8291 13.2825C38.8291 13.2825 38.6764 12.8754 38.6764 12.8245L38.2184 14.0968L33.8927 11.0434C32.5186 8.0917 31.1955 6.20875 28.4983 4.32579C28.6001 3.56244 28.6001 2.74819 28.3965 1.83216C28.0912 1.73037 28.2947 1.78127 28.0403 1.67948C28.2438 2.54462 28.3456 3.35887 28.2438 4.22401C25.1904 4.37668 22.9512 4.47847 20.4067 5.64895C18.1675 4.32579 16.2337 3.86778 13.74 3.61333C13.74 2.6464 13.8927 1.73037 14.1471 0.865234C13.9436 0.916125 13.7909 0.967016 13.7909 0.967016C13.5873 1.88305 13.4347 2.74819 13.4347 3.61333C10.1268 4.8347 8.24384 6.51409 6.20821 9.00773C5.1904 8.80417 4.42704 8.80417 3.35834 8.85506L3.15478 9.1604C4.32526 9.10951 5.03773 9.10951 6.10643 9.31307C5.64842 12.0612 5.64842 13.7406 6.10643 16.3869C4.73239 18.0154 3.51101 21.2215 2.90033 23.3589C2.03519 23.3589 1.11916 23.2571 0.203125 23.1044L0.304906 23.4098C1.17005 23.5624 2.03519 23.6642 2.90033 23.6133C3.71458 26.4123 6.00465 28.9059 8.24384 30.738C8.24384 32.9772 8.65096 34.6057 9.46521 35.7762C8.95631 35.7762 8.4474 35.8271 7.98938 35.9288C8.04028 35.9797 8.29473 36.1324 8.34562 36.1833C8.80363 36.1324 9.21076 36.1324 9.66877 36.1324C12.2642 38.0663 14.4016 38.6769 17.7095 39.4912C17.7604 39.6439 17.8113 40.0001 17.8113 39.8474C17.8622 39.8474 18.0657 39.8983 18.1166 39.8983C18.0657 39.6948 18.0657 39.6439 18.0148 39.4912C20.3049 38.9314 21.8316 38.3207 23.8164 37.0993C26.9207 36.6413 28.7527 36.336 31.8062 35.3691L32.2133 35.8271L32.4678 35.6235L32.0606 35.2164C33.7909 32.6719 34.7069 31.1451 35.8265 28.2444C37.5568 26.3105 38.4728 24.682 39.6433 22.3411L39.8469 22.392L39.8978 22.0866C39.796 22.0866 39.8469 22.0866 39.6433 22.0357ZM28.2947 4.52936C30.9919 6.36142 32.2133 8.19348 33.6382 11.0942L29.1599 16.6922C26.9716 15.3691 23.4601 13.7914 20.9156 13.4861C21.0174 11.1451 20.9156 9.05862 20.5594 5.95429C23.1548 4.73292 25.4449 4.68203 28.2947 4.52936ZM30.2795 25.14C28.1929 27.023 25.4957 29.2113 23.0021 30.5344C19.9996 30.0255 17.5568 28.8551 15.4194 27.2266C14.9614 24.5294 14.6561 21.2215 14.2998 18.5752C16.6408 16.8958 18.1675 15.7253 20.8138 13.7406C23.3583 14.0459 26.8698 15.6744 29.0581 16.9467C30.025 19.6439 30.2795 22.2902 30.2795 25.14ZM6.2591 9.21129C8.4474 6.51409 10.3304 4.93648 13.5873 3.766C16.1828 4.02045 18.1166 4.52936 20.4067 5.85251C20.712 8.54971 20.8647 10.8398 20.7629 13.5879C18.4728 15.2673 16.5899 16.7431 14.1471 18.5243C10.941 17.9645 9.10898 17.6591 6.2591 16.4378C5.80109 13.6897 5.80109 12.0103 6.2591 9.21129ZM3.20567 23.4607C3.96903 20.7635 5.24129 17.9136 6.36089 16.5904C9.10898 17.7609 10.941 18.0663 14.0454 18.626C14.3507 21.2215 14.7069 24.5294 15.165 27.2266C13.5873 28.6006 11.2464 29.7202 8.4474 30.5344C6.20821 28.7024 3.91814 26.2596 3.20567 23.4607ZM23.7146 36.8449C21.7807 37.9645 20.3049 38.6261 17.8622 39.2367C14.5543 38.3716 12.4169 37.7609 9.87234 35.878C8.75274 34.4021 8.54918 32.4683 8.54918 30.6362C11.1446 29.9238 13.5365 28.8042 15.2158 27.3792C17.5059 29.2113 20.1013 30.3309 23.053 30.8398C23.2057 32.3156 23.7146 33.9441 23.7146 36.8449C23.6637 36.8449 23.8164 36.794 23.7146 36.8449ZM31.7553 35.0637C28.7527 36.0306 26.9716 36.3869 23.9181 36.794C23.8672 33.8932 23.3583 32.2647 23.2057 30.7889C25.6993 29.4657 28.3965 27.2774 30.483 25.3945C32.0097 26.5141 33.5873 27.3283 35.5212 28.2444C34.4016 31.0434 33.4856 32.5701 31.7553 35.0637ZM35.7756 28.0408C35.623 27.939 35.7248 28.0408 35.623 27.939C35.5721 28.0408 35.623 27.939 35.5212 28.0408C33.6891 27.1757 32.0606 26.3614 30.4321 25.14C30.5339 22.5446 30.0759 19.2367 29.2108 16.8958C29.6179 16.3869 33.282 11.8576 33.8418 11.1451C34.0454 11.2978 38.1166 14.1477 38.3711 14.3512C39.1853 16.8958 39.4398 19.4912 39.5924 22.1884C38.2693 24.6311 37.4041 26.2087 35.7756 28.0408Z" fill="#E3E3E3"/>
<path d="M15.1647 27.3794C13.4853 28.8043 11.0935 29.9239 8.49805 30.6364C8.49805 32.4176 8.70161 34.4023 9.8212 35.8272C12.3657 37.7611 14.554 38.3718 17.811 39.186C20.2029 38.6262 21.7296 37.9646 23.6634 36.7942C23.7652 36.7942 23.6125 36.7942 23.7143 36.7942C23.7143 33.9443 23.2054 32.3158 23.0528 30.84C20.0502 30.331 17.5057 29.2623 15.1647 27.3794Z" fill="#292929"/>
<path d="M38.3205 14.3003C38.1169 14.1477 33.9948 11.2469 33.7912 11.0942C33.3332 11.654 29.72 16.1833 29.1602 16.8449C30.0762 19.2876 30.5342 22.5955 30.4324 25.1909C32.0609 26.4123 33.6894 27.2266 35.5215 28.0917C35.6233 27.9899 35.5215 28.0917 35.6233 27.9899C35.725 28.0408 35.6233 27.9899 35.7759 28.0408C37.4044 26.2087 38.3205 24.6311 39.5418 22.1884C39.3383 19.3894 39.1347 16.8449 38.3205 14.3003Z" fill="#292929"/>
<path d="M14.1476 18.5245C16.5903 16.7433 18.4733 15.2675 20.7633 13.5881C20.8651 10.84 20.7125 8.60083 20.4071 5.85274C18.117 4.47869 16.1832 4.02068 13.5878 3.71533C10.3817 4.88582 8.49871 6.51431 6.25953 9.21151C5.80151 12.0105 5.80151 13.6899 6.25953 16.438C9.1094 17.6594 10.9415 17.9647 14.1476 18.5245Z" fill="#292929"/>
<defs>
<radialGradient id="paint0_radial" cx="0" cy="0" r="1" gradientUnits="userSpaceOnUse" gradientTransform="translate(11.913 10.2025) scale(30.9155)">
<stop stop-color="#FFFCFC"/>
<stop offset="0.2396" stop-color="#FCF9F9"/>
<stop offset="0.4256" stop-color="#F2EFEF"/>
<stop offset="0.5936" stop-color="#E2DFDF"/>
<stop offset="0.7509" stop-color="#CAC9C9"/>
<stop offset="0.8995" stop-color="#ADACAC"/>
<stop offset="0.9992" stop-color="#949494"/>
</radialGradient>
</defs>
</svg>
