<svg width="30" height="30" viewBox="0 0 30 30" fill="none" xmlns="http://www.w3.org/2000/svg">
<path d="M15 30C11.0218 30 7.20644 28.4196 4.3934 25.6066C1.58035 22.7936 0 18.9782 0 15C0 11.0218 1.58035 7.20644 4.3934 4.3934C7.20644 1.58035 11.0218 0 15 0C17.9662 0.00122647 20.8655 0.881876 23.3313 2.53062C25.7971 4.17936 27.7188 6.52217 28.8533 9.26287C29.9878 12.0036 30.2843 15.0191 29.7052 17.9283C29.1261 20.8375 27.6975 23.5096 25.6 25.607C24.2115 27.0039 22.5597 28.1115 20.7401 28.8655C18.9206 29.6196 16.9696 30.0052 15 30ZM23.17 12.393L14.889 15.672L14.059 25.265L23.17 12.393ZM6.87 7.713L13.618 25.149L14.442 15.6L6.87 7.713ZM7.036 7.24L14.682 15.2L20.112 9.654L7.041 7.239L7.036 7.24ZM20.546 9.84L15.572 14.92L23.2 11.9L20.546 9.84Z" fill="#D84A41"/>
</svg>
