<svg width="118" height="29" viewBox="0 0 118 29" fill="none" xmlns="http://www.w3.org/2000/svg">
<g opacity="0.99">
<path opacity="0.99" d="M5.17 14.06C3.71666 12.8553 2.0468 11.9389 0.25 11.36L1.25 8.17C3.93146 9.02479 6.37634 10.4938 8.39 12.46C9.57662 11.7043 10.662 10.8003 11.62 9.77C8.3846 9.16929 5.43651 7.52131 3.23 5.08L5.65 2.75C6.94727 4.21055 8.58605 5.32712 10.42 6C9.75799 4.34736 9.311 2.61653 9.09 0.85L12.36 0C12.5884 2.15437 13.2266 4.24522 14.24 6.16C15.2511 4.26996 15.8862 2.20179 16.11 0.07C17.1755 0.202976 18.2202 0.468359 19.22 0.86C19.2668 0.898166 19.3032 0.947474 19.3259 1.00339C19.3486 1.05931 19.3569 1.12004 19.35 1.18C19.1415 2.67933 18.7589 4.14925 18.21 5.56C18.1852 5.69547 18.1415 5.82676 18.08 5.95C19.9027 5.29641 21.5324 4.19619 22.82 2.75L25.26 5.08C23.0416 7.52523 20.0785 9.17025 16.83 9.76C17.7772 10.8006 18.8602 11.7087 20.05 12.46C22.0651 10.4934 24.5093 9.02139 27.19 8.16L28.19 11.36C26.3936 11.9398 24.7239 12.8561 23.27 14.06C24.922 14.6548 26.6555 14.9921 28.41 15.06C28.32 15.65 28.26 16.22 28.16 16.78C28.06 17.34 27.95 17.68 27.86 18.13C27.81 18.35 27.71 18.4 27.49 18.38C25.0666 18.197 22.6956 17.5806 20.49 16.56C18.188 15.4834 16.1087 13.984 14.36 12.14C14.3133 12.079 14.2699 12.0156 14.23 11.95C13.52 12.6 12.87 13.25 12.17 13.83C8.99938 16.4738 5.08565 18.0673 0.97 18.39C0.8 18.39 0.68 18.39 0.64 18.19C0.44 17.19 0.22 16.19 0 15.08C1.7657 15.0093 3.50976 14.6652 5.17 14.06Z" fill="white"/>
<path opacity="0.99" d="M15.9708 28.3502H12.5708V24.0002C12.5842 23.6935 12.4805 23.3932 12.2808 23.1602C10.8308 21.2802 9.39078 19.3902 7.97078 17.5102L7.80078 17.2802L10.8008 15.6602L14.2808 20.1902L17.7608 15.6602L20.7608 17.2802L18.4008 20.3602C17.6508 21.3602 16.8908 22.3602 16.1508 23.3602C16.0452 23.5179 15.9832 23.7007 15.9708 23.8902V28.3502Z" fill="white"/>
<path opacity="0.99" d="M66.1895 18.5V8.38004H66.2495C67.6895 8.38004 69.1294 8.32003 70.5594 8.45003C71.7636 8.55108 72.8877 9.0944 73.7149 9.97521C74.5422 10.856 75.014 12.0119 75.0395 13.22C75.1041 14.4538 74.7097 15.6678 73.9324 16.628C73.155 17.5881 72.0496 18.2265 70.8295 18.42C70.1667 18.5096 69.4982 18.5497 68.8295 18.54C67.9695 18.52 67.0895 18.5 66.1895 18.5ZM68.4395 10.32V16.48H69.7394C70.4894 16.5158 71.2234 16.2563 71.7843 15.7572C72.3451 15.258 72.688 14.559 72.7394 13.81C72.8705 13.0679 72.7095 12.3038 72.2902 11.6775C71.8708 11.0513 71.2256 10.6115 70.4894 10.45C69.8095 10.364 69.1248 10.3205 68.4395 10.32Z" fill="white"/>
<path opacity="0.99" d="M76.4902 8.33022H80.3802C80.7978 8.32002 81.2156 8.34007 81.6302 8.39022C82.1756 8.43875 82.7004 8.62139 83.1581 8.92187C83.6157 9.22234 83.9919 9.63133 84.2533 10.1124C84.5146 10.5935 84.6529 11.1317 84.6558 11.6792C84.6588 12.2266 84.5263 12.7663 84.2702 13.2502C83.8928 14.0104 83.2321 14.5921 82.4302 14.8702L83.6502 16.6702L84.9002 18.5002H82.4102C82.3202 18.5002 82.2102 18.3902 82.1502 18.3002C81.5902 17.4602 81.0202 16.6202 80.4702 15.7802C80.2502 15.4502 80.0802 15.0802 79.5502 15.2902V13.2902H80.4902C80.7762 13.2779 81.0606 13.2411 81.3402 13.1802C81.6486 13.1047 81.9195 12.9206 82.1031 12.6617C82.2868 12.4027 82.371 12.0862 82.3402 11.7702C82.3533 11.4529 82.2479 11.1422 82.0446 10.8982C81.8414 10.6543 81.5547 10.4946 81.2402 10.4502C80.8694 10.3969 80.4948 10.3735 80.1202 10.3802H78.7202V18.5102H76.4902V8.33022Z" fill="white"/>
<path opacity="0.99" d="M64.0496 9.56018L62.6596 11.2402C62.4196 11.0702 62.2096 10.9102 61.9896 10.7702C61.3621 10.3276 60.5931 10.1328 59.8307 10.2233C59.0682 10.3137 58.3661 10.6831 57.8596 11.2602C57.3502 11.8821 57.0719 12.6613 57.0719 13.4652C57.0719 14.2691 57.3502 15.0482 57.8596 15.6702C58.408 16.2086 59.1221 16.546 59.8863 16.6277C60.6505 16.7094 61.4198 16.5306 62.0696 16.1202C62.1391 16.0574 62.185 15.9727 62.1996 15.8802V14.9602H61.1996V13.2202H64.3696C64.3738 13.3001 64.3738 13.3802 64.3696 13.4602V16.8202C64.3644 16.9543 64.3111 17.082 64.2196 17.1802C63.3829 17.8971 62.372 18.3809 61.2889 18.5828C60.2057 18.7846 59.0884 18.6975 58.0496 18.3302C56.9817 17.944 56.0771 17.2058 55.4846 16.2371C54.8921 15.2683 54.647 14.1268 54.7896 13.0002C54.841 12.2799 55.0406 11.5781 55.376 10.9387C55.7114 10.2992 56.1754 9.73603 56.7388 9.28439C57.3022 8.83274 57.9528 8.50241 58.6499 8.31412C59.347 8.12582 60.0754 8.08363 60.7896 8.19018C61.8843 8.27803 62.9284 8.68869 63.7896 9.37018C63.8811 9.4266 63.9681 9.49013 64.0496 9.56018Z" fill="white"/>
<path opacity="0.99" d="M51.531 11.25C51.0041 10.7557 50.3553 10.4106 49.651 10.25C49.1726 10.1329 48.6728 10.1353 48.1956 10.2571C47.7184 10.379 47.2785 10.6164 46.9148 10.9485C46.5511 11.2805 46.2748 11.697 46.1101 12.1612C45.9455 12.6254 45.8977 13.1229 45.971 13.61C45.9666 14.2625 46.1751 14.8986 46.5649 15.422C46.9547 15.9453 47.5045 16.3273 48.131 16.51C49.0585 16.7683 50.0505 16.6497 50.891 16.18C50.9679 16.1499 51.033 16.0956 51.0763 16.0252C51.1196 15.9548 51.1388 15.8722 51.131 15.79V14.96H50.131V13.23H53.311V16.83C53.3156 16.9544 53.2727 17.076 53.191 17.17C52.3179 17.9237 51.2535 18.4216 50.1153 18.6087C48.9771 18.7957 47.8094 18.6647 46.741 18.23C45.725 17.8167 44.8732 17.0808 44.3166 16.1358C43.76 15.1907 43.5297 14.0889 43.661 13C43.7126 12.2791 43.9122 11.5766 44.2474 10.9362C44.5826 10.2959 45.0462 9.73157 45.6092 9.27837C46.1721 8.82516 46.8225 8.49284 47.5196 8.30214C48.2167 8.11143 48.9457 8.06644 49.661 8.16996C50.8878 8.2538 52.0521 8.74273 52.971 9.55996L51.531 11.25Z" fill="white"/>
<path opacity="0.99" d="M96.8008 16.9202L98.0708 15.3902C98.4408 15.6302 98.7708 15.8802 99.1408 16.0802C99.8905 16.5226 100.771 16.6889 101.631 16.5502C101.795 16.5226 101.954 16.4686 102.101 16.3902C102.24 16.3218 102.357 16.2157 102.439 16.084C102.521 15.9523 102.565 15.8003 102.565 15.6452C102.565 15.49 102.521 15.338 102.439 15.2063C102.357 15.0746 102.24 14.9686 102.101 14.9002C101.76 14.7201 101.401 14.576 101.031 14.4702C100.541 14.3202 100.031 14.2002 99.5408 14.0502C99.277 13.9694 99.0197 13.8691 98.7708 13.7502C98.1818 13.5344 97.693 13.1092 97.3978 12.5557C97.1027 12.0023 97.0218 11.3595 97.1708 10.7502C97.212 10.2042 97.4189 9.68378 97.7638 9.2585C98.1087 8.83321 98.5751 8.5233 99.1008 8.37016C100.006 8.07297 100.972 8.0088 101.909 8.18358C102.846 8.35836 103.723 8.76646 104.461 9.37016L103.301 11.0702C103.031 10.9102 102.781 10.7502 102.521 10.6102C101.897 10.2361 101.177 10.0552 100.451 10.0902H100.151C99.6708 10.2102 99.4008 10.4702 99.3608 10.8602C99.3277 11.0662 99.3745 11.2772 99.4915 11.45C99.6086 11.6228 99.7871 11.7444 99.9908 11.7902C100.531 12.0002 101.101 12.1302 101.661 12.3202C102.221 12.5102 102.661 12.6602 103.211 12.8902C105.421 13.8902 105.041 16.8902 103.511 17.8902C102.608 18.4273 101.554 18.6522 100.511 18.5302C99.2139 18.443 97.9765 17.9536 96.9708 17.1302L96.8308 17.0002C96.8308 17.0002 96.8208 17.0002 96.8008 16.9202Z" fill="white"/>
<path opacity="0.99" d="M89.6791 16.2199C89.9391 15.5799 90.1691 14.9799 90.4291 14.3799C90.4291 14.3099 90.5991 14.2699 90.6991 14.2699H92.2491L90.9691 10.9999C90.8991 11.1699 90.8391 11.2799 90.7991 11.3899C89.8291 13.6799 88.8991 15.9999 87.9691 18.2499C87.9475 18.3437 87.8911 18.4258 87.8112 18.4797C87.7314 18.5335 87.6341 18.555 87.5391 18.5399H85.5391C85.5891 18.4199 85.6091 18.3299 85.6491 18.2499C87.0224 15.0232 88.3891 11.7932 89.7491 8.55991C89.7726 8.47257 89.8273 8.39687 89.9028 8.34712C89.9784 8.29737 90.0695 8.27702 90.1591 8.28991H91.7091C91.7655 8.29557 91.8199 8.31378 91.8683 8.34319C91.9168 8.37261 91.958 8.41249 91.9891 8.45991C93.3991 11.7599 94.7891 15.0599 96.1891 18.3599C96.193 18.4065 96.193 18.4533 96.1891 18.4999H94.2391C94.1628 18.51 94.0855 18.4924 94.0212 18.4501C93.9569 18.4079 93.91 18.3439 93.8891 18.2699C93.6691 17.6799 93.4091 17.1199 93.1991 16.5299C93.1727 16.4173 93.104 16.3191 93.0072 16.2558C92.9103 16.1925 92.7928 16.1689 92.6791 16.1899H89.9991L89.6791 16.2199Z" fill="white"/>
<path opacity="0.99" d="M43.8797 8.33008C43.7997 8.47008 43.7597 8.56008 43.6997 8.65008C42.5197 10.7601 41.3197 12.8601 40.1397 14.9701C40.0583 15.1357 40.0107 15.3159 39.9997 15.5001V18.4801H37.7797C37.7743 18.3768 37.7743 18.2733 37.7797 18.1701V15.5201C37.7755 15.3456 37.7311 15.1745 37.6497 15.0201C36.4697 12.8901 35.2697 10.7701 34.0797 8.64008C34.0797 8.56008 33.9897 8.47008 33.9297 8.35008H36.2497C36.3312 8.33799 36.4144 8.35423 36.4854 8.39609C36.5564 8.43795 36.6108 8.5029 36.6397 8.58008C37.3397 9.91341 38.0464 11.2467 38.7597 12.5801L38.9197 12.8601L39.0897 12.5801C39.8097 11.2501 40.5397 9.92008 41.2497 8.58008C41.2804 8.5021 41.3368 8.43688 41.4094 8.39509C41.4821 8.3533 41.5668 8.33743 41.6497 8.35008L43.8797 8.33008Z" fill="white"/>
<path opacity="0.99" d="M110.57 8.33984H112.77V16.4598H117.5V18.4598H110.57V8.33984Z" fill="white"/>
<path opacity="0.99" d="M106.48 8.3501H108.69V18.4801H106.48V8.3501Z" fill="white"/>
</g>
</svg>
