<svg width="30" height="30" viewBox="0 0 30 30" fill="none" xmlns="http://www.w3.org/2000/svg">
<path d="M14.9998 30.0001C12.0333 29.9997 9.13357 29.1196 6.66721 27.4713C4.20085 25.823 2.2786 23.4804 1.14351 20.7397C0.00841665 17.999 -0.288547 14.9833 0.290164 12.0738C0.868874 9.16435 2.29727 6.49181 4.39476 4.39409C5.96029 2.82979 7.85257 1.6313 9.9359 0.884557C12.0192 0.137812 14.242 -0.138682 16.4448 0.0749019C18.6476 0.288486 20.7758 0.986857 22.6769 2.11993C24.5779 3.25301 26.2047 4.79271 27.4406 6.62863C28.6764 8.46454 29.4907 10.5512 29.825 12.7389C30.1593 14.9266 30.0054 17.1612 29.3743 19.2824C28.7432 21.4037 27.6505 23.359 26.1746 25.0081C24.6987 26.6572 22.8762 27.9594 20.8378 28.8211C18.9909 29.6027 17.0052 30.0037 14.9998 30.0001ZM12.9668 23.4241V25.8351H17.3188V23.4241H21.4358V19.4001H13.9118L21.4348 10.7421V6.76709H17.2708V4.16709H13.0128V6.76709H8.99176V10.9791L16.0918 10.7911L8.56576 19.5001V23.4281L12.9668 23.4241Z" fill="#DD9D38"/>
</svg>
